%TF.GenerationSoftware,KiCad,Pcbnew,8.0.5*%
%TF.CreationDate,2024-10-22T20:51:34-04:00*%
%TF.ProjectId,trad,74726164-2e6b-4696-9361-645f70636258,rev?*%
%TF.SameCoordinates,PX1c62fe0PY650e7e0*%
%TF.FileFunction,Drillmap*%
%TF.FilePolarity,Positive*%
%FSLAX45Y45*%
G04 Gerber Fmt 4.5, Leading zero omitted, Abs format (unit mm)*
G04 Created by KiCad (PCBNEW 8.0.5) date 2024-10-22 20:51:34*
%MOMM*%
%LPD*%
G01*
G04 APERTURE LIST*
%ADD10C,0.100000*%
%ADD11C,0.200000*%
%ADD12C,0.150000*%
G04 APERTURE END LIST*
D10*
X0Y297656D02*
X0Y7322337D01*
X19049984Y297656D02*
G75*
G02*
X18752328Y0I-297654J-2D01*
G01*
X18752328Y0D02*
X297656Y0D01*
X18752328Y7619993D02*
G75*
G02*
X19049980Y7322338I2J-297650D01*
G01*
X0Y7322337D02*
G75*
G02*
X297656Y7619994I297656J0D01*
G01*
X297656Y0D02*
G75*
G02*
X0Y297656I0J297656D01*
G01*
X19049984Y7322338D02*
X19049984Y297656D01*
X297656Y7619993D02*
X18752328Y7619993D01*
D11*
D10*
X9586964Y907968D02*
X9616964Y877968D01*
X9616964Y907968D02*
X9586964Y877968D01*
X9777882Y1098887D02*
X9807882Y1068887D01*
X9807882Y1098887D02*
X9777882Y1068887D01*
X9777882Y717049D02*
X9807882Y687049D01*
X9807882Y717049D02*
X9777882Y687049D01*
X9968801Y907968D02*
X9998801Y877968D01*
X9998801Y907968D02*
X9968801Y877968D01*
X228359Y5714995D02*
G75*
G02*
X188359Y5714995I-20000J0D01*
G01*
X188359Y5714995D02*
G75*
G02*
X228359Y5714995I20000J0D01*
G01*
X645078Y3542106D02*
G75*
G02*
X605078Y3542106I-20000J0D01*
G01*
X605078Y3542106D02*
G75*
G02*
X645078Y3542106I20000J0D01*
G01*
X942734Y3988590D02*
G75*
G02*
X902734Y3988590I-20000J0D01*
G01*
X902734Y3988590D02*
G75*
G02*
X942734Y3988590I20000J0D01*
G01*
X1165976Y4211832D02*
G75*
G02*
X1125976Y4211832I-20000J0D01*
G01*
X1125976Y4211832D02*
G75*
G02*
X1165976Y4211832I20000J0D01*
G01*
X2974732Y3333747D02*
G75*
G02*
X2934732Y3333747I-20000J0D01*
G01*
X2934732Y3333747D02*
G75*
G02*
X2974732Y3333747I20000J0D01*
G01*
X7312572Y3929059D02*
G75*
G02*
X7272572Y3929059I-20000J0D01*
G01*
X7272572Y3929059D02*
G75*
G02*
X7312572Y3929059I20000J0D01*
G01*
X7431634Y3929059D02*
G75*
G02*
X7391634Y3929059I-20000J0D01*
G01*
X7391634Y3929059D02*
G75*
G02*
X7431634Y3929059I20000J0D01*
G01*
X7937650Y863202D02*
G75*
G02*
X7897650Y863202I-20000J0D01*
G01*
X7897650Y863202D02*
G75*
G02*
X7937650Y863202I20000J0D01*
G01*
X8919914Y1160858D02*
G75*
G02*
X8879914Y1160858I-20000J0D01*
G01*
X8879914Y1160858D02*
G75*
G02*
X8919914Y1160858I20000J0D01*
G01*
X9038977Y1160858D02*
G75*
G02*
X8998977Y1160858I-20000J0D01*
G01*
X8998977Y1160858D02*
G75*
G02*
X9038977Y1160858I20000J0D01*
G01*
X9187805Y2603201D02*
G75*
G02*
X9147805Y2603201I-20000J0D01*
G01*
X9147805Y2603201D02*
G75*
G02*
X9187805Y2603201I20000J0D01*
G01*
X9455695Y2083592D02*
G75*
G02*
X9415695Y2083592I-20000J0D01*
G01*
X9415695Y2083592D02*
G75*
G02*
X9455695Y2083592I20000J0D01*
G01*
X9455695Y1756170D02*
G75*
G02*
X9415695Y1756170I-20000J0D01*
G01*
X9415695Y1756170D02*
G75*
G02*
X9455695Y1756170I20000J0D01*
G01*
X9544992Y1845467D02*
G75*
G02*
X9504992Y1845467I-20000J0D01*
G01*
X9504992Y1845467D02*
G75*
G02*
X9544992Y1845467I20000J0D01*
G01*
X9634289Y1934764D02*
G75*
G02*
X9594289Y1934764I-20000J0D01*
G01*
X9594289Y1934764D02*
G75*
G02*
X9634289Y1934764I20000J0D01*
G01*
X9753351Y2603201D02*
G75*
G02*
X9713351Y2603201I-20000J0D01*
G01*
X9713351Y2603201D02*
G75*
G02*
X9753351Y2603201I20000J0D01*
G01*
X10114982Y506015D02*
G75*
G02*
X10074982Y506015I-20000J0D01*
G01*
X10074982Y506015D02*
G75*
G02*
X10114982Y506015I20000J0D01*
G01*
X10259366Y2113358D02*
G75*
G02*
X10219366Y2113358I-20000J0D01*
G01*
X10219366Y2113358D02*
G75*
G02*
X10259366Y2113358I20000J0D01*
G01*
X10943975Y1428749D02*
G75*
G02*
X10903975Y1428749I-20000J0D01*
G01*
X10903975Y1428749D02*
G75*
G02*
X10943975Y1428749I20000J0D01*
G01*
X11509522Y1875233D02*
G75*
G02*
X11469522Y1875233I-20000J0D01*
G01*
X11469522Y1875233D02*
G75*
G02*
X11509522Y1875233I20000J0D01*
G01*
X11628584Y1875233D02*
G75*
G02*
X11588584Y1875233I-20000J0D01*
G01*
X11588584Y1875233D02*
G75*
G02*
X11628584Y1875233I20000J0D01*
G01*
X11747646Y863202D02*
G75*
G02*
X11707646Y863202I-20000J0D01*
G01*
X11707646Y863202D02*
G75*
G02*
X11747646Y863202I20000J0D01*
G01*
X178594Y3414997D02*
X178594Y3314997D01*
X128594Y3364997D02*
X228594Y3364997D01*
X178594Y3160997D02*
X178594Y3060997D01*
X128594Y3110997D02*
X228594Y3110997D01*
X178594Y2906998D02*
X178594Y2806998D01*
X128594Y2856998D02*
X228594Y2856998D01*
X178594Y2652998D02*
X178594Y2552998D01*
X128594Y2602998D02*
X228594Y2602998D01*
X178594Y2398998D02*
X178594Y2298998D01*
X128594Y2348998D02*
X228594Y2348998D01*
D12*
X624533Y6868461D02*
X624533Y6974528D01*
X518466Y6974528D01*
X518466Y6868461D01*
X624533Y6868461D01*
X624533Y1153466D02*
X624533Y1259533D01*
X518466Y1259533D01*
X518466Y1153466D01*
X624533Y1153466D01*
X755533Y7014461D02*
X755533Y7120528D01*
X649466Y7120528D01*
X649466Y7014461D01*
X755533Y7014461D01*
X755533Y1299466D02*
X755533Y1405533D01*
X649466Y1405533D01*
X649466Y1299466D01*
X755533Y1299466D01*
X862657Y4963462D02*
X862657Y5069529D01*
X756590Y5069529D01*
X756590Y4963462D01*
X862657Y4963462D01*
X993657Y5109462D02*
X993657Y5215529D01*
X887590Y5215529D01*
X887590Y5109462D01*
X993657Y5109462D01*
X1257533Y7093461D02*
X1257533Y7199528D01*
X1151466Y7199528D01*
X1151466Y7093461D01*
X1257533Y7093461D01*
D10*
X1277289Y7112265D02*
X1281344Y7170260D01*
X1131710Y7180724D02*
G75*
G02*
X1281344Y7170260I74817J-5232D01*
G01*
X1131710Y7180724D02*
X1127654Y7122728D01*
X1127654Y7122728D02*
G75*
G03*
X1277289Y7112265I74817J-5232D01*
G01*
D12*
X1257533Y1378466D02*
X1257533Y1484533D01*
X1151466Y1484533D01*
X1151466Y1378466D01*
X1257533Y1378466D01*
D10*
X1277289Y1397270D02*
X1281344Y1455265D01*
X1131710Y1465729D02*
G75*
G02*
X1281344Y1455265I74817J-5232D01*
G01*
X1131710Y1465729D02*
X1127654Y1407733D01*
X1127654Y1407733D02*
G75*
G03*
X1277289Y1397270I74817J-5232D01*
G01*
D12*
X1338907Y3058464D02*
X1338907Y3164531D01*
X1232840Y3164531D01*
X1232840Y3058464D01*
X1338907Y3058464D01*
X1469907Y3204464D02*
X1469907Y3310531D01*
X1363840Y3310531D01*
X1363840Y3204464D01*
X1469907Y3204464D01*
X1495657Y5188462D02*
X1495657Y5294529D01*
X1389591Y5294529D01*
X1389591Y5188462D01*
X1495657Y5188462D01*
D10*
X1515414Y5207267D02*
X1519469Y5265262D01*
X1369834Y5275725D02*
G75*
G02*
X1519469Y5265262I74817J-5232D01*
G01*
X1369834Y5275725D02*
X1365779Y5217730D01*
X1365779Y5217730D02*
G75*
G03*
X1515414Y5207267I74817J-5232D01*
G01*
D12*
X1971907Y3283464D02*
X1971907Y3389531D01*
X1865840Y3389531D01*
X1865840Y3283464D01*
X1971907Y3283464D01*
D10*
X1991663Y3302268D02*
X1995719Y3360264D01*
X1846084Y3370727D02*
G75*
G02*
X1995719Y3360264I74817J-5232D01*
G01*
X1846084Y3370727D02*
X1842029Y3312732D01*
X1842029Y3312732D02*
G75*
G03*
X1991663Y3302268I74817J-5232D01*
G01*
D12*
X2529531Y6868461D02*
X2529531Y6974528D01*
X2423464Y6974528D01*
X2423464Y6868461D01*
X2529531Y6868461D01*
X2529531Y1153466D02*
X2529531Y1259533D01*
X2423464Y1259533D01*
X2423464Y1153466D01*
X2529531Y1153466D01*
X2660531Y7014461D02*
X2660531Y7120528D01*
X2554464Y7120528D01*
X2554464Y7014461D01*
X2660531Y7014461D01*
X2660531Y1299466D02*
X2660531Y1405533D01*
X2554464Y1405533D01*
X2554464Y1299466D01*
X2660531Y1299466D01*
X3005781Y4963462D02*
X3005781Y5069529D01*
X2899714Y5069529D01*
X2899714Y4963462D01*
X3005781Y4963462D01*
X3136781Y5109462D02*
X3136781Y5215529D01*
X3030714Y5215529D01*
X3030714Y5109462D01*
X3136781Y5109462D01*
X3162531Y7093461D02*
X3162531Y7199528D01*
X3056464Y7199528D01*
X3056464Y7093461D01*
X3162531Y7093461D01*
D10*
X3182287Y7112265D02*
X3186343Y7170260D01*
X3036708Y7180724D02*
G75*
G02*
X3186343Y7170260I74817J-5232D01*
G01*
X3036708Y7180724D02*
X3032653Y7122728D01*
X3032653Y7122728D02*
G75*
G03*
X3182287Y7112265I74817J-5232D01*
G01*
D12*
X3162531Y1378466D02*
X3162531Y1484533D01*
X3056464Y1484533D01*
X3056464Y1378466D01*
X3162531Y1378466D01*
D10*
X3182287Y1397270D02*
X3186343Y1455265D01*
X3036708Y1465729D02*
G75*
G02*
X3186343Y1455265I74817J-5232D01*
G01*
X3036708Y1465729D02*
X3032653Y1407733D01*
X3032653Y1407733D02*
G75*
G03*
X3182287Y1397270I74817J-5232D01*
G01*
D12*
X3638781Y5188462D02*
X3638781Y5294529D01*
X3532714Y5294529D01*
X3532714Y5188462D01*
X3638781Y5188462D01*
D10*
X3658537Y5207267D02*
X3662592Y5265262D01*
X3512958Y5275725D02*
G75*
G02*
X3662592Y5265262I74817J-5232D01*
G01*
X3512958Y5275725D02*
X3508902Y5217730D01*
X3508902Y5217730D02*
G75*
G03*
X3658537Y5207267I74817J-5232D01*
G01*
D12*
X3958280Y3058464D02*
X3958280Y3164531D01*
X3852213Y3164531D01*
X3852213Y3058464D01*
X3958280Y3058464D01*
X4089280Y3204464D02*
X4089280Y3310531D01*
X3983213Y3310531D01*
X3983213Y3204464D01*
X4089280Y3204464D01*
X4434529Y6868461D02*
X4434529Y6974528D01*
X4328462Y6974528D01*
X4328462Y6868461D01*
X4434529Y6868461D01*
X4434530Y1153466D02*
X4434530Y1259533D01*
X4328463Y1259533D01*
X4328463Y1153466D01*
X4434530Y1153466D01*
X4565529Y7014461D02*
X4565529Y7120528D01*
X4459462Y7120528D01*
X4459462Y7014461D01*
X4565529Y7014461D01*
X4565530Y1299466D02*
X4565530Y1405533D01*
X4459463Y1405533D01*
X4459463Y1299466D01*
X4565530Y1299466D01*
X4591280Y3283464D02*
X4591280Y3389531D01*
X4485213Y3389531D01*
X4485213Y3283464D01*
X4591280Y3283464D01*
D10*
X4611036Y3302268D02*
X4615092Y3360264D01*
X4465457Y3370727D02*
G75*
G02*
X4615092Y3360264I74817J-5232D01*
G01*
X4465457Y3370727D02*
X4461402Y3312732D01*
X4461402Y3312732D02*
G75*
G03*
X4611036Y3302268I74817J-5232D01*
G01*
D12*
X4910779Y4963462D02*
X4910779Y5069529D01*
X4804712Y5069529D01*
X4804712Y4963462D01*
X4910779Y4963462D01*
X5041779Y5109462D02*
X5041779Y5215529D01*
X4935712Y5215529D01*
X4935712Y5109462D01*
X5041779Y5109462D01*
X5067530Y7093461D02*
X5067530Y7199528D01*
X4961463Y7199528D01*
X4961463Y7093461D01*
X5067530Y7093461D01*
D10*
X5087286Y7112265D02*
X5091341Y7170260D01*
X4941706Y7180724D02*
G75*
G02*
X5091341Y7170260I74817J-5232D01*
G01*
X4941706Y7180724D02*
X4937651Y7122728D01*
X4937651Y7122728D02*
G75*
G03*
X5087286Y7112265I74817J-5232D01*
G01*
D12*
X5067530Y1378466D02*
X5067530Y1484533D01*
X4961463Y1484533D01*
X4961463Y1378466D01*
X5067530Y1378466D01*
D10*
X5087286Y1397270D02*
X5091341Y1455265D01*
X4941707Y1465729D02*
G75*
G02*
X5091341Y1455265I74817J-5232D01*
G01*
X4941707Y1465729D02*
X4937651Y1407733D01*
X4937651Y1407733D02*
G75*
G03*
X5087286Y1397270I74817J-5232D01*
G01*
D12*
X5543779Y5188462D02*
X5543779Y5294529D01*
X5437712Y5294529D01*
X5437712Y5188462D01*
X5543779Y5188462D01*
D10*
X5563535Y5207267D02*
X5567591Y5265262D01*
X5417956Y5275725D02*
G75*
G02*
X5567591Y5265262I74817J-5232D01*
G01*
X5417956Y5275725D02*
X5413901Y5217730D01*
X5413901Y5217730D02*
G75*
G03*
X5563535Y5207267I74817J-5232D01*
G01*
D12*
X5863278Y3058464D02*
X5863278Y3164531D01*
X5757211Y3164531D01*
X5757211Y3058464D01*
X5863278Y3058464D01*
X5994278Y3204464D02*
X5994278Y3310531D01*
X5888211Y3310531D01*
X5888211Y3204464D01*
X5994278Y3204464D01*
X6339528Y6868461D02*
X6339528Y6974528D01*
X6233461Y6974528D01*
X6233461Y6868461D01*
X6339528Y6868461D01*
X6470528Y7014461D02*
X6470528Y7120528D01*
X6364461Y7120528D01*
X6364461Y7014461D01*
X6470528Y7014461D01*
X6496278Y3283464D02*
X6496278Y3389531D01*
X6390211Y3389531D01*
X6390211Y3283464D01*
X6496278Y3283464D01*
D10*
X6516034Y3302268D02*
X6520090Y3360263D01*
X6370455Y3370727D02*
G75*
G02*
X6520090Y3360263I74817J-5232D01*
G01*
X6370455Y3370727D02*
X6366400Y3312731D01*
X6366400Y3312731D02*
G75*
G03*
X6516034Y3302268I74817J-5232D01*
G01*
D12*
X6815777Y4963463D02*
X6815777Y5069530D01*
X6709710Y5069530D01*
X6709710Y4963463D01*
X6815777Y4963463D01*
X6946777Y5109463D02*
X6946777Y5215530D01*
X6840710Y5215530D01*
X6840710Y5109463D01*
X6946777Y5109463D01*
X6972528Y7093461D02*
X6972528Y7199528D01*
X6866461Y7199528D01*
X6866461Y7093461D01*
X6972528Y7093461D01*
D10*
X6992284Y7112265D02*
X6996339Y7170260D01*
X6846705Y7180724D02*
G75*
G02*
X6996339Y7170260I74817J-5232D01*
G01*
X6846705Y7180724D02*
X6842649Y7122728D01*
X6842649Y7122728D02*
G75*
G03*
X6992284Y7112265I74817J-5232D01*
G01*
D12*
X7292027Y1153466D02*
X7292027Y1259533D01*
X7185960Y1259533D01*
X7185960Y1153466D01*
X7292027Y1153466D01*
X7423027Y1299466D02*
X7423027Y1405533D01*
X7316960Y1405533D01*
X7316960Y1299466D01*
X7423027Y1299466D01*
X7448778Y5188463D02*
X7448778Y5294530D01*
X7342711Y5294530D01*
X7342711Y5188463D01*
X7448778Y5188463D01*
D10*
X7468534Y5207267D02*
X7472589Y5265262D01*
X7322954Y5275725D02*
G75*
G02*
X7472589Y5265262I74817J-5232D01*
G01*
X7322954Y5275725D02*
X7318899Y5217730D01*
X7318899Y5217730D02*
G75*
G03*
X7468534Y5207267I74817J-5232D01*
G01*
D12*
X7768277Y3058464D02*
X7768277Y3164531D01*
X7662210Y3164531D01*
X7662210Y3058464D01*
X7768277Y3058464D01*
X7899277Y3204464D02*
X7899277Y3310531D01*
X7793210Y3310531D01*
X7793210Y3204464D01*
X7899277Y3204464D01*
X7925027Y1378466D02*
X7925027Y1484533D01*
X7818960Y1484533D01*
X7818960Y1378466D01*
X7925027Y1378466D01*
D10*
X7944783Y1397270D02*
X7948839Y1455265D01*
X7799204Y1465729D02*
G75*
G02*
X7948839Y1455265I74817J-5232D01*
G01*
X7799204Y1465729D02*
X7795149Y1407733D01*
X7795149Y1407733D02*
G75*
G03*
X7944783Y1397270I74817J-5232D01*
G01*
D12*
X8244526Y6868461D02*
X8244526Y6974528D01*
X8138459Y6974528D01*
X8138459Y6868461D01*
X8244526Y6868461D01*
X8375526Y7014461D02*
X8375526Y7120528D01*
X8269459Y7120528D01*
X8269459Y7014461D01*
X8375526Y7014461D01*
X8401277Y3283464D02*
X8401277Y3389531D01*
X8295210Y3389531D01*
X8295210Y3283464D01*
X8401277Y3283464D01*
D10*
X8421033Y3302268D02*
X8425088Y3360263D01*
X8275454Y3370727D02*
G75*
G02*
X8425088Y3360263I74817J-5232D01*
G01*
X8275454Y3370727D02*
X8271398Y3312731D01*
X8271398Y3312731D02*
G75*
G03*
X8421033Y3302268I74817J-5232D01*
G01*
D12*
X8720776Y4963463D02*
X8720776Y5069530D01*
X8614709Y5069530D01*
X8614709Y4963463D01*
X8720776Y4963463D01*
X8851776Y5109463D02*
X8851776Y5215530D01*
X8745709Y5215530D01*
X8745709Y5109463D01*
X8851776Y5109463D01*
X8877526Y7093461D02*
X8877526Y7199528D01*
X8771459Y7199528D01*
X8771459Y7093461D01*
X8877526Y7093461D01*
D10*
X8897283Y7112265D02*
X8901338Y7170260D01*
X8751703Y7180724D02*
G75*
G02*
X8901338Y7170260I74817J-5232D01*
G01*
X8751703Y7180724D02*
X8747648Y7122728D01*
X8747648Y7122728D02*
G75*
G03*
X8897283Y7112265I74817J-5232D01*
G01*
D12*
X9353776Y5188463D02*
X9353776Y5294530D01*
X9247709Y5294530D01*
X9247709Y5188463D01*
X9353776Y5188463D01*
D10*
X9373532Y5207267D02*
X9377588Y5265262D01*
X9227953Y5275725D02*
G75*
G02*
X9377588Y5265262I74817J-5232D01*
G01*
X9227953Y5275725D02*
X9223898Y5217730D01*
X9223898Y5217730D02*
G75*
G03*
X9373532Y5207267I74817J-5232D01*
G01*
D12*
X9673275Y3058464D02*
X9673275Y3164531D01*
X9567208Y3164531D01*
X9567208Y3058464D01*
X9673275Y3058464D01*
X9804275Y3204464D02*
X9804275Y3310531D01*
X9698208Y3310531D01*
X9698208Y3204464D01*
X9804275Y3204464D01*
X10149525Y6868461D02*
X10149525Y6974528D01*
X10043458Y6974528D01*
X10043458Y6868461D01*
X10149525Y6868461D01*
X10280525Y7014461D02*
X10280525Y7120528D01*
X10174458Y7120528D01*
X10174458Y7014461D01*
X10280525Y7014461D01*
X10306275Y3283464D02*
X10306275Y3389531D01*
X10200208Y3389531D01*
X10200208Y3283464D01*
X10306275Y3283464D01*
D10*
X10326031Y3302268D02*
X10330087Y3360263D01*
X10180452Y3370727D02*
G75*
G02*
X10330087Y3360263I74817J-5232D01*
G01*
X10180452Y3370727D02*
X10176397Y3312731D01*
X10176397Y3312731D02*
G75*
G03*
X10326031Y3302268I74817J-5232D01*
G01*
D12*
X10625774Y4963462D02*
X10625774Y5069529D01*
X10519707Y5069529D01*
X10519707Y4963462D01*
X10625774Y4963462D01*
X10756774Y5109462D02*
X10756774Y5215529D01*
X10650707Y5215529D01*
X10650707Y5109462D01*
X10756774Y5109462D01*
X10782525Y7093461D02*
X10782525Y7199528D01*
X10676458Y7199528D01*
X10676458Y7093461D01*
X10782525Y7093461D01*
D10*
X10802281Y7112265D02*
X10806336Y7170260D01*
X10656702Y7180724D02*
G75*
G02*
X10806336Y7170260I74817J-5232D01*
G01*
X10656702Y7180724D02*
X10652646Y7122728D01*
X10652646Y7122728D02*
G75*
G03*
X10802281Y7112265I74817J-5232D01*
G01*
D12*
X11102024Y1153466D02*
X11102024Y1259533D01*
X10995957Y1259533D01*
X10995957Y1153466D01*
X11102024Y1153466D01*
X11233024Y1299466D02*
X11233024Y1405533D01*
X11126957Y1405533D01*
X11126957Y1299466D01*
X11233024Y1299466D01*
X11258774Y5188462D02*
X11258774Y5294529D01*
X11152707Y5294529D01*
X11152707Y5188462D01*
X11258774Y5188462D01*
D10*
X11278530Y5207267D02*
X11282586Y5265262D01*
X11132951Y5275725D02*
G75*
G02*
X11282586Y5265262I74817J-5232D01*
G01*
X11132951Y5275725D02*
X11128896Y5217730D01*
X11128896Y5217730D02*
G75*
G03*
X11278530Y5207267I74817J-5232D01*
G01*
D12*
X11578273Y3058464D02*
X11578273Y3164531D01*
X11472206Y3164531D01*
X11472206Y3058464D01*
X11578273Y3058464D01*
X11709273Y3204464D02*
X11709273Y3310531D01*
X11603206Y3310531D01*
X11603206Y3204464D01*
X11709273Y3204464D01*
X11735024Y1378466D02*
X11735024Y1484533D01*
X11628957Y1484533D01*
X11628957Y1378466D01*
X11735024Y1378466D01*
D10*
X11754780Y1397270D02*
X11758835Y1455265D01*
X11609201Y1465729D02*
G75*
G02*
X11758835Y1455265I74817J-5232D01*
G01*
X11609201Y1465729D02*
X11605145Y1407733D01*
X11605145Y1407733D02*
G75*
G03*
X11754780Y1397270I74817J-5232D01*
G01*
D12*
X12054523Y6868461D02*
X12054523Y6974528D01*
X11948456Y6974528D01*
X11948456Y6868461D01*
X12054523Y6868461D01*
X12185523Y7014461D02*
X12185523Y7120528D01*
X12079456Y7120528D01*
X12079456Y7014461D01*
X12185523Y7014461D01*
X12211274Y3283464D02*
X12211274Y3389531D01*
X12105207Y3389531D01*
X12105207Y3283464D01*
X12211274Y3283464D01*
D10*
X12231030Y3302268D02*
X12235085Y3360264D01*
X12085450Y3370727D02*
G75*
G02*
X12235085Y3360264I74817J-5232D01*
G01*
X12085450Y3370727D02*
X12081395Y3312732D01*
X12081395Y3312732D02*
G75*
G03*
X12231030Y3302268I74817J-5232D01*
G01*
D12*
X12530773Y4963462D02*
X12530773Y5069529D01*
X12424706Y5069529D01*
X12424706Y4963462D01*
X12530773Y4963462D01*
X12661773Y5109462D02*
X12661773Y5215529D01*
X12555706Y5215529D01*
X12555706Y5109462D01*
X12661773Y5109462D01*
X12687523Y7093461D02*
X12687523Y7199528D01*
X12581456Y7199528D01*
X12581456Y7093461D01*
X12687523Y7093461D01*
D10*
X12707279Y7112265D02*
X12711335Y7170260D01*
X12561700Y7180724D02*
G75*
G02*
X12711335Y7170260I74817J-5232D01*
G01*
X12561700Y7180724D02*
X12557645Y7122728D01*
X12557645Y7122728D02*
G75*
G03*
X12707279Y7112265I74817J-5232D01*
G01*
D12*
X13163773Y5188462D02*
X13163773Y5294529D01*
X13057706Y5294529D01*
X13057706Y5188462D01*
X13163773Y5188462D01*
D10*
X13183529Y5207267D02*
X13187584Y5265262D01*
X13037950Y5275725D02*
G75*
G02*
X13187584Y5265262I74817J-5232D01*
G01*
X13037950Y5275725D02*
X13033894Y5217730D01*
X13033894Y5217730D02*
G75*
G03*
X13183529Y5207267I74817J-5232D01*
G01*
D12*
X13483272Y3058464D02*
X13483272Y3164531D01*
X13377205Y3164531D01*
X13377205Y3058464D01*
X13483272Y3058464D01*
X13614272Y3204464D02*
X13614272Y3310531D01*
X13508205Y3310531D01*
X13508205Y3204464D01*
X13614272Y3204464D01*
X13959521Y1153466D02*
X13959521Y1259533D01*
X13853454Y1259533D01*
X13853454Y1153466D01*
X13959521Y1153466D01*
X13959521Y6868461D02*
X13959521Y6974528D01*
X13853454Y6974528D01*
X13853454Y6868461D01*
X13959521Y6868461D01*
X14090521Y1299466D02*
X14090521Y1405533D01*
X13984454Y1405533D01*
X13984454Y1299466D01*
X14090521Y1299466D01*
X14090521Y7014461D02*
X14090521Y7120528D01*
X13984454Y7120528D01*
X13984454Y7014461D01*
X14090521Y7014461D01*
X14116272Y3283464D02*
X14116272Y3389531D01*
X14010205Y3389531D01*
X14010205Y3283464D01*
X14116272Y3283464D01*
D10*
X14136028Y3302268D02*
X14140083Y3360264D01*
X13990449Y3370727D02*
G75*
G02*
X14140083Y3360264I74817J-5232D01*
G01*
X13990449Y3370727D02*
X13986393Y3312732D01*
X13986393Y3312732D02*
G75*
G03*
X14136028Y3302268I74817J-5232D01*
G01*
D12*
X14435771Y4963462D02*
X14435771Y5069529D01*
X14329704Y5069529D01*
X14329704Y4963462D01*
X14435771Y4963462D01*
X14566771Y5109462D02*
X14566771Y5215529D01*
X14460704Y5215529D01*
X14460704Y5109462D01*
X14566771Y5109462D01*
X14592521Y1378466D02*
X14592521Y1484533D01*
X14486454Y1484533D01*
X14486454Y1378466D01*
X14592521Y1378466D01*
D10*
X14612278Y1397270D02*
X14616333Y1455265D01*
X14466698Y1465729D02*
G75*
G02*
X14616333Y1455265I74817J-5232D01*
G01*
X14466698Y1465729D02*
X14462643Y1407733D01*
X14462643Y1407733D02*
G75*
G03*
X14612278Y1397270I74817J-5232D01*
G01*
D12*
X14592522Y7093461D02*
X14592522Y7199528D01*
X14486455Y7199528D01*
X14486455Y7093461D01*
X14592522Y7093461D01*
D10*
X14612278Y7112265D02*
X14616333Y7170260D01*
X14466698Y7180724D02*
G75*
G02*
X14616333Y7170260I74817J-5232D01*
G01*
X14466698Y7180724D02*
X14462643Y7122728D01*
X14462643Y7122728D02*
G75*
G03*
X14612278Y7112265I74817J-5232D01*
G01*
D12*
X15068771Y5188462D02*
X15068771Y5294529D01*
X14962704Y5294529D01*
X14962704Y5188462D01*
X15068771Y5188462D01*
D10*
X15088527Y5207267D02*
X15092583Y5265262D01*
X14942948Y5275725D02*
G75*
G02*
X15092583Y5265262I74817J-5232D01*
G01*
X14942948Y5275725D02*
X14938893Y5217730D01*
X14938893Y5217730D02*
G75*
G03*
X15088527Y5207267I74817J-5232D01*
G01*
D12*
X15388270Y3058464D02*
X15388270Y3164531D01*
X15282203Y3164531D01*
X15282203Y3058464D01*
X15388270Y3058464D01*
X15519270Y3204464D02*
X15519270Y3310531D01*
X15413203Y3310531D01*
X15413203Y3204464D01*
X15519270Y3204464D01*
X15864520Y6868461D02*
X15864520Y6974528D01*
X15758453Y6974528D01*
X15758453Y6868461D01*
X15864520Y6868461D01*
X15864520Y1153466D02*
X15864520Y1259533D01*
X15758453Y1259533D01*
X15758453Y1153466D01*
X15864520Y1153466D01*
X15995520Y7014461D02*
X15995520Y7120528D01*
X15889453Y7120528D01*
X15889453Y7014461D01*
X15995520Y7014461D01*
X15995520Y1299466D02*
X15995520Y1405533D01*
X15889453Y1405533D01*
X15889453Y1299466D01*
X15995520Y1299466D01*
X16021270Y3283464D02*
X16021270Y3389531D01*
X15915203Y3389531D01*
X15915203Y3283464D01*
X16021270Y3283464D01*
D10*
X16041026Y3302268D02*
X16045082Y3360264D01*
X15895447Y3370727D02*
G75*
G02*
X16045082Y3360264I74817J-5232D01*
G01*
X15895447Y3370727D02*
X15891392Y3312732D01*
X15891392Y3312732D02*
G75*
G03*
X16041026Y3302268I74817J-5232D01*
G01*
D12*
X16497520Y7093461D02*
X16497520Y7199528D01*
X16391453Y7199528D01*
X16391453Y7093461D01*
X16497520Y7093461D01*
D10*
X16517276Y7112265D02*
X16521331Y7170260D01*
X16371697Y7180724D02*
G75*
G02*
X16521331Y7170260I74817J-5232D01*
G01*
X16371697Y7180724D02*
X16367641Y7122728D01*
X16367641Y7122728D02*
G75*
G03*
X16517276Y7112265I74817J-5232D01*
G01*
D12*
X16497520Y1378466D02*
X16497520Y1484533D01*
X16391453Y1484533D01*
X16391453Y1378466D01*
X16497520Y1378466D01*
D10*
X16517276Y1397270D02*
X16521331Y1455265D01*
X16371697Y1465729D02*
G75*
G02*
X16521331Y1455265I74817J-5232D01*
G01*
X16371697Y1465729D02*
X16367641Y1407733D01*
X16367641Y1407733D02*
G75*
G03*
X16517276Y1397270I74817J-5232D01*
G01*
D12*
X17055144Y4963462D02*
X17055144Y5069529D01*
X16949077Y5069529D01*
X16949077Y4963462D01*
X17055144Y4963462D01*
X17186144Y5109462D02*
X17186144Y5215529D01*
X17080077Y5215529D01*
X17080077Y5109462D01*
X17186144Y5109462D01*
X17531394Y3058464D02*
X17531394Y3164531D01*
X17425327Y3164531D01*
X17425327Y3058464D01*
X17531394Y3058464D01*
X17662394Y3204464D02*
X17662394Y3310531D01*
X17556327Y3310531D01*
X17556327Y3204464D01*
X17662394Y3204464D01*
X17688144Y5188462D02*
X17688144Y5294529D01*
X17582077Y5294529D01*
X17582077Y5188462D01*
X17688144Y5188462D01*
D10*
X17707900Y5207267D02*
X17711956Y5265262D01*
X17562321Y5275725D02*
G75*
G02*
X17711956Y5265262I74817J-5232D01*
G01*
X17562321Y5275725D02*
X17558266Y5217730D01*
X17558266Y5217730D02*
G75*
G03*
X17707900Y5207267I74817J-5232D01*
G01*
D12*
X17769518Y1153466D02*
X17769518Y1259533D01*
X17663451Y1259533D01*
X17663451Y1153466D01*
X17769518Y1153466D01*
X17769518Y6868461D02*
X17769518Y6974528D01*
X17663451Y6974528D01*
X17663451Y6868461D01*
X17769518Y6868461D01*
X17900518Y1299466D02*
X17900518Y1405533D01*
X17794451Y1405533D01*
X17794451Y1299466D01*
X17900518Y1299466D01*
X17900518Y7014461D02*
X17900518Y7120528D01*
X17794451Y7120528D01*
X17794451Y7014461D01*
X17900518Y7014461D01*
X18164394Y3283464D02*
X18164394Y3389531D01*
X18058327Y3389531D01*
X18058327Y3283464D01*
X18164394Y3283464D01*
D10*
X18184150Y3302268D02*
X18188205Y3360263D01*
X18038571Y3370727D02*
G75*
G02*
X18188205Y3360263I74817J-5232D01*
G01*
X18038571Y3370727D02*
X18034515Y3312731D01*
X18034515Y3312731D02*
G75*
G03*
X18184150Y3302268I74817J-5232D01*
G01*
D12*
X18402518Y1378466D02*
X18402518Y1484533D01*
X18296451Y1484533D01*
X18296451Y1378466D01*
X18402518Y1378466D01*
D10*
X18422275Y1397270D02*
X18426330Y1455265D01*
X18276695Y1465729D02*
G75*
G02*
X18426330Y1455265I74817J-5232D01*
G01*
X18276695Y1465729D02*
X18272640Y1407733D01*
X18272640Y1407733D02*
G75*
G03*
X18422275Y1397270I74817J-5232D01*
G01*
D12*
X18402519Y7093461D02*
X18402519Y7199528D01*
X18296452Y7199528D01*
X18296452Y7093461D01*
X18402519Y7093461D01*
D10*
X18422275Y7112265D02*
X18426330Y7170260D01*
X18276695Y7180724D02*
G75*
G02*
X18426330Y7170260I74817J-5232D01*
G01*
X18276695Y7180724D02*
X18272640Y7122728D01*
X18272640Y7122728D02*
G75*
G03*
X18422275Y7112265I74817J-5232D01*
G01*
D11*
X255777Y-316484D02*
X255777Y-116484D01*
X255777Y-116484D02*
X303396Y-116484D01*
X303396Y-116484D02*
X331967Y-126008D01*
X331967Y-126008D02*
X351015Y-145056D01*
X351015Y-145056D02*
X360539Y-164103D01*
X360539Y-164103D02*
X370062Y-202198D01*
X370062Y-202198D02*
X370062Y-230770D01*
X370062Y-230770D02*
X360539Y-268865D01*
X360539Y-268865D02*
X351015Y-287913D01*
X351015Y-287913D02*
X331967Y-306960D01*
X331967Y-306960D02*
X303396Y-316484D01*
X303396Y-316484D02*
X255777Y-316484D01*
X455777Y-316484D02*
X455777Y-183151D01*
X455777Y-221246D02*
X465301Y-202198D01*
X465301Y-202198D02*
X474824Y-192675D01*
X474824Y-192675D02*
X493872Y-183151D01*
X493872Y-183151D02*
X512920Y-183151D01*
X579586Y-316484D02*
X579586Y-183151D01*
X579586Y-116484D02*
X570063Y-126008D01*
X570063Y-126008D02*
X579586Y-135532D01*
X579586Y-135532D02*
X589110Y-126008D01*
X589110Y-126008D02*
X579586Y-116484D01*
X579586Y-116484D02*
X579586Y-135532D01*
X703396Y-316484D02*
X684348Y-306960D01*
X684348Y-306960D02*
X674824Y-287913D01*
X674824Y-287913D02*
X674824Y-116484D01*
X808158Y-316484D02*
X789110Y-306960D01*
X789110Y-306960D02*
X779586Y-287913D01*
X779586Y-287913D02*
X779586Y-116484D01*
X1036729Y-316484D02*
X1036729Y-116484D01*
X1036729Y-116484D02*
X1103396Y-259341D01*
X1103396Y-259341D02*
X1170063Y-116484D01*
X1170063Y-116484D02*
X1170063Y-316484D01*
X1351015Y-316484D02*
X1351015Y-211722D01*
X1351015Y-211722D02*
X1341491Y-192675D01*
X1341491Y-192675D02*
X1322444Y-183151D01*
X1322444Y-183151D02*
X1284348Y-183151D01*
X1284348Y-183151D02*
X1265301Y-192675D01*
X1351015Y-306960D02*
X1331967Y-316484D01*
X1331967Y-316484D02*
X1284348Y-316484D01*
X1284348Y-316484D02*
X1265301Y-306960D01*
X1265301Y-306960D02*
X1255777Y-287913D01*
X1255777Y-287913D02*
X1255777Y-268865D01*
X1255777Y-268865D02*
X1265301Y-249817D01*
X1265301Y-249817D02*
X1284348Y-240294D01*
X1284348Y-240294D02*
X1331967Y-240294D01*
X1331967Y-240294D02*
X1351015Y-230770D01*
X1446253Y-183151D02*
X1446253Y-383151D01*
X1446253Y-192675D02*
X1465301Y-183151D01*
X1465301Y-183151D02*
X1503396Y-183151D01*
X1503396Y-183151D02*
X1522443Y-192675D01*
X1522443Y-192675D02*
X1531967Y-202198D01*
X1531967Y-202198D02*
X1541491Y-221246D01*
X1541491Y-221246D02*
X1541491Y-278389D01*
X1541491Y-278389D02*
X1531967Y-297437D01*
X1531967Y-297437D02*
X1522443Y-306960D01*
X1522443Y-306960D02*
X1503396Y-316484D01*
X1503396Y-316484D02*
X1465301Y-316484D01*
X1465301Y-316484D02*
X1446253Y-306960D01*
X1627205Y-297437D02*
X1636729Y-306960D01*
X1636729Y-306960D02*
X1627205Y-316484D01*
X1627205Y-316484D02*
X1617682Y-306960D01*
X1617682Y-306960D02*
X1627205Y-297437D01*
X1627205Y-297437D02*
X1627205Y-316484D01*
X1627205Y-192675D02*
X1636729Y-202198D01*
X1636729Y-202198D02*
X1627205Y-211722D01*
X1627205Y-211722D02*
X1617682Y-202198D01*
X1617682Y-202198D02*
X1627205Y-192675D01*
X1627205Y-192675D02*
X1627205Y-211722D01*
D10*
X-35000Y-630000D02*
X-5000Y-660000D01*
X-5000Y-630000D02*
X-35000Y-660000D01*
D11*
X293872Y-536484D02*
X312920Y-536484D01*
X312920Y-536484D02*
X331967Y-546008D01*
X331967Y-546008D02*
X341491Y-555532D01*
X341491Y-555532D02*
X351015Y-574579D01*
X351015Y-574579D02*
X360539Y-612675D01*
X360539Y-612675D02*
X360539Y-660294D01*
X360539Y-660294D02*
X351015Y-698389D01*
X351015Y-698389D02*
X341491Y-717436D01*
X341491Y-717436D02*
X331967Y-726960D01*
X331967Y-726960D02*
X312920Y-736484D01*
X312920Y-736484D02*
X293872Y-736484D01*
X293872Y-736484D02*
X274824Y-726960D01*
X274824Y-726960D02*
X265301Y-717436D01*
X265301Y-717436D02*
X255777Y-698389D01*
X255777Y-698389D02*
X246253Y-660294D01*
X246253Y-660294D02*
X246253Y-612675D01*
X246253Y-612675D02*
X255777Y-574579D01*
X255777Y-574579D02*
X265301Y-555532D01*
X265301Y-555532D02*
X274824Y-546008D01*
X274824Y-546008D02*
X293872Y-536484D01*
X446253Y-717436D02*
X455777Y-726960D01*
X455777Y-726960D02*
X446253Y-736484D01*
X446253Y-736484D02*
X436729Y-726960D01*
X436729Y-726960D02*
X446253Y-717436D01*
X446253Y-717436D02*
X446253Y-736484D01*
X522443Y-536484D02*
X646253Y-536484D01*
X646253Y-536484D02*
X579586Y-612675D01*
X579586Y-612675D02*
X608158Y-612675D01*
X608158Y-612675D02*
X627205Y-622198D01*
X627205Y-622198D02*
X636729Y-631722D01*
X636729Y-631722D02*
X646253Y-650770D01*
X646253Y-650770D02*
X646253Y-698389D01*
X646253Y-698389D02*
X636729Y-717436D01*
X636729Y-717436D02*
X627205Y-726960D01*
X627205Y-726960D02*
X608158Y-736484D01*
X608158Y-736484D02*
X551015Y-736484D01*
X551015Y-736484D02*
X531967Y-726960D01*
X531967Y-726960D02*
X522443Y-717436D01*
X770062Y-536484D02*
X789110Y-536484D01*
X789110Y-536484D02*
X808158Y-546008D01*
X808158Y-546008D02*
X817682Y-555532D01*
X817682Y-555532D02*
X827205Y-574579D01*
X827205Y-574579D02*
X836729Y-612675D01*
X836729Y-612675D02*
X836729Y-660294D01*
X836729Y-660294D02*
X827205Y-698389D01*
X827205Y-698389D02*
X817682Y-717436D01*
X817682Y-717436D02*
X808158Y-726960D01*
X808158Y-726960D02*
X789110Y-736484D01*
X789110Y-736484D02*
X770062Y-736484D01*
X770062Y-736484D02*
X751015Y-726960D01*
X751015Y-726960D02*
X741491Y-717436D01*
X741491Y-717436D02*
X731967Y-698389D01*
X731967Y-698389D02*
X722443Y-660294D01*
X722443Y-660294D02*
X722443Y-612675D01*
X722443Y-612675D02*
X731967Y-574579D01*
X731967Y-574579D02*
X741491Y-555532D01*
X741491Y-555532D02*
X751015Y-546008D01*
X751015Y-546008D02*
X770062Y-536484D01*
X960539Y-536484D02*
X979586Y-536484D01*
X979586Y-536484D02*
X998634Y-546008D01*
X998634Y-546008D02*
X1008158Y-555532D01*
X1008158Y-555532D02*
X1017682Y-574579D01*
X1017682Y-574579D02*
X1027205Y-612675D01*
X1027205Y-612675D02*
X1027205Y-660294D01*
X1027205Y-660294D02*
X1017682Y-698389D01*
X1017682Y-698389D02*
X1008158Y-717436D01*
X1008158Y-717436D02*
X998634Y-726960D01*
X998634Y-726960D02*
X979586Y-736484D01*
X979586Y-736484D02*
X960539Y-736484D01*
X960539Y-736484D02*
X941491Y-726960D01*
X941491Y-726960D02*
X931967Y-717436D01*
X931967Y-717436D02*
X922443Y-698389D01*
X922443Y-698389D02*
X912920Y-660294D01*
X912920Y-660294D02*
X912920Y-612675D01*
X912920Y-612675D02*
X922443Y-574579D01*
X922443Y-574579D02*
X931967Y-555532D01*
X931967Y-555532D02*
X941491Y-546008D01*
X941491Y-546008D02*
X960539Y-536484D01*
X1112920Y-736484D02*
X1112920Y-603151D01*
X1112920Y-622198D02*
X1122444Y-612675D01*
X1122444Y-612675D02*
X1141491Y-603151D01*
X1141491Y-603151D02*
X1170063Y-603151D01*
X1170063Y-603151D02*
X1189110Y-612675D01*
X1189110Y-612675D02*
X1198634Y-631722D01*
X1198634Y-631722D02*
X1198634Y-736484D01*
X1198634Y-631722D02*
X1208158Y-612675D01*
X1208158Y-612675D02*
X1227205Y-603151D01*
X1227205Y-603151D02*
X1255777Y-603151D01*
X1255777Y-603151D02*
X1274825Y-612675D01*
X1274825Y-612675D02*
X1284348Y-631722D01*
X1284348Y-631722D02*
X1284348Y-736484D01*
X1379586Y-736484D02*
X1379586Y-603151D01*
X1379586Y-622198D02*
X1389110Y-612675D01*
X1389110Y-612675D02*
X1408158Y-603151D01*
X1408158Y-603151D02*
X1436729Y-603151D01*
X1436729Y-603151D02*
X1455777Y-612675D01*
X1455777Y-612675D02*
X1465301Y-631722D01*
X1465301Y-631722D02*
X1465301Y-736484D01*
X1465301Y-631722D02*
X1474824Y-612675D01*
X1474824Y-612675D02*
X1493872Y-603151D01*
X1493872Y-603151D02*
X1522443Y-603151D01*
X1522443Y-603151D02*
X1541491Y-612675D01*
X1541491Y-612675D02*
X1551015Y-631722D01*
X1551015Y-631722D02*
X1551015Y-736484D01*
X1941491Y-526960D02*
X1770063Y-784103D01*
X2198634Y-536484D02*
X2217682Y-536484D01*
X2217682Y-536484D02*
X2236729Y-546008D01*
X2236729Y-546008D02*
X2246253Y-555532D01*
X2246253Y-555532D02*
X2255777Y-574579D01*
X2255777Y-574579D02*
X2265301Y-612675D01*
X2265301Y-612675D02*
X2265301Y-660294D01*
X2265301Y-660294D02*
X2255777Y-698389D01*
X2255777Y-698389D02*
X2246253Y-717436D01*
X2246253Y-717436D02*
X2236729Y-726960D01*
X2236729Y-726960D02*
X2217682Y-736484D01*
X2217682Y-736484D02*
X2198634Y-736484D01*
X2198634Y-736484D02*
X2179587Y-726960D01*
X2179587Y-726960D02*
X2170063Y-717436D01*
X2170063Y-717436D02*
X2160539Y-698389D01*
X2160539Y-698389D02*
X2151015Y-660294D01*
X2151015Y-660294D02*
X2151015Y-612675D01*
X2151015Y-612675D02*
X2160539Y-574579D01*
X2160539Y-574579D02*
X2170063Y-555532D01*
X2170063Y-555532D02*
X2179587Y-546008D01*
X2179587Y-546008D02*
X2198634Y-536484D01*
X2351015Y-717436D02*
X2360539Y-726960D01*
X2360539Y-726960D02*
X2351015Y-736484D01*
X2351015Y-736484D02*
X2341491Y-726960D01*
X2341491Y-726960D02*
X2351015Y-717436D01*
X2351015Y-717436D02*
X2351015Y-736484D01*
X2484348Y-536484D02*
X2503396Y-536484D01*
X2503396Y-536484D02*
X2522444Y-546008D01*
X2522444Y-546008D02*
X2531968Y-555532D01*
X2531968Y-555532D02*
X2541491Y-574579D01*
X2541491Y-574579D02*
X2551015Y-612675D01*
X2551015Y-612675D02*
X2551015Y-660294D01*
X2551015Y-660294D02*
X2541491Y-698389D01*
X2541491Y-698389D02*
X2531968Y-717436D01*
X2531968Y-717436D02*
X2522444Y-726960D01*
X2522444Y-726960D02*
X2503396Y-736484D01*
X2503396Y-736484D02*
X2484348Y-736484D01*
X2484348Y-736484D02*
X2465301Y-726960D01*
X2465301Y-726960D02*
X2455777Y-717436D01*
X2455777Y-717436D02*
X2446253Y-698389D01*
X2446253Y-698389D02*
X2436729Y-660294D01*
X2436729Y-660294D02*
X2436729Y-612675D01*
X2436729Y-612675D02*
X2446253Y-574579D01*
X2446253Y-574579D02*
X2455777Y-555532D01*
X2455777Y-555532D02*
X2465301Y-546008D01*
X2465301Y-546008D02*
X2484348Y-536484D01*
X2741491Y-736484D02*
X2627206Y-736484D01*
X2684348Y-736484D02*
X2684348Y-536484D01*
X2684348Y-536484D02*
X2665301Y-565056D01*
X2665301Y-565056D02*
X2646253Y-584103D01*
X2646253Y-584103D02*
X2627206Y-593627D01*
X2931967Y-736484D02*
X2817682Y-736484D01*
X2874825Y-736484D02*
X2874825Y-536484D01*
X2874825Y-536484D02*
X2855777Y-565056D01*
X2855777Y-565056D02*
X2836729Y-584103D01*
X2836729Y-584103D02*
X2817682Y-593627D01*
X3046253Y-622198D02*
X3027206Y-612675D01*
X3027206Y-612675D02*
X3017682Y-603151D01*
X3017682Y-603151D02*
X3008158Y-584103D01*
X3008158Y-584103D02*
X3008158Y-574579D01*
X3008158Y-574579D02*
X3017682Y-555532D01*
X3017682Y-555532D02*
X3027206Y-546008D01*
X3027206Y-546008D02*
X3046253Y-536484D01*
X3046253Y-536484D02*
X3084348Y-536484D01*
X3084348Y-536484D02*
X3103396Y-546008D01*
X3103396Y-546008D02*
X3112920Y-555532D01*
X3112920Y-555532D02*
X3122444Y-574579D01*
X3122444Y-574579D02*
X3122444Y-584103D01*
X3122444Y-584103D02*
X3112920Y-603151D01*
X3112920Y-603151D02*
X3103396Y-612675D01*
X3103396Y-612675D02*
X3084348Y-622198D01*
X3084348Y-622198D02*
X3046253Y-622198D01*
X3046253Y-622198D02*
X3027206Y-631722D01*
X3027206Y-631722D02*
X3017682Y-641246D01*
X3017682Y-641246D02*
X3008158Y-660294D01*
X3008158Y-660294D02*
X3008158Y-698389D01*
X3008158Y-698389D02*
X3017682Y-717436D01*
X3017682Y-717436D02*
X3027206Y-726960D01*
X3027206Y-726960D02*
X3046253Y-736484D01*
X3046253Y-736484D02*
X3084348Y-736484D01*
X3084348Y-736484D02*
X3103396Y-726960D01*
X3103396Y-726960D02*
X3112920Y-717436D01*
X3112920Y-717436D02*
X3122444Y-698389D01*
X3122444Y-698389D02*
X3122444Y-660294D01*
X3122444Y-660294D02*
X3112920Y-641246D01*
X3112920Y-641246D02*
X3103396Y-631722D01*
X3103396Y-631722D02*
X3084348Y-622198D01*
X3198634Y-536484D02*
X3198634Y-574579D01*
X3274825Y-536484D02*
X3274825Y-574579D01*
X3570063Y-812675D02*
X3560539Y-803151D01*
X3560539Y-803151D02*
X3541491Y-774579D01*
X3541491Y-774579D02*
X3531968Y-755532D01*
X3531968Y-755532D02*
X3522444Y-726960D01*
X3522444Y-726960D02*
X3512920Y-679341D01*
X3512920Y-679341D02*
X3512920Y-641246D01*
X3512920Y-641246D02*
X3522444Y-593627D01*
X3522444Y-593627D02*
X3531968Y-565056D01*
X3531968Y-565056D02*
X3541491Y-546008D01*
X3541491Y-546008D02*
X3560539Y-517436D01*
X3560539Y-517436D02*
X3570063Y-507913D01*
X3731968Y-603151D02*
X3731968Y-736484D01*
X3684348Y-526960D02*
X3636729Y-669818D01*
X3636729Y-669818D02*
X3760539Y-669818D01*
X3989110Y-736484D02*
X3989110Y-536484D01*
X4074825Y-736484D02*
X4074825Y-631722D01*
X4074825Y-631722D02*
X4065301Y-612675D01*
X4065301Y-612675D02*
X4046253Y-603151D01*
X4046253Y-603151D02*
X4017682Y-603151D01*
X4017682Y-603151D02*
X3998634Y-612675D01*
X3998634Y-612675D02*
X3989110Y-622198D01*
X4198634Y-736484D02*
X4179587Y-726960D01*
X4179587Y-726960D02*
X4170063Y-717436D01*
X4170063Y-717436D02*
X4160539Y-698389D01*
X4160539Y-698389D02*
X4160539Y-641246D01*
X4160539Y-641246D02*
X4170063Y-622198D01*
X4170063Y-622198D02*
X4179587Y-612675D01*
X4179587Y-612675D02*
X4198634Y-603151D01*
X4198634Y-603151D02*
X4227206Y-603151D01*
X4227206Y-603151D02*
X4246253Y-612675D01*
X4246253Y-612675D02*
X4255777Y-622198D01*
X4255777Y-622198D02*
X4265301Y-641246D01*
X4265301Y-641246D02*
X4265301Y-698389D01*
X4265301Y-698389D02*
X4255777Y-717436D01*
X4255777Y-717436D02*
X4246253Y-726960D01*
X4246253Y-726960D02*
X4227206Y-736484D01*
X4227206Y-736484D02*
X4198634Y-736484D01*
X4379587Y-736484D02*
X4360539Y-726960D01*
X4360539Y-726960D02*
X4351015Y-707913D01*
X4351015Y-707913D02*
X4351015Y-536484D01*
X4531968Y-726960D02*
X4512920Y-736484D01*
X4512920Y-736484D02*
X4474825Y-736484D01*
X4474825Y-736484D02*
X4455777Y-726960D01*
X4455777Y-726960D02*
X4446253Y-707913D01*
X4446253Y-707913D02*
X4446253Y-631722D01*
X4446253Y-631722D02*
X4455777Y-612675D01*
X4455777Y-612675D02*
X4474825Y-603151D01*
X4474825Y-603151D02*
X4512920Y-603151D01*
X4512920Y-603151D02*
X4531968Y-612675D01*
X4531968Y-612675D02*
X4541492Y-631722D01*
X4541492Y-631722D02*
X4541492Y-650770D01*
X4541492Y-650770D02*
X4446253Y-669818D01*
X4617682Y-726960D02*
X4636730Y-736484D01*
X4636730Y-736484D02*
X4674825Y-736484D01*
X4674825Y-736484D02*
X4693873Y-726960D01*
X4693873Y-726960D02*
X4703396Y-707913D01*
X4703396Y-707913D02*
X4703396Y-698389D01*
X4703396Y-698389D02*
X4693873Y-679341D01*
X4693873Y-679341D02*
X4674825Y-669818D01*
X4674825Y-669818D02*
X4646253Y-669818D01*
X4646253Y-669818D02*
X4627206Y-660294D01*
X4627206Y-660294D02*
X4617682Y-641246D01*
X4617682Y-641246D02*
X4617682Y-631722D01*
X4617682Y-631722D02*
X4627206Y-612675D01*
X4627206Y-612675D02*
X4646253Y-603151D01*
X4646253Y-603151D02*
X4674825Y-603151D01*
X4674825Y-603151D02*
X4693873Y-612675D01*
X4770063Y-812675D02*
X4779587Y-803151D01*
X4779587Y-803151D02*
X4798634Y-774579D01*
X4798634Y-774579D02*
X4808158Y-755532D01*
X4808158Y-755532D02*
X4817682Y-726960D01*
X4817682Y-726960D02*
X4827206Y-679341D01*
X4827206Y-679341D02*
X4827206Y-641246D01*
X4827206Y-641246D02*
X4817682Y-593627D01*
X4817682Y-593627D02*
X4808158Y-565056D01*
X4808158Y-565056D02*
X4798634Y-546008D01*
X4798634Y-546008D02*
X4779587Y-517436D01*
X4779587Y-517436D02*
X4770063Y-507913D01*
D10*
X-5000Y-909000D02*
G75*
G02*
X-45000Y-909000I-20000J0D01*
G01*
X-45000Y-909000D02*
G75*
G02*
X-5000Y-909000I20000J0D01*
G01*
D11*
X293872Y-800484D02*
X312920Y-800484D01*
X312920Y-800484D02*
X331967Y-810008D01*
X331967Y-810008D02*
X341491Y-819532D01*
X341491Y-819532D02*
X351015Y-838579D01*
X351015Y-838579D02*
X360539Y-876675D01*
X360539Y-876675D02*
X360539Y-924294D01*
X360539Y-924294D02*
X351015Y-962389D01*
X351015Y-962389D02*
X341491Y-981436D01*
X341491Y-981436D02*
X331967Y-990960D01*
X331967Y-990960D02*
X312920Y-1000484D01*
X312920Y-1000484D02*
X293872Y-1000484D01*
X293872Y-1000484D02*
X274824Y-990960D01*
X274824Y-990960D02*
X265301Y-981436D01*
X265301Y-981436D02*
X255777Y-962389D01*
X255777Y-962389D02*
X246253Y-924294D01*
X246253Y-924294D02*
X246253Y-876675D01*
X246253Y-876675D02*
X255777Y-838579D01*
X255777Y-838579D02*
X265301Y-819532D01*
X265301Y-819532D02*
X274824Y-810008D01*
X274824Y-810008D02*
X293872Y-800484D01*
X446253Y-981436D02*
X455777Y-990960D01*
X455777Y-990960D02*
X446253Y-1000484D01*
X446253Y-1000484D02*
X436729Y-990960D01*
X436729Y-990960D02*
X446253Y-981436D01*
X446253Y-981436D02*
X446253Y-1000484D01*
X627205Y-867151D02*
X627205Y-1000484D01*
X579586Y-790960D02*
X531967Y-933817D01*
X531967Y-933817D02*
X655777Y-933817D01*
X770062Y-800484D02*
X789110Y-800484D01*
X789110Y-800484D02*
X808158Y-810008D01*
X808158Y-810008D02*
X817682Y-819532D01*
X817682Y-819532D02*
X827205Y-838579D01*
X827205Y-838579D02*
X836729Y-876675D01*
X836729Y-876675D02*
X836729Y-924294D01*
X836729Y-924294D02*
X827205Y-962389D01*
X827205Y-962389D02*
X817682Y-981436D01*
X817682Y-981436D02*
X808158Y-990960D01*
X808158Y-990960D02*
X789110Y-1000484D01*
X789110Y-1000484D02*
X770062Y-1000484D01*
X770062Y-1000484D02*
X751015Y-990960D01*
X751015Y-990960D02*
X741491Y-981436D01*
X741491Y-981436D02*
X731967Y-962389D01*
X731967Y-962389D02*
X722443Y-924294D01*
X722443Y-924294D02*
X722443Y-876675D01*
X722443Y-876675D02*
X731967Y-838579D01*
X731967Y-838579D02*
X741491Y-819532D01*
X741491Y-819532D02*
X751015Y-810008D01*
X751015Y-810008D02*
X770062Y-800484D01*
X960539Y-800484D02*
X979586Y-800484D01*
X979586Y-800484D02*
X998634Y-810008D01*
X998634Y-810008D02*
X1008158Y-819532D01*
X1008158Y-819532D02*
X1017682Y-838579D01*
X1017682Y-838579D02*
X1027205Y-876675D01*
X1027205Y-876675D02*
X1027205Y-924294D01*
X1027205Y-924294D02*
X1017682Y-962389D01*
X1017682Y-962389D02*
X1008158Y-981436D01*
X1008158Y-981436D02*
X998634Y-990960D01*
X998634Y-990960D02*
X979586Y-1000484D01*
X979586Y-1000484D02*
X960539Y-1000484D01*
X960539Y-1000484D02*
X941491Y-990960D01*
X941491Y-990960D02*
X931967Y-981436D01*
X931967Y-981436D02*
X922443Y-962389D01*
X922443Y-962389D02*
X912920Y-924294D01*
X912920Y-924294D02*
X912920Y-876675D01*
X912920Y-876675D02*
X922443Y-838579D01*
X922443Y-838579D02*
X931967Y-819532D01*
X931967Y-819532D02*
X941491Y-810008D01*
X941491Y-810008D02*
X960539Y-800484D01*
X1112920Y-1000484D02*
X1112920Y-867151D01*
X1112920Y-886198D02*
X1122444Y-876675D01*
X1122444Y-876675D02*
X1141491Y-867151D01*
X1141491Y-867151D02*
X1170063Y-867151D01*
X1170063Y-867151D02*
X1189110Y-876675D01*
X1189110Y-876675D02*
X1198634Y-895722D01*
X1198634Y-895722D02*
X1198634Y-1000484D01*
X1198634Y-895722D02*
X1208158Y-876675D01*
X1208158Y-876675D02*
X1227205Y-867151D01*
X1227205Y-867151D02*
X1255777Y-867151D01*
X1255777Y-867151D02*
X1274825Y-876675D01*
X1274825Y-876675D02*
X1284348Y-895722D01*
X1284348Y-895722D02*
X1284348Y-1000484D01*
X1379586Y-1000484D02*
X1379586Y-867151D01*
X1379586Y-886198D02*
X1389110Y-876675D01*
X1389110Y-876675D02*
X1408158Y-867151D01*
X1408158Y-867151D02*
X1436729Y-867151D01*
X1436729Y-867151D02*
X1455777Y-876675D01*
X1455777Y-876675D02*
X1465301Y-895722D01*
X1465301Y-895722D02*
X1465301Y-1000484D01*
X1465301Y-895722D02*
X1474824Y-876675D01*
X1474824Y-876675D02*
X1493872Y-867151D01*
X1493872Y-867151D02*
X1522443Y-867151D01*
X1522443Y-867151D02*
X1541491Y-876675D01*
X1541491Y-876675D02*
X1551015Y-895722D01*
X1551015Y-895722D02*
X1551015Y-1000484D01*
X1941491Y-790960D02*
X1770063Y-1048103D01*
X2198634Y-800484D02*
X2217682Y-800484D01*
X2217682Y-800484D02*
X2236729Y-810008D01*
X2236729Y-810008D02*
X2246253Y-819532D01*
X2246253Y-819532D02*
X2255777Y-838579D01*
X2255777Y-838579D02*
X2265301Y-876675D01*
X2265301Y-876675D02*
X2265301Y-924294D01*
X2265301Y-924294D02*
X2255777Y-962389D01*
X2255777Y-962389D02*
X2246253Y-981436D01*
X2246253Y-981436D02*
X2236729Y-990960D01*
X2236729Y-990960D02*
X2217682Y-1000484D01*
X2217682Y-1000484D02*
X2198634Y-1000484D01*
X2198634Y-1000484D02*
X2179587Y-990960D01*
X2179587Y-990960D02*
X2170063Y-981436D01*
X2170063Y-981436D02*
X2160539Y-962389D01*
X2160539Y-962389D02*
X2151015Y-924294D01*
X2151015Y-924294D02*
X2151015Y-876675D01*
X2151015Y-876675D02*
X2160539Y-838579D01*
X2160539Y-838579D02*
X2170063Y-819532D01*
X2170063Y-819532D02*
X2179587Y-810008D01*
X2179587Y-810008D02*
X2198634Y-800484D01*
X2351015Y-981436D02*
X2360539Y-990960D01*
X2360539Y-990960D02*
X2351015Y-1000484D01*
X2351015Y-1000484D02*
X2341491Y-990960D01*
X2341491Y-990960D02*
X2351015Y-981436D01*
X2351015Y-981436D02*
X2351015Y-1000484D01*
X2484348Y-800484D02*
X2503396Y-800484D01*
X2503396Y-800484D02*
X2522444Y-810008D01*
X2522444Y-810008D02*
X2531968Y-819532D01*
X2531968Y-819532D02*
X2541491Y-838579D01*
X2541491Y-838579D02*
X2551015Y-876675D01*
X2551015Y-876675D02*
X2551015Y-924294D01*
X2551015Y-924294D02*
X2541491Y-962389D01*
X2541491Y-962389D02*
X2531968Y-981436D01*
X2531968Y-981436D02*
X2522444Y-990960D01*
X2522444Y-990960D02*
X2503396Y-1000484D01*
X2503396Y-1000484D02*
X2484348Y-1000484D01*
X2484348Y-1000484D02*
X2465301Y-990960D01*
X2465301Y-990960D02*
X2455777Y-981436D01*
X2455777Y-981436D02*
X2446253Y-962389D01*
X2446253Y-962389D02*
X2436729Y-924294D01*
X2436729Y-924294D02*
X2436729Y-876675D01*
X2436729Y-876675D02*
X2446253Y-838579D01*
X2446253Y-838579D02*
X2455777Y-819532D01*
X2455777Y-819532D02*
X2465301Y-810008D01*
X2465301Y-810008D02*
X2484348Y-800484D01*
X2741491Y-1000484D02*
X2627206Y-1000484D01*
X2684348Y-1000484D02*
X2684348Y-800484D01*
X2684348Y-800484D02*
X2665301Y-829056D01*
X2665301Y-829056D02*
X2646253Y-848103D01*
X2646253Y-848103D02*
X2627206Y-857627D01*
X2922444Y-800484D02*
X2827206Y-800484D01*
X2827206Y-800484D02*
X2817682Y-895722D01*
X2817682Y-895722D02*
X2827206Y-886198D01*
X2827206Y-886198D02*
X2846253Y-876675D01*
X2846253Y-876675D02*
X2893872Y-876675D01*
X2893872Y-876675D02*
X2912920Y-886198D01*
X2912920Y-886198D02*
X2922444Y-895722D01*
X2922444Y-895722D02*
X2931967Y-914770D01*
X2931967Y-914770D02*
X2931967Y-962389D01*
X2931967Y-962389D02*
X2922444Y-981436D01*
X2922444Y-981436D02*
X2912920Y-990960D01*
X2912920Y-990960D02*
X2893872Y-1000484D01*
X2893872Y-1000484D02*
X2846253Y-1000484D01*
X2846253Y-1000484D02*
X2827206Y-990960D01*
X2827206Y-990960D02*
X2817682Y-981436D01*
X2998634Y-800484D02*
X3131967Y-800484D01*
X3131967Y-800484D02*
X3046253Y-1000484D01*
X3198634Y-800484D02*
X3198634Y-838579D01*
X3274825Y-800484D02*
X3274825Y-838579D01*
X3570063Y-1076675D02*
X3560539Y-1067151D01*
X3560539Y-1067151D02*
X3541491Y-1038579D01*
X3541491Y-1038579D02*
X3531968Y-1019532D01*
X3531968Y-1019532D02*
X3522444Y-990960D01*
X3522444Y-990960D02*
X3512920Y-943341D01*
X3512920Y-943341D02*
X3512920Y-905246D01*
X3512920Y-905246D02*
X3522444Y-857627D01*
X3522444Y-857627D02*
X3531968Y-829056D01*
X3531968Y-829056D02*
X3541491Y-810008D01*
X3541491Y-810008D02*
X3560539Y-781436D01*
X3560539Y-781436D02*
X3570063Y-771913D01*
X3636729Y-819532D02*
X3646253Y-810008D01*
X3646253Y-810008D02*
X3665301Y-800484D01*
X3665301Y-800484D02*
X3712920Y-800484D01*
X3712920Y-800484D02*
X3731968Y-810008D01*
X3731968Y-810008D02*
X3741491Y-819532D01*
X3741491Y-819532D02*
X3751015Y-838579D01*
X3751015Y-838579D02*
X3751015Y-857627D01*
X3751015Y-857627D02*
X3741491Y-886198D01*
X3741491Y-886198D02*
X3627206Y-1000484D01*
X3627206Y-1000484D02*
X3751015Y-1000484D01*
X3827206Y-819532D02*
X3836729Y-810008D01*
X3836729Y-810008D02*
X3855777Y-800484D01*
X3855777Y-800484D02*
X3903396Y-800484D01*
X3903396Y-800484D02*
X3922444Y-810008D01*
X3922444Y-810008D02*
X3931968Y-819532D01*
X3931968Y-819532D02*
X3941491Y-838579D01*
X3941491Y-838579D02*
X3941491Y-857627D01*
X3941491Y-857627D02*
X3931968Y-886198D01*
X3931968Y-886198D02*
X3817682Y-1000484D01*
X3817682Y-1000484D02*
X3941491Y-1000484D01*
X4179587Y-1000484D02*
X4179587Y-800484D01*
X4265301Y-1000484D02*
X4265301Y-895722D01*
X4265301Y-895722D02*
X4255777Y-876675D01*
X4255777Y-876675D02*
X4236730Y-867151D01*
X4236730Y-867151D02*
X4208158Y-867151D01*
X4208158Y-867151D02*
X4189110Y-876675D01*
X4189110Y-876675D02*
X4179587Y-886198D01*
X4389111Y-1000484D02*
X4370063Y-990960D01*
X4370063Y-990960D02*
X4360539Y-981436D01*
X4360539Y-981436D02*
X4351015Y-962389D01*
X4351015Y-962389D02*
X4351015Y-905246D01*
X4351015Y-905246D02*
X4360539Y-886198D01*
X4360539Y-886198D02*
X4370063Y-876675D01*
X4370063Y-876675D02*
X4389111Y-867151D01*
X4389111Y-867151D02*
X4417682Y-867151D01*
X4417682Y-867151D02*
X4436730Y-876675D01*
X4436730Y-876675D02*
X4446253Y-886198D01*
X4446253Y-886198D02*
X4455777Y-905246D01*
X4455777Y-905246D02*
X4455777Y-962389D01*
X4455777Y-962389D02*
X4446253Y-981436D01*
X4446253Y-981436D02*
X4436730Y-990960D01*
X4436730Y-990960D02*
X4417682Y-1000484D01*
X4417682Y-1000484D02*
X4389111Y-1000484D01*
X4570063Y-1000484D02*
X4551015Y-990960D01*
X4551015Y-990960D02*
X4541492Y-971913D01*
X4541492Y-971913D02*
X4541492Y-800484D01*
X4722444Y-990960D02*
X4703396Y-1000484D01*
X4703396Y-1000484D02*
X4665301Y-1000484D01*
X4665301Y-1000484D02*
X4646253Y-990960D01*
X4646253Y-990960D02*
X4636730Y-971913D01*
X4636730Y-971913D02*
X4636730Y-895722D01*
X4636730Y-895722D02*
X4646253Y-876675D01*
X4646253Y-876675D02*
X4665301Y-867151D01*
X4665301Y-867151D02*
X4703396Y-867151D01*
X4703396Y-867151D02*
X4722444Y-876675D01*
X4722444Y-876675D02*
X4731968Y-895722D01*
X4731968Y-895722D02*
X4731968Y-914770D01*
X4731968Y-914770D02*
X4636730Y-933817D01*
X4808158Y-990960D02*
X4827206Y-1000484D01*
X4827206Y-1000484D02*
X4865301Y-1000484D01*
X4865301Y-1000484D02*
X4884349Y-990960D01*
X4884349Y-990960D02*
X4893873Y-971913D01*
X4893873Y-971913D02*
X4893873Y-962389D01*
X4893873Y-962389D02*
X4884349Y-943341D01*
X4884349Y-943341D02*
X4865301Y-933817D01*
X4865301Y-933817D02*
X4836730Y-933817D01*
X4836730Y-933817D02*
X4817682Y-924294D01*
X4817682Y-924294D02*
X4808158Y-905246D01*
X4808158Y-905246D02*
X4808158Y-895722D01*
X4808158Y-895722D02*
X4817682Y-876675D01*
X4817682Y-876675D02*
X4836730Y-867151D01*
X4836730Y-867151D02*
X4865301Y-867151D01*
X4865301Y-867151D02*
X4884349Y-876675D01*
X4960539Y-1076675D02*
X4970063Y-1067151D01*
X4970063Y-1067151D02*
X4989111Y-1038579D01*
X4989111Y-1038579D02*
X4998634Y-1019532D01*
X4998634Y-1019532D02*
X5008158Y-990960D01*
X5008158Y-990960D02*
X5017682Y-943341D01*
X5017682Y-943341D02*
X5017682Y-905246D01*
X5017682Y-905246D02*
X5008158Y-857627D01*
X5008158Y-857627D02*
X4998634Y-829056D01*
X4998634Y-829056D02*
X4989111Y-810008D01*
X4989111Y-810008D02*
X4970063Y-781436D01*
X4970063Y-781436D02*
X4960539Y-771913D01*
D10*
X-55000Y-1123000D02*
X-55000Y-1223000D01*
X-105000Y-1173000D02*
X-5000Y-1173000D01*
D11*
X360539Y-1264484D02*
X246253Y-1264484D01*
X303396Y-1264484D02*
X303396Y-1064484D01*
X303396Y-1064484D02*
X284348Y-1093056D01*
X284348Y-1093056D02*
X265301Y-1112103D01*
X265301Y-1112103D02*
X246253Y-1121627D01*
X446253Y-1245437D02*
X455777Y-1254960D01*
X455777Y-1254960D02*
X446253Y-1264484D01*
X446253Y-1264484D02*
X436729Y-1254960D01*
X436729Y-1254960D02*
X446253Y-1245437D01*
X446253Y-1245437D02*
X446253Y-1264484D01*
X579586Y-1064484D02*
X598634Y-1064484D01*
X598634Y-1064484D02*
X617682Y-1074008D01*
X617682Y-1074008D02*
X627205Y-1083532D01*
X627205Y-1083532D02*
X636729Y-1102579D01*
X636729Y-1102579D02*
X646253Y-1140675D01*
X646253Y-1140675D02*
X646253Y-1188294D01*
X646253Y-1188294D02*
X636729Y-1226389D01*
X636729Y-1226389D02*
X627205Y-1245437D01*
X627205Y-1245437D02*
X617682Y-1254960D01*
X617682Y-1254960D02*
X598634Y-1264484D01*
X598634Y-1264484D02*
X579586Y-1264484D01*
X579586Y-1264484D02*
X560539Y-1254960D01*
X560539Y-1254960D02*
X551015Y-1245437D01*
X551015Y-1245437D02*
X541491Y-1226389D01*
X541491Y-1226389D02*
X531967Y-1188294D01*
X531967Y-1188294D02*
X531967Y-1140675D01*
X531967Y-1140675D02*
X541491Y-1102579D01*
X541491Y-1102579D02*
X551015Y-1083532D01*
X551015Y-1083532D02*
X560539Y-1074008D01*
X560539Y-1074008D02*
X579586Y-1064484D01*
X770062Y-1064484D02*
X789110Y-1064484D01*
X789110Y-1064484D02*
X808158Y-1074008D01*
X808158Y-1074008D02*
X817682Y-1083532D01*
X817682Y-1083532D02*
X827205Y-1102579D01*
X827205Y-1102579D02*
X836729Y-1140675D01*
X836729Y-1140675D02*
X836729Y-1188294D01*
X836729Y-1188294D02*
X827205Y-1226389D01*
X827205Y-1226389D02*
X817682Y-1245437D01*
X817682Y-1245437D02*
X808158Y-1254960D01*
X808158Y-1254960D02*
X789110Y-1264484D01*
X789110Y-1264484D02*
X770062Y-1264484D01*
X770062Y-1264484D02*
X751015Y-1254960D01*
X751015Y-1254960D02*
X741491Y-1245437D01*
X741491Y-1245437D02*
X731967Y-1226389D01*
X731967Y-1226389D02*
X722443Y-1188294D01*
X722443Y-1188294D02*
X722443Y-1140675D01*
X722443Y-1140675D02*
X731967Y-1102579D01*
X731967Y-1102579D02*
X741491Y-1083532D01*
X741491Y-1083532D02*
X751015Y-1074008D01*
X751015Y-1074008D02*
X770062Y-1064484D01*
X960539Y-1064484D02*
X979586Y-1064484D01*
X979586Y-1064484D02*
X998634Y-1074008D01*
X998634Y-1074008D02*
X1008158Y-1083532D01*
X1008158Y-1083532D02*
X1017682Y-1102579D01*
X1017682Y-1102579D02*
X1027205Y-1140675D01*
X1027205Y-1140675D02*
X1027205Y-1188294D01*
X1027205Y-1188294D02*
X1017682Y-1226389D01*
X1017682Y-1226389D02*
X1008158Y-1245437D01*
X1008158Y-1245437D02*
X998634Y-1254960D01*
X998634Y-1254960D02*
X979586Y-1264484D01*
X979586Y-1264484D02*
X960539Y-1264484D01*
X960539Y-1264484D02*
X941491Y-1254960D01*
X941491Y-1254960D02*
X931967Y-1245437D01*
X931967Y-1245437D02*
X922443Y-1226389D01*
X922443Y-1226389D02*
X912920Y-1188294D01*
X912920Y-1188294D02*
X912920Y-1140675D01*
X912920Y-1140675D02*
X922443Y-1102579D01*
X922443Y-1102579D02*
X931967Y-1083532D01*
X931967Y-1083532D02*
X941491Y-1074008D01*
X941491Y-1074008D02*
X960539Y-1064484D01*
X1112920Y-1264484D02*
X1112920Y-1131151D01*
X1112920Y-1150198D02*
X1122444Y-1140675D01*
X1122444Y-1140675D02*
X1141491Y-1131151D01*
X1141491Y-1131151D02*
X1170063Y-1131151D01*
X1170063Y-1131151D02*
X1189110Y-1140675D01*
X1189110Y-1140675D02*
X1198634Y-1159722D01*
X1198634Y-1159722D02*
X1198634Y-1264484D01*
X1198634Y-1159722D02*
X1208158Y-1140675D01*
X1208158Y-1140675D02*
X1227205Y-1131151D01*
X1227205Y-1131151D02*
X1255777Y-1131151D01*
X1255777Y-1131151D02*
X1274825Y-1140675D01*
X1274825Y-1140675D02*
X1284348Y-1159722D01*
X1284348Y-1159722D02*
X1284348Y-1264484D01*
X1379586Y-1264484D02*
X1379586Y-1131151D01*
X1379586Y-1150198D02*
X1389110Y-1140675D01*
X1389110Y-1140675D02*
X1408158Y-1131151D01*
X1408158Y-1131151D02*
X1436729Y-1131151D01*
X1436729Y-1131151D02*
X1455777Y-1140675D01*
X1455777Y-1140675D02*
X1465301Y-1159722D01*
X1465301Y-1159722D02*
X1465301Y-1264484D01*
X1465301Y-1159722D02*
X1474824Y-1140675D01*
X1474824Y-1140675D02*
X1493872Y-1131151D01*
X1493872Y-1131151D02*
X1522443Y-1131151D01*
X1522443Y-1131151D02*
X1541491Y-1140675D01*
X1541491Y-1140675D02*
X1551015Y-1159722D01*
X1551015Y-1159722D02*
X1551015Y-1264484D01*
X1941491Y-1054960D02*
X1770063Y-1312103D01*
X2198634Y-1064484D02*
X2217682Y-1064484D01*
X2217682Y-1064484D02*
X2236729Y-1074008D01*
X2236729Y-1074008D02*
X2246253Y-1083532D01*
X2246253Y-1083532D02*
X2255777Y-1102579D01*
X2255777Y-1102579D02*
X2265301Y-1140675D01*
X2265301Y-1140675D02*
X2265301Y-1188294D01*
X2265301Y-1188294D02*
X2255777Y-1226389D01*
X2255777Y-1226389D02*
X2246253Y-1245437D01*
X2246253Y-1245437D02*
X2236729Y-1254960D01*
X2236729Y-1254960D02*
X2217682Y-1264484D01*
X2217682Y-1264484D02*
X2198634Y-1264484D01*
X2198634Y-1264484D02*
X2179587Y-1254960D01*
X2179587Y-1254960D02*
X2170063Y-1245437D01*
X2170063Y-1245437D02*
X2160539Y-1226389D01*
X2160539Y-1226389D02*
X2151015Y-1188294D01*
X2151015Y-1188294D02*
X2151015Y-1140675D01*
X2151015Y-1140675D02*
X2160539Y-1102579D01*
X2160539Y-1102579D02*
X2170063Y-1083532D01*
X2170063Y-1083532D02*
X2179587Y-1074008D01*
X2179587Y-1074008D02*
X2198634Y-1064484D01*
X2351015Y-1245437D02*
X2360539Y-1254960D01*
X2360539Y-1254960D02*
X2351015Y-1264484D01*
X2351015Y-1264484D02*
X2341491Y-1254960D01*
X2341491Y-1254960D02*
X2351015Y-1245437D01*
X2351015Y-1245437D02*
X2351015Y-1264484D01*
X2484348Y-1064484D02*
X2503396Y-1064484D01*
X2503396Y-1064484D02*
X2522444Y-1074008D01*
X2522444Y-1074008D02*
X2531968Y-1083532D01*
X2531968Y-1083532D02*
X2541491Y-1102579D01*
X2541491Y-1102579D02*
X2551015Y-1140675D01*
X2551015Y-1140675D02*
X2551015Y-1188294D01*
X2551015Y-1188294D02*
X2541491Y-1226389D01*
X2541491Y-1226389D02*
X2531968Y-1245437D01*
X2531968Y-1245437D02*
X2522444Y-1254960D01*
X2522444Y-1254960D02*
X2503396Y-1264484D01*
X2503396Y-1264484D02*
X2484348Y-1264484D01*
X2484348Y-1264484D02*
X2465301Y-1254960D01*
X2465301Y-1254960D02*
X2455777Y-1245437D01*
X2455777Y-1245437D02*
X2446253Y-1226389D01*
X2446253Y-1226389D02*
X2436729Y-1188294D01*
X2436729Y-1188294D02*
X2436729Y-1140675D01*
X2436729Y-1140675D02*
X2446253Y-1102579D01*
X2446253Y-1102579D02*
X2455777Y-1083532D01*
X2455777Y-1083532D02*
X2465301Y-1074008D01*
X2465301Y-1074008D02*
X2484348Y-1064484D01*
X2617682Y-1064484D02*
X2741491Y-1064484D01*
X2741491Y-1064484D02*
X2674825Y-1140675D01*
X2674825Y-1140675D02*
X2703396Y-1140675D01*
X2703396Y-1140675D02*
X2722444Y-1150198D01*
X2722444Y-1150198D02*
X2731968Y-1159722D01*
X2731968Y-1159722D02*
X2741491Y-1178770D01*
X2741491Y-1178770D02*
X2741491Y-1226389D01*
X2741491Y-1226389D02*
X2731968Y-1245437D01*
X2731968Y-1245437D02*
X2722444Y-1254960D01*
X2722444Y-1254960D02*
X2703396Y-1264484D01*
X2703396Y-1264484D02*
X2646253Y-1264484D01*
X2646253Y-1264484D02*
X2627206Y-1254960D01*
X2627206Y-1254960D02*
X2617682Y-1245437D01*
X2836729Y-1264484D02*
X2874825Y-1264484D01*
X2874825Y-1264484D02*
X2893872Y-1254960D01*
X2893872Y-1254960D02*
X2903396Y-1245437D01*
X2903396Y-1245437D02*
X2922444Y-1216865D01*
X2922444Y-1216865D02*
X2931967Y-1178770D01*
X2931967Y-1178770D02*
X2931967Y-1102579D01*
X2931967Y-1102579D02*
X2922444Y-1083532D01*
X2922444Y-1083532D02*
X2912920Y-1074008D01*
X2912920Y-1074008D02*
X2893872Y-1064484D01*
X2893872Y-1064484D02*
X2855777Y-1064484D01*
X2855777Y-1064484D02*
X2836729Y-1074008D01*
X2836729Y-1074008D02*
X2827206Y-1083532D01*
X2827206Y-1083532D02*
X2817682Y-1102579D01*
X2817682Y-1102579D02*
X2817682Y-1150198D01*
X2817682Y-1150198D02*
X2827206Y-1169246D01*
X2827206Y-1169246D02*
X2836729Y-1178770D01*
X2836729Y-1178770D02*
X2855777Y-1188294D01*
X2855777Y-1188294D02*
X2893872Y-1188294D01*
X2893872Y-1188294D02*
X2912920Y-1178770D01*
X2912920Y-1178770D02*
X2922444Y-1169246D01*
X2922444Y-1169246D02*
X2931967Y-1150198D01*
X3103396Y-1131151D02*
X3103396Y-1264484D01*
X3055777Y-1054960D02*
X3008158Y-1197818D01*
X3008158Y-1197818D02*
X3131967Y-1197818D01*
X3198634Y-1064484D02*
X3198634Y-1102579D01*
X3274825Y-1064484D02*
X3274825Y-1102579D01*
X3570063Y-1340675D02*
X3560539Y-1331151D01*
X3560539Y-1331151D02*
X3541491Y-1302579D01*
X3541491Y-1302579D02*
X3531968Y-1283532D01*
X3531968Y-1283532D02*
X3522444Y-1254960D01*
X3522444Y-1254960D02*
X3512920Y-1207341D01*
X3512920Y-1207341D02*
X3512920Y-1169246D01*
X3512920Y-1169246D02*
X3522444Y-1121627D01*
X3522444Y-1121627D02*
X3531968Y-1093056D01*
X3531968Y-1093056D02*
X3541491Y-1074008D01*
X3541491Y-1074008D02*
X3560539Y-1045436D01*
X3560539Y-1045436D02*
X3570063Y-1035913D01*
X3741491Y-1064484D02*
X3646253Y-1064484D01*
X3646253Y-1064484D02*
X3636729Y-1159722D01*
X3636729Y-1159722D02*
X3646253Y-1150198D01*
X3646253Y-1150198D02*
X3665301Y-1140675D01*
X3665301Y-1140675D02*
X3712920Y-1140675D01*
X3712920Y-1140675D02*
X3731968Y-1150198D01*
X3731968Y-1150198D02*
X3741491Y-1159722D01*
X3741491Y-1159722D02*
X3751015Y-1178770D01*
X3751015Y-1178770D02*
X3751015Y-1226389D01*
X3751015Y-1226389D02*
X3741491Y-1245437D01*
X3741491Y-1245437D02*
X3731968Y-1254960D01*
X3731968Y-1254960D02*
X3712920Y-1264484D01*
X3712920Y-1264484D02*
X3665301Y-1264484D01*
X3665301Y-1264484D02*
X3646253Y-1254960D01*
X3646253Y-1254960D02*
X3636729Y-1245437D01*
X3989110Y-1264484D02*
X3989110Y-1064484D01*
X4074825Y-1264484D02*
X4074825Y-1159722D01*
X4074825Y-1159722D02*
X4065301Y-1140675D01*
X4065301Y-1140675D02*
X4046253Y-1131151D01*
X4046253Y-1131151D02*
X4017682Y-1131151D01*
X4017682Y-1131151D02*
X3998634Y-1140675D01*
X3998634Y-1140675D02*
X3989110Y-1150198D01*
X4198634Y-1264484D02*
X4179587Y-1254960D01*
X4179587Y-1254960D02*
X4170063Y-1245437D01*
X4170063Y-1245437D02*
X4160539Y-1226389D01*
X4160539Y-1226389D02*
X4160539Y-1169246D01*
X4160539Y-1169246D02*
X4170063Y-1150198D01*
X4170063Y-1150198D02*
X4179587Y-1140675D01*
X4179587Y-1140675D02*
X4198634Y-1131151D01*
X4198634Y-1131151D02*
X4227206Y-1131151D01*
X4227206Y-1131151D02*
X4246253Y-1140675D01*
X4246253Y-1140675D02*
X4255777Y-1150198D01*
X4255777Y-1150198D02*
X4265301Y-1169246D01*
X4265301Y-1169246D02*
X4265301Y-1226389D01*
X4265301Y-1226389D02*
X4255777Y-1245437D01*
X4255777Y-1245437D02*
X4246253Y-1254960D01*
X4246253Y-1254960D02*
X4227206Y-1264484D01*
X4227206Y-1264484D02*
X4198634Y-1264484D01*
X4379587Y-1264484D02*
X4360539Y-1254960D01*
X4360539Y-1254960D02*
X4351015Y-1235913D01*
X4351015Y-1235913D02*
X4351015Y-1064484D01*
X4531968Y-1254960D02*
X4512920Y-1264484D01*
X4512920Y-1264484D02*
X4474825Y-1264484D01*
X4474825Y-1264484D02*
X4455777Y-1254960D01*
X4455777Y-1254960D02*
X4446253Y-1235913D01*
X4446253Y-1235913D02*
X4446253Y-1159722D01*
X4446253Y-1159722D02*
X4455777Y-1140675D01*
X4455777Y-1140675D02*
X4474825Y-1131151D01*
X4474825Y-1131151D02*
X4512920Y-1131151D01*
X4512920Y-1131151D02*
X4531968Y-1140675D01*
X4531968Y-1140675D02*
X4541492Y-1159722D01*
X4541492Y-1159722D02*
X4541492Y-1178770D01*
X4541492Y-1178770D02*
X4446253Y-1197818D01*
X4617682Y-1254960D02*
X4636730Y-1264484D01*
X4636730Y-1264484D02*
X4674825Y-1264484D01*
X4674825Y-1264484D02*
X4693873Y-1254960D01*
X4693873Y-1254960D02*
X4703396Y-1235913D01*
X4703396Y-1235913D02*
X4703396Y-1226389D01*
X4703396Y-1226389D02*
X4693873Y-1207341D01*
X4693873Y-1207341D02*
X4674825Y-1197818D01*
X4674825Y-1197818D02*
X4646253Y-1197818D01*
X4646253Y-1197818D02*
X4627206Y-1188294D01*
X4627206Y-1188294D02*
X4617682Y-1169246D01*
X4617682Y-1169246D02*
X4617682Y-1159722D01*
X4617682Y-1159722D02*
X4627206Y-1140675D01*
X4627206Y-1140675D02*
X4646253Y-1131151D01*
X4646253Y-1131151D02*
X4674825Y-1131151D01*
X4674825Y-1131151D02*
X4693873Y-1140675D01*
X4770063Y-1340675D02*
X4779587Y-1331151D01*
X4779587Y-1331151D02*
X4798634Y-1302579D01*
X4798634Y-1302579D02*
X4808158Y-1283532D01*
X4808158Y-1283532D02*
X4817682Y-1254960D01*
X4817682Y-1254960D02*
X4827206Y-1207341D01*
X4827206Y-1207341D02*
X4827206Y-1169246D01*
X4827206Y-1169246D02*
X4817682Y-1121627D01*
X4817682Y-1121627D02*
X4808158Y-1093056D01*
X4808158Y-1093056D02*
X4798634Y-1074008D01*
X4798634Y-1074008D02*
X4779587Y-1045436D01*
X4779587Y-1045436D02*
X4770063Y-1035913D01*
D12*
X-26966Y-1490034D02*
X-26966Y-1383967D01*
X-133034Y-1383967D01*
X-133034Y-1490034D01*
X-26966Y-1490034D01*
D11*
X360539Y-1528484D02*
X246253Y-1528484D01*
X303396Y-1528484D02*
X303396Y-1328484D01*
X303396Y-1328484D02*
X284348Y-1357056D01*
X284348Y-1357056D02*
X265301Y-1376103D01*
X265301Y-1376103D02*
X246253Y-1385627D01*
X446253Y-1509436D02*
X455777Y-1518960D01*
X455777Y-1518960D02*
X446253Y-1528484D01*
X446253Y-1528484D02*
X436729Y-1518960D01*
X436729Y-1518960D02*
X446253Y-1509436D01*
X446253Y-1509436D02*
X446253Y-1528484D01*
X636729Y-1328484D02*
X541491Y-1328484D01*
X541491Y-1328484D02*
X531967Y-1423722D01*
X531967Y-1423722D02*
X541491Y-1414198D01*
X541491Y-1414198D02*
X560539Y-1404675D01*
X560539Y-1404675D02*
X608158Y-1404675D01*
X608158Y-1404675D02*
X627205Y-1414198D01*
X627205Y-1414198D02*
X636729Y-1423722D01*
X636729Y-1423722D02*
X646253Y-1442770D01*
X646253Y-1442770D02*
X646253Y-1490389D01*
X646253Y-1490389D02*
X636729Y-1509436D01*
X636729Y-1509436D02*
X627205Y-1518960D01*
X627205Y-1518960D02*
X608158Y-1528484D01*
X608158Y-1528484D02*
X560539Y-1528484D01*
X560539Y-1528484D02*
X541491Y-1518960D01*
X541491Y-1518960D02*
X531967Y-1509436D01*
X770062Y-1328484D02*
X789110Y-1328484D01*
X789110Y-1328484D02*
X808158Y-1338008D01*
X808158Y-1338008D02*
X817682Y-1347532D01*
X817682Y-1347532D02*
X827205Y-1366579D01*
X827205Y-1366579D02*
X836729Y-1404675D01*
X836729Y-1404675D02*
X836729Y-1452294D01*
X836729Y-1452294D02*
X827205Y-1490389D01*
X827205Y-1490389D02*
X817682Y-1509436D01*
X817682Y-1509436D02*
X808158Y-1518960D01*
X808158Y-1518960D02*
X789110Y-1528484D01*
X789110Y-1528484D02*
X770062Y-1528484D01*
X770062Y-1528484D02*
X751015Y-1518960D01*
X751015Y-1518960D02*
X741491Y-1509436D01*
X741491Y-1509436D02*
X731967Y-1490389D01*
X731967Y-1490389D02*
X722443Y-1452294D01*
X722443Y-1452294D02*
X722443Y-1404675D01*
X722443Y-1404675D02*
X731967Y-1366579D01*
X731967Y-1366579D02*
X741491Y-1347532D01*
X741491Y-1347532D02*
X751015Y-1338008D01*
X751015Y-1338008D02*
X770062Y-1328484D01*
X960539Y-1328484D02*
X979586Y-1328484D01*
X979586Y-1328484D02*
X998634Y-1338008D01*
X998634Y-1338008D02*
X1008158Y-1347532D01*
X1008158Y-1347532D02*
X1017682Y-1366579D01*
X1017682Y-1366579D02*
X1027205Y-1404675D01*
X1027205Y-1404675D02*
X1027205Y-1452294D01*
X1027205Y-1452294D02*
X1017682Y-1490389D01*
X1017682Y-1490389D02*
X1008158Y-1509436D01*
X1008158Y-1509436D02*
X998634Y-1518960D01*
X998634Y-1518960D02*
X979586Y-1528484D01*
X979586Y-1528484D02*
X960539Y-1528484D01*
X960539Y-1528484D02*
X941491Y-1518960D01*
X941491Y-1518960D02*
X931967Y-1509436D01*
X931967Y-1509436D02*
X922443Y-1490389D01*
X922443Y-1490389D02*
X912920Y-1452294D01*
X912920Y-1452294D02*
X912920Y-1404675D01*
X912920Y-1404675D02*
X922443Y-1366579D01*
X922443Y-1366579D02*
X931967Y-1347532D01*
X931967Y-1347532D02*
X941491Y-1338008D01*
X941491Y-1338008D02*
X960539Y-1328484D01*
X1112920Y-1528484D02*
X1112920Y-1395151D01*
X1112920Y-1414198D02*
X1122444Y-1404675D01*
X1122444Y-1404675D02*
X1141491Y-1395151D01*
X1141491Y-1395151D02*
X1170063Y-1395151D01*
X1170063Y-1395151D02*
X1189110Y-1404675D01*
X1189110Y-1404675D02*
X1198634Y-1423722D01*
X1198634Y-1423722D02*
X1198634Y-1528484D01*
X1198634Y-1423722D02*
X1208158Y-1404675D01*
X1208158Y-1404675D02*
X1227205Y-1395151D01*
X1227205Y-1395151D02*
X1255777Y-1395151D01*
X1255777Y-1395151D02*
X1274825Y-1404675D01*
X1274825Y-1404675D02*
X1284348Y-1423722D01*
X1284348Y-1423722D02*
X1284348Y-1528484D01*
X1379586Y-1528484D02*
X1379586Y-1395151D01*
X1379586Y-1414198D02*
X1389110Y-1404675D01*
X1389110Y-1404675D02*
X1408158Y-1395151D01*
X1408158Y-1395151D02*
X1436729Y-1395151D01*
X1436729Y-1395151D02*
X1455777Y-1404675D01*
X1455777Y-1404675D02*
X1465301Y-1423722D01*
X1465301Y-1423722D02*
X1465301Y-1528484D01*
X1465301Y-1423722D02*
X1474824Y-1404675D01*
X1474824Y-1404675D02*
X1493872Y-1395151D01*
X1493872Y-1395151D02*
X1522443Y-1395151D01*
X1522443Y-1395151D02*
X1541491Y-1404675D01*
X1541491Y-1404675D02*
X1551015Y-1423722D01*
X1551015Y-1423722D02*
X1551015Y-1528484D01*
X1941491Y-1318960D02*
X1770063Y-1576103D01*
X2198634Y-1328484D02*
X2217682Y-1328484D01*
X2217682Y-1328484D02*
X2236729Y-1338008D01*
X2236729Y-1338008D02*
X2246253Y-1347532D01*
X2246253Y-1347532D02*
X2255777Y-1366579D01*
X2255777Y-1366579D02*
X2265301Y-1404675D01*
X2265301Y-1404675D02*
X2265301Y-1452294D01*
X2265301Y-1452294D02*
X2255777Y-1490389D01*
X2255777Y-1490389D02*
X2246253Y-1509436D01*
X2246253Y-1509436D02*
X2236729Y-1518960D01*
X2236729Y-1518960D02*
X2217682Y-1528484D01*
X2217682Y-1528484D02*
X2198634Y-1528484D01*
X2198634Y-1528484D02*
X2179587Y-1518960D01*
X2179587Y-1518960D02*
X2170063Y-1509436D01*
X2170063Y-1509436D02*
X2160539Y-1490389D01*
X2160539Y-1490389D02*
X2151015Y-1452294D01*
X2151015Y-1452294D02*
X2151015Y-1404675D01*
X2151015Y-1404675D02*
X2160539Y-1366579D01*
X2160539Y-1366579D02*
X2170063Y-1347532D01*
X2170063Y-1347532D02*
X2179587Y-1338008D01*
X2179587Y-1338008D02*
X2198634Y-1328484D01*
X2351015Y-1509436D02*
X2360539Y-1518960D01*
X2360539Y-1518960D02*
X2351015Y-1528484D01*
X2351015Y-1528484D02*
X2341491Y-1518960D01*
X2341491Y-1518960D02*
X2351015Y-1509436D01*
X2351015Y-1509436D02*
X2351015Y-1528484D01*
X2484348Y-1328484D02*
X2503396Y-1328484D01*
X2503396Y-1328484D02*
X2522444Y-1338008D01*
X2522444Y-1338008D02*
X2531968Y-1347532D01*
X2531968Y-1347532D02*
X2541491Y-1366579D01*
X2541491Y-1366579D02*
X2551015Y-1404675D01*
X2551015Y-1404675D02*
X2551015Y-1452294D01*
X2551015Y-1452294D02*
X2541491Y-1490389D01*
X2541491Y-1490389D02*
X2531968Y-1509436D01*
X2531968Y-1509436D02*
X2522444Y-1518960D01*
X2522444Y-1518960D02*
X2503396Y-1528484D01*
X2503396Y-1528484D02*
X2484348Y-1528484D01*
X2484348Y-1528484D02*
X2465301Y-1518960D01*
X2465301Y-1518960D02*
X2455777Y-1509436D01*
X2455777Y-1509436D02*
X2446253Y-1490389D01*
X2446253Y-1490389D02*
X2436729Y-1452294D01*
X2436729Y-1452294D02*
X2436729Y-1404675D01*
X2436729Y-1404675D02*
X2446253Y-1366579D01*
X2446253Y-1366579D02*
X2455777Y-1347532D01*
X2455777Y-1347532D02*
X2465301Y-1338008D01*
X2465301Y-1338008D02*
X2484348Y-1328484D01*
X2731968Y-1328484D02*
X2636729Y-1328484D01*
X2636729Y-1328484D02*
X2627206Y-1423722D01*
X2627206Y-1423722D02*
X2636729Y-1414198D01*
X2636729Y-1414198D02*
X2655777Y-1404675D01*
X2655777Y-1404675D02*
X2703396Y-1404675D01*
X2703396Y-1404675D02*
X2722444Y-1414198D01*
X2722444Y-1414198D02*
X2731968Y-1423722D01*
X2731968Y-1423722D02*
X2741491Y-1442770D01*
X2741491Y-1442770D02*
X2741491Y-1490389D01*
X2741491Y-1490389D02*
X2731968Y-1509436D01*
X2731968Y-1509436D02*
X2722444Y-1518960D01*
X2722444Y-1518960D02*
X2703396Y-1528484D01*
X2703396Y-1528484D02*
X2655777Y-1528484D01*
X2655777Y-1528484D02*
X2636729Y-1518960D01*
X2636729Y-1518960D02*
X2627206Y-1509436D01*
X2836729Y-1528484D02*
X2874825Y-1528484D01*
X2874825Y-1528484D02*
X2893872Y-1518960D01*
X2893872Y-1518960D02*
X2903396Y-1509436D01*
X2903396Y-1509436D02*
X2922444Y-1480865D01*
X2922444Y-1480865D02*
X2931967Y-1442770D01*
X2931967Y-1442770D02*
X2931967Y-1366579D01*
X2931967Y-1366579D02*
X2922444Y-1347532D01*
X2922444Y-1347532D02*
X2912920Y-1338008D01*
X2912920Y-1338008D02*
X2893872Y-1328484D01*
X2893872Y-1328484D02*
X2855777Y-1328484D01*
X2855777Y-1328484D02*
X2836729Y-1338008D01*
X2836729Y-1338008D02*
X2827206Y-1347532D01*
X2827206Y-1347532D02*
X2817682Y-1366579D01*
X2817682Y-1366579D02*
X2817682Y-1414198D01*
X2817682Y-1414198D02*
X2827206Y-1433246D01*
X2827206Y-1433246D02*
X2836729Y-1442770D01*
X2836729Y-1442770D02*
X2855777Y-1452294D01*
X2855777Y-1452294D02*
X2893872Y-1452294D01*
X2893872Y-1452294D02*
X2912920Y-1442770D01*
X2912920Y-1442770D02*
X2922444Y-1433246D01*
X2922444Y-1433246D02*
X2931967Y-1414198D01*
X3122444Y-1528484D02*
X3008158Y-1528484D01*
X3065301Y-1528484D02*
X3065301Y-1328484D01*
X3065301Y-1328484D02*
X3046253Y-1357056D01*
X3046253Y-1357056D02*
X3027206Y-1376103D01*
X3027206Y-1376103D02*
X3008158Y-1385627D01*
X3198634Y-1328484D02*
X3198634Y-1366579D01*
X3274825Y-1328484D02*
X3274825Y-1366579D01*
X3570063Y-1604675D02*
X3560539Y-1595151D01*
X3560539Y-1595151D02*
X3541491Y-1566579D01*
X3541491Y-1566579D02*
X3531968Y-1547532D01*
X3531968Y-1547532D02*
X3522444Y-1518960D01*
X3522444Y-1518960D02*
X3512920Y-1471341D01*
X3512920Y-1471341D02*
X3512920Y-1433246D01*
X3512920Y-1433246D02*
X3522444Y-1385627D01*
X3522444Y-1385627D02*
X3531968Y-1357056D01*
X3531968Y-1357056D02*
X3541491Y-1338008D01*
X3541491Y-1338008D02*
X3560539Y-1309437D01*
X3560539Y-1309437D02*
X3570063Y-1299913D01*
X3627206Y-1328484D02*
X3760539Y-1328484D01*
X3760539Y-1328484D02*
X3674825Y-1528484D01*
X3827206Y-1347532D02*
X3836729Y-1338008D01*
X3836729Y-1338008D02*
X3855777Y-1328484D01*
X3855777Y-1328484D02*
X3903396Y-1328484D01*
X3903396Y-1328484D02*
X3922444Y-1338008D01*
X3922444Y-1338008D02*
X3931968Y-1347532D01*
X3931968Y-1347532D02*
X3941491Y-1366579D01*
X3941491Y-1366579D02*
X3941491Y-1385627D01*
X3941491Y-1385627D02*
X3931968Y-1414198D01*
X3931968Y-1414198D02*
X3817682Y-1528484D01*
X3817682Y-1528484D02*
X3941491Y-1528484D01*
X4179587Y-1528484D02*
X4179587Y-1328484D01*
X4265301Y-1528484D02*
X4265301Y-1423722D01*
X4265301Y-1423722D02*
X4255777Y-1404675D01*
X4255777Y-1404675D02*
X4236730Y-1395151D01*
X4236730Y-1395151D02*
X4208158Y-1395151D01*
X4208158Y-1395151D02*
X4189110Y-1404675D01*
X4189110Y-1404675D02*
X4179587Y-1414198D01*
X4389111Y-1528484D02*
X4370063Y-1518960D01*
X4370063Y-1518960D02*
X4360539Y-1509436D01*
X4360539Y-1509436D02*
X4351015Y-1490389D01*
X4351015Y-1490389D02*
X4351015Y-1433246D01*
X4351015Y-1433246D02*
X4360539Y-1414198D01*
X4360539Y-1414198D02*
X4370063Y-1404675D01*
X4370063Y-1404675D02*
X4389111Y-1395151D01*
X4389111Y-1395151D02*
X4417682Y-1395151D01*
X4417682Y-1395151D02*
X4436730Y-1404675D01*
X4436730Y-1404675D02*
X4446253Y-1414198D01*
X4446253Y-1414198D02*
X4455777Y-1433246D01*
X4455777Y-1433246D02*
X4455777Y-1490389D01*
X4455777Y-1490389D02*
X4446253Y-1509436D01*
X4446253Y-1509436D02*
X4436730Y-1518960D01*
X4436730Y-1518960D02*
X4417682Y-1528484D01*
X4417682Y-1528484D02*
X4389111Y-1528484D01*
X4570063Y-1528484D02*
X4551015Y-1518960D01*
X4551015Y-1518960D02*
X4541492Y-1499913D01*
X4541492Y-1499913D02*
X4541492Y-1328484D01*
X4722444Y-1518960D02*
X4703396Y-1528484D01*
X4703396Y-1528484D02*
X4665301Y-1528484D01*
X4665301Y-1528484D02*
X4646253Y-1518960D01*
X4646253Y-1518960D02*
X4636730Y-1499913D01*
X4636730Y-1499913D02*
X4636730Y-1423722D01*
X4636730Y-1423722D02*
X4646253Y-1404675D01*
X4646253Y-1404675D02*
X4665301Y-1395151D01*
X4665301Y-1395151D02*
X4703396Y-1395151D01*
X4703396Y-1395151D02*
X4722444Y-1404675D01*
X4722444Y-1404675D02*
X4731968Y-1423722D01*
X4731968Y-1423722D02*
X4731968Y-1442770D01*
X4731968Y-1442770D02*
X4636730Y-1461817D01*
X4808158Y-1518960D02*
X4827206Y-1528484D01*
X4827206Y-1528484D02*
X4865301Y-1528484D01*
X4865301Y-1528484D02*
X4884349Y-1518960D01*
X4884349Y-1518960D02*
X4893873Y-1499913D01*
X4893873Y-1499913D02*
X4893873Y-1490389D01*
X4893873Y-1490389D02*
X4884349Y-1471341D01*
X4884349Y-1471341D02*
X4865301Y-1461817D01*
X4865301Y-1461817D02*
X4836730Y-1461817D01*
X4836730Y-1461817D02*
X4817682Y-1452294D01*
X4817682Y-1452294D02*
X4808158Y-1433246D01*
X4808158Y-1433246D02*
X4808158Y-1423722D01*
X4808158Y-1423722D02*
X4817682Y-1404675D01*
X4817682Y-1404675D02*
X4836730Y-1395151D01*
X4836730Y-1395151D02*
X4865301Y-1395151D01*
X4865301Y-1395151D02*
X4884349Y-1404675D01*
X5131968Y-1452294D02*
X5284349Y-1452294D01*
X5208158Y-1528484D02*
X5208158Y-1376103D01*
X5512920Y-1328484D02*
X5636730Y-1328484D01*
X5636730Y-1328484D02*
X5570063Y-1404675D01*
X5570063Y-1404675D02*
X5598634Y-1404675D01*
X5598634Y-1404675D02*
X5617682Y-1414198D01*
X5617682Y-1414198D02*
X5627206Y-1423722D01*
X5627206Y-1423722D02*
X5636730Y-1442770D01*
X5636730Y-1442770D02*
X5636730Y-1490389D01*
X5636730Y-1490389D02*
X5627206Y-1509436D01*
X5627206Y-1509436D02*
X5617682Y-1518960D01*
X5617682Y-1518960D02*
X5598634Y-1528484D01*
X5598634Y-1528484D02*
X5541492Y-1528484D01*
X5541492Y-1528484D02*
X5522444Y-1518960D01*
X5522444Y-1518960D02*
X5512920Y-1509436D01*
X5808158Y-1328484D02*
X5770063Y-1328484D01*
X5770063Y-1328484D02*
X5751015Y-1338008D01*
X5751015Y-1338008D02*
X5741492Y-1347532D01*
X5741492Y-1347532D02*
X5722444Y-1376103D01*
X5722444Y-1376103D02*
X5712920Y-1414198D01*
X5712920Y-1414198D02*
X5712920Y-1490389D01*
X5712920Y-1490389D02*
X5722444Y-1509436D01*
X5722444Y-1509436D02*
X5731968Y-1518960D01*
X5731968Y-1518960D02*
X5751015Y-1528484D01*
X5751015Y-1528484D02*
X5789111Y-1528484D01*
X5789111Y-1528484D02*
X5808158Y-1518960D01*
X5808158Y-1518960D02*
X5817682Y-1509436D01*
X5817682Y-1509436D02*
X5827206Y-1490389D01*
X5827206Y-1490389D02*
X5827206Y-1442770D01*
X5827206Y-1442770D02*
X5817682Y-1423722D01*
X5817682Y-1423722D02*
X5808158Y-1414198D01*
X5808158Y-1414198D02*
X5789111Y-1404675D01*
X5789111Y-1404675D02*
X5751015Y-1404675D01*
X5751015Y-1404675D02*
X5731968Y-1414198D01*
X5731968Y-1414198D02*
X5722444Y-1423722D01*
X5722444Y-1423722D02*
X5712920Y-1442770D01*
X6055777Y-1518960D02*
X6074825Y-1528484D01*
X6074825Y-1528484D02*
X6112920Y-1528484D01*
X6112920Y-1528484D02*
X6131968Y-1518960D01*
X6131968Y-1518960D02*
X6141492Y-1499913D01*
X6141492Y-1499913D02*
X6141492Y-1490389D01*
X6141492Y-1490389D02*
X6131968Y-1471341D01*
X6131968Y-1471341D02*
X6112920Y-1461817D01*
X6112920Y-1461817D02*
X6084349Y-1461817D01*
X6084349Y-1461817D02*
X6065301Y-1452294D01*
X6065301Y-1452294D02*
X6055777Y-1433246D01*
X6055777Y-1433246D02*
X6055777Y-1423722D01*
X6055777Y-1423722D02*
X6065301Y-1404675D01*
X6065301Y-1404675D02*
X6084349Y-1395151D01*
X6084349Y-1395151D02*
X6112920Y-1395151D01*
X6112920Y-1395151D02*
X6131968Y-1404675D01*
X6255777Y-1528484D02*
X6236730Y-1518960D01*
X6236730Y-1518960D02*
X6227206Y-1499913D01*
X6227206Y-1499913D02*
X6227206Y-1328484D01*
X6360539Y-1528484D02*
X6341492Y-1518960D01*
X6341492Y-1518960D02*
X6331968Y-1509436D01*
X6331968Y-1509436D02*
X6322444Y-1490389D01*
X6322444Y-1490389D02*
X6322444Y-1433246D01*
X6322444Y-1433246D02*
X6331968Y-1414198D01*
X6331968Y-1414198D02*
X6341492Y-1404675D01*
X6341492Y-1404675D02*
X6360539Y-1395151D01*
X6360539Y-1395151D02*
X6389111Y-1395151D01*
X6389111Y-1395151D02*
X6408158Y-1404675D01*
X6408158Y-1404675D02*
X6417682Y-1414198D01*
X6417682Y-1414198D02*
X6427206Y-1433246D01*
X6427206Y-1433246D02*
X6427206Y-1490389D01*
X6427206Y-1490389D02*
X6417682Y-1509436D01*
X6417682Y-1509436D02*
X6408158Y-1518960D01*
X6408158Y-1518960D02*
X6389111Y-1528484D01*
X6389111Y-1528484D02*
X6360539Y-1528484D01*
X6484349Y-1395151D02*
X6560539Y-1395151D01*
X6512920Y-1328484D02*
X6512920Y-1499913D01*
X6512920Y-1499913D02*
X6522444Y-1518960D01*
X6522444Y-1518960D02*
X6541492Y-1528484D01*
X6541492Y-1528484D02*
X6560539Y-1528484D01*
X6617682Y-1518960D02*
X6636730Y-1528484D01*
X6636730Y-1528484D02*
X6674825Y-1528484D01*
X6674825Y-1528484D02*
X6693873Y-1518960D01*
X6693873Y-1518960D02*
X6703396Y-1499913D01*
X6703396Y-1499913D02*
X6703396Y-1490389D01*
X6703396Y-1490389D02*
X6693873Y-1471341D01*
X6693873Y-1471341D02*
X6674825Y-1461817D01*
X6674825Y-1461817D02*
X6646254Y-1461817D01*
X6646254Y-1461817D02*
X6627206Y-1452294D01*
X6627206Y-1452294D02*
X6617682Y-1433246D01*
X6617682Y-1433246D02*
X6617682Y-1423722D01*
X6617682Y-1423722D02*
X6627206Y-1404675D01*
X6627206Y-1404675D02*
X6646254Y-1395151D01*
X6646254Y-1395151D02*
X6674825Y-1395151D01*
X6674825Y-1395151D02*
X6693873Y-1404675D01*
X6770063Y-1604675D02*
X6779587Y-1595151D01*
X6779587Y-1595151D02*
X6798635Y-1566579D01*
X6798635Y-1566579D02*
X6808158Y-1547532D01*
X6808158Y-1547532D02*
X6817682Y-1518960D01*
X6817682Y-1518960D02*
X6827206Y-1471341D01*
X6827206Y-1471341D02*
X6827206Y-1433246D01*
X6827206Y-1433246D02*
X6817682Y-1385627D01*
X6817682Y-1385627D02*
X6808158Y-1357056D01*
X6808158Y-1357056D02*
X6798635Y-1338008D01*
X6798635Y-1338008D02*
X6779587Y-1309437D01*
X6779587Y-1309437D02*
X6770063Y-1299913D01*
M02*
