%TF.GenerationSoftware,KiCad,Pcbnew,8.0.5*%
%TF.CreationDate,2024-10-22T20:51:29-04:00*%
%TF.ProjectId,trad,74726164-2e6b-4696-9361-645f70636258,rev?*%
%TF.SameCoordinates,PX1c62fe0PY650e7e0*%
%TF.FileFunction,Legend,Bot*%
%TF.FilePolarity,Positive*%
%FSLAX46Y46*%
G04 Gerber Fmt 4.6, Leading zero omitted, Abs format (unit mm)*
G04 Created by KiCad (PCBNEW 8.0.5) date 2024-10-22 20:51:29*
%MOMM*%
%LPD*%
G01*
G04 APERTURE LIST*
G04 Aperture macros list*
%AMRoundRect*
0 Rectangle with rounded corners*
0 $1 Rounding radius*
0 $2 $3 $4 $5 $6 $7 $8 $9 X,Y pos of 4 corners*
0 Add a 4 corners polygon primitive as box body*
4,1,4,$2,$3,$4,$5,$6,$7,$8,$9,$2,$3,0*
0 Add four circle primitives for the rounded corners*
1,1,$1+$1,$2,$3*
1,1,$1+$1,$4,$5*
1,1,$1+$1,$6,$7*
1,1,$1+$1,$8,$9*
0 Add four rect primitives between the rounded corners*
20,1,$1+$1,$2,$3,$4,$5,0*
20,1,$1+$1,$4,$5,$6,$7,0*
20,1,$1+$1,$6,$7,$8,$9,0*
20,1,$1+$1,$8,$9,$2,$3,0*%
%AMHorizOval*
0 Thick line with rounded ends*
0 $1 width*
0 $2 $3 position (X,Y) of the first rounded end (center of the circle)*
0 $4 $5 position (X,Y) of the second rounded end (center of the circle)*
0 Add line between two ends*
20,1,$1,$2,$3,$4,$5,0*
0 Add two circle primitives to create the rounded ends*
1,1,$1,$2,$3*
1,1,$1,$4,$5*%
%AMRotRect*
0 Rectangle, with rotation*
0 The origin of the aperture is its center*
0 $1 length*
0 $2 width*
0 $3 Rotation angle, in degrees counterclockwise*
0 Add horizontal line*
21,1,$1,$2,0,0,$3*%
G04 Aperture macros list end*
%ADD10C,0.150000*%
%ADD11C,0.120000*%
%ADD12C,1.750000*%
%ADD13C,4.000000*%
%ADD14HorizOval,2.500000X0.656270X0.728862X-0.656270X-0.728862X0*%
%ADD15C,2.500000*%
%ADD16HorizOval,2.500000X0.020277X0.289981X-0.020277X-0.289981X0*%
%ADD17C,3.987800*%
%ADD18C,3.048000*%
%ADD19RoundRect,0.140000X0.219203X0.021213X0.021213X0.219203X-0.219203X-0.021213X-0.021213X-0.219203X0*%
%ADD20RoundRect,0.225000X0.375000X-0.225000X0.375000X0.225000X-0.375000X0.225000X-0.375000X-0.225000X0*%
%ADD21RoundRect,0.140000X-0.021213X0.219203X-0.219203X0.021213X0.021213X-0.219203X0.219203X-0.021213X0*%
%ADD22R,1.700000X1.000000*%
%ADD23RoundRect,0.135000X-0.135000X-0.185000X0.135000X-0.185000X0.135000X0.185000X-0.135000X0.185000X0*%
%ADD24RoundRect,0.140000X0.140000X0.170000X-0.140000X0.170000X-0.140000X-0.170000X0.140000X-0.170000X0*%
%ADD25RoundRect,0.150000X0.650000X0.150000X-0.650000X0.150000X-0.650000X-0.150000X0.650000X-0.150000X0*%
%ADD26RoundRect,0.140000X0.170000X-0.140000X0.170000X0.140000X-0.170000X0.140000X-0.170000X-0.140000X0*%
%ADD27RoundRect,0.150000X0.587500X0.150000X-0.587500X0.150000X-0.587500X-0.150000X0.587500X-0.150000X0*%
%ADD28R,1.400000X1.200000*%
%ADD29RoundRect,0.135000X-0.226274X-0.035355X-0.035355X-0.226274X0.226274X0.035355X0.035355X0.226274X0*%
%ADD30RoundRect,0.140000X0.021213X-0.219203X0.219203X-0.021213X-0.021213X0.219203X-0.219203X0.021213X0*%
%ADD31R,1.700000X1.700000*%
%ADD32O,1.700000X1.700000*%
%ADD33RoundRect,0.140000X-0.170000X0.140000X-0.170000X-0.140000X0.170000X-0.140000X0.170000X0.140000X0*%
%ADD34RoundRect,0.150000X-0.625000X0.150000X-0.625000X-0.150000X0.625000X-0.150000X0.625000X0.150000X0*%
%ADD35RoundRect,0.250000X-0.650000X0.350000X-0.650000X-0.350000X0.650000X-0.350000X0.650000X0.350000X0*%
%ADD36RoundRect,0.140000X-0.140000X-0.170000X0.140000X-0.170000X0.140000X0.170000X-0.140000X0.170000X0*%
%ADD37RoundRect,0.135000X0.185000X-0.135000X0.185000X0.135000X-0.185000X0.135000X-0.185000X-0.135000X0*%
%ADD38RoundRect,0.140000X-0.219203X-0.021213X-0.021213X-0.219203X0.219203X0.021213X0.021213X0.219203X0*%
%ADD39RoundRect,0.050000X0.309359X-0.238649X-0.238649X0.309359X-0.309359X0.238649X0.238649X-0.309359X0*%
%ADD40RoundRect,0.050000X0.309359X0.238649X0.238649X0.309359X-0.309359X-0.238649X-0.238649X-0.309359X0*%
%ADD41RotRect,3.200000X3.200000X135.000000*%
G04 APERTURE END LIST*
D10*
X5390187Y29062226D02*
X5485425Y29109845D01*
X5485425Y29109845D02*
X5628282Y29109845D01*
X5628282Y29109845D02*
X5771139Y29062226D01*
X5771139Y29062226D02*
X5866377Y28966988D01*
X5866377Y28966988D02*
X5913996Y28871750D01*
X5913996Y28871750D02*
X5961615Y28681274D01*
X5961615Y28681274D02*
X5961615Y28538417D01*
X5961615Y28538417D02*
X5913996Y28347941D01*
X5913996Y28347941D02*
X5866377Y28252703D01*
X5866377Y28252703D02*
X5771139Y28157464D01*
X5771139Y28157464D02*
X5628282Y28109845D01*
X5628282Y28109845D02*
X5533044Y28109845D01*
X5533044Y28109845D02*
X5390187Y28157464D01*
X5390187Y28157464D02*
X5342568Y28205084D01*
X5342568Y28205084D02*
X5342568Y28538417D01*
X5342568Y28538417D02*
X5533044Y28538417D01*
X4913996Y28109845D02*
X4913996Y29109845D01*
X4913996Y29109845D02*
X4342568Y28109845D01*
X4342568Y28109845D02*
X4342568Y29109845D01*
X3866377Y28109845D02*
X3866377Y29109845D01*
X3866377Y29109845D02*
X3628282Y29109845D01*
X3628282Y29109845D02*
X3485425Y29062226D01*
X3485425Y29062226D02*
X3390187Y28966988D01*
X3390187Y28966988D02*
X3342568Y28871750D01*
X3342568Y28871750D02*
X3294949Y28681274D01*
X3294949Y28681274D02*
X3294949Y28538417D01*
X3294949Y28538417D02*
X3342568Y28347941D01*
X3342568Y28347941D02*
X3390187Y28252703D01*
X3390187Y28252703D02*
X3485425Y28157464D01*
X3485425Y28157464D02*
X3628282Y28109845D01*
X3628282Y28109845D02*
X3866377Y28109845D01*
X29131164Y4121373D02*
X29131164Y5121373D01*
X29131164Y5121373D02*
X28797831Y4407088D01*
X28797831Y4407088D02*
X28464498Y5121373D01*
X28464498Y5121373D02*
X28464498Y4121373D01*
X27988307Y4645183D02*
X27654974Y4645183D01*
X27512117Y4121373D02*
X27988307Y4121373D01*
X27988307Y4121373D02*
X27988307Y5121373D01*
X27988307Y5121373D02*
X27512117Y5121373D01*
X26559736Y5073754D02*
X26654974Y5121373D01*
X26654974Y5121373D02*
X26797831Y5121373D01*
X26797831Y5121373D02*
X26940688Y5073754D01*
X26940688Y5073754D02*
X27035926Y4978516D01*
X27035926Y4978516D02*
X27083545Y4883278D01*
X27083545Y4883278D02*
X27131164Y4692802D01*
X27131164Y4692802D02*
X27131164Y4549945D01*
X27131164Y4549945D02*
X27083545Y4359469D01*
X27083545Y4359469D02*
X27035926Y4264231D01*
X27035926Y4264231D02*
X26940688Y4168992D01*
X26940688Y4168992D02*
X26797831Y4121373D01*
X26797831Y4121373D02*
X26702593Y4121373D01*
X26702593Y4121373D02*
X26559736Y4168992D01*
X26559736Y4168992D02*
X26512117Y4216612D01*
X26512117Y4216612D02*
X26512117Y4549945D01*
X26512117Y4549945D02*
X26702593Y4549945D01*
X26131164Y4407088D02*
X25654974Y4407088D01*
X26226402Y4121373D02*
X25893069Y5121373D01*
X25893069Y5121373D02*
X25559736Y4121373D01*
X24654974Y4216612D02*
X24702593Y4168992D01*
X24702593Y4168992D02*
X24845450Y4121373D01*
X24845450Y4121373D02*
X24940688Y4121373D01*
X24940688Y4121373D02*
X25083545Y4168992D01*
X25083545Y4168992D02*
X25178783Y4264231D01*
X25178783Y4264231D02*
X25226402Y4359469D01*
X25226402Y4359469D02*
X25274021Y4549945D01*
X25274021Y4549945D02*
X25274021Y4692802D01*
X25274021Y4692802D02*
X25226402Y4883278D01*
X25226402Y4883278D02*
X25178783Y4978516D01*
X25178783Y4978516D02*
X25083545Y5073754D01*
X25083545Y5073754D02*
X24940688Y5121373D01*
X24940688Y5121373D02*
X24845450Y5121373D01*
X24845450Y5121373D02*
X24702593Y5073754D01*
X24702593Y5073754D02*
X24654974Y5026135D01*
X24035926Y5121373D02*
X23845450Y5121373D01*
X23845450Y5121373D02*
X23750212Y5073754D01*
X23750212Y5073754D02*
X23654974Y4978516D01*
X23654974Y4978516D02*
X23607355Y4788040D01*
X23607355Y4788040D02*
X23607355Y4454707D01*
X23607355Y4454707D02*
X23654974Y4264231D01*
X23654974Y4264231D02*
X23750212Y4168992D01*
X23750212Y4168992D02*
X23845450Y4121373D01*
X23845450Y4121373D02*
X24035926Y4121373D01*
X24035926Y4121373D02*
X24131164Y4168992D01*
X24131164Y4168992D02*
X24226402Y4264231D01*
X24226402Y4264231D02*
X24274021Y4454707D01*
X24274021Y4454707D02*
X24274021Y4788040D01*
X24274021Y4788040D02*
X24226402Y4978516D01*
X24226402Y4978516D02*
X24131164Y5073754D01*
X24131164Y5073754D02*
X24035926Y5121373D01*
X22607355Y4121373D02*
X22940688Y4597564D01*
X23178783Y4121373D02*
X23178783Y5121373D01*
X23178783Y5121373D02*
X22797831Y5121373D01*
X22797831Y5121373D02*
X22702593Y5073754D01*
X22702593Y5073754D02*
X22654974Y5026135D01*
X22654974Y5026135D02*
X22607355Y4930897D01*
X22607355Y4930897D02*
X22607355Y4788040D01*
X22607355Y4788040D02*
X22654974Y4692802D01*
X22654974Y4692802D02*
X22702593Y4645183D01*
X22702593Y4645183D02*
X22797831Y4597564D01*
X22797831Y4597564D02*
X23178783Y4597564D01*
X22178783Y4121373D02*
X22178783Y5121373D01*
X22178783Y5121373D02*
X21797831Y5121373D01*
X21797831Y5121373D02*
X21702593Y5073754D01*
X21702593Y5073754D02*
X21654974Y5026135D01*
X21654974Y5026135D02*
X21607355Y4930897D01*
X21607355Y4930897D02*
X21607355Y4788040D01*
X21607355Y4788040D02*
X21654974Y4692802D01*
X21654974Y4692802D02*
X21702593Y4645183D01*
X21702593Y4645183D02*
X21797831Y4597564D01*
X21797831Y4597564D02*
X22178783Y4597564D01*
X20893069Y3740421D02*
X20940688Y3788040D01*
X20940688Y3788040D02*
X21035926Y3930897D01*
X21035926Y3930897D02*
X21083545Y4026135D01*
X21083545Y4026135D02*
X21131164Y4168992D01*
X21131164Y4168992D02*
X21178783Y4407088D01*
X21178783Y4407088D02*
X21178783Y4597564D01*
X21178783Y4597564D02*
X21131164Y4835659D01*
X21131164Y4835659D02*
X21083545Y4978516D01*
X21083545Y4978516D02*
X21035926Y5073754D01*
X21035926Y5073754D02*
X20940688Y5216612D01*
X20940688Y5216612D02*
X20893069Y5264231D01*
X20654973Y5121373D02*
X20083545Y5121373D01*
X20369259Y4121373D02*
X20369259Y5121373D01*
X19750211Y4121373D02*
X19750211Y4788040D01*
X19750211Y4597564D02*
X19702592Y4692802D01*
X19702592Y4692802D02*
X19654973Y4740421D01*
X19654973Y4740421D02*
X19559735Y4788040D01*
X19559735Y4788040D02*
X19464497Y4788040D01*
X18702592Y4121373D02*
X18702592Y4645183D01*
X18702592Y4645183D02*
X18750211Y4740421D01*
X18750211Y4740421D02*
X18845449Y4788040D01*
X18845449Y4788040D02*
X19035925Y4788040D01*
X19035925Y4788040D02*
X19131163Y4740421D01*
X18702592Y4168992D02*
X18797830Y4121373D01*
X18797830Y4121373D02*
X19035925Y4121373D01*
X19035925Y4121373D02*
X19131163Y4168992D01*
X19131163Y4168992D02*
X19178782Y4264231D01*
X19178782Y4264231D02*
X19178782Y4359469D01*
X19178782Y4359469D02*
X19131163Y4454707D01*
X19131163Y4454707D02*
X19035925Y4502326D01*
X19035925Y4502326D02*
X18797830Y4502326D01*
X18797830Y4502326D02*
X18702592Y4549945D01*
X17797830Y4121373D02*
X17797830Y5121373D01*
X17797830Y4168992D02*
X17893068Y4121373D01*
X17893068Y4121373D02*
X18083544Y4121373D01*
X18083544Y4121373D02*
X18178782Y4168992D01*
X18178782Y4168992D02*
X18226401Y4216612D01*
X18226401Y4216612D02*
X18274020Y4311850D01*
X18274020Y4311850D02*
X18274020Y4597564D01*
X18274020Y4597564D02*
X18226401Y4692802D01*
X18226401Y4692802D02*
X18178782Y4740421D01*
X18178782Y4740421D02*
X18083544Y4788040D01*
X18083544Y4788040D02*
X17893068Y4788040D01*
X17893068Y4788040D02*
X17797830Y4740421D01*
X17416877Y3740421D02*
X17369258Y3788040D01*
X17369258Y3788040D02*
X17274020Y3930897D01*
X17274020Y3930897D02*
X17226401Y4026135D01*
X17226401Y4026135D02*
X17178782Y4168992D01*
X17178782Y4168992D02*
X17131163Y4407088D01*
X17131163Y4407088D02*
X17131163Y4597564D01*
X17131163Y4597564D02*
X17178782Y4835659D01*
X17178782Y4835659D02*
X17226401Y4978516D01*
X17226401Y4978516D02*
X17274020Y5073754D01*
X17274020Y5073754D02*
X17369258Y5216612D01*
X17369258Y5216612D02*
X17416877Y5264231D01*
X16750210Y4788040D02*
X16512115Y4121373D01*
X16512115Y4121373D02*
X16274020Y4788040D01*
X15369258Y4121373D02*
X15940686Y4121373D01*
X15654972Y4121373D02*
X15654972Y5121373D01*
X15654972Y5121373D02*
X15750210Y4978516D01*
X15750210Y4978516D02*
X15845448Y4883278D01*
X15845448Y4883278D02*
X15940686Y4835659D01*
X14940686Y4216612D02*
X14893067Y4168992D01*
X14893067Y4168992D02*
X14940686Y4121373D01*
X14940686Y4121373D02*
X14988305Y4168992D01*
X14988305Y4168992D02*
X14940686Y4216612D01*
X14940686Y4216612D02*
X14940686Y4121373D01*
X14274020Y5121373D02*
X14178782Y5121373D01*
X14178782Y5121373D02*
X14083544Y5073754D01*
X14083544Y5073754D02*
X14035925Y5026135D01*
X14035925Y5026135D02*
X13988306Y4930897D01*
X13988306Y4930897D02*
X13940687Y4740421D01*
X13940687Y4740421D02*
X13940687Y4502326D01*
X13940687Y4502326D02*
X13988306Y4311850D01*
X13988306Y4311850D02*
X14035925Y4216612D01*
X14035925Y4216612D02*
X14083544Y4168992D01*
X14083544Y4168992D02*
X14178782Y4121373D01*
X14178782Y4121373D02*
X14274020Y4121373D01*
X14274020Y4121373D02*
X14369258Y4168992D01*
X14369258Y4168992D02*
X14416877Y4216612D01*
X14416877Y4216612D02*
X14464496Y4311850D01*
X14464496Y4311850D02*
X14512115Y4502326D01*
X14512115Y4502326D02*
X14512115Y4740421D01*
X14512115Y4740421D02*
X14464496Y4930897D01*
X14464496Y4930897D02*
X14416877Y5026135D01*
X14416877Y5026135D02*
X14369258Y5073754D01*
X14369258Y5073754D02*
X14274020Y5121373D01*
X28559736Y2511429D02*
X28893069Y2987620D01*
X29131164Y2511429D02*
X29131164Y3511429D01*
X29131164Y3511429D02*
X28750212Y3511429D01*
X28750212Y3511429D02*
X28654974Y3463810D01*
X28654974Y3463810D02*
X28607355Y3416191D01*
X28607355Y3416191D02*
X28559736Y3320953D01*
X28559736Y3320953D02*
X28559736Y3178096D01*
X28559736Y3178096D02*
X28607355Y3082858D01*
X28607355Y3082858D02*
X28654974Y3035239D01*
X28654974Y3035239D02*
X28750212Y2987620D01*
X28750212Y2987620D02*
X29131164Y2987620D01*
X27702593Y3178096D02*
X27702593Y2511429D01*
X28131164Y3178096D02*
X28131164Y2654287D01*
X28131164Y2654287D02*
X28083545Y2559048D01*
X28083545Y2559048D02*
X27988307Y2511429D01*
X27988307Y2511429D02*
X27845450Y2511429D01*
X27845450Y2511429D02*
X27750212Y2559048D01*
X27750212Y2559048D02*
X27702593Y2606668D01*
X27226402Y2511429D02*
X27226402Y3511429D01*
X27226402Y3130477D02*
X27131164Y3178096D01*
X27131164Y3178096D02*
X26940688Y3178096D01*
X26940688Y3178096D02*
X26845450Y3130477D01*
X26845450Y3130477D02*
X26797831Y3082858D01*
X26797831Y3082858D02*
X26750212Y2987620D01*
X26750212Y2987620D02*
X26750212Y2701906D01*
X26750212Y2701906D02*
X26797831Y2606668D01*
X26797831Y2606668D02*
X26845450Y2559048D01*
X26845450Y2559048D02*
X26940688Y2511429D01*
X26940688Y2511429D02*
X27131164Y2511429D01*
X27131164Y2511429D02*
X27226402Y2559048D01*
X26416878Y3178096D02*
X26178783Y2511429D01*
X25940688Y3178096D02*
X26178783Y2511429D01*
X26178783Y2511429D02*
X26274021Y2273334D01*
X26274021Y2273334D02*
X26321640Y2225715D01*
X26321640Y2225715D02*
X26416878Y2178096D01*
X24464497Y3035239D02*
X24321640Y2987620D01*
X24321640Y2987620D02*
X24274021Y2940001D01*
X24274021Y2940001D02*
X24226402Y2844763D01*
X24226402Y2844763D02*
X24226402Y2701906D01*
X24226402Y2701906D02*
X24274021Y2606668D01*
X24274021Y2606668D02*
X24321640Y2559048D01*
X24321640Y2559048D02*
X24416878Y2511429D01*
X24416878Y2511429D02*
X24797830Y2511429D01*
X24797830Y2511429D02*
X24797830Y3511429D01*
X24797830Y3511429D02*
X24464497Y3511429D01*
X24464497Y3511429D02*
X24369259Y3463810D01*
X24369259Y3463810D02*
X24321640Y3416191D01*
X24321640Y3416191D02*
X24274021Y3320953D01*
X24274021Y3320953D02*
X24274021Y3225715D01*
X24274021Y3225715D02*
X24321640Y3130477D01*
X24321640Y3130477D02*
X24369259Y3082858D01*
X24369259Y3082858D02*
X24464497Y3035239D01*
X24464497Y3035239D02*
X24797830Y3035239D01*
X23369259Y3178096D02*
X23369259Y2511429D01*
X23797830Y3178096D02*
X23797830Y2654287D01*
X23797830Y2654287D02*
X23750211Y2559048D01*
X23750211Y2559048D02*
X23654973Y2511429D01*
X23654973Y2511429D02*
X23512116Y2511429D01*
X23512116Y2511429D02*
X23416878Y2559048D01*
X23416878Y2559048D02*
X23369259Y2606668D01*
X22893068Y2511429D02*
X22893068Y3178096D01*
X22893068Y3511429D02*
X22940687Y3463810D01*
X22940687Y3463810D02*
X22893068Y3416191D01*
X22893068Y3416191D02*
X22845449Y3463810D01*
X22845449Y3463810D02*
X22893068Y3511429D01*
X22893068Y3511429D02*
X22893068Y3416191D01*
X22274021Y2511429D02*
X22369259Y2559048D01*
X22369259Y2559048D02*
X22416878Y2654287D01*
X22416878Y2654287D02*
X22416878Y3511429D01*
X21464497Y2511429D02*
X21464497Y3511429D01*
X21464497Y2559048D02*
X21559735Y2511429D01*
X21559735Y2511429D02*
X21750211Y2511429D01*
X21750211Y2511429D02*
X21845449Y2559048D01*
X21845449Y2559048D02*
X21893068Y2606668D01*
X21893068Y2606668D02*
X21940687Y2701906D01*
X21940687Y2701906D02*
X21940687Y2987620D01*
X21940687Y2987620D02*
X21893068Y3082858D01*
X21893068Y3082858D02*
X21845449Y3130477D01*
X21845449Y3130477D02*
X21750211Y3178096D01*
X21750211Y3178096D02*
X21559735Y3178096D01*
X21559735Y3178096D02*
X21464497Y3130477D01*
X21035925Y2559048D02*
X20940687Y2511429D01*
X20940687Y2511429D02*
X20750211Y2511429D01*
X20750211Y2511429D02*
X20654973Y2559048D01*
X20654973Y2559048D02*
X20607354Y2654287D01*
X20607354Y2654287D02*
X20607354Y2701906D01*
X20607354Y2701906D02*
X20654973Y2797144D01*
X20654973Y2797144D02*
X20750211Y2844763D01*
X20750211Y2844763D02*
X20893068Y2844763D01*
X20893068Y2844763D02*
X20988306Y2892382D01*
X20988306Y2892382D02*
X21035925Y2987620D01*
X21035925Y2987620D02*
X21035925Y3035239D01*
X21035925Y3035239D02*
X20988306Y3130477D01*
X20988306Y3130477D02*
X20893068Y3178096D01*
X20893068Y3178096D02*
X20750211Y3178096D01*
X20750211Y3178096D02*
X20654973Y3130477D01*
X19416877Y2892382D02*
X18654973Y2892382D01*
X17416877Y2511429D02*
X17416877Y3511429D01*
X17416877Y3511429D02*
X17035925Y3511429D01*
X17035925Y3511429D02*
X16940687Y3463810D01*
X16940687Y3463810D02*
X16893068Y3416191D01*
X16893068Y3416191D02*
X16845449Y3320953D01*
X16845449Y3320953D02*
X16845449Y3178096D01*
X16845449Y3178096D02*
X16893068Y3082858D01*
X16893068Y3082858D02*
X16940687Y3035239D01*
X16940687Y3035239D02*
X17035925Y2987620D01*
X17035925Y2987620D02*
X17416877Y2987620D01*
X15845449Y2606668D02*
X15893068Y2559048D01*
X15893068Y2559048D02*
X16035925Y2511429D01*
X16035925Y2511429D02*
X16131163Y2511429D01*
X16131163Y2511429D02*
X16274020Y2559048D01*
X16274020Y2559048D02*
X16369258Y2654287D01*
X16369258Y2654287D02*
X16416877Y2749525D01*
X16416877Y2749525D02*
X16464496Y2940001D01*
X16464496Y2940001D02*
X16464496Y3082858D01*
X16464496Y3082858D02*
X16416877Y3273334D01*
X16416877Y3273334D02*
X16369258Y3368572D01*
X16369258Y3368572D02*
X16274020Y3463810D01*
X16274020Y3463810D02*
X16131163Y3511429D01*
X16131163Y3511429D02*
X16035925Y3511429D01*
X16035925Y3511429D02*
X15893068Y3463810D01*
X15893068Y3463810D02*
X15845449Y3416191D01*
X15083544Y3035239D02*
X14940687Y2987620D01*
X14940687Y2987620D02*
X14893068Y2940001D01*
X14893068Y2940001D02*
X14845449Y2844763D01*
X14845449Y2844763D02*
X14845449Y2701906D01*
X14845449Y2701906D02*
X14893068Y2606668D01*
X14893068Y2606668D02*
X14940687Y2559048D01*
X14940687Y2559048D02*
X15035925Y2511429D01*
X15035925Y2511429D02*
X15416877Y2511429D01*
X15416877Y2511429D02*
X15416877Y3511429D01*
X15416877Y3511429D02*
X15083544Y3511429D01*
X15083544Y3511429D02*
X14988306Y3463810D01*
X14988306Y3463810D02*
X14940687Y3416191D01*
X14940687Y3416191D02*
X14893068Y3320953D01*
X14893068Y3320953D02*
X14893068Y3225715D01*
X14893068Y3225715D02*
X14940687Y3130477D01*
X14940687Y3130477D02*
X14988306Y3082858D01*
X14988306Y3082858D02*
X15083544Y3035239D01*
X15083544Y3035239D02*
X15416877Y3035239D01*
X13654972Y2511429D02*
X13654972Y3511429D01*
X13654972Y3130477D02*
X13559734Y3178096D01*
X13559734Y3178096D02*
X13369258Y3178096D01*
X13369258Y3178096D02*
X13274020Y3130477D01*
X13274020Y3130477D02*
X13226401Y3082858D01*
X13226401Y3082858D02*
X13178782Y2987620D01*
X13178782Y2987620D02*
X13178782Y2701906D01*
X13178782Y2701906D02*
X13226401Y2606668D01*
X13226401Y2606668D02*
X13274020Y2559048D01*
X13274020Y2559048D02*
X13369258Y2511429D01*
X13369258Y2511429D02*
X13559734Y2511429D01*
X13559734Y2511429D02*
X13654972Y2559048D01*
X12845448Y3178096D02*
X12607353Y2511429D01*
X12369258Y3178096D02*
X12607353Y2511429D01*
X12607353Y2511429D02*
X12702591Y2273334D01*
X12702591Y2273334D02*
X12750210Y2225715D01*
X12750210Y2225715D02*
X12845448Y2178096D01*
X10893067Y3035239D02*
X10750210Y2987620D01*
X10750210Y2987620D02*
X10702591Y2940001D01*
X10702591Y2940001D02*
X10654972Y2844763D01*
X10654972Y2844763D02*
X10654972Y2701906D01*
X10654972Y2701906D02*
X10702591Y2606668D01*
X10702591Y2606668D02*
X10750210Y2559048D01*
X10750210Y2559048D02*
X10845448Y2511429D01*
X10845448Y2511429D02*
X11226400Y2511429D01*
X11226400Y2511429D02*
X11226400Y3511429D01*
X11226400Y3511429D02*
X10893067Y3511429D01*
X10893067Y3511429D02*
X10797829Y3463810D01*
X10797829Y3463810D02*
X10750210Y3416191D01*
X10750210Y3416191D02*
X10702591Y3320953D01*
X10702591Y3320953D02*
X10702591Y3225715D01*
X10702591Y3225715D02*
X10750210Y3130477D01*
X10750210Y3130477D02*
X10797829Y3082858D01*
X10797829Y3082858D02*
X10893067Y3035239D01*
X10893067Y3035239D02*
X11226400Y3035239D01*
X9797829Y2511429D02*
X9797829Y3035239D01*
X9797829Y3035239D02*
X9845448Y3130477D01*
X9845448Y3130477D02*
X9940686Y3178096D01*
X9940686Y3178096D02*
X10131162Y3178096D01*
X10131162Y3178096D02*
X10226400Y3130477D01*
X9797829Y2559048D02*
X9893067Y2511429D01*
X9893067Y2511429D02*
X10131162Y2511429D01*
X10131162Y2511429D02*
X10226400Y2559048D01*
X10226400Y2559048D02*
X10274019Y2654287D01*
X10274019Y2654287D02*
X10274019Y2749525D01*
X10274019Y2749525D02*
X10226400Y2844763D01*
X10226400Y2844763D02*
X10131162Y2892382D01*
X10131162Y2892382D02*
X9893067Y2892382D01*
X9893067Y2892382D02*
X9797829Y2940001D01*
X8893067Y2559048D02*
X8988305Y2511429D01*
X8988305Y2511429D02*
X9178781Y2511429D01*
X9178781Y2511429D02*
X9274019Y2559048D01*
X9274019Y2559048D02*
X9321638Y2606668D01*
X9321638Y2606668D02*
X9369257Y2701906D01*
X9369257Y2701906D02*
X9369257Y2987620D01*
X9369257Y2987620D02*
X9321638Y3082858D01*
X9321638Y3082858D02*
X9274019Y3130477D01*
X9274019Y3130477D02*
X9178781Y3178096D01*
X9178781Y3178096D02*
X8988305Y3178096D01*
X8988305Y3178096D02*
X8893067Y3130477D01*
X8321638Y2511429D02*
X8416876Y2559048D01*
X8416876Y2559048D02*
X8464495Y2606668D01*
X8464495Y2606668D02*
X8512114Y2701906D01*
X8512114Y2701906D02*
X8512114Y2987620D01*
X8512114Y2987620D02*
X8464495Y3082858D01*
X8464495Y3082858D02*
X8416876Y3130477D01*
X8416876Y3130477D02*
X8321638Y3178096D01*
X8321638Y3178096D02*
X8178781Y3178096D01*
X8178781Y3178096D02*
X8083543Y3130477D01*
X8083543Y3130477D02*
X8035924Y3082858D01*
X8035924Y3082858D02*
X7988305Y2987620D01*
X7988305Y2987620D02*
X7988305Y2701906D01*
X7988305Y2701906D02*
X8035924Y2606668D01*
X8035924Y2606668D02*
X8083543Y2559048D01*
X8083543Y2559048D02*
X8178781Y2511429D01*
X8178781Y2511429D02*
X8321638Y2511429D01*
X7559733Y3178096D02*
X7559733Y2511429D01*
X7559733Y3082858D02*
X7512114Y3130477D01*
X7512114Y3130477D02*
X7416876Y3178096D01*
X7416876Y3178096D02*
X7274019Y3178096D01*
X7274019Y3178096D02*
X7178781Y3130477D01*
X7178781Y3130477D02*
X7131162Y3035239D01*
X7131162Y3035239D02*
X7131162Y2511429D01*
X6702590Y2559048D02*
X6607352Y2511429D01*
X6607352Y2511429D02*
X6416876Y2511429D01*
X6416876Y2511429D02*
X6321638Y2559048D01*
X6321638Y2559048D02*
X6274019Y2654287D01*
X6274019Y2654287D02*
X6274019Y2701906D01*
X6274019Y2701906D02*
X6321638Y2797144D01*
X6321638Y2797144D02*
X6416876Y2844763D01*
X6416876Y2844763D02*
X6559733Y2844763D01*
X6559733Y2844763D02*
X6654971Y2892382D01*
X6654971Y2892382D02*
X6702590Y2987620D01*
X6702590Y2987620D02*
X6702590Y3035239D01*
X6702590Y3035239D02*
X6654971Y3130477D01*
X6654971Y3130477D02*
X6559733Y3178096D01*
X6559733Y3178096D02*
X6416876Y3178096D01*
X6416876Y3178096D02*
X6321638Y3130477D01*
X5845447Y3178096D02*
X5845447Y2178096D01*
X5845447Y3130477D02*
X5750209Y3178096D01*
X5750209Y3178096D02*
X5559733Y3178096D01*
X5559733Y3178096D02*
X5464495Y3130477D01*
X5464495Y3130477D02*
X5416876Y3082858D01*
X5416876Y3082858D02*
X5369257Y2987620D01*
X5369257Y2987620D02*
X5369257Y2701906D01*
X5369257Y2701906D02*
X5416876Y2606668D01*
X5416876Y2606668D02*
X5464495Y2559048D01*
X5464495Y2559048D02*
X5559733Y2511429D01*
X5559733Y2511429D02*
X5750209Y2511429D01*
X5750209Y2511429D02*
X5845447Y2559048D01*
X4797828Y2511429D02*
X4893066Y2559048D01*
X4893066Y2559048D02*
X4940685Y2606668D01*
X4940685Y2606668D02*
X4988304Y2701906D01*
X4988304Y2701906D02*
X4988304Y2987620D01*
X4988304Y2987620D02*
X4940685Y3082858D01*
X4940685Y3082858D02*
X4893066Y3130477D01*
X4893066Y3130477D02*
X4797828Y3178096D01*
X4797828Y3178096D02*
X4654971Y3178096D01*
X4654971Y3178096D02*
X4559733Y3130477D01*
X4559733Y3130477D02*
X4512114Y3082858D01*
X4512114Y3082858D02*
X4464495Y2987620D01*
X4464495Y2987620D02*
X4464495Y2701906D01*
X4464495Y2701906D02*
X4512114Y2606668D01*
X4512114Y2606668D02*
X4559733Y2559048D01*
X4559733Y2559048D02*
X4654971Y2511429D01*
X4654971Y2511429D02*
X4797828Y2511429D01*
X3893066Y2511429D02*
X3988304Y2559048D01*
X3988304Y2559048D02*
X4035923Y2606668D01*
X4035923Y2606668D02*
X4083542Y2701906D01*
X4083542Y2701906D02*
X4083542Y2987620D01*
X4083542Y2987620D02*
X4035923Y3082858D01*
X4035923Y3082858D02*
X3988304Y3130477D01*
X3988304Y3130477D02*
X3893066Y3178096D01*
X3893066Y3178096D02*
X3750209Y3178096D01*
X3750209Y3178096D02*
X3654971Y3130477D01*
X3654971Y3130477D02*
X3607352Y3082858D01*
X3607352Y3082858D02*
X3559733Y2987620D01*
X3559733Y2987620D02*
X3559733Y2701906D01*
X3559733Y2701906D02*
X3607352Y2606668D01*
X3607352Y2606668D02*
X3654971Y2559048D01*
X3654971Y2559048D02*
X3750209Y2511429D01*
X3750209Y2511429D02*
X3893066Y2511429D01*
X3131161Y3178096D02*
X3131161Y2511429D01*
X3131161Y3082858D02*
X3083542Y3130477D01*
X3083542Y3130477D02*
X2988304Y3178096D01*
X2988304Y3178096D02*
X2845447Y3178096D01*
X2845447Y3178096D02*
X2750209Y3130477D01*
X2750209Y3130477D02*
X2702590Y3035239D01*
X2702590Y3035239D02*
X2702590Y2511429D01*
X65746077Y7581893D02*
X66079410Y8058084D01*
X66317505Y7581893D02*
X66317505Y8581893D01*
X66317505Y8581893D02*
X65936553Y8581893D01*
X65936553Y8581893D02*
X65841315Y8534274D01*
X65841315Y8534274D02*
X65793696Y8486655D01*
X65793696Y8486655D02*
X65746077Y8391417D01*
X65746077Y8391417D02*
X65746077Y8248560D01*
X65746077Y8248560D02*
X65793696Y8153322D01*
X65793696Y8153322D02*
X65841315Y8105703D01*
X65841315Y8105703D02*
X65936553Y8058084D01*
X65936553Y8058084D02*
X66317505Y8058084D01*
X65317505Y8105703D02*
X64984172Y8105703D01*
X64841315Y7581893D02*
X65317505Y7581893D01*
X65317505Y7581893D02*
X65317505Y8581893D01*
X65317505Y8581893D02*
X64841315Y8581893D01*
X64460362Y7629512D02*
X64317505Y7581893D01*
X64317505Y7581893D02*
X64079410Y7581893D01*
X64079410Y7581893D02*
X63984172Y7629512D01*
X63984172Y7629512D02*
X63936553Y7677132D01*
X63936553Y7677132D02*
X63888934Y7772370D01*
X63888934Y7772370D02*
X63888934Y7867608D01*
X63888934Y7867608D02*
X63936553Y7962846D01*
X63936553Y7962846D02*
X63984172Y8010465D01*
X63984172Y8010465D02*
X64079410Y8058084D01*
X64079410Y8058084D02*
X64269886Y8105703D01*
X64269886Y8105703D02*
X64365124Y8153322D01*
X64365124Y8153322D02*
X64412743Y8200941D01*
X64412743Y8200941D02*
X64460362Y8296179D01*
X64460362Y8296179D02*
X64460362Y8391417D01*
X64460362Y8391417D02*
X64412743Y8486655D01*
X64412743Y8486655D02*
X64365124Y8534274D01*
X64365124Y8534274D02*
X64269886Y8581893D01*
X64269886Y8581893D02*
X64031791Y8581893D01*
X64031791Y8581893D02*
X63888934Y8534274D01*
X63460362Y8105703D02*
X63127029Y8105703D01*
X62984172Y7581893D02*
X63460362Y7581893D01*
X63460362Y7581893D02*
X63460362Y8581893D01*
X63460362Y8581893D02*
X62984172Y8581893D01*
X62698457Y8581893D02*
X62127029Y8581893D01*
X62412743Y7581893D02*
X62412743Y8581893D01*
X28845450Y1725493D02*
X28845450Y1011208D01*
X28845450Y1011208D02*
X28893069Y868351D01*
X28893069Y868351D02*
X28988307Y773112D01*
X28988307Y773112D02*
X29131164Y725493D01*
X29131164Y725493D02*
X29226402Y725493D01*
X27893069Y725493D02*
X28369259Y725493D01*
X28369259Y725493D02*
X28369259Y1725493D01*
X26988307Y820732D02*
X27035926Y773112D01*
X27035926Y773112D02*
X27178783Y725493D01*
X27178783Y725493D02*
X27274021Y725493D01*
X27274021Y725493D02*
X27416878Y773112D01*
X27416878Y773112D02*
X27512116Y868351D01*
X27512116Y868351D02*
X27559735Y963589D01*
X27559735Y963589D02*
X27607354Y1154065D01*
X27607354Y1154065D02*
X27607354Y1296922D01*
X27607354Y1296922D02*
X27559735Y1487398D01*
X27559735Y1487398D02*
X27512116Y1582636D01*
X27512116Y1582636D02*
X27416878Y1677874D01*
X27416878Y1677874D02*
X27274021Y1725493D01*
X27274021Y1725493D02*
X27178783Y1725493D01*
X27178783Y1725493D02*
X27035926Y1677874D01*
X27035926Y1677874D02*
X26988307Y1630255D01*
X26274021Y1725493D02*
X26274021Y1011208D01*
X26274021Y1011208D02*
X26321640Y868351D01*
X26321640Y868351D02*
X26416878Y773112D01*
X26416878Y773112D02*
X26559735Y725493D01*
X26559735Y725493D02*
X26654973Y725493D01*
X25321640Y725493D02*
X25797830Y725493D01*
X25797830Y725493D02*
X25797830Y1725493D01*
X24416878Y820732D02*
X24464497Y773112D01*
X24464497Y773112D02*
X24607354Y725493D01*
X24607354Y725493D02*
X24702592Y725493D01*
X24702592Y725493D02*
X24845449Y773112D01*
X24845449Y773112D02*
X24940687Y868351D01*
X24940687Y868351D02*
X24988306Y963589D01*
X24988306Y963589D02*
X25035925Y1154065D01*
X25035925Y1154065D02*
X25035925Y1296922D01*
X25035925Y1296922D02*
X24988306Y1487398D01*
X24988306Y1487398D02*
X24940687Y1582636D01*
X24940687Y1582636D02*
X24845449Y1677874D01*
X24845449Y1677874D02*
X24702592Y1725493D01*
X24702592Y1725493D02*
X24607354Y1725493D01*
X24607354Y1725493D02*
X24464497Y1677874D01*
X24464497Y1677874D02*
X24416878Y1630255D01*
X23702592Y1725493D02*
X23702592Y1011208D01*
X23702592Y1011208D02*
X23750211Y868351D01*
X23750211Y868351D02*
X23845449Y773112D01*
X23845449Y773112D02*
X23988306Y725493D01*
X23988306Y725493D02*
X24083544Y725493D01*
X22750211Y725493D02*
X23226401Y725493D01*
X23226401Y725493D02*
X23226401Y1725493D01*
X21845449Y820732D02*
X21893068Y773112D01*
X21893068Y773112D02*
X22035925Y725493D01*
X22035925Y725493D02*
X22131163Y725493D01*
X22131163Y725493D02*
X22274020Y773112D01*
X22274020Y773112D02*
X22369258Y868351D01*
X22369258Y868351D02*
X22416877Y963589D01*
X22416877Y963589D02*
X22464496Y1154065D01*
X22464496Y1154065D02*
X22464496Y1296922D01*
X22464496Y1296922D02*
X22416877Y1487398D01*
X22416877Y1487398D02*
X22369258Y1582636D01*
X22369258Y1582636D02*
X22274020Y1677874D01*
X22274020Y1677874D02*
X22131163Y1725493D01*
X22131163Y1725493D02*
X22035925Y1725493D01*
X22035925Y1725493D02*
X21893068Y1677874D01*
X21893068Y1677874D02*
X21845449Y1630255D01*
X21131163Y1725493D02*
X21131163Y1011208D01*
X21131163Y1011208D02*
X21178782Y868351D01*
X21178782Y868351D02*
X21274020Y773112D01*
X21274020Y773112D02*
X21416877Y725493D01*
X21416877Y725493D02*
X21512115Y725493D01*
X20178782Y725493D02*
X20654972Y725493D01*
X20654972Y725493D02*
X20654972Y1725493D01*
X19274020Y820732D02*
X19321639Y773112D01*
X19321639Y773112D02*
X19464496Y725493D01*
X19464496Y725493D02*
X19559734Y725493D01*
X19559734Y725493D02*
X19702591Y773112D01*
X19702591Y773112D02*
X19797829Y868351D01*
X19797829Y868351D02*
X19845448Y963589D01*
X19845448Y963589D02*
X19893067Y1154065D01*
X19893067Y1154065D02*
X19893067Y1296922D01*
X19893067Y1296922D02*
X19845448Y1487398D01*
X19845448Y1487398D02*
X19797829Y1582636D01*
X19797829Y1582636D02*
X19702591Y1677874D01*
X19702591Y1677874D02*
X19559734Y1725493D01*
X19559734Y1725493D02*
X19464496Y1725493D01*
X19464496Y1725493D02*
X19321639Y1677874D01*
X19321639Y1677874D02*
X19274020Y1630255D01*
X6009234Y34467653D02*
X5390187Y34467653D01*
X5390187Y34467653D02*
X5723520Y34086701D01*
X5723520Y34086701D02*
X5580663Y34086701D01*
X5580663Y34086701D02*
X5485425Y34039082D01*
X5485425Y34039082D02*
X5437806Y33991463D01*
X5437806Y33991463D02*
X5390187Y33896225D01*
X5390187Y33896225D02*
X5390187Y33658130D01*
X5390187Y33658130D02*
X5437806Y33562892D01*
X5437806Y33562892D02*
X5485425Y33515272D01*
X5485425Y33515272D02*
X5580663Y33467653D01*
X5580663Y33467653D02*
X5866377Y33467653D01*
X5866377Y33467653D02*
X5961615Y33515272D01*
X5961615Y33515272D02*
X6009234Y33562892D01*
X5104472Y34467653D02*
X4771139Y33467653D01*
X4771139Y33467653D02*
X4437806Y34467653D01*
X4199710Y34467653D02*
X3580663Y34467653D01*
X3580663Y34467653D02*
X3913996Y34086701D01*
X3913996Y34086701D02*
X3771139Y34086701D01*
X3771139Y34086701D02*
X3675901Y34039082D01*
X3675901Y34039082D02*
X3628282Y33991463D01*
X3628282Y33991463D02*
X3580663Y33896225D01*
X3580663Y33896225D02*
X3580663Y33658130D01*
X3580663Y33658130D02*
X3628282Y33562892D01*
X3628282Y33562892D02*
X3675901Y33515272D01*
X3675901Y33515272D02*
X3771139Y33467653D01*
X3771139Y33467653D02*
X4056853Y33467653D01*
X4056853Y33467653D02*
X4152091Y33515272D01*
X4152091Y33515272D02*
X4199710Y33562892D01*
X5342568Y22847276D02*
X5390187Y22799656D01*
X5390187Y22799656D02*
X5533044Y22752037D01*
X5533044Y22752037D02*
X5628282Y22752037D01*
X5628282Y22752037D02*
X5771139Y22799656D01*
X5771139Y22799656D02*
X5866377Y22894895D01*
X5866377Y22894895D02*
X5913996Y22990133D01*
X5913996Y22990133D02*
X5961615Y23180609D01*
X5961615Y23180609D02*
X5961615Y23323466D01*
X5961615Y23323466D02*
X5913996Y23513942D01*
X5913996Y23513942D02*
X5866377Y23609180D01*
X5866377Y23609180D02*
X5771139Y23704418D01*
X5771139Y23704418D02*
X5628282Y23752037D01*
X5628282Y23752037D02*
X5533044Y23752037D01*
X5533044Y23752037D02*
X5390187Y23704418D01*
X5390187Y23704418D02*
X5342568Y23656799D01*
X4437806Y22752037D02*
X4913996Y22752037D01*
X4913996Y22752037D02*
X4913996Y23752037D01*
X4104472Y22752037D02*
X4104472Y23752037D01*
X3533044Y22752037D02*
X3961615Y23323466D01*
X3533044Y23752037D02*
X4104472Y23180609D01*
X5913996Y25430941D02*
X5913996Y26430941D01*
X5913996Y26430941D02*
X5675901Y26430941D01*
X5675901Y26430941D02*
X5533044Y26383322D01*
X5533044Y26383322D02*
X5437806Y26288084D01*
X5437806Y26288084D02*
X5390187Y26192846D01*
X5390187Y26192846D02*
X5342568Y26002370D01*
X5342568Y26002370D02*
X5342568Y25859513D01*
X5342568Y25859513D02*
X5390187Y25669037D01*
X5390187Y25669037D02*
X5437806Y25573799D01*
X5437806Y25573799D02*
X5533044Y25478560D01*
X5533044Y25478560D02*
X5675901Y25430941D01*
X5675901Y25430941D02*
X5913996Y25430941D01*
X4913996Y25430941D02*
X4913996Y26430941D01*
X4247330Y26430941D02*
X4056854Y26430941D01*
X4056854Y26430941D02*
X3961616Y26383322D01*
X3961616Y26383322D02*
X3866378Y26288084D01*
X3866378Y26288084D02*
X3818759Y26097608D01*
X3818759Y26097608D02*
X3818759Y25764275D01*
X3818759Y25764275D02*
X3866378Y25573799D01*
X3866378Y25573799D02*
X3961616Y25478560D01*
X3961616Y25478560D02*
X4056854Y25430941D01*
X4056854Y25430941D02*
X4247330Y25430941D01*
X4247330Y25430941D02*
X4342568Y25478560D01*
X4342568Y25478560D02*
X4437806Y25573799D01*
X4437806Y25573799D02*
X4485425Y25764275D01*
X4485425Y25764275D02*
X4485425Y26097608D01*
X4485425Y26097608D02*
X4437806Y26288084D01*
X4437806Y26288084D02*
X4342568Y26383322D01*
X4342568Y26383322D02*
X4247330Y26430941D01*
X5342568Y30788749D02*
X5675901Y31264940D01*
X5913996Y30788749D02*
X5913996Y31788749D01*
X5913996Y31788749D02*
X5533044Y31788749D01*
X5533044Y31788749D02*
X5437806Y31741130D01*
X5437806Y31741130D02*
X5390187Y31693511D01*
X5390187Y31693511D02*
X5342568Y31598273D01*
X5342568Y31598273D02*
X5342568Y31455416D01*
X5342568Y31455416D02*
X5390187Y31360178D01*
X5390187Y31360178D02*
X5437806Y31312559D01*
X5437806Y31312559D02*
X5533044Y31264940D01*
X5533044Y31264940D02*
X5913996Y31264940D01*
X4961615Y30836368D02*
X4818758Y30788749D01*
X4818758Y30788749D02*
X4580663Y30788749D01*
X4580663Y30788749D02*
X4485425Y30836368D01*
X4485425Y30836368D02*
X4437806Y30883988D01*
X4437806Y30883988D02*
X4390187Y30979226D01*
X4390187Y30979226D02*
X4390187Y31074464D01*
X4390187Y31074464D02*
X4437806Y31169702D01*
X4437806Y31169702D02*
X4485425Y31217321D01*
X4485425Y31217321D02*
X4580663Y31264940D01*
X4580663Y31264940D02*
X4771139Y31312559D01*
X4771139Y31312559D02*
X4866377Y31360178D01*
X4866377Y31360178D02*
X4913996Y31407797D01*
X4913996Y31407797D02*
X4961615Y31503035D01*
X4961615Y31503035D02*
X4961615Y31598273D01*
X4961615Y31598273D02*
X4913996Y31693511D01*
X4913996Y31693511D02*
X4866377Y31741130D01*
X4866377Y31741130D02*
X4771139Y31788749D01*
X4771139Y31788749D02*
X4533044Y31788749D01*
X4533044Y31788749D02*
X4390187Y31741130D01*
X4104472Y31788749D02*
X3533044Y31788749D01*
X3818758Y30788749D02*
X3818758Y31788749D01*
X128896620Y8105703D02*
X128753763Y8058084D01*
X128753763Y8058084D02*
X128706144Y8010465D01*
X128706144Y8010465D02*
X128658525Y7915227D01*
X128658525Y7915227D02*
X128658525Y7772370D01*
X128658525Y7772370D02*
X128706144Y7677132D01*
X128706144Y7677132D02*
X128753763Y7629512D01*
X128753763Y7629512D02*
X128849001Y7581893D01*
X128849001Y7581893D02*
X129229953Y7581893D01*
X129229953Y7581893D02*
X129229953Y8581893D01*
X129229953Y8581893D02*
X128896620Y8581893D01*
X128896620Y8581893D02*
X128801382Y8534274D01*
X128801382Y8534274D02*
X128753763Y8486655D01*
X128753763Y8486655D02*
X128706144Y8391417D01*
X128706144Y8391417D02*
X128706144Y8296179D01*
X128706144Y8296179D02*
X128753763Y8200941D01*
X128753763Y8200941D02*
X128801382Y8153322D01*
X128801382Y8153322D02*
X128896620Y8105703D01*
X128896620Y8105703D02*
X129229953Y8105703D01*
X128039477Y8581893D02*
X127849001Y8581893D01*
X127849001Y8581893D02*
X127753763Y8534274D01*
X127753763Y8534274D02*
X127658525Y8439036D01*
X127658525Y8439036D02*
X127610906Y8248560D01*
X127610906Y8248560D02*
X127610906Y7915227D01*
X127610906Y7915227D02*
X127658525Y7724751D01*
X127658525Y7724751D02*
X127753763Y7629512D01*
X127753763Y7629512D02*
X127849001Y7581893D01*
X127849001Y7581893D02*
X128039477Y7581893D01*
X128039477Y7581893D02*
X128134715Y7629512D01*
X128134715Y7629512D02*
X128229953Y7724751D01*
X128229953Y7724751D02*
X128277572Y7915227D01*
X128277572Y7915227D02*
X128277572Y8248560D01*
X128277572Y8248560D02*
X128229953Y8439036D01*
X128229953Y8439036D02*
X128134715Y8534274D01*
X128134715Y8534274D02*
X128039477Y8581893D01*
X126991858Y8581893D02*
X126801382Y8581893D01*
X126801382Y8581893D02*
X126706144Y8534274D01*
X126706144Y8534274D02*
X126610906Y8439036D01*
X126610906Y8439036D02*
X126563287Y8248560D01*
X126563287Y8248560D02*
X126563287Y7915227D01*
X126563287Y7915227D02*
X126610906Y7724751D01*
X126610906Y7724751D02*
X126706144Y7629512D01*
X126706144Y7629512D02*
X126801382Y7581893D01*
X126801382Y7581893D02*
X126991858Y7581893D01*
X126991858Y7581893D02*
X127087096Y7629512D01*
X127087096Y7629512D02*
X127182334Y7724751D01*
X127182334Y7724751D02*
X127229953Y7915227D01*
X127229953Y7915227D02*
X127229953Y8248560D01*
X127229953Y8248560D02*
X127182334Y8439036D01*
X127182334Y8439036D02*
X127087096Y8534274D01*
X127087096Y8534274D02*
X126991858Y8581893D01*
X126277572Y8581893D02*
X125706144Y8581893D01*
X125991858Y7581893D02*
X125991858Y8581893D01*
X125420429Y7629512D02*
X125277572Y7581893D01*
X125277572Y7581893D02*
X125039477Y7581893D01*
X125039477Y7581893D02*
X124944239Y7629512D01*
X124944239Y7629512D02*
X124896620Y7677132D01*
X124896620Y7677132D02*
X124849001Y7772370D01*
X124849001Y7772370D02*
X124849001Y7867608D01*
X124849001Y7867608D02*
X124896620Y7962846D01*
X124896620Y7962846D02*
X124944239Y8010465D01*
X124944239Y8010465D02*
X125039477Y8058084D01*
X125039477Y8058084D02*
X125229953Y8105703D01*
X125229953Y8105703D02*
X125325191Y8153322D01*
X125325191Y8153322D02*
X125372810Y8200941D01*
X125372810Y8200941D02*
X125420429Y8296179D01*
X125420429Y8296179D02*
X125420429Y8391417D01*
X125420429Y8391417D02*
X125372810Y8486655D01*
X125372810Y8486655D02*
X125325191Y8534274D01*
X125325191Y8534274D02*
X125229953Y8581893D01*
X125229953Y8581893D02*
X124991858Y8581893D01*
X124991858Y8581893D02*
X124849001Y8534274D01*
X124420429Y8105703D02*
X124087096Y8105703D01*
X123944239Y7581893D02*
X124420429Y7581893D01*
X124420429Y7581893D02*
X124420429Y8581893D01*
X124420429Y8581893D02*
X123944239Y8581893D01*
X123039477Y7581893D02*
X123515667Y7581893D01*
X123515667Y7581893D02*
X123515667Y8581893D01*
D11*
%TO.C,C_3V-Decoup1*%
X93737801Y14499661D02*
X93890304Y14347158D01*
X94246918Y15008778D02*
X94399421Y14856275D01*
%TO.C,D30*%
X30551536Y10282023D02*
X30551536Y6272023D01*
X30551536Y6272023D02*
X32551536Y6272023D01*
X32551536Y10282023D02*
X32551536Y6272023D01*
%TO.C,C_3V-Decoup6*%
X90751926Y4643146D02*
X90904429Y4795649D01*
X91261043Y4134029D02*
X91413546Y4286532D01*
%TO.C,SW2*%
X123456145Y12906239D02*
X123456145Y10906239D01*
X124956145Y14656239D02*
X124506145Y14206239D01*
X124956145Y9156239D02*
X124506145Y9606239D01*
X127456145Y14656239D02*
X124956145Y14656239D01*
X127456145Y14656239D02*
X127906145Y14206239D01*
X127456145Y9156239D02*
X124956145Y9156239D01*
X127456145Y9156239D02*
X127906145Y9606239D01*
X128956145Y12906239D02*
X128956145Y10906239D01*
%TO.C,D36*%
X182951408Y10282023D02*
X182951408Y6272023D01*
X182951408Y6272023D02*
X184951408Y6272023D01*
X184951408Y10282023D02*
X184951408Y6272023D01*
%TO.C,R_Crystal1*%
X93915281Y4844839D02*
X93607999Y4844839D01*
X93915281Y4084839D02*
X93607999Y4084839D01*
%TO.C,C_LD2*%
X75612101Y39650591D02*
X75827773Y39650591D01*
X75612101Y38930591D02*
X75827773Y38930591D01*
%TO.C,D33*%
X116276464Y10282023D02*
X116276464Y6272023D01*
X116276464Y6272023D02*
X118276464Y6272023D01*
X118276464Y10282023D02*
X118276464Y6272023D01*
%TO.C,U2*%
X111574904Y22965608D02*
X114299904Y22965608D01*
X111574904Y22705608D02*
X111574904Y22965608D01*
X111574904Y17775608D02*
X111574904Y17515608D01*
X111574904Y17515608D02*
X114299904Y17515608D01*
X117024904Y22965608D02*
X114299904Y22965608D01*
X117024904Y22705608D02*
X117024904Y22965608D01*
X117024904Y17775608D02*
X117024904Y17515608D01*
X117024904Y17515608D02*
X114299904Y17515608D01*
X117807404Y22705608D02*
X117567404Y23035608D01*
X118047404Y23035608D01*
X117807404Y22705608D01*
G36*
X117807404Y22705608D02*
G01*
X117567404Y23035608D01*
X118047404Y23035608D01*
X117807404Y22705608D01*
G37*
%TO.C,D4*%
X68651504Y67431975D02*
X68651504Y63421975D01*
X68651504Y63421975D02*
X70651504Y63421975D01*
X70651504Y67431975D02*
X70651504Y63421975D01*
%TO.C,R_Flash2*%
X115644169Y24192479D02*
X115336887Y24192479D01*
X115644169Y23432479D02*
X115336887Y23432479D01*
%TO.C,C_LD1*%
X71880383Y42341215D02*
X72096055Y42341215D01*
X71880383Y41621215D02*
X72096055Y41621215D01*
%TO.C,D2*%
X30551536Y67431976D02*
X30551536Y63421976D01*
X30551536Y63421976D02*
X32551536Y63421976D01*
X32551536Y67431976D02*
X32551536Y63421976D01*
%TO.C,C_3V-Decoup2*%
X95421597Y16183457D02*
X95574100Y16030954D01*
X95930714Y16692574D02*
X96083217Y16540071D01*
%TO.C,D21*%
X44839024Y29332008D02*
X44839024Y25322008D01*
X44839024Y25322008D02*
X46839024Y25322008D01*
X46839024Y29332008D02*
X46839024Y25322008D01*
%TO.C,D9*%
X163901424Y67431976D02*
X163901424Y63421976D01*
X163901424Y63421976D02*
X165901424Y63421976D01*
X165901424Y67431976D02*
X165901424Y63421976D01*
%TO.C,C_Crystal1*%
X96080544Y2191427D02*
X96080544Y1975755D01*
X96800544Y2191427D02*
X96800544Y1975755D01*
%TO.C,D27*%
X159138928Y29332007D02*
X159138928Y25322007D01*
X159138928Y25322007D02*
X161138928Y25322007D01*
X161138928Y29332007D02*
X161138928Y25322007D01*
%TO.C,D24*%
X101988976Y29332007D02*
X101988976Y25322007D01*
X101988976Y25322007D02*
X103988976Y25322007D01*
X103988976Y29332007D02*
X103988976Y25322007D01*
%TO.C,U3*%
X74612436Y43541215D02*
X75262436Y43541216D01*
X74612436Y40421215D02*
X75262436Y40421214D01*
X75912436Y43541215D02*
X75262436Y43541216D01*
X75912436Y40421215D02*
X75262436Y40421214D01*
X76424936Y43491215D02*
X76184936Y43821214D01*
X76664936Y43821215D01*
X76424936Y43491215D01*
G36*
X76424936Y43491215D02*
G01*
X76184936Y43821214D01*
X76664936Y43821215D01*
X76424936Y43491215D01*
G37*
%TO.C,D13*%
X54364016Y48381992D02*
X54364016Y44371992D01*
X54364016Y44371992D02*
X56364016Y44371992D01*
X56364016Y48381992D02*
X56364016Y44371992D01*
%TO.C,Y1*%
X91761640Y3733591D02*
X91761640Y433591D01*
X95761640Y3733591D02*
X91761640Y3733591D01*
%TO.C,R_DATA2*%
X98066420Y18374987D02*
X97849139Y18592268D01*
X98603821Y18912388D02*
X98386540Y19129669D01*
%TO.C,C_3V-Decoup9*%
X105787229Y19380793D02*
X105634726Y19228290D01*
X106296346Y18871676D02*
X106143843Y18719173D01*
%TO.C,J2*%
X455936Y32379974D02*
X3115936Y32379974D01*
X455936Y22159975D02*
X455936Y32379974D01*
X455936Y22159975D02*
X3115936Y22159975D01*
X1785936Y34979975D02*
X3115936Y34979975D01*
X3115936Y34979975D02*
X3115936Y33649975D01*
X3115936Y22159975D02*
X3115936Y32379974D01*
%TO.C,D31*%
X49601520Y10282023D02*
X49601520Y6272023D01*
X49601520Y6272023D02*
X51601520Y6272023D01*
X51601520Y10282023D02*
X51601520Y6272023D01*
%TO.C,D18*%
X149613935Y48381992D02*
X149613935Y44371992D01*
X149613935Y44371992D02*
X151613935Y44371992D01*
X151613935Y48381992D02*
X151613935Y44371992D01*
%TO.C,C_3V-Decoup4*%
X99057104Y1975755D02*
X99057104Y2191427D01*
X99777104Y1975755D02*
X99777104Y2191427D01*
%TO.C,D14*%
X73414000Y48381992D02*
X73414000Y44371992D01*
X73414000Y44371992D02*
X75414000Y44371992D01*
X75414000Y48381992D02*
X75414000Y44371992D01*
%TO.C,D7*%
X125801456Y67431976D02*
X125801456Y63421976D01*
X125801456Y63421976D02*
X127801456Y63421976D01*
X127801456Y67431976D02*
X127801456Y63421976D01*
%TO.C,D35*%
X163901424Y10282023D02*
X163901424Y6272023D01*
X163901424Y6272023D02*
X165901424Y6272023D01*
X165901424Y10282023D02*
X165901424Y6272023D01*
%TO.C,D11*%
X13882800Y48381992D02*
X13882800Y44371992D01*
X13882800Y44371992D02*
X15882800Y44371992D01*
X15882800Y48381992D02*
X15882800Y44371992D01*
%TO.C,D34*%
X144851440Y10282023D02*
X144851440Y6272023D01*
X144851440Y6272023D02*
X146851440Y6272023D01*
X146851440Y10282023D02*
X146851440Y6272023D01*
%TO.C,D1*%
X11501552Y67431976D02*
X11501552Y63421976D01*
X11501552Y63421976D02*
X13501552Y63421976D01*
X13501552Y67431976D02*
X13501552Y63421976D01*
%TO.C,D29*%
X11501552Y10282023D02*
X11501552Y6272023D01*
X11501552Y6272023D02*
X13501552Y6272023D01*
X13501552Y10282023D02*
X13501552Y6272023D01*
%TO.C,D5*%
X87701488Y67431975D02*
X87701488Y63421975D01*
X87701488Y63421975D02*
X89701488Y63421975D01*
X89701488Y67431975D02*
X89701488Y63421975D01*
%TO.C,D26*%
X140088944Y29332007D02*
X140088944Y25322007D01*
X140088944Y25322007D02*
X142088944Y25322007D01*
X142088944Y29332007D02*
X142088944Y25322007D01*
%TO.C,D8*%
X144851440Y67431976D02*
X144851440Y63421976D01*
X144851440Y63421976D02*
X146851440Y63421976D01*
X146851440Y67431976D02*
X146851440Y63421976D01*
%TO.C,C_3V-Decoup8*%
X91570212Y11968583D02*
X91785884Y11968583D01*
X91570212Y11248583D02*
X91785884Y11248583D01*
%TO.C,D19*%
X175807664Y48381990D02*
X175807664Y44371990D01*
X175807664Y44371990D02*
X177807664Y44371990D01*
X177807664Y48381990D02*
X177807664Y44371990D01*
%TO.C,D20*%
X18645296Y29332007D02*
X18645296Y25322007D01*
X18645296Y25322007D02*
X20645296Y25322007D01*
X20645296Y29332007D02*
X20645296Y25322007D01*
%TO.C,C_Crystal2*%
X90722737Y2191427D02*
X90722737Y1975755D01*
X91442737Y2191427D02*
X91442737Y1975755D01*
%TO.C,C_3V-Decoup3*%
X104894261Y20273761D02*
X104741758Y20121258D01*
X105403378Y19764644D02*
X105250875Y19612141D01*
%TO.C,D12*%
X35314032Y48381992D02*
X35314032Y44371992D01*
X35314032Y44371992D02*
X37314032Y44371992D01*
X37314032Y48381992D02*
X37314032Y44371992D01*
%TO.C,D6*%
X106751472Y67431975D02*
X106751472Y63421975D01*
X106751472Y63421975D02*
X108751472Y63421975D01*
X108751472Y67431975D02*
X108751472Y63421975D01*
%TO.C,R_Flash1*%
X113262921Y24192479D02*
X112955639Y24192479D01*
X113262921Y23432479D02*
X112955639Y23432479D01*
%TO.C,J1*%
X78187432Y42541215D02*
X79177431Y42541215D01*
X79177431Y43591215D02*
X81677432Y43591215D01*
X79177431Y42541215D02*
X79177431Y43591215D01*
X79177431Y38421215D02*
X79177431Y37371215D01*
X79177431Y37371215D02*
X81677432Y37371215D01*
X83647432Y38541215D02*
X83647432Y42421215D01*
%TO.C,D25*%
X121038960Y29332007D02*
X121038960Y25322007D01*
X121038960Y25322007D02*
X123038960Y25322007D01*
X123038960Y29332007D02*
X123038960Y25322007D01*
%TO.C,C_1V-Decoup3*%
X96263495Y17025355D02*
X96415998Y16872852D01*
X96772612Y17534472D02*
X96925115Y17381969D01*
%TO.C,R_DATA1*%
X98758168Y19066734D02*
X98540887Y19284015D01*
X99295569Y19604135D02*
X99078288Y19821416D01*
%TO.C,D17*%
X130563952Y48381991D02*
X130563952Y44371991D01*
X130563952Y44371991D02*
X132563952Y44371991D01*
X132563952Y48381991D02*
X132563952Y44371991D01*
%TO.C,C_Flash1*%
X111133524Y24172479D02*
X110917852Y24172479D01*
X111133524Y23452479D02*
X110917852Y23452479D01*
%TO.C,R_RST1*%
X1405936Y37062985D02*
X1405936Y36755703D01*
X2165936Y37062985D02*
X2165936Y36755703D01*
%TO.C,D23*%
X82938992Y29332007D02*
X82938992Y25322007D01*
X82938992Y25322007D02*
X84938992Y25322007D01*
X84938992Y29332007D02*
X84938992Y25322007D01*
%TO.C,D22*%
X63889007Y29332007D02*
X63889007Y25322007D01*
X63889007Y25322007D02*
X65889007Y25322007D01*
X65889007Y29332007D02*
X65889007Y25322007D01*
%TO.C,D15*%
X92463984Y48381992D02*
X92463984Y44371992D01*
X92463984Y44371992D02*
X94463984Y44371992D01*
X94463984Y48381992D02*
X94463984Y44371992D01*
%TO.C,C_3V-Decoup5*%
X104536220Y8752630D02*
X104383717Y8905133D01*
X105045337Y9261747D02*
X104892834Y9414250D01*
%TO.C,C_3V-Decoup7*%
X94579699Y15341559D02*
X94732202Y15189056D01*
X95088816Y15850676D02*
X95241319Y15698173D01*
%TO.C,D10*%
X182951408Y67431976D02*
X182951408Y63421976D01*
X182951408Y63421976D02*
X184951408Y63421976D01*
X184951408Y67431976D02*
X184951408Y63421976D01*
%TO.C,C_1V-Decoup2*%
X106680197Y18487825D02*
X106527694Y18335322D01*
X107189314Y17978708D02*
X107036811Y17826205D01*
%TO.C,D32*%
X78176496Y10282023D02*
X78176496Y6272023D01*
X78176496Y6272023D02*
X80176496Y6272023D01*
X80176496Y10282023D02*
X80176496Y6272023D01*
%TO.C,SW1*%
X61543696Y12906239D02*
X61543696Y10906239D01*
X63043696Y14656239D02*
X62593696Y14206239D01*
X63043696Y9156239D02*
X62593696Y9606239D01*
X65543696Y14656239D02*
X63043696Y14656239D01*
X65543696Y14656239D02*
X65993696Y14206239D01*
X65543696Y9156239D02*
X63043696Y9156239D01*
X65543696Y9156239D02*
X65993696Y9606239D01*
X67043696Y12906239D02*
X67043696Y10906239D01*
%TO.C,U1*%
X92823513Y8929679D02*
X93283132Y8470060D01*
X93283132Y9389298D02*
X92823513Y8929679D01*
X97469205Y13575371D02*
X97928824Y14034990D01*
X97928824Y14034990D02*
X98388443Y13575371D01*
X97928824Y3824368D02*
X97469205Y4283987D01*
X98388443Y4283987D02*
X97928824Y3824368D01*
X102822003Y9141811D02*
X102574516Y9389298D01*
X102864429Y8759973D02*
X102574516Y8470060D01*
X103437186Y8993319D02*
X103034135Y8929679D01*
X103097775Y9332730D01*
X103437186Y8993319D01*
G36*
X103437186Y8993319D02*
G01*
X103034135Y8929679D01*
X103097775Y9332730D01*
X103437186Y8993319D01*
G37*
%TO.C,D3*%
X49601520Y67431976D02*
X49601520Y63421976D01*
X49601520Y63421976D02*
X51601520Y63421976D01*
X51601520Y67431976D02*
X51601520Y63421976D01*
%TO.C,C_1V-Decoup1*%
X89910027Y5485045D02*
X90062530Y5637548D01*
X90419144Y4975928D02*
X90571647Y5128431D01*
%TO.C,D16*%
X111513968Y48381991D02*
X111513968Y44371991D01*
X111513968Y44371991D02*
X113513968Y44371991D01*
X113513968Y48381991D02*
X113513968Y44371991D01*
%TO.C,R_Flash3*%
X117727761Y24192479D02*
X117420479Y24192479D01*
X117727761Y23432479D02*
X117420479Y23432479D01*
%TO.C,D28*%
X180570160Y29332007D02*
X180570160Y25322007D01*
X180570160Y25322007D02*
X182570160Y25322007D01*
X182570160Y29332007D02*
X182570160Y25322007D01*
%TD*%
%LPC*%
D12*
%TO.C,MX26*%
X133032385Y28574976D03*
D13*
X138112384Y28574976D03*
D12*
X143192383Y28574976D03*
D14*
X134958653Y31843836D03*
D15*
X135612384Y32574976D03*
D16*
X140632385Y33364976D03*
%TD*%
D12*
%TO.C,MX11*%
X6826240Y47624959D03*
D13*
X11906239Y47624959D03*
D12*
X16986238Y47624959D03*
D14*
X8752508Y50893819D03*
D15*
X9406239Y51624959D03*
D16*
X14426240Y52414959D03*
%TD*%
D12*
%TO.C,MX27*%
X152082369Y28574976D03*
D13*
X157162368Y28574976D03*
D12*
X162242367Y28574976D03*
D14*
X154008637Y31843836D03*
D15*
X154662368Y32574976D03*
D16*
X159682369Y33364976D03*
%TD*%
D12*
%TO.C,MX10*%
X175894850Y66674943D03*
D13*
X180974849Y66674943D03*
D12*
X186054848Y66674943D03*
D14*
X177821118Y69943803D03*
D15*
X178474849Y70674943D03*
D16*
X183494850Y71464943D03*
%TD*%
D12*
%TO.C,MX36*%
X175894849Y9524992D03*
D13*
X180974848Y9524992D03*
D12*
X186054847Y9524992D03*
D14*
X177821117Y12793852D03*
D15*
X178474848Y13524992D03*
D16*
X183494849Y14314992D03*
%TD*%
D12*
%TO.C,MX32*%
X71119937Y9524992D03*
D13*
X76199936Y9524992D03*
D12*
X81279935Y9524992D03*
D14*
X73046205Y12793852D03*
D15*
X73699936Y13524992D03*
D16*
X78719937Y14314992D03*
%TD*%
D12*
%TO.C,MX2*%
X23494977Y66674943D03*
D13*
X28574976Y66674943D03*
D12*
X33654975Y66674943D03*
D14*
X25421245Y69943803D03*
D15*
X26074976Y70674943D03*
D16*
X31094977Y71464943D03*
%TD*%
D12*
%TO.C,MX28*%
X173513601Y28574975D03*
D13*
X178593600Y28574975D03*
D12*
X183673599Y28574975D03*
D14*
X175439869Y31843835D03*
D15*
X176093600Y32574975D03*
D16*
X181113601Y33364975D03*
%TD*%
D12*
%TO.C,MX24*%
X94932417Y28574975D03*
D13*
X100012416Y28574975D03*
D12*
X105092415Y28574975D03*
D14*
X96858685Y31843835D03*
D15*
X97512416Y32574975D03*
D16*
X102532417Y33364975D03*
%TD*%
D12*
%TO.C,MX19*%
X168751105Y47624959D03*
D13*
X173831104Y47624959D03*
D12*
X178911103Y47624959D03*
D14*
X170677373Y50893819D03*
D15*
X171331104Y51624959D03*
D16*
X176351105Y52414959D03*
%TD*%
D12*
%TO.C,MX34*%
X137794880Y9524992D03*
D13*
X142874879Y9524992D03*
D12*
X147954878Y9524992D03*
D14*
X139721148Y12793852D03*
D15*
X140374879Y13524992D03*
D16*
X145394880Y14314992D03*
%TD*%
D17*
%TO.C,S2*%
X126206155Y17779992D03*
D18*
X126206154Y2539992D03*
X102393654Y2539992D03*
D17*
X102393653Y17779992D03*
%TD*%
D12*
%TO.C,MX22*%
X56832449Y28574975D03*
D13*
X61912448Y28574975D03*
D12*
X66992447Y28574975D03*
D14*
X58758717Y31843835D03*
D15*
X59412448Y32574975D03*
D16*
X64432449Y33364975D03*
%TD*%
D12*
%TO.C,MX23*%
X75882433Y28574975D03*
D13*
X80962432Y28574975D03*
D12*
X86042431Y28574975D03*
D14*
X77808701Y31843835D03*
D15*
X78462432Y32574975D03*
D16*
X83482433Y33364975D03*
%TD*%
D12*
%TO.C,MX3*%
X42544960Y66674943D03*
D13*
X47624959Y66674943D03*
D12*
X52704958Y66674943D03*
D14*
X44471228Y69943803D03*
D15*
X45124959Y70674943D03*
D16*
X50144960Y71464943D03*
%TD*%
D12*
%TO.C,MX30*%
X23494977Y9524992D03*
D13*
X28574976Y9524992D03*
D12*
X33654975Y9524992D03*
D14*
X25421245Y12793852D03*
D15*
X26074976Y13524992D03*
D16*
X31094977Y14314992D03*
%TD*%
D12*
%TO.C,MX15*%
X85407425Y47624960D03*
D13*
X90487424Y47624960D03*
D12*
X95567423Y47624960D03*
D14*
X87333693Y50893820D03*
D15*
X87987424Y51624960D03*
D16*
X93007425Y52414960D03*
%TD*%
D12*
%TO.C,MX1*%
X4444993Y66674943D03*
D13*
X9524992Y66674943D03*
D12*
X14604991Y66674943D03*
D14*
X6371261Y69943803D03*
D15*
X7024992Y70674943D03*
D16*
X12044993Y71464943D03*
%TD*%
D12*
%TO.C,MX4*%
X61594944Y66674943D03*
D13*
X66674943Y66674943D03*
D12*
X71754942Y66674943D03*
D14*
X63521212Y69943803D03*
D15*
X64174943Y70674943D03*
D16*
X69194944Y71464943D03*
%TD*%
D17*
%TO.C,S1*%
X88106187Y17779992D03*
D18*
X88106186Y2539992D03*
X64293686Y2539992D03*
D17*
X64293685Y17779992D03*
%TD*%
D12*
%TO.C,MX6*%
X99694913Y66674943D03*
D13*
X104774912Y66674943D03*
D12*
X109854911Y66674943D03*
D14*
X101621181Y69943803D03*
D15*
X102274912Y70674943D03*
D16*
X107294913Y71464943D03*
%TD*%
D12*
%TO.C,MX5*%
X80644929Y66674943D03*
D13*
X85724928Y66674943D03*
D12*
X90804927Y66674943D03*
D14*
X82571197Y69943803D03*
D15*
X83224928Y70674943D03*
D16*
X88244929Y71464943D03*
%TD*%
D12*
%TO.C,MX14*%
X66357441Y47624960D03*
D13*
X71437440Y47624960D03*
D12*
X76517439Y47624960D03*
D14*
X68283709Y50893820D03*
D15*
X68937440Y51624960D03*
D16*
X73957441Y52414960D03*
%TD*%
D12*
%TO.C,MX35*%
X156844865Y9524992D03*
D13*
X161924864Y9524992D03*
D12*
X167004863Y9524992D03*
D14*
X158771133Y12793852D03*
D15*
X159424864Y13524992D03*
D16*
X164444865Y14314992D03*
%TD*%
D12*
%TO.C,MX8*%
X137794881Y66674943D03*
D13*
X142874880Y66674943D03*
D12*
X147954879Y66674943D03*
D14*
X139721149Y69943803D03*
D15*
X140374880Y70674943D03*
D16*
X145394881Y71464943D03*
%TD*%
D12*
%TO.C,MX20*%
X11588737Y28574976D03*
D13*
X16668736Y28574976D03*
D12*
X21748735Y28574976D03*
D14*
X13515005Y31843836D03*
D15*
X14168736Y32574976D03*
D16*
X19188737Y33364976D03*
%TD*%
D12*
%TO.C,MX7*%
X118744897Y66674943D03*
D13*
X123824896Y66674943D03*
D12*
X128904895Y66674943D03*
D14*
X120671165Y69943803D03*
D15*
X121324896Y70674943D03*
D16*
X126344897Y71464943D03*
%TD*%
D12*
%TO.C,MX16*%
X104457408Y47624959D03*
D13*
X109537407Y47624959D03*
D12*
X114617406Y47624959D03*
D14*
X106383676Y50893819D03*
D15*
X107037407Y51624959D03*
D16*
X112057408Y52414959D03*
%TD*%
D12*
%TO.C,MX12*%
X28257473Y47624959D03*
D13*
X33337472Y47624959D03*
D12*
X38417471Y47624959D03*
D14*
X30183741Y50893819D03*
D15*
X30837472Y51624959D03*
D16*
X35857473Y52414959D03*
%TD*%
D12*
%TO.C,MX9*%
X156844865Y66674943D03*
D13*
X161924864Y66674943D03*
D12*
X167004863Y66674943D03*
D14*
X158771133Y69943803D03*
D15*
X159424864Y70674943D03*
D16*
X164444865Y71464943D03*
%TD*%
D12*
%TO.C,MX21*%
X37782465Y28574976D03*
D13*
X42862464Y28574976D03*
D12*
X47942463Y28574976D03*
D14*
X39708733Y31843836D03*
D15*
X40362464Y32574976D03*
D16*
X45382465Y33364976D03*
%TD*%
D12*
%TO.C,MX29*%
X4444993Y9524992D03*
D13*
X9524992Y9524992D03*
D12*
X14604991Y9524992D03*
D14*
X6371261Y12793852D03*
D15*
X7024992Y13524992D03*
D16*
X12044993Y14314992D03*
%TD*%
D12*
%TO.C,MX33*%
X109219905Y9524992D03*
D13*
X114299904Y9524992D03*
D12*
X119379903Y9524992D03*
D14*
X111146173Y12793852D03*
D15*
X111799904Y13524992D03*
D16*
X116819905Y14314992D03*
%TD*%
D12*
%TO.C,MX31*%
X42544961Y9524992D03*
D13*
X47624960Y9524992D03*
D12*
X52704959Y9524992D03*
D14*
X44471229Y12793852D03*
D15*
X45124960Y13524992D03*
D16*
X50144961Y14314992D03*
%TD*%
D12*
%TO.C,MX17*%
X123507393Y47624959D03*
D13*
X128587392Y47624959D03*
D12*
X133667391Y47624959D03*
D14*
X125433661Y50893819D03*
D15*
X126087392Y51624959D03*
D16*
X131107393Y52414959D03*
%TD*%
D12*
%TO.C,MX13*%
X47307457Y47624959D03*
D13*
X52387456Y47624959D03*
D12*
X57467455Y47624959D03*
D14*
X49233725Y50893819D03*
D15*
X49887456Y51624959D03*
D16*
X54907457Y52414959D03*
%TD*%
D12*
%TO.C,MX25*%
X113982401Y28574976D03*
D13*
X119062400Y28574976D03*
D12*
X124142399Y28574976D03*
D14*
X115908669Y31843836D03*
D15*
X116562400Y32574976D03*
D16*
X121582401Y33364976D03*
%TD*%
D12*
%TO.C,MX18*%
X142557377Y47624959D03*
D13*
X147637376Y47624959D03*
D12*
X152717375Y47624959D03*
D14*
X144483645Y50893819D03*
D15*
X145137376Y51624959D03*
D16*
X150157377Y52414959D03*
%TD*%
D19*
%TO.C,C_3V-Decoup1*%
X94408022Y14338557D03*
X93729200Y15017379D03*
%TD*%
D20*
%TO.C,D30*%
X31551536Y6982023D03*
X31551536Y10282023D03*
%TD*%
D21*
%TO.C,C_3V-Decoup6*%
X91422147Y4804250D03*
X90743325Y4125428D03*
%TD*%
D22*
%TO.C,SW2*%
X123056146Y10006239D03*
X129356144Y10006239D03*
X123056146Y13806239D03*
X129356144Y13806239D03*
%TD*%
D20*
%TO.C,D36*%
X183951408Y6982023D03*
X183951408Y10282023D03*
%TD*%
D23*
%TO.C,R_Crystal1*%
X93251641Y4464839D03*
X94271639Y4464839D03*
%TD*%
D24*
%TO.C,C_LD2*%
X76199937Y39290591D03*
X75239937Y39290591D03*
%TD*%
D20*
%TO.C,D33*%
X117276464Y6982023D03*
X117276464Y10282023D03*
%TD*%
D25*
%TO.C,U2*%
X117899904Y22145608D03*
X117899904Y20875608D03*
X117899904Y19605608D03*
X117899904Y18335608D03*
X110699904Y18335608D03*
X110699904Y19605608D03*
X110699904Y20875608D03*
X110699904Y22145608D03*
%TD*%
D20*
%TO.C,D4*%
X69651504Y64131975D03*
X69651504Y67431975D03*
%TD*%
D23*
%TO.C,R_Flash2*%
X114980529Y23812479D03*
X116000527Y23812479D03*
%TD*%
D24*
%TO.C,C_LD1*%
X72468219Y41981215D03*
X71508219Y41981215D03*
%TD*%
D20*
%TO.C,D2*%
X31551536Y64131976D03*
X31551536Y67431976D03*
%TD*%
D19*
%TO.C,C_3V-Decoup2*%
X96091818Y16022353D03*
X95412996Y16701175D03*
%TD*%
D20*
%TO.C,D21*%
X45839024Y26032008D03*
X45839024Y29332008D03*
%TD*%
%TO.C,D9*%
X164901424Y64131976D03*
X164901424Y67431976D03*
%TD*%
D26*
%TO.C,C_Crystal1*%
X96440544Y1603591D03*
X96440544Y2563591D03*
%TD*%
D20*
%TO.C,D27*%
X160138928Y26032007D03*
X160138928Y29332007D03*
%TD*%
%TO.C,D24*%
X102988976Y26032007D03*
X102988976Y29332007D03*
%TD*%
D27*
%TO.C,U3*%
X76199936Y42931215D03*
X76199936Y41031215D03*
X74324935Y41981215D03*
%TD*%
D20*
%TO.C,D13*%
X55364016Y45081992D03*
X55364016Y48381992D03*
%TD*%
D28*
%TO.C,Y1*%
X92661640Y2933591D03*
X94861640Y2933591D03*
X94861640Y1233591D03*
X92661640Y1233591D03*
%TD*%
D29*
%TO.C,R_DATA2*%
X97865856Y19112952D03*
X98587104Y18391704D03*
%TD*%
D30*
%TO.C,C_3V-Decoup9*%
X105626125Y18710572D03*
X106304947Y19389394D03*
%TD*%
D31*
%TO.C,J2*%
X1785936Y33649975D03*
D32*
X1785936Y31109975D03*
X1785936Y28569976D03*
X1785936Y26029975D03*
X1785936Y23489975D03*
%TD*%
D20*
%TO.C,D31*%
X50601520Y6982023D03*
X50601520Y10282023D03*
%TD*%
%TO.C,D18*%
X150613935Y45081992D03*
X150613935Y48381992D03*
%TD*%
D33*
%TO.C,C_3V-Decoup4*%
X99417104Y2563591D03*
X99417104Y1603591D03*
%TD*%
D20*
%TO.C,D14*%
X74414000Y45081992D03*
X74414000Y48381992D03*
%TD*%
%TO.C,D7*%
X126801456Y64131976D03*
X126801456Y67431976D03*
%TD*%
%TO.C,D35*%
X164901424Y6982023D03*
X164901424Y10282023D03*
%TD*%
%TO.C,D11*%
X14882800Y45081992D03*
X14882800Y48381992D03*
%TD*%
%TO.C,D34*%
X145851440Y6982023D03*
X145851440Y10282023D03*
%TD*%
%TO.C,D1*%
X12501552Y64131976D03*
X12501552Y67431976D03*
%TD*%
%TO.C,D29*%
X12501552Y6982023D03*
X12501552Y10282023D03*
%TD*%
%TO.C,D5*%
X88701488Y64131975D03*
X88701488Y67431975D03*
%TD*%
%TO.C,D26*%
X141088944Y26032007D03*
X141088944Y29332007D03*
%TD*%
%TO.C,D8*%
X145851440Y64131976D03*
X145851440Y67431976D03*
%TD*%
D24*
%TO.C,C_3V-Decoup8*%
X92158048Y11608583D03*
X91198048Y11608583D03*
%TD*%
D20*
%TO.C,D19*%
X176807664Y45081990D03*
X176807664Y48381990D03*
%TD*%
%TO.C,D20*%
X19645296Y26032007D03*
X19645296Y29332007D03*
%TD*%
D26*
%TO.C,C_Crystal2*%
X91082737Y1603591D03*
X91082737Y2563591D03*
%TD*%
D30*
%TO.C,C_3V-Decoup3*%
X104733157Y19603540D03*
X105411979Y20282362D03*
%TD*%
D20*
%TO.C,D12*%
X36314032Y45081992D03*
X36314032Y48381992D03*
%TD*%
%TO.C,D6*%
X107751472Y64131975D03*
X107751472Y67431975D03*
%TD*%
D23*
%TO.C,R_Flash1*%
X112599281Y23812479D03*
X113619279Y23812479D03*
%TD*%
D34*
%TO.C,J1*%
X78962432Y41981215D03*
X78962432Y40981215D03*
X78962432Y39981215D03*
X78962432Y38981215D03*
D35*
X82837432Y43281215D03*
X82837432Y37681215D03*
%TD*%
D20*
%TO.C,D25*%
X122038960Y26032007D03*
X122038960Y29332007D03*
%TD*%
D19*
%TO.C,C_1V-Decoup3*%
X96933716Y16864251D03*
X96254894Y17543073D03*
%TD*%
D29*
%TO.C,R_DATA1*%
X98557604Y19804699D03*
X99278852Y19083451D03*
%TD*%
D20*
%TO.C,D17*%
X131563952Y45081991D03*
X131563952Y48381991D03*
%TD*%
D36*
%TO.C,C_Flash1*%
X110545688Y23812479D03*
X111505688Y23812479D03*
%TD*%
D37*
%TO.C,R_RST1*%
X1785936Y36399345D03*
X1785936Y37419343D03*
%TD*%
D20*
%TO.C,D23*%
X83938992Y26032007D03*
X83938992Y29332007D03*
%TD*%
%TO.C,D22*%
X64889007Y26032007D03*
X64889007Y29332007D03*
%TD*%
%TO.C,D15*%
X93463984Y45081992D03*
X93463984Y48381992D03*
%TD*%
D38*
%TO.C,C_3V-Decoup5*%
X104375116Y9422851D03*
X105053938Y8744029D03*
%TD*%
D19*
%TO.C,C_3V-Decoup7*%
X95249920Y15180455D03*
X94571098Y15859277D03*
%TD*%
D20*
%TO.C,D10*%
X183951408Y64131976D03*
X183951408Y67431976D03*
%TD*%
D30*
%TO.C,C_1V-Decoup2*%
X106519093Y17817604D03*
X107197915Y18496426D03*
%TD*%
D20*
%TO.C,D32*%
X79176496Y6982023D03*
X79176496Y10282023D03*
%TD*%
D22*
%TO.C,SW1*%
X61143697Y10006239D03*
X67443695Y10006239D03*
X61143697Y13806239D03*
X67443695Y13806239D03*
%TD*%
D39*
%TO.C,U1*%
X102197981Y8337477D03*
X101915138Y8054634D03*
X101632296Y7771792D03*
X101349453Y7488949D03*
X101066610Y7206106D03*
X100783768Y6923264D03*
X100500925Y6640421D03*
X100218082Y6357578D03*
X99935239Y6074735D03*
X99652397Y5791893D03*
X99369554Y5509050D03*
X99086711Y5226207D03*
X98803869Y4943365D03*
X98521026Y4660522D03*
D40*
X97336622Y4660522D03*
X97053779Y4943365D03*
X96770937Y5226207D03*
X96488094Y5509050D03*
X96205251Y5791893D03*
X95922409Y6074735D03*
X95639566Y6357578D03*
X95356723Y6640421D03*
X95073880Y6923264D03*
X94791038Y7206106D03*
X94508195Y7488949D03*
X94225352Y7771792D03*
X93942510Y8054634D03*
X93659667Y8337477D03*
D39*
X93659667Y9521881D03*
X93942510Y9804724D03*
X94225352Y10087566D03*
X94508195Y10370409D03*
X94791038Y10653252D03*
X95073880Y10936094D03*
X95356723Y11218937D03*
X95639566Y11501780D03*
X95922409Y11784623D03*
X96205251Y12067465D03*
X96488094Y12350308D03*
X96770937Y12633151D03*
X97053779Y12915993D03*
X97336622Y13198836D03*
D40*
X98521026Y13198836D03*
X98803869Y12915993D03*
X99086711Y12633151D03*
X99369554Y12350308D03*
X99652397Y12067465D03*
X99935239Y11784623D03*
X100218082Y11501780D03*
X100500925Y11218937D03*
X100783768Y10936094D03*
X101066610Y10653252D03*
X101349453Y10370409D03*
X101632296Y10087566D03*
X101915138Y9804724D03*
X102197981Y9521881D03*
D41*
X97928824Y8929679D03*
%TD*%
D20*
%TO.C,D3*%
X50601520Y64131976D03*
X50601520Y67431976D03*
%TD*%
D21*
%TO.C,C_1V-Decoup1*%
X90580248Y5646149D03*
X89901426Y4967327D03*
%TD*%
D20*
%TO.C,D16*%
X112513968Y45081991D03*
X112513968Y48381991D03*
%TD*%
D23*
%TO.C,R_Flash3*%
X117064121Y23812479D03*
X118084119Y23812479D03*
%TD*%
D20*
%TO.C,D28*%
X181570160Y26032007D03*
X181570160Y29332007D03*
%TD*%
%LPD*%
M02*
