%TF.GenerationSoftware,KiCad,Pcbnew,8.0.5*%
%TF.CreationDate,2024-10-22T20:51:29-04:00*%
%TF.ProjectId,trad,74726164-2e6b-4696-9361-645f70636258,rev?*%
%TF.SameCoordinates,PX1c62fe0PY650e7e0*%
%TF.FileFunction,Soldermask,Bot*%
%TF.FilePolarity,Negative*%
%FSLAX46Y46*%
G04 Gerber Fmt 4.6, Leading zero omitted, Abs format (unit mm)*
G04 Created by KiCad (PCBNEW 8.0.5) date 2024-10-22 20:51:29*
%MOMM*%
%LPD*%
G01*
G04 APERTURE LIST*
G04 Aperture macros list*
%AMRoundRect*
0 Rectangle with rounded corners*
0 $1 Rounding radius*
0 $2 $3 $4 $5 $6 $7 $8 $9 X,Y pos of 4 corners*
0 Add a 4 corners polygon primitive as box body*
4,1,4,$2,$3,$4,$5,$6,$7,$8,$9,$2,$3,0*
0 Add four circle primitives for the rounded corners*
1,1,$1+$1,$2,$3*
1,1,$1+$1,$4,$5*
1,1,$1+$1,$6,$7*
1,1,$1+$1,$8,$9*
0 Add four rect primitives between the rounded corners*
20,1,$1+$1,$2,$3,$4,$5,0*
20,1,$1+$1,$4,$5,$6,$7,0*
20,1,$1+$1,$6,$7,$8,$9,0*
20,1,$1+$1,$8,$9,$2,$3,0*%
%AMHorizOval*
0 Thick line with rounded ends*
0 $1 width*
0 $2 $3 position (X,Y) of the first rounded end (center of the circle)*
0 $4 $5 position (X,Y) of the second rounded end (center of the circle)*
0 Add line between two ends*
20,1,$1,$2,$3,$4,$5,0*
0 Add two circle primitives to create the rounded ends*
1,1,$1,$2,$3*
1,1,$1,$4,$5*%
%AMRotRect*
0 Rectangle, with rotation*
0 The origin of the aperture is its center*
0 $1 length*
0 $2 width*
0 $3 Rotation angle, in degrees counterclockwise*
0 Add horizontal line*
21,1,$1,$2,0,0,$3*%
G04 Aperture macros list end*
%ADD10C,1.750000*%
%ADD11C,4.000000*%
%ADD12HorizOval,2.500000X0.656270X0.728862X-0.656270X-0.728862X0*%
%ADD13C,2.500000*%
%ADD14HorizOval,2.500000X0.020277X0.289981X-0.020277X-0.289981X0*%
%ADD15C,3.987800*%
%ADD16C,3.048000*%
%ADD17RoundRect,0.140000X0.219203X0.021213X0.021213X0.219203X-0.219203X-0.021213X-0.021213X-0.219203X0*%
%ADD18RoundRect,0.225000X0.375000X-0.225000X0.375000X0.225000X-0.375000X0.225000X-0.375000X-0.225000X0*%
%ADD19RoundRect,0.140000X-0.021213X0.219203X-0.219203X0.021213X0.021213X-0.219203X0.219203X-0.021213X0*%
%ADD20R,1.700000X1.000000*%
%ADD21RoundRect,0.135000X-0.135000X-0.185000X0.135000X-0.185000X0.135000X0.185000X-0.135000X0.185000X0*%
%ADD22RoundRect,0.140000X0.140000X0.170000X-0.140000X0.170000X-0.140000X-0.170000X0.140000X-0.170000X0*%
%ADD23RoundRect,0.150000X0.650000X0.150000X-0.650000X0.150000X-0.650000X-0.150000X0.650000X-0.150000X0*%
%ADD24RoundRect,0.140000X0.170000X-0.140000X0.170000X0.140000X-0.170000X0.140000X-0.170000X-0.140000X0*%
%ADD25RoundRect,0.150000X0.587500X0.150000X-0.587500X0.150000X-0.587500X-0.150000X0.587500X-0.150000X0*%
%ADD26R,1.400000X1.200000*%
%ADD27RoundRect,0.135000X-0.226274X-0.035355X-0.035355X-0.226274X0.226274X0.035355X0.035355X0.226274X0*%
%ADD28RoundRect,0.140000X0.021213X-0.219203X0.219203X-0.021213X-0.021213X0.219203X-0.219203X0.021213X0*%
%ADD29R,1.700000X1.700000*%
%ADD30O,1.700000X1.700000*%
%ADD31RoundRect,0.140000X-0.170000X0.140000X-0.170000X-0.140000X0.170000X-0.140000X0.170000X0.140000X0*%
%ADD32RoundRect,0.150000X-0.625000X0.150000X-0.625000X-0.150000X0.625000X-0.150000X0.625000X0.150000X0*%
%ADD33RoundRect,0.250000X-0.650000X0.350000X-0.650000X-0.350000X0.650000X-0.350000X0.650000X0.350000X0*%
%ADD34RoundRect,0.140000X-0.140000X-0.170000X0.140000X-0.170000X0.140000X0.170000X-0.140000X0.170000X0*%
%ADD35RoundRect,0.135000X0.185000X-0.135000X0.185000X0.135000X-0.185000X0.135000X-0.185000X-0.135000X0*%
%ADD36RoundRect,0.140000X-0.219203X-0.021213X-0.021213X-0.219203X0.219203X0.021213X0.021213X0.219203X0*%
%ADD37RoundRect,0.050000X0.309359X-0.238649X-0.238649X0.309359X-0.309359X0.238649X0.238649X-0.309359X0*%
%ADD38RoundRect,0.050000X0.309359X0.238649X0.238649X0.309359X-0.309359X-0.238649X-0.238649X-0.309359X0*%
%ADD39RotRect,3.200000X3.200000X135.000000*%
G04 APERTURE END LIST*
D10*
%TO.C,MX26*%
X133032385Y28574976D03*
D11*
X138112384Y28574976D03*
D10*
X143192383Y28574976D03*
D12*
X134958653Y31843836D03*
D13*
X135612384Y32574976D03*
D14*
X140632385Y33364976D03*
%TD*%
D10*
%TO.C,MX11*%
X6826240Y47624959D03*
D11*
X11906239Y47624959D03*
D10*
X16986238Y47624959D03*
D12*
X8752508Y50893819D03*
D13*
X9406239Y51624959D03*
D14*
X14426240Y52414959D03*
%TD*%
D10*
%TO.C,MX27*%
X152082369Y28574976D03*
D11*
X157162368Y28574976D03*
D10*
X162242367Y28574976D03*
D12*
X154008637Y31843836D03*
D13*
X154662368Y32574976D03*
D14*
X159682369Y33364976D03*
%TD*%
D10*
%TO.C,MX10*%
X175894850Y66674943D03*
D11*
X180974849Y66674943D03*
D10*
X186054848Y66674943D03*
D12*
X177821118Y69943803D03*
D13*
X178474849Y70674943D03*
D14*
X183494850Y71464943D03*
%TD*%
D10*
%TO.C,MX36*%
X175894849Y9524992D03*
D11*
X180974848Y9524992D03*
D10*
X186054847Y9524992D03*
D12*
X177821117Y12793852D03*
D13*
X178474848Y13524992D03*
D14*
X183494849Y14314992D03*
%TD*%
D10*
%TO.C,MX32*%
X71119937Y9524992D03*
D11*
X76199936Y9524992D03*
D10*
X81279935Y9524992D03*
D12*
X73046205Y12793852D03*
D13*
X73699936Y13524992D03*
D14*
X78719937Y14314992D03*
%TD*%
D10*
%TO.C,MX2*%
X23494977Y66674943D03*
D11*
X28574976Y66674943D03*
D10*
X33654975Y66674943D03*
D12*
X25421245Y69943803D03*
D13*
X26074976Y70674943D03*
D14*
X31094977Y71464943D03*
%TD*%
D10*
%TO.C,MX28*%
X173513601Y28574975D03*
D11*
X178593600Y28574975D03*
D10*
X183673599Y28574975D03*
D12*
X175439869Y31843835D03*
D13*
X176093600Y32574975D03*
D14*
X181113601Y33364975D03*
%TD*%
D10*
%TO.C,MX24*%
X94932417Y28574975D03*
D11*
X100012416Y28574975D03*
D10*
X105092415Y28574975D03*
D12*
X96858685Y31843835D03*
D13*
X97512416Y32574975D03*
D14*
X102532417Y33364975D03*
%TD*%
D10*
%TO.C,MX19*%
X168751105Y47624959D03*
D11*
X173831104Y47624959D03*
D10*
X178911103Y47624959D03*
D12*
X170677373Y50893819D03*
D13*
X171331104Y51624959D03*
D14*
X176351105Y52414959D03*
%TD*%
D10*
%TO.C,MX34*%
X137794880Y9524992D03*
D11*
X142874879Y9524992D03*
D10*
X147954878Y9524992D03*
D12*
X139721148Y12793852D03*
D13*
X140374879Y13524992D03*
D14*
X145394880Y14314992D03*
%TD*%
D15*
%TO.C,S2*%
X126206155Y17779992D03*
D16*
X126206154Y2539992D03*
X102393654Y2539992D03*
D15*
X102393653Y17779992D03*
%TD*%
D10*
%TO.C,MX22*%
X56832449Y28574975D03*
D11*
X61912448Y28574975D03*
D10*
X66992447Y28574975D03*
D12*
X58758717Y31843835D03*
D13*
X59412448Y32574975D03*
D14*
X64432449Y33364975D03*
%TD*%
D10*
%TO.C,MX23*%
X75882433Y28574975D03*
D11*
X80962432Y28574975D03*
D10*
X86042431Y28574975D03*
D12*
X77808701Y31843835D03*
D13*
X78462432Y32574975D03*
D14*
X83482433Y33364975D03*
%TD*%
D10*
%TO.C,MX3*%
X42544960Y66674943D03*
D11*
X47624959Y66674943D03*
D10*
X52704958Y66674943D03*
D12*
X44471228Y69943803D03*
D13*
X45124959Y70674943D03*
D14*
X50144960Y71464943D03*
%TD*%
D10*
%TO.C,MX30*%
X23494977Y9524992D03*
D11*
X28574976Y9524992D03*
D10*
X33654975Y9524992D03*
D12*
X25421245Y12793852D03*
D13*
X26074976Y13524992D03*
D14*
X31094977Y14314992D03*
%TD*%
D10*
%TO.C,MX15*%
X85407425Y47624960D03*
D11*
X90487424Y47624960D03*
D10*
X95567423Y47624960D03*
D12*
X87333693Y50893820D03*
D13*
X87987424Y51624960D03*
D14*
X93007425Y52414960D03*
%TD*%
D10*
%TO.C,MX1*%
X4444993Y66674943D03*
D11*
X9524992Y66674943D03*
D10*
X14604991Y66674943D03*
D12*
X6371261Y69943803D03*
D13*
X7024992Y70674943D03*
D14*
X12044993Y71464943D03*
%TD*%
D10*
%TO.C,MX4*%
X61594944Y66674943D03*
D11*
X66674943Y66674943D03*
D10*
X71754942Y66674943D03*
D12*
X63521212Y69943803D03*
D13*
X64174943Y70674943D03*
D14*
X69194944Y71464943D03*
%TD*%
D15*
%TO.C,S1*%
X88106187Y17779992D03*
D16*
X88106186Y2539992D03*
X64293686Y2539992D03*
D15*
X64293685Y17779992D03*
%TD*%
D10*
%TO.C,MX6*%
X99694913Y66674943D03*
D11*
X104774912Y66674943D03*
D10*
X109854911Y66674943D03*
D12*
X101621181Y69943803D03*
D13*
X102274912Y70674943D03*
D14*
X107294913Y71464943D03*
%TD*%
D10*
%TO.C,MX5*%
X80644929Y66674943D03*
D11*
X85724928Y66674943D03*
D10*
X90804927Y66674943D03*
D12*
X82571197Y69943803D03*
D13*
X83224928Y70674943D03*
D14*
X88244929Y71464943D03*
%TD*%
D10*
%TO.C,MX14*%
X66357441Y47624960D03*
D11*
X71437440Y47624960D03*
D10*
X76517439Y47624960D03*
D12*
X68283709Y50893820D03*
D13*
X68937440Y51624960D03*
D14*
X73957441Y52414960D03*
%TD*%
D10*
%TO.C,MX35*%
X156844865Y9524992D03*
D11*
X161924864Y9524992D03*
D10*
X167004863Y9524992D03*
D12*
X158771133Y12793852D03*
D13*
X159424864Y13524992D03*
D14*
X164444865Y14314992D03*
%TD*%
D10*
%TO.C,MX8*%
X137794881Y66674943D03*
D11*
X142874880Y66674943D03*
D10*
X147954879Y66674943D03*
D12*
X139721149Y69943803D03*
D13*
X140374880Y70674943D03*
D14*
X145394881Y71464943D03*
%TD*%
D10*
%TO.C,MX20*%
X11588737Y28574976D03*
D11*
X16668736Y28574976D03*
D10*
X21748735Y28574976D03*
D12*
X13515005Y31843836D03*
D13*
X14168736Y32574976D03*
D14*
X19188737Y33364976D03*
%TD*%
D10*
%TO.C,MX7*%
X118744897Y66674943D03*
D11*
X123824896Y66674943D03*
D10*
X128904895Y66674943D03*
D12*
X120671165Y69943803D03*
D13*
X121324896Y70674943D03*
D14*
X126344897Y71464943D03*
%TD*%
D10*
%TO.C,MX16*%
X104457408Y47624959D03*
D11*
X109537407Y47624959D03*
D10*
X114617406Y47624959D03*
D12*
X106383676Y50893819D03*
D13*
X107037407Y51624959D03*
D14*
X112057408Y52414959D03*
%TD*%
D10*
%TO.C,MX12*%
X28257473Y47624959D03*
D11*
X33337472Y47624959D03*
D10*
X38417471Y47624959D03*
D12*
X30183741Y50893819D03*
D13*
X30837472Y51624959D03*
D14*
X35857473Y52414959D03*
%TD*%
D10*
%TO.C,MX9*%
X156844865Y66674943D03*
D11*
X161924864Y66674943D03*
D10*
X167004863Y66674943D03*
D12*
X158771133Y69943803D03*
D13*
X159424864Y70674943D03*
D14*
X164444865Y71464943D03*
%TD*%
D10*
%TO.C,MX21*%
X37782465Y28574976D03*
D11*
X42862464Y28574976D03*
D10*
X47942463Y28574976D03*
D12*
X39708733Y31843836D03*
D13*
X40362464Y32574976D03*
D14*
X45382465Y33364976D03*
%TD*%
D10*
%TO.C,MX29*%
X4444993Y9524992D03*
D11*
X9524992Y9524992D03*
D10*
X14604991Y9524992D03*
D12*
X6371261Y12793852D03*
D13*
X7024992Y13524992D03*
D14*
X12044993Y14314992D03*
%TD*%
D10*
%TO.C,MX33*%
X109219905Y9524992D03*
D11*
X114299904Y9524992D03*
D10*
X119379903Y9524992D03*
D12*
X111146173Y12793852D03*
D13*
X111799904Y13524992D03*
D14*
X116819905Y14314992D03*
%TD*%
D10*
%TO.C,MX31*%
X42544961Y9524992D03*
D11*
X47624960Y9524992D03*
D10*
X52704959Y9524992D03*
D12*
X44471229Y12793852D03*
D13*
X45124960Y13524992D03*
D14*
X50144961Y14314992D03*
%TD*%
D10*
%TO.C,MX17*%
X123507393Y47624959D03*
D11*
X128587392Y47624959D03*
D10*
X133667391Y47624959D03*
D12*
X125433661Y50893819D03*
D13*
X126087392Y51624959D03*
D14*
X131107393Y52414959D03*
%TD*%
D10*
%TO.C,MX13*%
X47307457Y47624959D03*
D11*
X52387456Y47624959D03*
D10*
X57467455Y47624959D03*
D12*
X49233725Y50893819D03*
D13*
X49887456Y51624959D03*
D14*
X54907457Y52414959D03*
%TD*%
D10*
%TO.C,MX25*%
X113982401Y28574976D03*
D11*
X119062400Y28574976D03*
D10*
X124142399Y28574976D03*
D12*
X115908669Y31843836D03*
D13*
X116562400Y32574976D03*
D14*
X121582401Y33364976D03*
%TD*%
D10*
%TO.C,MX18*%
X142557377Y47624959D03*
D11*
X147637376Y47624959D03*
D10*
X152717375Y47624959D03*
D12*
X144483645Y50893819D03*
D13*
X145137376Y51624959D03*
D14*
X150157377Y52414959D03*
%TD*%
D17*
%TO.C,C_3V-Decoup1*%
X94408022Y14338557D03*
X93729200Y15017379D03*
%TD*%
D18*
%TO.C,D30*%
X31551536Y6982023D03*
X31551536Y10282023D03*
%TD*%
D19*
%TO.C,C_3V-Decoup6*%
X91422147Y4804250D03*
X90743325Y4125428D03*
%TD*%
D20*
%TO.C,SW2*%
X123056146Y10006239D03*
X129356144Y10006239D03*
X123056146Y13806239D03*
X129356144Y13806239D03*
%TD*%
D18*
%TO.C,D36*%
X183951408Y6982023D03*
X183951408Y10282023D03*
%TD*%
D21*
%TO.C,R_Crystal1*%
X93251641Y4464839D03*
X94271639Y4464839D03*
%TD*%
D22*
%TO.C,C_LD2*%
X76199937Y39290591D03*
X75239937Y39290591D03*
%TD*%
D18*
%TO.C,D33*%
X117276464Y6982023D03*
X117276464Y10282023D03*
%TD*%
D23*
%TO.C,U2*%
X117899904Y22145608D03*
X117899904Y20875608D03*
X117899904Y19605608D03*
X117899904Y18335608D03*
X110699904Y18335608D03*
X110699904Y19605608D03*
X110699904Y20875608D03*
X110699904Y22145608D03*
%TD*%
D18*
%TO.C,D4*%
X69651504Y64131975D03*
X69651504Y67431975D03*
%TD*%
D21*
%TO.C,R_Flash2*%
X114980529Y23812479D03*
X116000527Y23812479D03*
%TD*%
D22*
%TO.C,C_LD1*%
X72468219Y41981215D03*
X71508219Y41981215D03*
%TD*%
D18*
%TO.C,D2*%
X31551536Y64131976D03*
X31551536Y67431976D03*
%TD*%
D17*
%TO.C,C_3V-Decoup2*%
X96091818Y16022353D03*
X95412996Y16701175D03*
%TD*%
D18*
%TO.C,D21*%
X45839024Y26032008D03*
X45839024Y29332008D03*
%TD*%
%TO.C,D9*%
X164901424Y64131976D03*
X164901424Y67431976D03*
%TD*%
D24*
%TO.C,C_Crystal1*%
X96440544Y1603591D03*
X96440544Y2563591D03*
%TD*%
D18*
%TO.C,D27*%
X160138928Y26032007D03*
X160138928Y29332007D03*
%TD*%
%TO.C,D24*%
X102988976Y26032007D03*
X102988976Y29332007D03*
%TD*%
D25*
%TO.C,U3*%
X76199936Y42931215D03*
X76199936Y41031215D03*
X74324935Y41981215D03*
%TD*%
D18*
%TO.C,D13*%
X55364016Y45081992D03*
X55364016Y48381992D03*
%TD*%
D26*
%TO.C,Y1*%
X92661640Y2933591D03*
X94861640Y2933591D03*
X94861640Y1233591D03*
X92661640Y1233591D03*
%TD*%
D27*
%TO.C,R_DATA2*%
X97865856Y19112952D03*
X98587104Y18391704D03*
%TD*%
D28*
%TO.C,C_3V-Decoup9*%
X105626125Y18710572D03*
X106304947Y19389394D03*
%TD*%
D29*
%TO.C,J2*%
X1785936Y33649975D03*
D30*
X1785936Y31109975D03*
X1785936Y28569976D03*
X1785936Y26029975D03*
X1785936Y23489975D03*
%TD*%
D18*
%TO.C,D31*%
X50601520Y6982023D03*
X50601520Y10282023D03*
%TD*%
%TO.C,D18*%
X150613935Y45081992D03*
X150613935Y48381992D03*
%TD*%
D31*
%TO.C,C_3V-Decoup4*%
X99417104Y2563591D03*
X99417104Y1603591D03*
%TD*%
D18*
%TO.C,D14*%
X74414000Y45081992D03*
X74414000Y48381992D03*
%TD*%
%TO.C,D7*%
X126801456Y64131976D03*
X126801456Y67431976D03*
%TD*%
%TO.C,D35*%
X164901424Y6982023D03*
X164901424Y10282023D03*
%TD*%
%TO.C,D11*%
X14882800Y45081992D03*
X14882800Y48381992D03*
%TD*%
%TO.C,D34*%
X145851440Y6982023D03*
X145851440Y10282023D03*
%TD*%
%TO.C,D1*%
X12501552Y64131976D03*
X12501552Y67431976D03*
%TD*%
%TO.C,D29*%
X12501552Y6982023D03*
X12501552Y10282023D03*
%TD*%
%TO.C,D5*%
X88701488Y64131975D03*
X88701488Y67431975D03*
%TD*%
%TO.C,D26*%
X141088944Y26032007D03*
X141088944Y29332007D03*
%TD*%
%TO.C,D8*%
X145851440Y64131976D03*
X145851440Y67431976D03*
%TD*%
D22*
%TO.C,C_3V-Decoup8*%
X92158048Y11608583D03*
X91198048Y11608583D03*
%TD*%
D18*
%TO.C,D19*%
X176807664Y45081990D03*
X176807664Y48381990D03*
%TD*%
%TO.C,D20*%
X19645296Y26032007D03*
X19645296Y29332007D03*
%TD*%
D24*
%TO.C,C_Crystal2*%
X91082737Y1603591D03*
X91082737Y2563591D03*
%TD*%
D28*
%TO.C,C_3V-Decoup3*%
X104733157Y19603540D03*
X105411979Y20282362D03*
%TD*%
D18*
%TO.C,D12*%
X36314032Y45081992D03*
X36314032Y48381992D03*
%TD*%
%TO.C,D6*%
X107751472Y64131975D03*
X107751472Y67431975D03*
%TD*%
D21*
%TO.C,R_Flash1*%
X112599281Y23812479D03*
X113619279Y23812479D03*
%TD*%
D32*
%TO.C,J1*%
X78962432Y41981215D03*
X78962432Y40981215D03*
X78962432Y39981215D03*
X78962432Y38981215D03*
D33*
X82837432Y43281215D03*
X82837432Y37681215D03*
%TD*%
D18*
%TO.C,D25*%
X122038960Y26032007D03*
X122038960Y29332007D03*
%TD*%
D17*
%TO.C,C_1V-Decoup3*%
X96933716Y16864251D03*
X96254894Y17543073D03*
%TD*%
D27*
%TO.C,R_DATA1*%
X98557604Y19804699D03*
X99278852Y19083451D03*
%TD*%
D18*
%TO.C,D17*%
X131563952Y45081991D03*
X131563952Y48381991D03*
%TD*%
D34*
%TO.C,C_Flash1*%
X110545688Y23812479D03*
X111505688Y23812479D03*
%TD*%
D35*
%TO.C,R_RST1*%
X1785936Y36399345D03*
X1785936Y37419343D03*
%TD*%
D18*
%TO.C,D23*%
X83938992Y26032007D03*
X83938992Y29332007D03*
%TD*%
%TO.C,D22*%
X64889007Y26032007D03*
X64889007Y29332007D03*
%TD*%
%TO.C,D15*%
X93463984Y45081992D03*
X93463984Y48381992D03*
%TD*%
D36*
%TO.C,C_3V-Decoup5*%
X104375116Y9422851D03*
X105053938Y8744029D03*
%TD*%
D17*
%TO.C,C_3V-Decoup7*%
X95249920Y15180455D03*
X94571098Y15859277D03*
%TD*%
D18*
%TO.C,D10*%
X183951408Y64131976D03*
X183951408Y67431976D03*
%TD*%
D28*
%TO.C,C_1V-Decoup2*%
X106519093Y17817604D03*
X107197915Y18496426D03*
%TD*%
D18*
%TO.C,D32*%
X79176496Y6982023D03*
X79176496Y10282023D03*
%TD*%
D20*
%TO.C,SW1*%
X61143697Y10006239D03*
X67443695Y10006239D03*
X61143697Y13806239D03*
X67443695Y13806239D03*
%TD*%
D37*
%TO.C,U1*%
X102197981Y8337477D03*
X101915138Y8054634D03*
X101632296Y7771792D03*
X101349453Y7488949D03*
X101066610Y7206106D03*
X100783768Y6923264D03*
X100500925Y6640421D03*
X100218082Y6357578D03*
X99935239Y6074735D03*
X99652397Y5791893D03*
X99369554Y5509050D03*
X99086711Y5226207D03*
X98803869Y4943365D03*
X98521026Y4660522D03*
D38*
X97336622Y4660522D03*
X97053779Y4943365D03*
X96770937Y5226207D03*
X96488094Y5509050D03*
X96205251Y5791893D03*
X95922409Y6074735D03*
X95639566Y6357578D03*
X95356723Y6640421D03*
X95073880Y6923264D03*
X94791038Y7206106D03*
X94508195Y7488949D03*
X94225352Y7771792D03*
X93942510Y8054634D03*
X93659667Y8337477D03*
D37*
X93659667Y9521881D03*
X93942510Y9804724D03*
X94225352Y10087566D03*
X94508195Y10370409D03*
X94791038Y10653252D03*
X95073880Y10936094D03*
X95356723Y11218937D03*
X95639566Y11501780D03*
X95922409Y11784623D03*
X96205251Y12067465D03*
X96488094Y12350308D03*
X96770937Y12633151D03*
X97053779Y12915993D03*
X97336622Y13198836D03*
D38*
X98521026Y13198836D03*
X98803869Y12915993D03*
X99086711Y12633151D03*
X99369554Y12350308D03*
X99652397Y12067465D03*
X99935239Y11784623D03*
X100218082Y11501780D03*
X100500925Y11218937D03*
X100783768Y10936094D03*
X101066610Y10653252D03*
X101349453Y10370409D03*
X101632296Y10087566D03*
X101915138Y9804724D03*
X102197981Y9521881D03*
D39*
X97928824Y8929679D03*
%TD*%
D18*
%TO.C,D3*%
X50601520Y64131976D03*
X50601520Y67431976D03*
%TD*%
D19*
%TO.C,C_1V-Decoup1*%
X90580248Y5646149D03*
X89901426Y4967327D03*
%TD*%
D18*
%TO.C,D16*%
X112513968Y45081991D03*
X112513968Y48381991D03*
%TD*%
D21*
%TO.C,R_Flash3*%
X117064121Y23812479D03*
X118084119Y23812479D03*
%TD*%
D18*
%TO.C,D28*%
X181570160Y26032007D03*
X181570160Y29332007D03*
%TD*%
M02*
