%TF.GenerationSoftware,KiCad,Pcbnew,8.0.5*%
%TF.CreationDate,2024-10-22T20:47:24-04:00*%
%TF.ProjectId,ortho,6f727468-6f2e-46b6-9963-61645f706362,rev?*%
%TF.SameCoordinates,PX1c62fe0PY650e7e0*%
%TF.FileFunction,Drillmap*%
%TF.FilePolarity,Positive*%
%FSLAX45Y45*%
G04 Gerber Fmt 4.5, Leading zero omitted, Abs format (unit mm)*
G04 Created by KiCad (PCBNEW 8.0.5) date 2024-10-22 20:47:24*
%MOMM*%
%LPD*%
G01*
G04 APERTURE LIST*
%ADD10C,0.100000*%
%ADD11C,0.200000*%
%ADD12C,0.175000*%
%ADD13C,0.304800*%
%ADD14C,0.398780*%
%ADD15C,0.400000*%
G04 APERTURE END LIST*
D10*
X0Y297656D02*
X0Y7322337D01*
X19049984Y297656D02*
G75*
G02*
X18752328Y0I-297654J-2D01*
G01*
X18752328Y0D02*
X297656Y0D01*
X18752328Y7619993D02*
G75*
G02*
X19049980Y7322338I2J-297650D01*
G01*
X0Y7322337D02*
G75*
G02*
X297656Y7619994I297656J0D01*
G01*
X297656Y0D02*
G75*
G02*
X0Y297656I0J297656D01*
G01*
X19049984Y7322338D02*
X19049984Y297656D01*
X297656Y7619993D02*
X18752328Y7619993D01*
D11*
D12*
X356999Y6754994D02*
X531999Y6579994D01*
X531999Y6754994D02*
X356999Y6579994D01*
X356999Y4849996D02*
X531999Y4674996D01*
X531999Y4849996D02*
X356999Y4674996D01*
X356999Y2944998D02*
X531999Y2769998D01*
X531999Y2944998D02*
X356999Y2769998D01*
X356999Y1039999D02*
X531999Y864999D01*
X531999Y1039999D02*
X356999Y864999D01*
X1372999Y6754994D02*
X1547999Y6579994D01*
X1547999Y6754994D02*
X1372999Y6579994D01*
X1372999Y4849996D02*
X1547999Y4674996D01*
X1547999Y4849996D02*
X1372999Y4674996D01*
X1372999Y2944998D02*
X1547999Y2769998D01*
X1547999Y2944998D02*
X1372999Y2769998D01*
X1372999Y1039999D02*
X1547999Y864999D01*
X1547999Y1039999D02*
X1372999Y864999D01*
X2261998Y6754994D02*
X2436998Y6579994D01*
X2436998Y6754994D02*
X2261998Y6579994D01*
X2261998Y4849996D02*
X2436998Y4674996D01*
X2436998Y4849996D02*
X2261998Y4674996D01*
X2261998Y2944998D02*
X2436998Y2769998D01*
X2436998Y2944998D02*
X2261998Y2769998D01*
X2261998Y1039999D02*
X2436998Y864999D01*
X2436998Y1039999D02*
X2261998Y864999D01*
X3277997Y6754994D02*
X3452997Y6579994D01*
X3452997Y6754994D02*
X3277997Y6579994D01*
X3277997Y4849996D02*
X3452997Y4674996D01*
X3452997Y4849996D02*
X3277997Y4674996D01*
X3277997Y2944998D02*
X3452997Y2769998D01*
X3452997Y2944998D02*
X3277997Y2769998D01*
X3277997Y1039999D02*
X3452997Y864999D01*
X3452997Y1039999D02*
X3277997Y864999D01*
X4166996Y6754994D02*
X4341996Y6579994D01*
X4341996Y6754994D02*
X4166996Y6579994D01*
X4166996Y4849996D02*
X4341996Y4674996D01*
X4341996Y4849996D02*
X4166996Y4674996D01*
X4166996Y2944998D02*
X4341996Y2769998D01*
X4341996Y2944998D02*
X4166996Y2769998D01*
X4166996Y1039999D02*
X4341996Y864999D01*
X4341996Y1039999D02*
X4166996Y864999D01*
X5182996Y6754994D02*
X5357996Y6579994D01*
X5357996Y6754994D02*
X5182996Y6579994D01*
X5182996Y4849996D02*
X5357996Y4674996D01*
X5357996Y4849996D02*
X5182996Y4674996D01*
X5182996Y2944998D02*
X5357996Y2769998D01*
X5357996Y2944998D02*
X5182996Y2769998D01*
X5182996Y1039999D02*
X5357996Y864999D01*
X5357996Y1039999D02*
X5182996Y864999D01*
X6071994Y6754994D02*
X6246994Y6579994D01*
X6246994Y6754994D02*
X6071994Y6579994D01*
X6071994Y4849996D02*
X6246994Y4674996D01*
X6246994Y4849996D02*
X6071994Y4674996D01*
X6071994Y2944997D02*
X6246994Y2769998D01*
X6246994Y2944997D02*
X6071994Y2769998D01*
X7024494Y1039999D02*
X7199494Y864999D01*
X7199494Y1039999D02*
X7024494Y864999D01*
X7087994Y6754994D02*
X7262994Y6579994D01*
X7262994Y6754994D02*
X7087994Y6579994D01*
X7087994Y4849996D02*
X7262994Y4674996D01*
X7262994Y4849996D02*
X7087994Y4674996D01*
X7087994Y2944997D02*
X7262994Y2769998D01*
X7262994Y2944997D02*
X7087994Y2769998D01*
X7976993Y6754994D02*
X8151993Y6579994D01*
X8151993Y6754994D02*
X7976993Y6579994D01*
X7976993Y4849996D02*
X8151993Y4674996D01*
X8151993Y4849996D02*
X7976993Y4674996D01*
X7976993Y2944997D02*
X8151993Y2769998D01*
X8151993Y2944997D02*
X7976993Y2769998D01*
X8040493Y1039999D02*
X8215493Y864999D01*
X8215493Y1039999D02*
X8040493Y864999D01*
X8992993Y6754994D02*
X9167993Y6579994D01*
X9167993Y6754994D02*
X8992993Y6579994D01*
X8992993Y4849996D02*
X9167993Y4674996D01*
X9167993Y4849996D02*
X8992993Y4674996D01*
X8992993Y2944997D02*
X9167993Y2769998D01*
X9167993Y2944997D02*
X8992993Y2769998D01*
X9881991Y4849996D02*
X10056991Y4674996D01*
X10056991Y4849996D02*
X9881991Y4674996D01*
X9881991Y6754994D02*
X10056991Y6579994D01*
X10056991Y6754994D02*
X9881991Y6579994D01*
X9881991Y2944997D02*
X10056991Y2769998D01*
X10056991Y2944997D02*
X9881991Y2769998D01*
X10834491Y1039999D02*
X11009491Y864999D01*
X11009491Y1039999D02*
X10834491Y864999D01*
X10897991Y4849996D02*
X11072991Y4674996D01*
X11072991Y4849996D02*
X10897991Y4674996D01*
X10897991Y6754994D02*
X11072991Y6579994D01*
X11072991Y6754994D02*
X10897991Y6579994D01*
X10897991Y2944997D02*
X11072991Y2769998D01*
X11072991Y2944997D02*
X10897991Y2769998D01*
X11786990Y6754994D02*
X11961990Y6579994D01*
X11961990Y6754994D02*
X11786990Y6579994D01*
X11786990Y4849996D02*
X11961990Y4674996D01*
X11961990Y4849996D02*
X11786990Y4674996D01*
X11786990Y2944998D02*
X11961990Y2769998D01*
X11961990Y2944998D02*
X11786990Y2769998D01*
X11850490Y1039999D02*
X12025490Y864999D01*
X12025490Y1039999D02*
X11850490Y864999D01*
X12802989Y6754994D02*
X12977989Y6579994D01*
X12977989Y6754994D02*
X12802989Y6579994D01*
X12802989Y4849996D02*
X12977989Y4674996D01*
X12977989Y4849996D02*
X12802989Y4674996D01*
X12802989Y2944998D02*
X12977989Y2769998D01*
X12977989Y2944998D02*
X12802989Y2769998D01*
X13691988Y1039999D02*
X13866988Y864999D01*
X13866988Y1039999D02*
X13691988Y864999D01*
X13691988Y6754994D02*
X13866988Y6579994D01*
X13866988Y6754994D02*
X13691988Y6579994D01*
X13691988Y4849996D02*
X13866988Y4674996D01*
X13866988Y4849996D02*
X13691988Y4674996D01*
X13691988Y2944998D02*
X13866988Y2769998D01*
X13866988Y2944998D02*
X13691988Y2769998D01*
X14707988Y1039999D02*
X14882988Y864999D01*
X14882988Y1039999D02*
X14707988Y864999D01*
X14707988Y6754994D02*
X14882988Y6579994D01*
X14882988Y6754994D02*
X14707988Y6579994D01*
X14707988Y4849996D02*
X14882988Y4674996D01*
X14882988Y4849996D02*
X14707988Y4674996D01*
X14707988Y2944998D02*
X14882988Y2769998D01*
X14882988Y2944998D02*
X14707988Y2769998D01*
X15596986Y6754994D02*
X15771986Y6579994D01*
X15771986Y6754994D02*
X15596986Y6579994D01*
X15596986Y4849996D02*
X15771986Y4674996D01*
X15771986Y4849996D02*
X15596986Y4674996D01*
X15596986Y2944998D02*
X15771986Y2769998D01*
X15771986Y2944998D02*
X15596986Y2769998D01*
X15596986Y1039999D02*
X15771986Y864999D01*
X15771986Y1039999D02*
X15596986Y864999D01*
X16612986Y6754994D02*
X16787986Y6579994D01*
X16787986Y6754994D02*
X16612986Y6579994D01*
X16612986Y4849996D02*
X16787986Y4674996D01*
X16787986Y4849996D02*
X16612986Y4674996D01*
X16612986Y2944998D02*
X16787986Y2769998D01*
X16787986Y2944998D02*
X16612986Y2769998D01*
X16612986Y1039999D02*
X16787986Y864999D01*
X16787986Y1039999D02*
X16612986Y864999D01*
X17501985Y4849996D02*
X17676985Y4674996D01*
X17676985Y4849996D02*
X17501985Y4674996D01*
X17501985Y2944998D02*
X17676985Y2769998D01*
X17676985Y2944998D02*
X17501985Y2769998D01*
X17501985Y1039999D02*
X17676985Y864999D01*
X17676985Y1039999D02*
X17501985Y864999D01*
X17501985Y6754994D02*
X17676985Y6579994D01*
X17676985Y6754994D02*
X17501985Y6579994D01*
X18517985Y4849996D02*
X18692985Y4674996D01*
X18692985Y4849996D02*
X18517985Y4674996D01*
X18517985Y2944998D02*
X18692985Y2769998D01*
X18692985Y2944998D02*
X18517985Y2769998D01*
X18517985Y1039999D02*
X18692985Y864999D01*
X18692985Y1039999D02*
X18517985Y864999D01*
X18517985Y6754994D02*
X18692985Y6579994D01*
X18692985Y6754994D02*
X18517985Y6579994D01*
D13*
X6581769Y253999D02*
G75*
G02*
X6276969Y253999I-152400J0D01*
G01*
X6276969Y253999D02*
G75*
G02*
X6581769Y253999I152400J0D01*
G01*
X8963019Y253999D02*
G75*
G02*
X8658219Y253999I-152400J0D01*
G01*
X8658219Y253999D02*
G75*
G02*
X8963019Y253999I152400J0D01*
G01*
X10391765Y253999D02*
G75*
G02*
X10086965Y253999I-152400J0D01*
G01*
X10086965Y253999D02*
G75*
G02*
X10391765Y253999I152400J0D01*
G01*
X12773015Y253999D02*
G75*
G02*
X12468215Y253999I-152400J0D01*
G01*
X12468215Y253999D02*
G75*
G02*
X12773015Y253999I152400J0D01*
G01*
D14*
X6429368Y1977389D02*
X6429368Y1578609D01*
X6229978Y1777999D02*
X6628758Y1777999D01*
X8810619Y1977389D02*
X8810619Y1578609D01*
X8611229Y1777999D02*
X9010009Y1777999D01*
X10239365Y1977389D02*
X10239365Y1578609D01*
X10039975Y1777999D02*
X10438755Y1777999D01*
X12620615Y1977389D02*
X12620615Y1578609D01*
X12421225Y1777999D02*
X12820005Y1777999D01*
D15*
X1093922Y6526072D02*
X1093922Y6808917D01*
X811076Y6808917D01*
X811076Y6526072D01*
X1093922Y6526072D01*
X1093922Y4621073D02*
X1093922Y4903919D01*
X811076Y4903919D01*
X811076Y4621073D01*
X1093922Y4621073D01*
X1093922Y2716075D02*
X1093922Y2998920D01*
X811076Y2998920D01*
X811076Y2716075D01*
X1093922Y2716075D01*
X1093922Y811076D02*
X1093922Y1093922D01*
X811076Y1093922D01*
X811076Y811076D01*
X1093922Y811076D01*
X2998920Y6526072D02*
X2998920Y6808917D01*
X2716075Y6808917D01*
X2716075Y6526072D01*
X2998920Y6526072D01*
X2998920Y4621073D02*
X2998920Y4903919D01*
X2716075Y4903919D01*
X2716075Y4621073D01*
X2998920Y4621073D01*
X2998920Y2716075D02*
X2998920Y2998920D01*
X2716075Y2998920D01*
X2716075Y2716075D01*
X2998920Y2716075D01*
X2998920Y811076D02*
X2998920Y1093922D01*
X2716075Y1093922D01*
X2716075Y811076D01*
X2998920Y811076D01*
X4903919Y6526072D02*
X4903919Y6808917D01*
X4621073Y6808917D01*
X4621073Y6526072D01*
X4903919Y6526072D01*
X4903919Y4621073D02*
X4903919Y4903919D01*
X4621073Y4903919D01*
X4621073Y4621073D01*
X4903919Y4621073D01*
X4903919Y2716075D02*
X4903919Y2998920D01*
X4621073Y2998920D01*
X4621073Y2716075D01*
X4903919Y2716075D01*
X4903919Y811076D02*
X4903919Y1093922D01*
X4621073Y1093922D01*
X4621073Y811076D01*
X4903919Y811076D01*
X6808917Y6526072D02*
X6808917Y6808917D01*
X6526072Y6808917D01*
X6526072Y6526072D01*
X6808917Y6526072D01*
X6808917Y4621073D02*
X6808917Y4903919D01*
X6526072Y4903919D01*
X6526072Y4621073D01*
X6808917Y4621073D01*
X6808917Y2716075D02*
X6808917Y2998920D01*
X6526072Y2998920D01*
X6526072Y2716075D01*
X6808917Y2716075D01*
X7761416Y811076D02*
X7761416Y1093922D01*
X7478571Y1093922D01*
X7478571Y811076D01*
X7761416Y811076D01*
X8713916Y6526072D02*
X8713916Y6808917D01*
X8431070Y6808917D01*
X8431070Y6526072D01*
X8713916Y6526072D01*
X8713916Y4621073D02*
X8713916Y4903919D01*
X8431070Y4903919D01*
X8431070Y4621073D01*
X8713916Y4621073D01*
X8713916Y2716075D02*
X8713916Y2998920D01*
X8431070Y2998920D01*
X8431070Y2716075D01*
X8713916Y2716075D01*
X10618914Y4621073D02*
X10618914Y4903919D01*
X10336068Y4903919D01*
X10336068Y4621073D01*
X10618914Y4621073D01*
X10618914Y6526072D02*
X10618914Y6808917D01*
X10336069Y6808917D01*
X10336069Y6526072D01*
X10618914Y6526072D01*
X10618914Y2716075D02*
X10618914Y2998920D01*
X10336069Y2998920D01*
X10336069Y2716075D01*
X10618914Y2716075D01*
X11571413Y811076D02*
X11571413Y1093922D01*
X11288568Y1093922D01*
X11288568Y811076D01*
X11571413Y811076D01*
X12523912Y6526072D02*
X12523912Y6808917D01*
X12241067Y6808917D01*
X12241067Y6526072D01*
X12523912Y6526072D01*
X12523912Y4621073D02*
X12523912Y4903919D01*
X12241067Y4903919D01*
X12241067Y4621073D01*
X12523912Y4621073D01*
X12523912Y2716075D02*
X12523912Y2998920D01*
X12241067Y2998920D01*
X12241067Y2716075D01*
X12523912Y2716075D01*
X14428911Y811076D02*
X14428911Y1093922D01*
X14146065Y1093922D01*
X14146065Y811076D01*
X14428911Y811076D01*
X14428911Y6526072D02*
X14428911Y6808917D01*
X14146065Y6808917D01*
X14146065Y6526072D01*
X14428911Y6526072D01*
X14428911Y4621073D02*
X14428911Y4903919D01*
X14146065Y4903919D01*
X14146065Y4621073D01*
X14428911Y4621073D01*
X14428911Y2716075D02*
X14428911Y2998920D01*
X14146065Y2998920D01*
X14146065Y2716075D01*
X14428911Y2716075D01*
X16333909Y6526072D02*
X16333909Y6808917D01*
X16051064Y6808917D01*
X16051064Y6526072D01*
X16333909Y6526072D01*
X16333909Y4621073D02*
X16333909Y4903919D01*
X16051064Y4903919D01*
X16051064Y4621073D01*
X16333909Y4621073D01*
X16333909Y2716075D02*
X16333909Y2998920D01*
X16051064Y2998920D01*
X16051064Y2716075D01*
X16333909Y2716075D01*
X16333909Y811076D02*
X16333909Y1093922D01*
X16051064Y1093922D01*
X16051064Y811076D01*
X16333909Y811076D01*
X18238908Y4621073D02*
X18238908Y4903919D01*
X17956062Y4903919D01*
X17956062Y4621073D01*
X18238908Y4621073D01*
X18238908Y2716075D02*
X18238908Y2998920D01*
X17956062Y2998920D01*
X17956062Y2716075D01*
X18238908Y2716075D01*
X18238908Y811076D02*
X18238908Y1093922D01*
X17956062Y1093922D01*
X17956062Y811076D01*
X18238908Y811076D01*
X18238908Y6526072D02*
X18238908Y6808917D01*
X17956062Y6808917D01*
X17956062Y6526072D01*
X18238908Y6526072D01*
D11*
X255777Y-316484D02*
X255777Y-116484D01*
X255777Y-116484D02*
X303396Y-116484D01*
X303396Y-116484D02*
X331967Y-126008D01*
X331967Y-126008D02*
X351015Y-145056D01*
X351015Y-145056D02*
X360539Y-164103D01*
X360539Y-164103D02*
X370062Y-202198D01*
X370062Y-202198D02*
X370062Y-230770D01*
X370062Y-230770D02*
X360539Y-268865D01*
X360539Y-268865D02*
X351015Y-287913D01*
X351015Y-287913D02*
X331967Y-306960D01*
X331967Y-306960D02*
X303396Y-316484D01*
X303396Y-316484D02*
X255777Y-316484D01*
X455777Y-316484D02*
X455777Y-183151D01*
X455777Y-221246D02*
X465301Y-202198D01*
X465301Y-202198D02*
X474824Y-192675D01*
X474824Y-192675D02*
X493872Y-183151D01*
X493872Y-183151D02*
X512920Y-183151D01*
X579586Y-316484D02*
X579586Y-183151D01*
X579586Y-116484D02*
X570063Y-126008D01*
X570063Y-126008D02*
X579586Y-135532D01*
X579586Y-135532D02*
X589110Y-126008D01*
X589110Y-126008D02*
X579586Y-116484D01*
X579586Y-116484D02*
X579586Y-135532D01*
X703396Y-316484D02*
X684348Y-306960D01*
X684348Y-306960D02*
X674824Y-287913D01*
X674824Y-287913D02*
X674824Y-116484D01*
X808158Y-316484D02*
X789110Y-306960D01*
X789110Y-306960D02*
X779586Y-287913D01*
X779586Y-287913D02*
X779586Y-116484D01*
X1036729Y-316484D02*
X1036729Y-116484D01*
X1036729Y-116484D02*
X1103396Y-259341D01*
X1103396Y-259341D02*
X1170063Y-116484D01*
X1170063Y-116484D02*
X1170063Y-316484D01*
X1351015Y-316484D02*
X1351015Y-211722D01*
X1351015Y-211722D02*
X1341491Y-192675D01*
X1341491Y-192675D02*
X1322444Y-183151D01*
X1322444Y-183151D02*
X1284348Y-183151D01*
X1284348Y-183151D02*
X1265301Y-192675D01*
X1351015Y-306960D02*
X1331967Y-316484D01*
X1331967Y-316484D02*
X1284348Y-316484D01*
X1284348Y-316484D02*
X1265301Y-306960D01*
X1265301Y-306960D02*
X1255777Y-287913D01*
X1255777Y-287913D02*
X1255777Y-268865D01*
X1255777Y-268865D02*
X1265301Y-249817D01*
X1265301Y-249817D02*
X1284348Y-240294D01*
X1284348Y-240294D02*
X1331967Y-240294D01*
X1331967Y-240294D02*
X1351015Y-230770D01*
X1446253Y-183151D02*
X1446253Y-383151D01*
X1446253Y-192675D02*
X1465301Y-183151D01*
X1465301Y-183151D02*
X1503396Y-183151D01*
X1503396Y-183151D02*
X1522443Y-192675D01*
X1522443Y-192675D02*
X1531967Y-202198D01*
X1531967Y-202198D02*
X1541491Y-221246D01*
X1541491Y-221246D02*
X1541491Y-278389D01*
X1541491Y-278389D02*
X1531967Y-297437D01*
X1531967Y-297437D02*
X1522443Y-306960D01*
X1522443Y-306960D02*
X1503396Y-316484D01*
X1503396Y-316484D02*
X1465301Y-316484D01*
X1465301Y-316484D02*
X1446253Y-306960D01*
X1627205Y-297437D02*
X1636729Y-306960D01*
X1636729Y-306960D02*
X1627205Y-316484D01*
X1627205Y-316484D02*
X1617682Y-306960D01*
X1617682Y-306960D02*
X1627205Y-297437D01*
X1627205Y-297437D02*
X1627205Y-316484D01*
X1627205Y-192675D02*
X1636729Y-202198D01*
X1636729Y-202198D02*
X1627205Y-211722D01*
X1627205Y-211722D02*
X1617682Y-202198D01*
X1617682Y-202198D02*
X1627205Y-192675D01*
X1627205Y-192675D02*
X1627205Y-211722D01*
D12*
X-180000Y-557500D02*
X-5000Y-732500D01*
X-5000Y-557500D02*
X-180000Y-732500D01*
D11*
X360539Y-736484D02*
X246253Y-736484D01*
X303396Y-736484D02*
X303396Y-536484D01*
X303396Y-536484D02*
X284348Y-565056D01*
X284348Y-565056D02*
X265301Y-584103D01*
X265301Y-584103D02*
X246253Y-593627D01*
X446253Y-717436D02*
X455777Y-726960D01*
X455777Y-726960D02*
X446253Y-736484D01*
X446253Y-736484D02*
X436729Y-726960D01*
X436729Y-726960D02*
X446253Y-717436D01*
X446253Y-717436D02*
X446253Y-736484D01*
X522443Y-536484D02*
X655777Y-536484D01*
X655777Y-536484D02*
X570063Y-736484D01*
X827205Y-536484D02*
X731967Y-536484D01*
X731967Y-536484D02*
X722443Y-631722D01*
X722443Y-631722D02*
X731967Y-622198D01*
X731967Y-622198D02*
X751015Y-612675D01*
X751015Y-612675D02*
X798634Y-612675D01*
X798634Y-612675D02*
X817682Y-622198D01*
X817682Y-622198D02*
X827205Y-631722D01*
X827205Y-631722D02*
X836729Y-650770D01*
X836729Y-650770D02*
X836729Y-698389D01*
X836729Y-698389D02*
X827205Y-717436D01*
X827205Y-717436D02*
X817682Y-726960D01*
X817682Y-726960D02*
X798634Y-736484D01*
X798634Y-736484D02*
X751015Y-736484D01*
X751015Y-736484D02*
X731967Y-726960D01*
X731967Y-726960D02*
X722443Y-717436D01*
X960539Y-536484D02*
X979586Y-536484D01*
X979586Y-536484D02*
X998634Y-546008D01*
X998634Y-546008D02*
X1008158Y-555532D01*
X1008158Y-555532D02*
X1017682Y-574579D01*
X1017682Y-574579D02*
X1027205Y-612675D01*
X1027205Y-612675D02*
X1027205Y-660294D01*
X1027205Y-660294D02*
X1017682Y-698389D01*
X1017682Y-698389D02*
X1008158Y-717436D01*
X1008158Y-717436D02*
X998634Y-726960D01*
X998634Y-726960D02*
X979586Y-736484D01*
X979586Y-736484D02*
X960539Y-736484D01*
X960539Y-736484D02*
X941491Y-726960D01*
X941491Y-726960D02*
X931967Y-717436D01*
X931967Y-717436D02*
X922443Y-698389D01*
X922443Y-698389D02*
X912920Y-660294D01*
X912920Y-660294D02*
X912920Y-612675D01*
X912920Y-612675D02*
X922443Y-574579D01*
X922443Y-574579D02*
X931967Y-555532D01*
X931967Y-555532D02*
X941491Y-546008D01*
X941491Y-546008D02*
X960539Y-536484D01*
X1112920Y-736484D02*
X1112920Y-603151D01*
X1112920Y-622198D02*
X1122444Y-612675D01*
X1122444Y-612675D02*
X1141491Y-603151D01*
X1141491Y-603151D02*
X1170063Y-603151D01*
X1170063Y-603151D02*
X1189110Y-612675D01*
X1189110Y-612675D02*
X1198634Y-631722D01*
X1198634Y-631722D02*
X1198634Y-736484D01*
X1198634Y-631722D02*
X1208158Y-612675D01*
X1208158Y-612675D02*
X1227205Y-603151D01*
X1227205Y-603151D02*
X1255777Y-603151D01*
X1255777Y-603151D02*
X1274825Y-612675D01*
X1274825Y-612675D02*
X1284348Y-631722D01*
X1284348Y-631722D02*
X1284348Y-736484D01*
X1379586Y-736484D02*
X1379586Y-603151D01*
X1379586Y-622198D02*
X1389110Y-612675D01*
X1389110Y-612675D02*
X1408158Y-603151D01*
X1408158Y-603151D02*
X1436729Y-603151D01*
X1436729Y-603151D02*
X1455777Y-612675D01*
X1455777Y-612675D02*
X1465301Y-631722D01*
X1465301Y-631722D02*
X1465301Y-736484D01*
X1465301Y-631722D02*
X1474824Y-612675D01*
X1474824Y-612675D02*
X1493872Y-603151D01*
X1493872Y-603151D02*
X1522443Y-603151D01*
X1522443Y-603151D02*
X1541491Y-612675D01*
X1541491Y-612675D02*
X1551015Y-631722D01*
X1551015Y-631722D02*
X1551015Y-736484D01*
X1941491Y-526960D02*
X1770063Y-784103D01*
X2198634Y-536484D02*
X2217682Y-536484D01*
X2217682Y-536484D02*
X2236729Y-546008D01*
X2236729Y-546008D02*
X2246253Y-555532D01*
X2246253Y-555532D02*
X2255777Y-574579D01*
X2255777Y-574579D02*
X2265301Y-612675D01*
X2265301Y-612675D02*
X2265301Y-660294D01*
X2265301Y-660294D02*
X2255777Y-698389D01*
X2255777Y-698389D02*
X2246253Y-717436D01*
X2246253Y-717436D02*
X2236729Y-726960D01*
X2236729Y-726960D02*
X2217682Y-736484D01*
X2217682Y-736484D02*
X2198634Y-736484D01*
X2198634Y-736484D02*
X2179587Y-726960D01*
X2179587Y-726960D02*
X2170063Y-717436D01*
X2170063Y-717436D02*
X2160539Y-698389D01*
X2160539Y-698389D02*
X2151015Y-660294D01*
X2151015Y-660294D02*
X2151015Y-612675D01*
X2151015Y-612675D02*
X2160539Y-574579D01*
X2160539Y-574579D02*
X2170063Y-555532D01*
X2170063Y-555532D02*
X2179587Y-546008D01*
X2179587Y-546008D02*
X2198634Y-536484D01*
X2351015Y-717436D02*
X2360539Y-726960D01*
X2360539Y-726960D02*
X2351015Y-736484D01*
X2351015Y-736484D02*
X2341491Y-726960D01*
X2341491Y-726960D02*
X2351015Y-717436D01*
X2351015Y-717436D02*
X2351015Y-736484D01*
X2484348Y-536484D02*
X2503396Y-536484D01*
X2503396Y-536484D02*
X2522444Y-546008D01*
X2522444Y-546008D02*
X2531968Y-555532D01*
X2531968Y-555532D02*
X2541491Y-574579D01*
X2541491Y-574579D02*
X2551015Y-612675D01*
X2551015Y-612675D02*
X2551015Y-660294D01*
X2551015Y-660294D02*
X2541491Y-698389D01*
X2541491Y-698389D02*
X2531968Y-717436D01*
X2531968Y-717436D02*
X2522444Y-726960D01*
X2522444Y-726960D02*
X2503396Y-736484D01*
X2503396Y-736484D02*
X2484348Y-736484D01*
X2484348Y-736484D02*
X2465301Y-726960D01*
X2465301Y-726960D02*
X2455777Y-717436D01*
X2455777Y-717436D02*
X2446253Y-698389D01*
X2446253Y-698389D02*
X2436729Y-660294D01*
X2436729Y-660294D02*
X2436729Y-612675D01*
X2436729Y-612675D02*
X2446253Y-574579D01*
X2446253Y-574579D02*
X2455777Y-555532D01*
X2455777Y-555532D02*
X2465301Y-546008D01*
X2465301Y-546008D02*
X2484348Y-536484D01*
X2722444Y-536484D02*
X2684348Y-536484D01*
X2684348Y-536484D02*
X2665301Y-546008D01*
X2665301Y-546008D02*
X2655777Y-555532D01*
X2655777Y-555532D02*
X2636729Y-584103D01*
X2636729Y-584103D02*
X2627206Y-622198D01*
X2627206Y-622198D02*
X2627206Y-698389D01*
X2627206Y-698389D02*
X2636729Y-717436D01*
X2636729Y-717436D02*
X2646253Y-726960D01*
X2646253Y-726960D02*
X2665301Y-736484D01*
X2665301Y-736484D02*
X2703396Y-736484D01*
X2703396Y-736484D02*
X2722444Y-726960D01*
X2722444Y-726960D02*
X2731968Y-717436D01*
X2731968Y-717436D02*
X2741491Y-698389D01*
X2741491Y-698389D02*
X2741491Y-650770D01*
X2741491Y-650770D02*
X2731968Y-631722D01*
X2731968Y-631722D02*
X2722444Y-622198D01*
X2722444Y-622198D02*
X2703396Y-612675D01*
X2703396Y-612675D02*
X2665301Y-612675D01*
X2665301Y-612675D02*
X2646253Y-622198D01*
X2646253Y-622198D02*
X2636729Y-631722D01*
X2636729Y-631722D02*
X2627206Y-650770D01*
X2855777Y-622198D02*
X2836729Y-612675D01*
X2836729Y-612675D02*
X2827206Y-603151D01*
X2827206Y-603151D02*
X2817682Y-584103D01*
X2817682Y-584103D02*
X2817682Y-574579D01*
X2817682Y-574579D02*
X2827206Y-555532D01*
X2827206Y-555532D02*
X2836729Y-546008D01*
X2836729Y-546008D02*
X2855777Y-536484D01*
X2855777Y-536484D02*
X2893872Y-536484D01*
X2893872Y-536484D02*
X2912920Y-546008D01*
X2912920Y-546008D02*
X2922444Y-555532D01*
X2922444Y-555532D02*
X2931967Y-574579D01*
X2931967Y-574579D02*
X2931967Y-584103D01*
X2931967Y-584103D02*
X2922444Y-603151D01*
X2922444Y-603151D02*
X2912920Y-612675D01*
X2912920Y-612675D02*
X2893872Y-622198D01*
X2893872Y-622198D02*
X2855777Y-622198D01*
X2855777Y-622198D02*
X2836729Y-631722D01*
X2836729Y-631722D02*
X2827206Y-641246D01*
X2827206Y-641246D02*
X2817682Y-660294D01*
X2817682Y-660294D02*
X2817682Y-698389D01*
X2817682Y-698389D02*
X2827206Y-717436D01*
X2827206Y-717436D02*
X2836729Y-726960D01*
X2836729Y-726960D02*
X2855777Y-736484D01*
X2855777Y-736484D02*
X2893872Y-736484D01*
X2893872Y-736484D02*
X2912920Y-726960D01*
X2912920Y-726960D02*
X2922444Y-717436D01*
X2922444Y-717436D02*
X2931967Y-698389D01*
X2931967Y-698389D02*
X2931967Y-660294D01*
X2931967Y-660294D02*
X2922444Y-641246D01*
X2922444Y-641246D02*
X2912920Y-631722D01*
X2912920Y-631722D02*
X2893872Y-622198D01*
X3027206Y-736484D02*
X3065301Y-736484D01*
X3065301Y-736484D02*
X3084348Y-726960D01*
X3084348Y-726960D02*
X3093872Y-717436D01*
X3093872Y-717436D02*
X3112920Y-688865D01*
X3112920Y-688865D02*
X3122444Y-650770D01*
X3122444Y-650770D02*
X3122444Y-574579D01*
X3122444Y-574579D02*
X3112920Y-555532D01*
X3112920Y-555532D02*
X3103396Y-546008D01*
X3103396Y-546008D02*
X3084348Y-536484D01*
X3084348Y-536484D02*
X3046253Y-536484D01*
X3046253Y-536484D02*
X3027206Y-546008D01*
X3027206Y-546008D02*
X3017682Y-555532D01*
X3017682Y-555532D02*
X3008158Y-574579D01*
X3008158Y-574579D02*
X3008158Y-622198D01*
X3008158Y-622198D02*
X3017682Y-641246D01*
X3017682Y-641246D02*
X3027206Y-650770D01*
X3027206Y-650770D02*
X3046253Y-660294D01*
X3046253Y-660294D02*
X3084348Y-660294D01*
X3084348Y-660294D02*
X3103396Y-650770D01*
X3103396Y-650770D02*
X3112920Y-641246D01*
X3112920Y-641246D02*
X3122444Y-622198D01*
X3198634Y-536484D02*
X3198634Y-574579D01*
X3274825Y-536484D02*
X3274825Y-574579D01*
X3570063Y-812675D02*
X3560539Y-803151D01*
X3560539Y-803151D02*
X3541491Y-774579D01*
X3541491Y-774579D02*
X3531968Y-755532D01*
X3531968Y-755532D02*
X3522444Y-726960D01*
X3522444Y-726960D02*
X3512920Y-679341D01*
X3512920Y-679341D02*
X3512920Y-641246D01*
X3512920Y-641246D02*
X3522444Y-593627D01*
X3522444Y-593627D02*
X3531968Y-565056D01*
X3531968Y-565056D02*
X3541491Y-546008D01*
X3541491Y-546008D02*
X3560539Y-517436D01*
X3560539Y-517436D02*
X3570063Y-507913D01*
X3627206Y-536484D02*
X3760539Y-536484D01*
X3760539Y-536484D02*
X3674825Y-736484D01*
X3922444Y-536484D02*
X3884348Y-536484D01*
X3884348Y-536484D02*
X3865301Y-546008D01*
X3865301Y-546008D02*
X3855777Y-555532D01*
X3855777Y-555532D02*
X3836729Y-584103D01*
X3836729Y-584103D02*
X3827206Y-622198D01*
X3827206Y-622198D02*
X3827206Y-698389D01*
X3827206Y-698389D02*
X3836729Y-717436D01*
X3836729Y-717436D02*
X3846253Y-726960D01*
X3846253Y-726960D02*
X3865301Y-736484D01*
X3865301Y-736484D02*
X3903396Y-736484D01*
X3903396Y-736484D02*
X3922444Y-726960D01*
X3922444Y-726960D02*
X3931968Y-717436D01*
X3931968Y-717436D02*
X3941491Y-698389D01*
X3941491Y-698389D02*
X3941491Y-650770D01*
X3941491Y-650770D02*
X3931968Y-631722D01*
X3931968Y-631722D02*
X3922444Y-622198D01*
X3922444Y-622198D02*
X3903396Y-612675D01*
X3903396Y-612675D02*
X3865301Y-612675D01*
X3865301Y-612675D02*
X3846253Y-622198D01*
X3846253Y-622198D02*
X3836729Y-631722D01*
X3836729Y-631722D02*
X3827206Y-650770D01*
X4179587Y-736484D02*
X4179587Y-536484D01*
X4265301Y-736484D02*
X4265301Y-631722D01*
X4265301Y-631722D02*
X4255777Y-612675D01*
X4255777Y-612675D02*
X4236730Y-603151D01*
X4236730Y-603151D02*
X4208158Y-603151D01*
X4208158Y-603151D02*
X4189110Y-612675D01*
X4189110Y-612675D02*
X4179587Y-622198D01*
X4389111Y-736484D02*
X4370063Y-726960D01*
X4370063Y-726960D02*
X4360539Y-717436D01*
X4360539Y-717436D02*
X4351015Y-698389D01*
X4351015Y-698389D02*
X4351015Y-641246D01*
X4351015Y-641246D02*
X4360539Y-622198D01*
X4360539Y-622198D02*
X4370063Y-612675D01*
X4370063Y-612675D02*
X4389111Y-603151D01*
X4389111Y-603151D02*
X4417682Y-603151D01*
X4417682Y-603151D02*
X4436730Y-612675D01*
X4436730Y-612675D02*
X4446253Y-622198D01*
X4446253Y-622198D02*
X4455777Y-641246D01*
X4455777Y-641246D02*
X4455777Y-698389D01*
X4455777Y-698389D02*
X4446253Y-717436D01*
X4446253Y-717436D02*
X4436730Y-726960D01*
X4436730Y-726960D02*
X4417682Y-736484D01*
X4417682Y-736484D02*
X4389111Y-736484D01*
X4570063Y-736484D02*
X4551015Y-726960D01*
X4551015Y-726960D02*
X4541492Y-707913D01*
X4541492Y-707913D02*
X4541492Y-536484D01*
X4722444Y-726960D02*
X4703396Y-736484D01*
X4703396Y-736484D02*
X4665301Y-736484D01*
X4665301Y-736484D02*
X4646253Y-726960D01*
X4646253Y-726960D02*
X4636730Y-707913D01*
X4636730Y-707913D02*
X4636730Y-631722D01*
X4636730Y-631722D02*
X4646253Y-612675D01*
X4646253Y-612675D02*
X4665301Y-603151D01*
X4665301Y-603151D02*
X4703396Y-603151D01*
X4703396Y-603151D02*
X4722444Y-612675D01*
X4722444Y-612675D02*
X4731968Y-631722D01*
X4731968Y-631722D02*
X4731968Y-650770D01*
X4731968Y-650770D02*
X4636730Y-669818D01*
X4808158Y-726960D02*
X4827206Y-736484D01*
X4827206Y-736484D02*
X4865301Y-736484D01*
X4865301Y-736484D02*
X4884349Y-726960D01*
X4884349Y-726960D02*
X4893873Y-707913D01*
X4893873Y-707913D02*
X4893873Y-698389D01*
X4893873Y-698389D02*
X4884349Y-679341D01*
X4884349Y-679341D02*
X4865301Y-669818D01*
X4865301Y-669818D02*
X4836730Y-669818D01*
X4836730Y-669818D02*
X4817682Y-660294D01*
X4817682Y-660294D02*
X4808158Y-641246D01*
X4808158Y-641246D02*
X4808158Y-631722D01*
X4808158Y-631722D02*
X4817682Y-612675D01*
X4817682Y-612675D02*
X4836730Y-603151D01*
X4836730Y-603151D02*
X4865301Y-603151D01*
X4865301Y-603151D02*
X4884349Y-612675D01*
X4960539Y-812675D02*
X4970063Y-803151D01*
X4970063Y-803151D02*
X4989111Y-774579D01*
X4989111Y-774579D02*
X4998634Y-755532D01*
X4998634Y-755532D02*
X5008158Y-726960D01*
X5008158Y-726960D02*
X5017682Y-679341D01*
X5017682Y-679341D02*
X5017682Y-641246D01*
X5017682Y-641246D02*
X5008158Y-593627D01*
X5008158Y-593627D02*
X4998634Y-565056D01*
X4998634Y-565056D02*
X4989111Y-546008D01*
X4989111Y-546008D02*
X4970063Y-517436D01*
X4970063Y-517436D02*
X4960539Y-507913D01*
X5322444Y-812675D02*
X5312920Y-803151D01*
X5312920Y-803151D02*
X5293873Y-774579D01*
X5293873Y-774579D02*
X5284349Y-755532D01*
X5284349Y-755532D02*
X5274825Y-726960D01*
X5274825Y-726960D02*
X5265301Y-679341D01*
X5265301Y-679341D02*
X5265301Y-641246D01*
X5265301Y-641246D02*
X5274825Y-593627D01*
X5274825Y-593627D02*
X5284349Y-565056D01*
X5284349Y-565056D02*
X5293873Y-546008D01*
X5293873Y-546008D02*
X5312920Y-517436D01*
X5312920Y-517436D02*
X5322444Y-507913D01*
X5398634Y-603151D02*
X5398634Y-736484D01*
X5398634Y-622198D02*
X5408158Y-612675D01*
X5408158Y-612675D02*
X5427206Y-603151D01*
X5427206Y-603151D02*
X5455777Y-603151D01*
X5455777Y-603151D02*
X5474825Y-612675D01*
X5474825Y-612675D02*
X5484349Y-631722D01*
X5484349Y-631722D02*
X5484349Y-736484D01*
X5608158Y-736484D02*
X5589111Y-726960D01*
X5589111Y-726960D02*
X5579587Y-717436D01*
X5579587Y-717436D02*
X5570063Y-698389D01*
X5570063Y-698389D02*
X5570063Y-641246D01*
X5570063Y-641246D02*
X5579587Y-622198D01*
X5579587Y-622198D02*
X5589111Y-612675D01*
X5589111Y-612675D02*
X5608158Y-603151D01*
X5608158Y-603151D02*
X5636730Y-603151D01*
X5636730Y-603151D02*
X5655777Y-612675D01*
X5655777Y-612675D02*
X5665301Y-622198D01*
X5665301Y-622198D02*
X5674825Y-641246D01*
X5674825Y-641246D02*
X5674825Y-698389D01*
X5674825Y-698389D02*
X5665301Y-717436D01*
X5665301Y-717436D02*
X5655777Y-726960D01*
X5655777Y-726960D02*
X5636730Y-736484D01*
X5636730Y-736484D02*
X5608158Y-736484D01*
X5731968Y-603151D02*
X5808158Y-603151D01*
X5760539Y-536484D02*
X5760539Y-707913D01*
X5760539Y-707913D02*
X5770063Y-726960D01*
X5770063Y-726960D02*
X5789111Y-736484D01*
X5789111Y-736484D02*
X5808158Y-736484D01*
X6027206Y-603151D02*
X6027206Y-803151D01*
X6027206Y-612675D02*
X6046253Y-603151D01*
X6046253Y-603151D02*
X6084349Y-603151D01*
X6084349Y-603151D02*
X6103396Y-612675D01*
X6103396Y-612675D02*
X6112920Y-622198D01*
X6112920Y-622198D02*
X6122444Y-641246D01*
X6122444Y-641246D02*
X6122444Y-698389D01*
X6122444Y-698389D02*
X6112920Y-717436D01*
X6112920Y-717436D02*
X6103396Y-726960D01*
X6103396Y-726960D02*
X6084349Y-736484D01*
X6084349Y-736484D02*
X6046253Y-736484D01*
X6046253Y-736484D02*
X6027206Y-726960D01*
X6236730Y-736484D02*
X6217682Y-726960D01*
X6217682Y-726960D02*
X6208158Y-707913D01*
X6208158Y-707913D02*
X6208158Y-536484D01*
X6398634Y-736484D02*
X6398634Y-631722D01*
X6398634Y-631722D02*
X6389111Y-612675D01*
X6389111Y-612675D02*
X6370063Y-603151D01*
X6370063Y-603151D02*
X6331968Y-603151D01*
X6331968Y-603151D02*
X6312920Y-612675D01*
X6398634Y-726960D02*
X6379587Y-736484D01*
X6379587Y-736484D02*
X6331968Y-736484D01*
X6331968Y-736484D02*
X6312920Y-726960D01*
X6312920Y-726960D02*
X6303396Y-707913D01*
X6303396Y-707913D02*
X6303396Y-688865D01*
X6303396Y-688865D02*
X6312920Y-669818D01*
X6312920Y-669818D02*
X6331968Y-660294D01*
X6331968Y-660294D02*
X6379587Y-660294D01*
X6379587Y-660294D02*
X6398634Y-650770D01*
X6465301Y-603151D02*
X6541492Y-603151D01*
X6493873Y-536484D02*
X6493873Y-707913D01*
X6493873Y-707913D02*
X6503396Y-726960D01*
X6503396Y-726960D02*
X6522444Y-736484D01*
X6522444Y-736484D02*
X6541492Y-736484D01*
X6684349Y-726960D02*
X6665301Y-736484D01*
X6665301Y-736484D02*
X6627206Y-736484D01*
X6627206Y-736484D02*
X6608158Y-726960D01*
X6608158Y-726960D02*
X6598634Y-707913D01*
X6598634Y-707913D02*
X6598634Y-631722D01*
X6598634Y-631722D02*
X6608158Y-612675D01*
X6608158Y-612675D02*
X6627206Y-603151D01*
X6627206Y-603151D02*
X6665301Y-603151D01*
X6665301Y-603151D02*
X6684349Y-612675D01*
X6684349Y-612675D02*
X6693873Y-631722D01*
X6693873Y-631722D02*
X6693873Y-650770D01*
X6693873Y-650770D02*
X6598634Y-669818D01*
X6865301Y-736484D02*
X6865301Y-536484D01*
X6865301Y-726960D02*
X6846254Y-736484D01*
X6846254Y-736484D02*
X6808158Y-736484D01*
X6808158Y-736484D02*
X6789111Y-726960D01*
X6789111Y-726960D02*
X6779587Y-717436D01*
X6779587Y-717436D02*
X6770063Y-698389D01*
X6770063Y-698389D02*
X6770063Y-641246D01*
X6770063Y-641246D02*
X6779587Y-622198D01*
X6779587Y-622198D02*
X6789111Y-612675D01*
X6789111Y-612675D02*
X6808158Y-603151D01*
X6808158Y-603151D02*
X6846254Y-603151D01*
X6846254Y-603151D02*
X6865301Y-612675D01*
X6941492Y-812675D02*
X6951015Y-803151D01*
X6951015Y-803151D02*
X6970063Y-774579D01*
X6970063Y-774579D02*
X6979587Y-755532D01*
X6979587Y-755532D02*
X6989111Y-726960D01*
X6989111Y-726960D02*
X6998634Y-679341D01*
X6998634Y-679341D02*
X6998634Y-641246D01*
X6998634Y-641246D02*
X6989111Y-593627D01*
X6989111Y-593627D02*
X6979587Y-565056D01*
X6979587Y-565056D02*
X6970063Y-546008D01*
X6970063Y-546008D02*
X6951015Y-517436D01*
X6951015Y-517436D02*
X6941492Y-507913D01*
X-5000Y-940000D02*
G75*
G02*
X-205000Y-940000I-100000J0D01*
G01*
X-205000Y-940000D02*
G75*
G02*
X-5000Y-940000I100000J0D01*
G01*
X236729Y-831484D02*
X360539Y-831484D01*
X360539Y-831484D02*
X293872Y-907675D01*
X293872Y-907675D02*
X322444Y-907675D01*
X322444Y-907675D02*
X341491Y-917198D01*
X341491Y-917198D02*
X351015Y-926722D01*
X351015Y-926722D02*
X360539Y-945770D01*
X360539Y-945770D02*
X360539Y-993389D01*
X360539Y-993389D02*
X351015Y-1012436D01*
X351015Y-1012436D02*
X341491Y-1021960D01*
X341491Y-1021960D02*
X322444Y-1031484D01*
X322444Y-1031484D02*
X265301Y-1031484D01*
X265301Y-1031484D02*
X246253Y-1021960D01*
X246253Y-1021960D02*
X236729Y-1012436D01*
X446253Y-1012436D02*
X455777Y-1021960D01*
X455777Y-1021960D02*
X446253Y-1031484D01*
X446253Y-1031484D02*
X436729Y-1021960D01*
X436729Y-1021960D02*
X446253Y-1012436D01*
X446253Y-1012436D02*
X446253Y-1031484D01*
X579586Y-831484D02*
X598634Y-831484D01*
X598634Y-831484D02*
X617682Y-841008D01*
X617682Y-841008D02*
X627205Y-850532D01*
X627205Y-850532D02*
X636729Y-869579D01*
X636729Y-869579D02*
X646253Y-907675D01*
X646253Y-907675D02*
X646253Y-955294D01*
X646253Y-955294D02*
X636729Y-993389D01*
X636729Y-993389D02*
X627205Y-1012436D01*
X627205Y-1012436D02*
X617682Y-1021960D01*
X617682Y-1021960D02*
X598634Y-1031484D01*
X598634Y-1031484D02*
X579586Y-1031484D01*
X579586Y-1031484D02*
X560539Y-1021960D01*
X560539Y-1021960D02*
X551015Y-1012436D01*
X551015Y-1012436D02*
X541491Y-993389D01*
X541491Y-993389D02*
X531967Y-955294D01*
X531967Y-955294D02*
X531967Y-907675D01*
X531967Y-907675D02*
X541491Y-869579D01*
X541491Y-869579D02*
X551015Y-850532D01*
X551015Y-850532D02*
X560539Y-841008D01*
X560539Y-841008D02*
X579586Y-831484D01*
X817682Y-898151D02*
X817682Y-1031484D01*
X770062Y-821960D02*
X722443Y-964817D01*
X722443Y-964817D02*
X846253Y-964817D01*
X951015Y-917198D02*
X931967Y-907675D01*
X931967Y-907675D02*
X922443Y-898151D01*
X922443Y-898151D02*
X912920Y-879103D01*
X912920Y-879103D02*
X912920Y-869579D01*
X912920Y-869579D02*
X922443Y-850532D01*
X922443Y-850532D02*
X931967Y-841008D01*
X931967Y-841008D02*
X951015Y-831484D01*
X951015Y-831484D02*
X989110Y-831484D01*
X989110Y-831484D02*
X1008158Y-841008D01*
X1008158Y-841008D02*
X1017682Y-850532D01*
X1017682Y-850532D02*
X1027205Y-869579D01*
X1027205Y-869579D02*
X1027205Y-879103D01*
X1027205Y-879103D02*
X1017682Y-898151D01*
X1017682Y-898151D02*
X1008158Y-907675D01*
X1008158Y-907675D02*
X989110Y-917198D01*
X989110Y-917198D02*
X951015Y-917198D01*
X951015Y-917198D02*
X931967Y-926722D01*
X931967Y-926722D02*
X922443Y-936246D01*
X922443Y-936246D02*
X912920Y-955294D01*
X912920Y-955294D02*
X912920Y-993389D01*
X912920Y-993389D02*
X922443Y-1012436D01*
X922443Y-1012436D02*
X931967Y-1021960D01*
X931967Y-1021960D02*
X951015Y-1031484D01*
X951015Y-1031484D02*
X989110Y-1031484D01*
X989110Y-1031484D02*
X1008158Y-1021960D01*
X1008158Y-1021960D02*
X1017682Y-1012436D01*
X1017682Y-1012436D02*
X1027205Y-993389D01*
X1027205Y-993389D02*
X1027205Y-955294D01*
X1027205Y-955294D02*
X1017682Y-936246D01*
X1017682Y-936246D02*
X1008158Y-926722D01*
X1008158Y-926722D02*
X989110Y-917198D01*
X1112920Y-1031484D02*
X1112920Y-898151D01*
X1112920Y-917198D02*
X1122444Y-907675D01*
X1122444Y-907675D02*
X1141491Y-898151D01*
X1141491Y-898151D02*
X1170063Y-898151D01*
X1170063Y-898151D02*
X1189110Y-907675D01*
X1189110Y-907675D02*
X1198634Y-926722D01*
X1198634Y-926722D02*
X1198634Y-1031484D01*
X1198634Y-926722D02*
X1208158Y-907675D01*
X1208158Y-907675D02*
X1227205Y-898151D01*
X1227205Y-898151D02*
X1255777Y-898151D01*
X1255777Y-898151D02*
X1274825Y-907675D01*
X1274825Y-907675D02*
X1284348Y-926722D01*
X1284348Y-926722D02*
X1284348Y-1031484D01*
X1379586Y-1031484D02*
X1379586Y-898151D01*
X1379586Y-917198D02*
X1389110Y-907675D01*
X1389110Y-907675D02*
X1408158Y-898151D01*
X1408158Y-898151D02*
X1436729Y-898151D01*
X1436729Y-898151D02*
X1455777Y-907675D01*
X1455777Y-907675D02*
X1465301Y-926722D01*
X1465301Y-926722D02*
X1465301Y-1031484D01*
X1465301Y-926722D02*
X1474824Y-907675D01*
X1474824Y-907675D02*
X1493872Y-898151D01*
X1493872Y-898151D02*
X1522443Y-898151D01*
X1522443Y-898151D02*
X1541491Y-907675D01*
X1541491Y-907675D02*
X1551015Y-926722D01*
X1551015Y-926722D02*
X1551015Y-1031484D01*
X1941491Y-821960D02*
X1770063Y-1079103D01*
X2198634Y-831484D02*
X2217682Y-831484D01*
X2217682Y-831484D02*
X2236729Y-841008D01*
X2236729Y-841008D02*
X2246253Y-850532D01*
X2246253Y-850532D02*
X2255777Y-869579D01*
X2255777Y-869579D02*
X2265301Y-907675D01*
X2265301Y-907675D02*
X2265301Y-955294D01*
X2265301Y-955294D02*
X2255777Y-993389D01*
X2255777Y-993389D02*
X2246253Y-1012436D01*
X2246253Y-1012436D02*
X2236729Y-1021960D01*
X2236729Y-1021960D02*
X2217682Y-1031484D01*
X2217682Y-1031484D02*
X2198634Y-1031484D01*
X2198634Y-1031484D02*
X2179587Y-1021960D01*
X2179587Y-1021960D02*
X2170063Y-1012436D01*
X2170063Y-1012436D02*
X2160539Y-993389D01*
X2160539Y-993389D02*
X2151015Y-955294D01*
X2151015Y-955294D02*
X2151015Y-907675D01*
X2151015Y-907675D02*
X2160539Y-869579D01*
X2160539Y-869579D02*
X2170063Y-850532D01*
X2170063Y-850532D02*
X2179587Y-841008D01*
X2179587Y-841008D02*
X2198634Y-831484D01*
X2351015Y-1012436D02*
X2360539Y-1021960D01*
X2360539Y-1021960D02*
X2351015Y-1031484D01*
X2351015Y-1031484D02*
X2341491Y-1021960D01*
X2341491Y-1021960D02*
X2351015Y-1012436D01*
X2351015Y-1012436D02*
X2351015Y-1031484D01*
X2551015Y-1031484D02*
X2436729Y-1031484D01*
X2493872Y-1031484D02*
X2493872Y-831484D01*
X2493872Y-831484D02*
X2474825Y-860056D01*
X2474825Y-860056D02*
X2455777Y-879103D01*
X2455777Y-879103D02*
X2436729Y-888627D01*
X2627206Y-850532D02*
X2636729Y-841008D01*
X2636729Y-841008D02*
X2655777Y-831484D01*
X2655777Y-831484D02*
X2703396Y-831484D01*
X2703396Y-831484D02*
X2722444Y-841008D01*
X2722444Y-841008D02*
X2731968Y-850532D01*
X2731968Y-850532D02*
X2741491Y-869579D01*
X2741491Y-869579D02*
X2741491Y-888627D01*
X2741491Y-888627D02*
X2731968Y-917198D01*
X2731968Y-917198D02*
X2617682Y-1031484D01*
X2617682Y-1031484D02*
X2741491Y-1031484D01*
X2865301Y-831484D02*
X2884348Y-831484D01*
X2884348Y-831484D02*
X2903396Y-841008D01*
X2903396Y-841008D02*
X2912920Y-850532D01*
X2912920Y-850532D02*
X2922444Y-869579D01*
X2922444Y-869579D02*
X2931967Y-907675D01*
X2931967Y-907675D02*
X2931967Y-955294D01*
X2931967Y-955294D02*
X2922444Y-993389D01*
X2922444Y-993389D02*
X2912920Y-1012436D01*
X2912920Y-1012436D02*
X2903396Y-1021960D01*
X2903396Y-1021960D02*
X2884348Y-1031484D01*
X2884348Y-1031484D02*
X2865301Y-1031484D01*
X2865301Y-1031484D02*
X2846253Y-1021960D01*
X2846253Y-1021960D02*
X2836729Y-1012436D01*
X2836729Y-1012436D02*
X2827206Y-993389D01*
X2827206Y-993389D02*
X2817682Y-955294D01*
X2817682Y-955294D02*
X2817682Y-907675D01*
X2817682Y-907675D02*
X2827206Y-869579D01*
X2827206Y-869579D02*
X2836729Y-850532D01*
X2836729Y-850532D02*
X2846253Y-841008D01*
X2846253Y-841008D02*
X2865301Y-831484D01*
X3055777Y-831484D02*
X3074825Y-831484D01*
X3074825Y-831484D02*
X3093872Y-841008D01*
X3093872Y-841008D02*
X3103396Y-850532D01*
X3103396Y-850532D02*
X3112920Y-869579D01*
X3112920Y-869579D02*
X3122444Y-907675D01*
X3122444Y-907675D02*
X3122444Y-955294D01*
X3122444Y-955294D02*
X3112920Y-993389D01*
X3112920Y-993389D02*
X3103396Y-1012436D01*
X3103396Y-1012436D02*
X3093872Y-1021960D01*
X3093872Y-1021960D02*
X3074825Y-1031484D01*
X3074825Y-1031484D02*
X3055777Y-1031484D01*
X3055777Y-1031484D02*
X3036729Y-1021960D01*
X3036729Y-1021960D02*
X3027206Y-1012436D01*
X3027206Y-1012436D02*
X3017682Y-993389D01*
X3017682Y-993389D02*
X3008158Y-955294D01*
X3008158Y-955294D02*
X3008158Y-907675D01*
X3008158Y-907675D02*
X3017682Y-869579D01*
X3017682Y-869579D02*
X3027206Y-850532D01*
X3027206Y-850532D02*
X3036729Y-841008D01*
X3036729Y-841008D02*
X3055777Y-831484D01*
X3198634Y-831484D02*
X3198634Y-869579D01*
X3274825Y-831484D02*
X3274825Y-869579D01*
X3570063Y-1107675D02*
X3560539Y-1098151D01*
X3560539Y-1098151D02*
X3541491Y-1069579D01*
X3541491Y-1069579D02*
X3531968Y-1050532D01*
X3531968Y-1050532D02*
X3522444Y-1021960D01*
X3522444Y-1021960D02*
X3512920Y-974341D01*
X3512920Y-974341D02*
X3512920Y-936246D01*
X3512920Y-936246D02*
X3522444Y-888627D01*
X3522444Y-888627D02*
X3531968Y-860056D01*
X3531968Y-860056D02*
X3541491Y-841008D01*
X3541491Y-841008D02*
X3560539Y-812436D01*
X3560539Y-812436D02*
X3570063Y-802913D01*
X3731968Y-898151D02*
X3731968Y-1031484D01*
X3684348Y-821960D02*
X3636729Y-964817D01*
X3636729Y-964817D02*
X3760539Y-964817D01*
X3989110Y-1031484D02*
X3989110Y-831484D01*
X4074825Y-1031484D02*
X4074825Y-926722D01*
X4074825Y-926722D02*
X4065301Y-907675D01*
X4065301Y-907675D02*
X4046253Y-898151D01*
X4046253Y-898151D02*
X4017682Y-898151D01*
X4017682Y-898151D02*
X3998634Y-907675D01*
X3998634Y-907675D02*
X3989110Y-917198D01*
X4198634Y-1031484D02*
X4179587Y-1021960D01*
X4179587Y-1021960D02*
X4170063Y-1012436D01*
X4170063Y-1012436D02*
X4160539Y-993389D01*
X4160539Y-993389D02*
X4160539Y-936246D01*
X4160539Y-936246D02*
X4170063Y-917198D01*
X4170063Y-917198D02*
X4179587Y-907675D01*
X4179587Y-907675D02*
X4198634Y-898151D01*
X4198634Y-898151D02*
X4227206Y-898151D01*
X4227206Y-898151D02*
X4246253Y-907675D01*
X4246253Y-907675D02*
X4255777Y-917198D01*
X4255777Y-917198D02*
X4265301Y-936246D01*
X4265301Y-936246D02*
X4265301Y-993389D01*
X4265301Y-993389D02*
X4255777Y-1012436D01*
X4255777Y-1012436D02*
X4246253Y-1021960D01*
X4246253Y-1021960D02*
X4227206Y-1031484D01*
X4227206Y-1031484D02*
X4198634Y-1031484D01*
X4379587Y-1031484D02*
X4360539Y-1021960D01*
X4360539Y-1021960D02*
X4351015Y-1002913D01*
X4351015Y-1002913D02*
X4351015Y-831484D01*
X4531968Y-1021960D02*
X4512920Y-1031484D01*
X4512920Y-1031484D02*
X4474825Y-1031484D01*
X4474825Y-1031484D02*
X4455777Y-1021960D01*
X4455777Y-1021960D02*
X4446253Y-1002913D01*
X4446253Y-1002913D02*
X4446253Y-926722D01*
X4446253Y-926722D02*
X4455777Y-907675D01*
X4455777Y-907675D02*
X4474825Y-898151D01*
X4474825Y-898151D02*
X4512920Y-898151D01*
X4512920Y-898151D02*
X4531968Y-907675D01*
X4531968Y-907675D02*
X4541492Y-926722D01*
X4541492Y-926722D02*
X4541492Y-945770D01*
X4541492Y-945770D02*
X4446253Y-964817D01*
X4617682Y-1021960D02*
X4636730Y-1031484D01*
X4636730Y-1031484D02*
X4674825Y-1031484D01*
X4674825Y-1031484D02*
X4693873Y-1021960D01*
X4693873Y-1021960D02*
X4703396Y-1002913D01*
X4703396Y-1002913D02*
X4703396Y-993389D01*
X4703396Y-993389D02*
X4693873Y-974341D01*
X4693873Y-974341D02*
X4674825Y-964817D01*
X4674825Y-964817D02*
X4646253Y-964817D01*
X4646253Y-964817D02*
X4627206Y-955294D01*
X4627206Y-955294D02*
X4617682Y-936246D01*
X4617682Y-936246D02*
X4617682Y-926722D01*
X4617682Y-926722D02*
X4627206Y-907675D01*
X4627206Y-907675D02*
X4646253Y-898151D01*
X4646253Y-898151D02*
X4674825Y-898151D01*
X4674825Y-898151D02*
X4693873Y-907675D01*
X4770063Y-1107675D02*
X4779587Y-1098151D01*
X4779587Y-1098151D02*
X4798634Y-1069579D01*
X4798634Y-1069579D02*
X4808158Y-1050532D01*
X4808158Y-1050532D02*
X4817682Y-1021960D01*
X4817682Y-1021960D02*
X4827206Y-974341D01*
X4827206Y-974341D02*
X4827206Y-936246D01*
X4827206Y-936246D02*
X4817682Y-888627D01*
X4817682Y-888627D02*
X4808158Y-860056D01*
X4808158Y-860056D02*
X4798634Y-841008D01*
X4798634Y-841008D02*
X4779587Y-812436D01*
X4779587Y-812436D02*
X4770063Y-802913D01*
X5131968Y-1107675D02*
X5122444Y-1098151D01*
X5122444Y-1098151D02*
X5103396Y-1069579D01*
X5103396Y-1069579D02*
X5093873Y-1050532D01*
X5093873Y-1050532D02*
X5084349Y-1021960D01*
X5084349Y-1021960D02*
X5074825Y-974341D01*
X5074825Y-974341D02*
X5074825Y-936246D01*
X5074825Y-936246D02*
X5084349Y-888627D01*
X5084349Y-888627D02*
X5093873Y-860056D01*
X5093873Y-860056D02*
X5103396Y-841008D01*
X5103396Y-841008D02*
X5122444Y-812436D01*
X5122444Y-812436D02*
X5131968Y-802913D01*
X5208158Y-898151D02*
X5208158Y-1031484D01*
X5208158Y-917198D02*
X5217682Y-907675D01*
X5217682Y-907675D02*
X5236730Y-898151D01*
X5236730Y-898151D02*
X5265301Y-898151D01*
X5265301Y-898151D02*
X5284349Y-907675D01*
X5284349Y-907675D02*
X5293873Y-926722D01*
X5293873Y-926722D02*
X5293873Y-1031484D01*
X5417682Y-1031484D02*
X5398634Y-1021960D01*
X5398634Y-1021960D02*
X5389111Y-1012436D01*
X5389111Y-1012436D02*
X5379587Y-993389D01*
X5379587Y-993389D02*
X5379587Y-936246D01*
X5379587Y-936246D02*
X5389111Y-917198D01*
X5389111Y-917198D02*
X5398634Y-907675D01*
X5398634Y-907675D02*
X5417682Y-898151D01*
X5417682Y-898151D02*
X5446254Y-898151D01*
X5446254Y-898151D02*
X5465301Y-907675D01*
X5465301Y-907675D02*
X5474825Y-917198D01*
X5474825Y-917198D02*
X5484349Y-936246D01*
X5484349Y-936246D02*
X5484349Y-993389D01*
X5484349Y-993389D02*
X5474825Y-1012436D01*
X5474825Y-1012436D02*
X5465301Y-1021960D01*
X5465301Y-1021960D02*
X5446254Y-1031484D01*
X5446254Y-1031484D02*
X5417682Y-1031484D01*
X5541492Y-898151D02*
X5617682Y-898151D01*
X5570063Y-831484D02*
X5570063Y-1002913D01*
X5570063Y-1002913D02*
X5579587Y-1021960D01*
X5579587Y-1021960D02*
X5598634Y-1031484D01*
X5598634Y-1031484D02*
X5617682Y-1031484D01*
X5836730Y-898151D02*
X5836730Y-1098151D01*
X5836730Y-907675D02*
X5855777Y-898151D01*
X5855777Y-898151D02*
X5893873Y-898151D01*
X5893873Y-898151D02*
X5912920Y-907675D01*
X5912920Y-907675D02*
X5922444Y-917198D01*
X5922444Y-917198D02*
X5931968Y-936246D01*
X5931968Y-936246D02*
X5931968Y-993389D01*
X5931968Y-993389D02*
X5922444Y-1012436D01*
X5922444Y-1012436D02*
X5912920Y-1021960D01*
X5912920Y-1021960D02*
X5893873Y-1031484D01*
X5893873Y-1031484D02*
X5855777Y-1031484D01*
X5855777Y-1031484D02*
X5836730Y-1021960D01*
X6046253Y-1031484D02*
X6027206Y-1021960D01*
X6027206Y-1021960D02*
X6017682Y-1002913D01*
X6017682Y-1002913D02*
X6017682Y-831484D01*
X6208158Y-1031484D02*
X6208158Y-926722D01*
X6208158Y-926722D02*
X6198634Y-907675D01*
X6198634Y-907675D02*
X6179587Y-898151D01*
X6179587Y-898151D02*
X6141492Y-898151D01*
X6141492Y-898151D02*
X6122444Y-907675D01*
X6208158Y-1021960D02*
X6189111Y-1031484D01*
X6189111Y-1031484D02*
X6141492Y-1031484D01*
X6141492Y-1031484D02*
X6122444Y-1021960D01*
X6122444Y-1021960D02*
X6112920Y-1002913D01*
X6112920Y-1002913D02*
X6112920Y-983865D01*
X6112920Y-983865D02*
X6122444Y-964817D01*
X6122444Y-964817D02*
X6141492Y-955294D01*
X6141492Y-955294D02*
X6189111Y-955294D01*
X6189111Y-955294D02*
X6208158Y-945770D01*
X6274825Y-898151D02*
X6351015Y-898151D01*
X6303396Y-831484D02*
X6303396Y-1002913D01*
X6303396Y-1002913D02*
X6312920Y-1021960D01*
X6312920Y-1021960D02*
X6331968Y-1031484D01*
X6331968Y-1031484D02*
X6351015Y-1031484D01*
X6493873Y-1021960D02*
X6474825Y-1031484D01*
X6474825Y-1031484D02*
X6436730Y-1031484D01*
X6436730Y-1031484D02*
X6417682Y-1021960D01*
X6417682Y-1021960D02*
X6408158Y-1002913D01*
X6408158Y-1002913D02*
X6408158Y-926722D01*
X6408158Y-926722D02*
X6417682Y-907675D01*
X6417682Y-907675D02*
X6436730Y-898151D01*
X6436730Y-898151D02*
X6474825Y-898151D01*
X6474825Y-898151D02*
X6493873Y-907675D01*
X6493873Y-907675D02*
X6503396Y-926722D01*
X6503396Y-926722D02*
X6503396Y-945770D01*
X6503396Y-945770D02*
X6408158Y-964817D01*
X6674825Y-1031484D02*
X6674825Y-831484D01*
X6674825Y-1021960D02*
X6655777Y-1031484D01*
X6655777Y-1031484D02*
X6617682Y-1031484D01*
X6617682Y-1031484D02*
X6598634Y-1021960D01*
X6598634Y-1021960D02*
X6589111Y-1012436D01*
X6589111Y-1012436D02*
X6579587Y-993389D01*
X6579587Y-993389D02*
X6579587Y-936246D01*
X6579587Y-936246D02*
X6589111Y-917198D01*
X6589111Y-917198D02*
X6598634Y-907675D01*
X6598634Y-907675D02*
X6617682Y-898151D01*
X6617682Y-898151D02*
X6655777Y-898151D01*
X6655777Y-898151D02*
X6674825Y-907675D01*
X6751015Y-1107675D02*
X6760539Y-1098151D01*
X6760539Y-1098151D02*
X6779587Y-1069579D01*
X6779587Y-1069579D02*
X6789111Y-1050532D01*
X6789111Y-1050532D02*
X6798634Y-1021960D01*
X6798634Y-1021960D02*
X6808158Y-974341D01*
X6808158Y-974341D02*
X6808158Y-936246D01*
X6808158Y-936246D02*
X6798634Y-888627D01*
X6798634Y-888627D02*
X6789111Y-860056D01*
X6789111Y-860056D02*
X6779587Y-841008D01*
X6779587Y-841008D02*
X6760539Y-812436D01*
X6760539Y-812436D02*
X6751015Y-802913D01*
X-105000Y-1160000D02*
X-105000Y-1360000D01*
X-205000Y-1260000D02*
X-5000Y-1260000D01*
X236729Y-1151484D02*
X360539Y-1151484D01*
X360539Y-1151484D02*
X293872Y-1227675D01*
X293872Y-1227675D02*
X322444Y-1227675D01*
X322444Y-1227675D02*
X341491Y-1237198D01*
X341491Y-1237198D02*
X351015Y-1246722D01*
X351015Y-1246722D02*
X360539Y-1265770D01*
X360539Y-1265770D02*
X360539Y-1313389D01*
X360539Y-1313389D02*
X351015Y-1332437D01*
X351015Y-1332437D02*
X341491Y-1341960D01*
X341491Y-1341960D02*
X322444Y-1351484D01*
X322444Y-1351484D02*
X265301Y-1351484D01*
X265301Y-1351484D02*
X246253Y-1341960D01*
X246253Y-1341960D02*
X236729Y-1332437D01*
X446253Y-1332437D02*
X455777Y-1341960D01*
X455777Y-1341960D02*
X446253Y-1351484D01*
X446253Y-1351484D02*
X436729Y-1341960D01*
X436729Y-1341960D02*
X446253Y-1332437D01*
X446253Y-1332437D02*
X446253Y-1351484D01*
X551015Y-1351484D02*
X589110Y-1351484D01*
X589110Y-1351484D02*
X608158Y-1341960D01*
X608158Y-1341960D02*
X617682Y-1332437D01*
X617682Y-1332437D02*
X636729Y-1303865D01*
X636729Y-1303865D02*
X646253Y-1265770D01*
X646253Y-1265770D02*
X646253Y-1189579D01*
X646253Y-1189579D02*
X636729Y-1170532D01*
X636729Y-1170532D02*
X627205Y-1161008D01*
X627205Y-1161008D02*
X608158Y-1151484D01*
X608158Y-1151484D02*
X570063Y-1151484D01*
X570063Y-1151484D02*
X551015Y-1161008D01*
X551015Y-1161008D02*
X541491Y-1170532D01*
X541491Y-1170532D02*
X531967Y-1189579D01*
X531967Y-1189579D02*
X531967Y-1237198D01*
X531967Y-1237198D02*
X541491Y-1256246D01*
X541491Y-1256246D02*
X551015Y-1265770D01*
X551015Y-1265770D02*
X570063Y-1275294D01*
X570063Y-1275294D02*
X608158Y-1275294D01*
X608158Y-1275294D02*
X627205Y-1265770D01*
X627205Y-1265770D02*
X636729Y-1256246D01*
X636729Y-1256246D02*
X646253Y-1237198D01*
X760539Y-1237198D02*
X741491Y-1227675D01*
X741491Y-1227675D02*
X731967Y-1218151D01*
X731967Y-1218151D02*
X722443Y-1199103D01*
X722443Y-1199103D02*
X722443Y-1189579D01*
X722443Y-1189579D02*
X731967Y-1170532D01*
X731967Y-1170532D02*
X741491Y-1161008D01*
X741491Y-1161008D02*
X760539Y-1151484D01*
X760539Y-1151484D02*
X798634Y-1151484D01*
X798634Y-1151484D02*
X817682Y-1161008D01*
X817682Y-1161008D02*
X827205Y-1170532D01*
X827205Y-1170532D02*
X836729Y-1189579D01*
X836729Y-1189579D02*
X836729Y-1199103D01*
X836729Y-1199103D02*
X827205Y-1218151D01*
X827205Y-1218151D02*
X817682Y-1227675D01*
X817682Y-1227675D02*
X798634Y-1237198D01*
X798634Y-1237198D02*
X760539Y-1237198D01*
X760539Y-1237198D02*
X741491Y-1246722D01*
X741491Y-1246722D02*
X731967Y-1256246D01*
X731967Y-1256246D02*
X722443Y-1275294D01*
X722443Y-1275294D02*
X722443Y-1313389D01*
X722443Y-1313389D02*
X731967Y-1332437D01*
X731967Y-1332437D02*
X741491Y-1341960D01*
X741491Y-1341960D02*
X760539Y-1351484D01*
X760539Y-1351484D02*
X798634Y-1351484D01*
X798634Y-1351484D02*
X817682Y-1341960D01*
X817682Y-1341960D02*
X827205Y-1332437D01*
X827205Y-1332437D02*
X836729Y-1313389D01*
X836729Y-1313389D02*
X836729Y-1275294D01*
X836729Y-1275294D02*
X827205Y-1256246D01*
X827205Y-1256246D02*
X817682Y-1246722D01*
X817682Y-1246722D02*
X798634Y-1237198D01*
X951015Y-1237198D02*
X931967Y-1227675D01*
X931967Y-1227675D02*
X922443Y-1218151D01*
X922443Y-1218151D02*
X912920Y-1199103D01*
X912920Y-1199103D02*
X912920Y-1189579D01*
X912920Y-1189579D02*
X922443Y-1170532D01*
X922443Y-1170532D02*
X931967Y-1161008D01*
X931967Y-1161008D02*
X951015Y-1151484D01*
X951015Y-1151484D02*
X989110Y-1151484D01*
X989110Y-1151484D02*
X1008158Y-1161008D01*
X1008158Y-1161008D02*
X1017682Y-1170532D01*
X1017682Y-1170532D02*
X1027205Y-1189579D01*
X1027205Y-1189579D02*
X1027205Y-1199103D01*
X1027205Y-1199103D02*
X1017682Y-1218151D01*
X1017682Y-1218151D02*
X1008158Y-1227675D01*
X1008158Y-1227675D02*
X989110Y-1237198D01*
X989110Y-1237198D02*
X951015Y-1237198D01*
X951015Y-1237198D02*
X931967Y-1246722D01*
X931967Y-1246722D02*
X922443Y-1256246D01*
X922443Y-1256246D02*
X912920Y-1275294D01*
X912920Y-1275294D02*
X912920Y-1313389D01*
X912920Y-1313389D02*
X922443Y-1332437D01*
X922443Y-1332437D02*
X931967Y-1341960D01*
X931967Y-1341960D02*
X951015Y-1351484D01*
X951015Y-1351484D02*
X989110Y-1351484D01*
X989110Y-1351484D02*
X1008158Y-1341960D01*
X1008158Y-1341960D02*
X1017682Y-1332437D01*
X1017682Y-1332437D02*
X1027205Y-1313389D01*
X1027205Y-1313389D02*
X1027205Y-1275294D01*
X1027205Y-1275294D02*
X1017682Y-1256246D01*
X1017682Y-1256246D02*
X1008158Y-1246722D01*
X1008158Y-1246722D02*
X989110Y-1237198D01*
X1112920Y-1351484D02*
X1112920Y-1218151D01*
X1112920Y-1237198D02*
X1122444Y-1227675D01*
X1122444Y-1227675D02*
X1141491Y-1218151D01*
X1141491Y-1218151D02*
X1170063Y-1218151D01*
X1170063Y-1218151D02*
X1189110Y-1227675D01*
X1189110Y-1227675D02*
X1198634Y-1246722D01*
X1198634Y-1246722D02*
X1198634Y-1351484D01*
X1198634Y-1246722D02*
X1208158Y-1227675D01*
X1208158Y-1227675D02*
X1227205Y-1218151D01*
X1227205Y-1218151D02*
X1255777Y-1218151D01*
X1255777Y-1218151D02*
X1274825Y-1227675D01*
X1274825Y-1227675D02*
X1284348Y-1246722D01*
X1284348Y-1246722D02*
X1284348Y-1351484D01*
X1379586Y-1351484D02*
X1379586Y-1218151D01*
X1379586Y-1237198D02*
X1389110Y-1227675D01*
X1389110Y-1227675D02*
X1408158Y-1218151D01*
X1408158Y-1218151D02*
X1436729Y-1218151D01*
X1436729Y-1218151D02*
X1455777Y-1227675D01*
X1455777Y-1227675D02*
X1465301Y-1246722D01*
X1465301Y-1246722D02*
X1465301Y-1351484D01*
X1465301Y-1246722D02*
X1474824Y-1227675D01*
X1474824Y-1227675D02*
X1493872Y-1218151D01*
X1493872Y-1218151D02*
X1522443Y-1218151D01*
X1522443Y-1218151D02*
X1541491Y-1227675D01*
X1541491Y-1227675D02*
X1551015Y-1246722D01*
X1551015Y-1246722D02*
X1551015Y-1351484D01*
X1941491Y-1141960D02*
X1770063Y-1399103D01*
X2198634Y-1151484D02*
X2217682Y-1151484D01*
X2217682Y-1151484D02*
X2236729Y-1161008D01*
X2236729Y-1161008D02*
X2246253Y-1170532D01*
X2246253Y-1170532D02*
X2255777Y-1189579D01*
X2255777Y-1189579D02*
X2265301Y-1227675D01*
X2265301Y-1227675D02*
X2265301Y-1275294D01*
X2265301Y-1275294D02*
X2255777Y-1313389D01*
X2255777Y-1313389D02*
X2246253Y-1332437D01*
X2246253Y-1332437D02*
X2236729Y-1341960D01*
X2236729Y-1341960D02*
X2217682Y-1351484D01*
X2217682Y-1351484D02*
X2198634Y-1351484D01*
X2198634Y-1351484D02*
X2179587Y-1341960D01*
X2179587Y-1341960D02*
X2170063Y-1332437D01*
X2170063Y-1332437D02*
X2160539Y-1313389D01*
X2160539Y-1313389D02*
X2151015Y-1275294D01*
X2151015Y-1275294D02*
X2151015Y-1227675D01*
X2151015Y-1227675D02*
X2160539Y-1189579D01*
X2160539Y-1189579D02*
X2170063Y-1170532D01*
X2170063Y-1170532D02*
X2179587Y-1161008D01*
X2179587Y-1161008D02*
X2198634Y-1151484D01*
X2351015Y-1332437D02*
X2360539Y-1341960D01*
X2360539Y-1341960D02*
X2351015Y-1351484D01*
X2351015Y-1351484D02*
X2341491Y-1341960D01*
X2341491Y-1341960D02*
X2351015Y-1332437D01*
X2351015Y-1332437D02*
X2351015Y-1351484D01*
X2551015Y-1351484D02*
X2436729Y-1351484D01*
X2493872Y-1351484D02*
X2493872Y-1151484D01*
X2493872Y-1151484D02*
X2474825Y-1180056D01*
X2474825Y-1180056D02*
X2455777Y-1199103D01*
X2455777Y-1199103D02*
X2436729Y-1208627D01*
X2731968Y-1151484D02*
X2636729Y-1151484D01*
X2636729Y-1151484D02*
X2627206Y-1246722D01*
X2627206Y-1246722D02*
X2636729Y-1237198D01*
X2636729Y-1237198D02*
X2655777Y-1227675D01*
X2655777Y-1227675D02*
X2703396Y-1227675D01*
X2703396Y-1227675D02*
X2722444Y-1237198D01*
X2722444Y-1237198D02*
X2731968Y-1246722D01*
X2731968Y-1246722D02*
X2741491Y-1265770D01*
X2741491Y-1265770D02*
X2741491Y-1313389D01*
X2741491Y-1313389D02*
X2731968Y-1332437D01*
X2731968Y-1332437D02*
X2722444Y-1341960D01*
X2722444Y-1341960D02*
X2703396Y-1351484D01*
X2703396Y-1351484D02*
X2655777Y-1351484D01*
X2655777Y-1351484D02*
X2636729Y-1341960D01*
X2636729Y-1341960D02*
X2627206Y-1332437D01*
X2808158Y-1151484D02*
X2941491Y-1151484D01*
X2941491Y-1151484D02*
X2855777Y-1351484D01*
X3055777Y-1151484D02*
X3074825Y-1151484D01*
X3074825Y-1151484D02*
X3093872Y-1161008D01*
X3093872Y-1161008D02*
X3103396Y-1170532D01*
X3103396Y-1170532D02*
X3112920Y-1189579D01*
X3112920Y-1189579D02*
X3122444Y-1227675D01*
X3122444Y-1227675D02*
X3122444Y-1275294D01*
X3122444Y-1275294D02*
X3112920Y-1313389D01*
X3112920Y-1313389D02*
X3103396Y-1332437D01*
X3103396Y-1332437D02*
X3093872Y-1341960D01*
X3093872Y-1341960D02*
X3074825Y-1351484D01*
X3074825Y-1351484D02*
X3055777Y-1351484D01*
X3055777Y-1351484D02*
X3036729Y-1341960D01*
X3036729Y-1341960D02*
X3027206Y-1332437D01*
X3027206Y-1332437D02*
X3017682Y-1313389D01*
X3017682Y-1313389D02*
X3008158Y-1275294D01*
X3008158Y-1275294D02*
X3008158Y-1227675D01*
X3008158Y-1227675D02*
X3017682Y-1189579D01*
X3017682Y-1189579D02*
X3027206Y-1170532D01*
X3027206Y-1170532D02*
X3036729Y-1161008D01*
X3036729Y-1161008D02*
X3055777Y-1151484D01*
X3198634Y-1151484D02*
X3198634Y-1189579D01*
X3274825Y-1151484D02*
X3274825Y-1189579D01*
X3570063Y-1427675D02*
X3560539Y-1418151D01*
X3560539Y-1418151D02*
X3541491Y-1389579D01*
X3541491Y-1389579D02*
X3531968Y-1370532D01*
X3531968Y-1370532D02*
X3522444Y-1341960D01*
X3522444Y-1341960D02*
X3512920Y-1294341D01*
X3512920Y-1294341D02*
X3512920Y-1256246D01*
X3512920Y-1256246D02*
X3522444Y-1208627D01*
X3522444Y-1208627D02*
X3531968Y-1180056D01*
X3531968Y-1180056D02*
X3541491Y-1161008D01*
X3541491Y-1161008D02*
X3560539Y-1132437D01*
X3560539Y-1132437D02*
X3570063Y-1122913D01*
X3731968Y-1218151D02*
X3731968Y-1351484D01*
X3684348Y-1141960D02*
X3636729Y-1284818D01*
X3636729Y-1284818D02*
X3760539Y-1284818D01*
X3989110Y-1351484D02*
X3989110Y-1151484D01*
X4074825Y-1351484D02*
X4074825Y-1246722D01*
X4074825Y-1246722D02*
X4065301Y-1227675D01*
X4065301Y-1227675D02*
X4046253Y-1218151D01*
X4046253Y-1218151D02*
X4017682Y-1218151D01*
X4017682Y-1218151D02*
X3998634Y-1227675D01*
X3998634Y-1227675D02*
X3989110Y-1237198D01*
X4198634Y-1351484D02*
X4179587Y-1341960D01*
X4179587Y-1341960D02*
X4170063Y-1332437D01*
X4170063Y-1332437D02*
X4160539Y-1313389D01*
X4160539Y-1313389D02*
X4160539Y-1256246D01*
X4160539Y-1256246D02*
X4170063Y-1237198D01*
X4170063Y-1237198D02*
X4179587Y-1227675D01*
X4179587Y-1227675D02*
X4198634Y-1218151D01*
X4198634Y-1218151D02*
X4227206Y-1218151D01*
X4227206Y-1218151D02*
X4246253Y-1227675D01*
X4246253Y-1227675D02*
X4255777Y-1237198D01*
X4255777Y-1237198D02*
X4265301Y-1256246D01*
X4265301Y-1256246D02*
X4265301Y-1313389D01*
X4265301Y-1313389D02*
X4255777Y-1332437D01*
X4255777Y-1332437D02*
X4246253Y-1341960D01*
X4246253Y-1341960D02*
X4227206Y-1351484D01*
X4227206Y-1351484D02*
X4198634Y-1351484D01*
X4379587Y-1351484D02*
X4360539Y-1341960D01*
X4360539Y-1341960D02*
X4351015Y-1322913D01*
X4351015Y-1322913D02*
X4351015Y-1151484D01*
X4531968Y-1341960D02*
X4512920Y-1351484D01*
X4512920Y-1351484D02*
X4474825Y-1351484D01*
X4474825Y-1351484D02*
X4455777Y-1341960D01*
X4455777Y-1341960D02*
X4446253Y-1322913D01*
X4446253Y-1322913D02*
X4446253Y-1246722D01*
X4446253Y-1246722D02*
X4455777Y-1227675D01*
X4455777Y-1227675D02*
X4474825Y-1218151D01*
X4474825Y-1218151D02*
X4512920Y-1218151D01*
X4512920Y-1218151D02*
X4531968Y-1227675D01*
X4531968Y-1227675D02*
X4541492Y-1246722D01*
X4541492Y-1246722D02*
X4541492Y-1265770D01*
X4541492Y-1265770D02*
X4446253Y-1284818D01*
X4617682Y-1341960D02*
X4636730Y-1351484D01*
X4636730Y-1351484D02*
X4674825Y-1351484D01*
X4674825Y-1351484D02*
X4693873Y-1341960D01*
X4693873Y-1341960D02*
X4703396Y-1322913D01*
X4703396Y-1322913D02*
X4703396Y-1313389D01*
X4703396Y-1313389D02*
X4693873Y-1294341D01*
X4693873Y-1294341D02*
X4674825Y-1284818D01*
X4674825Y-1284818D02*
X4646253Y-1284818D01*
X4646253Y-1284818D02*
X4627206Y-1275294D01*
X4627206Y-1275294D02*
X4617682Y-1256246D01*
X4617682Y-1256246D02*
X4617682Y-1246722D01*
X4617682Y-1246722D02*
X4627206Y-1227675D01*
X4627206Y-1227675D02*
X4646253Y-1218151D01*
X4646253Y-1218151D02*
X4674825Y-1218151D01*
X4674825Y-1218151D02*
X4693873Y-1227675D01*
X4770063Y-1427675D02*
X4779587Y-1418151D01*
X4779587Y-1418151D02*
X4798634Y-1389579D01*
X4798634Y-1389579D02*
X4808158Y-1370532D01*
X4808158Y-1370532D02*
X4817682Y-1341960D01*
X4817682Y-1341960D02*
X4827206Y-1294341D01*
X4827206Y-1294341D02*
X4827206Y-1256246D01*
X4827206Y-1256246D02*
X4817682Y-1208627D01*
X4817682Y-1208627D02*
X4808158Y-1180056D01*
X4808158Y-1180056D02*
X4798634Y-1161008D01*
X4798634Y-1161008D02*
X4779587Y-1132437D01*
X4779587Y-1132437D02*
X4770063Y-1122913D01*
X5131968Y-1427675D02*
X5122444Y-1418151D01*
X5122444Y-1418151D02*
X5103396Y-1389579D01*
X5103396Y-1389579D02*
X5093873Y-1370532D01*
X5093873Y-1370532D02*
X5084349Y-1341960D01*
X5084349Y-1341960D02*
X5074825Y-1294341D01*
X5074825Y-1294341D02*
X5074825Y-1256246D01*
X5074825Y-1256246D02*
X5084349Y-1208627D01*
X5084349Y-1208627D02*
X5093873Y-1180056D01*
X5093873Y-1180056D02*
X5103396Y-1161008D01*
X5103396Y-1161008D02*
X5122444Y-1132437D01*
X5122444Y-1132437D02*
X5131968Y-1122913D01*
X5208158Y-1218151D02*
X5208158Y-1351484D01*
X5208158Y-1237198D02*
X5217682Y-1227675D01*
X5217682Y-1227675D02*
X5236730Y-1218151D01*
X5236730Y-1218151D02*
X5265301Y-1218151D01*
X5265301Y-1218151D02*
X5284349Y-1227675D01*
X5284349Y-1227675D02*
X5293873Y-1246722D01*
X5293873Y-1246722D02*
X5293873Y-1351484D01*
X5417682Y-1351484D02*
X5398634Y-1341960D01*
X5398634Y-1341960D02*
X5389111Y-1332437D01*
X5389111Y-1332437D02*
X5379587Y-1313389D01*
X5379587Y-1313389D02*
X5379587Y-1256246D01*
X5379587Y-1256246D02*
X5389111Y-1237198D01*
X5389111Y-1237198D02*
X5398634Y-1227675D01*
X5398634Y-1227675D02*
X5417682Y-1218151D01*
X5417682Y-1218151D02*
X5446254Y-1218151D01*
X5446254Y-1218151D02*
X5465301Y-1227675D01*
X5465301Y-1227675D02*
X5474825Y-1237198D01*
X5474825Y-1237198D02*
X5484349Y-1256246D01*
X5484349Y-1256246D02*
X5484349Y-1313389D01*
X5484349Y-1313389D02*
X5474825Y-1332437D01*
X5474825Y-1332437D02*
X5465301Y-1341960D01*
X5465301Y-1341960D02*
X5446254Y-1351484D01*
X5446254Y-1351484D02*
X5417682Y-1351484D01*
X5541492Y-1218151D02*
X5617682Y-1218151D01*
X5570063Y-1151484D02*
X5570063Y-1322913D01*
X5570063Y-1322913D02*
X5579587Y-1341960D01*
X5579587Y-1341960D02*
X5598634Y-1351484D01*
X5598634Y-1351484D02*
X5617682Y-1351484D01*
X5836730Y-1218151D02*
X5836730Y-1418151D01*
X5836730Y-1227675D02*
X5855777Y-1218151D01*
X5855777Y-1218151D02*
X5893873Y-1218151D01*
X5893873Y-1218151D02*
X5912920Y-1227675D01*
X5912920Y-1227675D02*
X5922444Y-1237198D01*
X5922444Y-1237198D02*
X5931968Y-1256246D01*
X5931968Y-1256246D02*
X5931968Y-1313389D01*
X5931968Y-1313389D02*
X5922444Y-1332437D01*
X5922444Y-1332437D02*
X5912920Y-1341960D01*
X5912920Y-1341960D02*
X5893873Y-1351484D01*
X5893873Y-1351484D02*
X5855777Y-1351484D01*
X5855777Y-1351484D02*
X5836730Y-1341960D01*
X6046253Y-1351484D02*
X6027206Y-1341960D01*
X6027206Y-1341960D02*
X6017682Y-1322913D01*
X6017682Y-1322913D02*
X6017682Y-1151484D01*
X6208158Y-1351484D02*
X6208158Y-1246722D01*
X6208158Y-1246722D02*
X6198634Y-1227675D01*
X6198634Y-1227675D02*
X6179587Y-1218151D01*
X6179587Y-1218151D02*
X6141492Y-1218151D01*
X6141492Y-1218151D02*
X6122444Y-1227675D01*
X6208158Y-1341960D02*
X6189111Y-1351484D01*
X6189111Y-1351484D02*
X6141492Y-1351484D01*
X6141492Y-1351484D02*
X6122444Y-1341960D01*
X6122444Y-1341960D02*
X6112920Y-1322913D01*
X6112920Y-1322913D02*
X6112920Y-1303865D01*
X6112920Y-1303865D02*
X6122444Y-1284818D01*
X6122444Y-1284818D02*
X6141492Y-1275294D01*
X6141492Y-1275294D02*
X6189111Y-1275294D01*
X6189111Y-1275294D02*
X6208158Y-1265770D01*
X6274825Y-1218151D02*
X6351015Y-1218151D01*
X6303396Y-1151484D02*
X6303396Y-1322913D01*
X6303396Y-1322913D02*
X6312920Y-1341960D01*
X6312920Y-1341960D02*
X6331968Y-1351484D01*
X6331968Y-1351484D02*
X6351015Y-1351484D01*
X6493873Y-1341960D02*
X6474825Y-1351484D01*
X6474825Y-1351484D02*
X6436730Y-1351484D01*
X6436730Y-1351484D02*
X6417682Y-1341960D01*
X6417682Y-1341960D02*
X6408158Y-1322913D01*
X6408158Y-1322913D02*
X6408158Y-1246722D01*
X6408158Y-1246722D02*
X6417682Y-1227675D01*
X6417682Y-1227675D02*
X6436730Y-1218151D01*
X6436730Y-1218151D02*
X6474825Y-1218151D01*
X6474825Y-1218151D02*
X6493873Y-1227675D01*
X6493873Y-1227675D02*
X6503396Y-1246722D01*
X6503396Y-1246722D02*
X6503396Y-1265770D01*
X6503396Y-1265770D02*
X6408158Y-1284818D01*
X6674825Y-1351484D02*
X6674825Y-1151484D01*
X6674825Y-1341960D02*
X6655777Y-1351484D01*
X6655777Y-1351484D02*
X6617682Y-1351484D01*
X6617682Y-1351484D02*
X6598634Y-1341960D01*
X6598634Y-1341960D02*
X6589111Y-1332437D01*
X6589111Y-1332437D02*
X6579587Y-1313389D01*
X6579587Y-1313389D02*
X6579587Y-1256246D01*
X6579587Y-1256246D02*
X6589111Y-1237198D01*
X6589111Y-1237198D02*
X6598634Y-1227675D01*
X6598634Y-1227675D02*
X6617682Y-1218151D01*
X6617682Y-1218151D02*
X6655777Y-1218151D01*
X6655777Y-1218151D02*
X6674825Y-1227675D01*
X6751015Y-1427675D02*
X6760539Y-1418151D01*
X6760539Y-1418151D02*
X6779587Y-1389579D01*
X6779587Y-1389579D02*
X6789111Y-1370532D01*
X6789111Y-1370532D02*
X6798634Y-1341960D01*
X6798634Y-1341960D02*
X6808158Y-1294341D01*
X6808158Y-1294341D02*
X6808158Y-1256246D01*
X6808158Y-1256246D02*
X6798634Y-1208627D01*
X6798634Y-1208627D02*
X6789111Y-1180056D01*
X6789111Y-1180056D02*
X6779587Y-1161008D01*
X6779587Y-1161008D02*
X6760539Y-1132437D01*
X6760539Y-1132437D02*
X6751015Y-1122913D01*
X-34289Y-1650712D02*
X-34289Y-1509289D01*
X-175711Y-1509289D01*
X-175711Y-1650712D01*
X-34289Y-1650712D01*
X341491Y-1538151D02*
X341491Y-1671484D01*
X293872Y-1461960D02*
X246253Y-1604817D01*
X246253Y-1604817D02*
X370062Y-1604817D01*
X446253Y-1652436D02*
X455777Y-1661960D01*
X455777Y-1661960D02*
X446253Y-1671484D01*
X446253Y-1671484D02*
X436729Y-1661960D01*
X436729Y-1661960D02*
X446253Y-1652436D01*
X446253Y-1652436D02*
X446253Y-1671484D01*
X579586Y-1471484D02*
X598634Y-1471484D01*
X598634Y-1471484D02*
X617682Y-1481008D01*
X617682Y-1481008D02*
X627205Y-1490532D01*
X627205Y-1490532D02*
X636729Y-1509579D01*
X636729Y-1509579D02*
X646253Y-1547675D01*
X646253Y-1547675D02*
X646253Y-1595294D01*
X646253Y-1595294D02*
X636729Y-1633389D01*
X636729Y-1633389D02*
X627205Y-1652436D01*
X627205Y-1652436D02*
X617682Y-1661960D01*
X617682Y-1661960D02*
X598634Y-1671484D01*
X598634Y-1671484D02*
X579586Y-1671484D01*
X579586Y-1671484D02*
X560539Y-1661960D01*
X560539Y-1661960D02*
X551015Y-1652436D01*
X551015Y-1652436D02*
X541491Y-1633389D01*
X541491Y-1633389D02*
X531967Y-1595294D01*
X531967Y-1595294D02*
X531967Y-1547675D01*
X531967Y-1547675D02*
X541491Y-1509579D01*
X541491Y-1509579D02*
X551015Y-1490532D01*
X551015Y-1490532D02*
X560539Y-1481008D01*
X560539Y-1481008D02*
X579586Y-1471484D01*
X770062Y-1471484D02*
X789110Y-1471484D01*
X789110Y-1471484D02*
X808158Y-1481008D01*
X808158Y-1481008D02*
X817682Y-1490532D01*
X817682Y-1490532D02*
X827205Y-1509579D01*
X827205Y-1509579D02*
X836729Y-1547675D01*
X836729Y-1547675D02*
X836729Y-1595294D01*
X836729Y-1595294D02*
X827205Y-1633389D01*
X827205Y-1633389D02*
X817682Y-1652436D01*
X817682Y-1652436D02*
X808158Y-1661960D01*
X808158Y-1661960D02*
X789110Y-1671484D01*
X789110Y-1671484D02*
X770062Y-1671484D01*
X770062Y-1671484D02*
X751015Y-1661960D01*
X751015Y-1661960D02*
X741491Y-1652436D01*
X741491Y-1652436D02*
X731967Y-1633389D01*
X731967Y-1633389D02*
X722443Y-1595294D01*
X722443Y-1595294D02*
X722443Y-1547675D01*
X722443Y-1547675D02*
X731967Y-1509579D01*
X731967Y-1509579D02*
X741491Y-1490532D01*
X741491Y-1490532D02*
X751015Y-1481008D01*
X751015Y-1481008D02*
X770062Y-1471484D01*
X960539Y-1471484D02*
X979586Y-1471484D01*
X979586Y-1471484D02*
X998634Y-1481008D01*
X998634Y-1481008D02*
X1008158Y-1490532D01*
X1008158Y-1490532D02*
X1017682Y-1509579D01*
X1017682Y-1509579D02*
X1027205Y-1547675D01*
X1027205Y-1547675D02*
X1027205Y-1595294D01*
X1027205Y-1595294D02*
X1017682Y-1633389D01*
X1017682Y-1633389D02*
X1008158Y-1652436D01*
X1008158Y-1652436D02*
X998634Y-1661960D01*
X998634Y-1661960D02*
X979586Y-1671484D01*
X979586Y-1671484D02*
X960539Y-1671484D01*
X960539Y-1671484D02*
X941491Y-1661960D01*
X941491Y-1661960D02*
X931967Y-1652436D01*
X931967Y-1652436D02*
X922443Y-1633389D01*
X922443Y-1633389D02*
X912920Y-1595294D01*
X912920Y-1595294D02*
X912920Y-1547675D01*
X912920Y-1547675D02*
X922443Y-1509579D01*
X922443Y-1509579D02*
X931967Y-1490532D01*
X931967Y-1490532D02*
X941491Y-1481008D01*
X941491Y-1481008D02*
X960539Y-1471484D01*
X1112920Y-1671484D02*
X1112920Y-1538151D01*
X1112920Y-1557198D02*
X1122444Y-1547675D01*
X1122444Y-1547675D02*
X1141491Y-1538151D01*
X1141491Y-1538151D02*
X1170063Y-1538151D01*
X1170063Y-1538151D02*
X1189110Y-1547675D01*
X1189110Y-1547675D02*
X1198634Y-1566722D01*
X1198634Y-1566722D02*
X1198634Y-1671484D01*
X1198634Y-1566722D02*
X1208158Y-1547675D01*
X1208158Y-1547675D02*
X1227205Y-1538151D01*
X1227205Y-1538151D02*
X1255777Y-1538151D01*
X1255777Y-1538151D02*
X1274825Y-1547675D01*
X1274825Y-1547675D02*
X1284348Y-1566722D01*
X1284348Y-1566722D02*
X1284348Y-1671484D01*
X1379586Y-1671484D02*
X1379586Y-1538151D01*
X1379586Y-1557198D02*
X1389110Y-1547675D01*
X1389110Y-1547675D02*
X1408158Y-1538151D01*
X1408158Y-1538151D02*
X1436729Y-1538151D01*
X1436729Y-1538151D02*
X1455777Y-1547675D01*
X1455777Y-1547675D02*
X1465301Y-1566722D01*
X1465301Y-1566722D02*
X1465301Y-1671484D01*
X1465301Y-1566722D02*
X1474824Y-1547675D01*
X1474824Y-1547675D02*
X1493872Y-1538151D01*
X1493872Y-1538151D02*
X1522443Y-1538151D01*
X1522443Y-1538151D02*
X1541491Y-1547675D01*
X1541491Y-1547675D02*
X1551015Y-1566722D01*
X1551015Y-1566722D02*
X1551015Y-1671484D01*
X1941491Y-1461960D02*
X1770063Y-1719103D01*
X2198634Y-1471484D02*
X2217682Y-1471484D01*
X2217682Y-1471484D02*
X2236729Y-1481008D01*
X2236729Y-1481008D02*
X2246253Y-1490532D01*
X2246253Y-1490532D02*
X2255777Y-1509579D01*
X2255777Y-1509579D02*
X2265301Y-1547675D01*
X2265301Y-1547675D02*
X2265301Y-1595294D01*
X2265301Y-1595294D02*
X2255777Y-1633389D01*
X2255777Y-1633389D02*
X2246253Y-1652436D01*
X2246253Y-1652436D02*
X2236729Y-1661960D01*
X2236729Y-1661960D02*
X2217682Y-1671484D01*
X2217682Y-1671484D02*
X2198634Y-1671484D01*
X2198634Y-1671484D02*
X2179587Y-1661960D01*
X2179587Y-1661960D02*
X2170063Y-1652436D01*
X2170063Y-1652436D02*
X2160539Y-1633389D01*
X2160539Y-1633389D02*
X2151015Y-1595294D01*
X2151015Y-1595294D02*
X2151015Y-1547675D01*
X2151015Y-1547675D02*
X2160539Y-1509579D01*
X2160539Y-1509579D02*
X2170063Y-1490532D01*
X2170063Y-1490532D02*
X2179587Y-1481008D01*
X2179587Y-1481008D02*
X2198634Y-1471484D01*
X2351015Y-1652436D02*
X2360539Y-1661960D01*
X2360539Y-1661960D02*
X2351015Y-1671484D01*
X2351015Y-1671484D02*
X2341491Y-1661960D01*
X2341491Y-1661960D02*
X2351015Y-1652436D01*
X2351015Y-1652436D02*
X2351015Y-1671484D01*
X2551015Y-1671484D02*
X2436729Y-1671484D01*
X2493872Y-1671484D02*
X2493872Y-1471484D01*
X2493872Y-1471484D02*
X2474825Y-1500056D01*
X2474825Y-1500056D02*
X2455777Y-1519103D01*
X2455777Y-1519103D02*
X2436729Y-1528627D01*
X2731968Y-1471484D02*
X2636729Y-1471484D01*
X2636729Y-1471484D02*
X2627206Y-1566722D01*
X2627206Y-1566722D02*
X2636729Y-1557198D01*
X2636729Y-1557198D02*
X2655777Y-1547675D01*
X2655777Y-1547675D02*
X2703396Y-1547675D01*
X2703396Y-1547675D02*
X2722444Y-1557198D01*
X2722444Y-1557198D02*
X2731968Y-1566722D01*
X2731968Y-1566722D02*
X2741491Y-1585770D01*
X2741491Y-1585770D02*
X2741491Y-1633389D01*
X2741491Y-1633389D02*
X2731968Y-1652436D01*
X2731968Y-1652436D02*
X2722444Y-1661960D01*
X2722444Y-1661960D02*
X2703396Y-1671484D01*
X2703396Y-1671484D02*
X2655777Y-1671484D01*
X2655777Y-1671484D02*
X2636729Y-1661960D01*
X2636729Y-1661960D02*
X2627206Y-1652436D01*
X2808158Y-1471484D02*
X2941491Y-1471484D01*
X2941491Y-1471484D02*
X2855777Y-1671484D01*
X3112920Y-1471484D02*
X3017682Y-1471484D01*
X3017682Y-1471484D02*
X3008158Y-1566722D01*
X3008158Y-1566722D02*
X3017682Y-1557198D01*
X3017682Y-1557198D02*
X3036729Y-1547675D01*
X3036729Y-1547675D02*
X3084348Y-1547675D01*
X3084348Y-1547675D02*
X3103396Y-1557198D01*
X3103396Y-1557198D02*
X3112920Y-1566722D01*
X3112920Y-1566722D02*
X3122444Y-1585770D01*
X3122444Y-1585770D02*
X3122444Y-1633389D01*
X3122444Y-1633389D02*
X3112920Y-1652436D01*
X3112920Y-1652436D02*
X3103396Y-1661960D01*
X3103396Y-1661960D02*
X3084348Y-1671484D01*
X3084348Y-1671484D02*
X3036729Y-1671484D01*
X3036729Y-1671484D02*
X3017682Y-1661960D01*
X3017682Y-1661960D02*
X3008158Y-1652436D01*
X3198634Y-1471484D02*
X3198634Y-1509579D01*
X3274825Y-1471484D02*
X3274825Y-1509579D01*
X3570063Y-1747675D02*
X3560539Y-1738151D01*
X3560539Y-1738151D02*
X3541491Y-1709579D01*
X3541491Y-1709579D02*
X3531968Y-1690532D01*
X3531968Y-1690532D02*
X3522444Y-1661960D01*
X3522444Y-1661960D02*
X3512920Y-1614341D01*
X3512920Y-1614341D02*
X3512920Y-1576246D01*
X3512920Y-1576246D02*
X3522444Y-1528627D01*
X3522444Y-1528627D02*
X3531968Y-1500056D01*
X3531968Y-1500056D02*
X3541491Y-1481008D01*
X3541491Y-1481008D02*
X3560539Y-1452436D01*
X3560539Y-1452436D02*
X3570063Y-1442913D01*
X3627206Y-1471484D02*
X3751015Y-1471484D01*
X3751015Y-1471484D02*
X3684348Y-1547675D01*
X3684348Y-1547675D02*
X3712920Y-1547675D01*
X3712920Y-1547675D02*
X3731968Y-1557198D01*
X3731968Y-1557198D02*
X3741491Y-1566722D01*
X3741491Y-1566722D02*
X3751015Y-1585770D01*
X3751015Y-1585770D02*
X3751015Y-1633389D01*
X3751015Y-1633389D02*
X3741491Y-1652436D01*
X3741491Y-1652436D02*
X3731968Y-1661960D01*
X3731968Y-1661960D02*
X3712920Y-1671484D01*
X3712920Y-1671484D02*
X3655777Y-1671484D01*
X3655777Y-1671484D02*
X3636729Y-1661960D01*
X3636729Y-1661960D02*
X3627206Y-1652436D01*
X3865301Y-1557198D02*
X3846253Y-1547675D01*
X3846253Y-1547675D02*
X3836729Y-1538151D01*
X3836729Y-1538151D02*
X3827206Y-1519103D01*
X3827206Y-1519103D02*
X3827206Y-1509579D01*
X3827206Y-1509579D02*
X3836729Y-1490532D01*
X3836729Y-1490532D02*
X3846253Y-1481008D01*
X3846253Y-1481008D02*
X3865301Y-1471484D01*
X3865301Y-1471484D02*
X3903396Y-1471484D01*
X3903396Y-1471484D02*
X3922444Y-1481008D01*
X3922444Y-1481008D02*
X3931968Y-1490532D01*
X3931968Y-1490532D02*
X3941491Y-1509579D01*
X3941491Y-1509579D02*
X3941491Y-1519103D01*
X3941491Y-1519103D02*
X3931968Y-1538151D01*
X3931968Y-1538151D02*
X3922444Y-1547675D01*
X3922444Y-1547675D02*
X3903396Y-1557198D01*
X3903396Y-1557198D02*
X3865301Y-1557198D01*
X3865301Y-1557198D02*
X3846253Y-1566722D01*
X3846253Y-1566722D02*
X3836729Y-1576246D01*
X3836729Y-1576246D02*
X3827206Y-1595294D01*
X3827206Y-1595294D02*
X3827206Y-1633389D01*
X3827206Y-1633389D02*
X3836729Y-1652436D01*
X3836729Y-1652436D02*
X3846253Y-1661960D01*
X3846253Y-1661960D02*
X3865301Y-1671484D01*
X3865301Y-1671484D02*
X3903396Y-1671484D01*
X3903396Y-1671484D02*
X3922444Y-1661960D01*
X3922444Y-1661960D02*
X3931968Y-1652436D01*
X3931968Y-1652436D02*
X3941491Y-1633389D01*
X3941491Y-1633389D02*
X3941491Y-1595294D01*
X3941491Y-1595294D02*
X3931968Y-1576246D01*
X3931968Y-1576246D02*
X3922444Y-1566722D01*
X3922444Y-1566722D02*
X3903396Y-1557198D01*
X4179587Y-1671484D02*
X4179587Y-1471484D01*
X4265301Y-1671484D02*
X4265301Y-1566722D01*
X4265301Y-1566722D02*
X4255777Y-1547675D01*
X4255777Y-1547675D02*
X4236730Y-1538151D01*
X4236730Y-1538151D02*
X4208158Y-1538151D01*
X4208158Y-1538151D02*
X4189110Y-1547675D01*
X4189110Y-1547675D02*
X4179587Y-1557198D01*
X4389111Y-1671484D02*
X4370063Y-1661960D01*
X4370063Y-1661960D02*
X4360539Y-1652436D01*
X4360539Y-1652436D02*
X4351015Y-1633389D01*
X4351015Y-1633389D02*
X4351015Y-1576246D01*
X4351015Y-1576246D02*
X4360539Y-1557198D01*
X4360539Y-1557198D02*
X4370063Y-1547675D01*
X4370063Y-1547675D02*
X4389111Y-1538151D01*
X4389111Y-1538151D02*
X4417682Y-1538151D01*
X4417682Y-1538151D02*
X4436730Y-1547675D01*
X4436730Y-1547675D02*
X4446253Y-1557198D01*
X4446253Y-1557198D02*
X4455777Y-1576246D01*
X4455777Y-1576246D02*
X4455777Y-1633389D01*
X4455777Y-1633389D02*
X4446253Y-1652436D01*
X4446253Y-1652436D02*
X4436730Y-1661960D01*
X4436730Y-1661960D02*
X4417682Y-1671484D01*
X4417682Y-1671484D02*
X4389111Y-1671484D01*
X4570063Y-1671484D02*
X4551015Y-1661960D01*
X4551015Y-1661960D02*
X4541492Y-1642913D01*
X4541492Y-1642913D02*
X4541492Y-1471484D01*
X4722444Y-1661960D02*
X4703396Y-1671484D01*
X4703396Y-1671484D02*
X4665301Y-1671484D01*
X4665301Y-1671484D02*
X4646253Y-1661960D01*
X4646253Y-1661960D02*
X4636730Y-1642913D01*
X4636730Y-1642913D02*
X4636730Y-1566722D01*
X4636730Y-1566722D02*
X4646253Y-1547675D01*
X4646253Y-1547675D02*
X4665301Y-1538151D01*
X4665301Y-1538151D02*
X4703396Y-1538151D01*
X4703396Y-1538151D02*
X4722444Y-1547675D01*
X4722444Y-1547675D02*
X4731968Y-1566722D01*
X4731968Y-1566722D02*
X4731968Y-1585770D01*
X4731968Y-1585770D02*
X4636730Y-1604817D01*
X4808158Y-1661960D02*
X4827206Y-1671484D01*
X4827206Y-1671484D02*
X4865301Y-1671484D01*
X4865301Y-1671484D02*
X4884349Y-1661960D01*
X4884349Y-1661960D02*
X4893873Y-1642913D01*
X4893873Y-1642913D02*
X4893873Y-1633389D01*
X4893873Y-1633389D02*
X4884349Y-1614341D01*
X4884349Y-1614341D02*
X4865301Y-1604817D01*
X4865301Y-1604817D02*
X4836730Y-1604817D01*
X4836730Y-1604817D02*
X4817682Y-1595294D01*
X4817682Y-1595294D02*
X4808158Y-1576246D01*
X4808158Y-1576246D02*
X4808158Y-1566722D01*
X4808158Y-1566722D02*
X4817682Y-1547675D01*
X4817682Y-1547675D02*
X4836730Y-1538151D01*
X4836730Y-1538151D02*
X4865301Y-1538151D01*
X4865301Y-1538151D02*
X4884349Y-1547675D01*
X4960539Y-1747675D02*
X4970063Y-1738151D01*
X4970063Y-1738151D02*
X4989111Y-1709579D01*
X4989111Y-1709579D02*
X4998634Y-1690532D01*
X4998634Y-1690532D02*
X5008158Y-1661960D01*
X5008158Y-1661960D02*
X5017682Y-1614341D01*
X5017682Y-1614341D02*
X5017682Y-1576246D01*
X5017682Y-1576246D02*
X5008158Y-1528627D01*
X5008158Y-1528627D02*
X4998634Y-1500056D01*
X4998634Y-1500056D02*
X4989111Y-1481008D01*
X4989111Y-1481008D02*
X4970063Y-1452436D01*
X4970063Y-1452436D02*
X4960539Y-1442913D01*
X5322444Y-1747675D02*
X5312920Y-1738151D01*
X5312920Y-1738151D02*
X5293873Y-1709579D01*
X5293873Y-1709579D02*
X5284349Y-1690532D01*
X5284349Y-1690532D02*
X5274825Y-1661960D01*
X5274825Y-1661960D02*
X5265301Y-1614341D01*
X5265301Y-1614341D02*
X5265301Y-1576246D01*
X5265301Y-1576246D02*
X5274825Y-1528627D01*
X5274825Y-1528627D02*
X5284349Y-1500056D01*
X5284349Y-1500056D02*
X5293873Y-1481008D01*
X5293873Y-1481008D02*
X5312920Y-1452436D01*
X5312920Y-1452436D02*
X5322444Y-1442913D01*
X5398634Y-1538151D02*
X5398634Y-1671484D01*
X5398634Y-1557198D02*
X5408158Y-1547675D01*
X5408158Y-1547675D02*
X5427206Y-1538151D01*
X5427206Y-1538151D02*
X5455777Y-1538151D01*
X5455777Y-1538151D02*
X5474825Y-1547675D01*
X5474825Y-1547675D02*
X5484349Y-1566722D01*
X5484349Y-1566722D02*
X5484349Y-1671484D01*
X5608158Y-1671484D02*
X5589111Y-1661960D01*
X5589111Y-1661960D02*
X5579587Y-1652436D01*
X5579587Y-1652436D02*
X5570063Y-1633389D01*
X5570063Y-1633389D02*
X5570063Y-1576246D01*
X5570063Y-1576246D02*
X5579587Y-1557198D01*
X5579587Y-1557198D02*
X5589111Y-1547675D01*
X5589111Y-1547675D02*
X5608158Y-1538151D01*
X5608158Y-1538151D02*
X5636730Y-1538151D01*
X5636730Y-1538151D02*
X5655777Y-1547675D01*
X5655777Y-1547675D02*
X5665301Y-1557198D01*
X5665301Y-1557198D02*
X5674825Y-1576246D01*
X5674825Y-1576246D02*
X5674825Y-1633389D01*
X5674825Y-1633389D02*
X5665301Y-1652436D01*
X5665301Y-1652436D02*
X5655777Y-1661960D01*
X5655777Y-1661960D02*
X5636730Y-1671484D01*
X5636730Y-1671484D02*
X5608158Y-1671484D01*
X5731968Y-1538151D02*
X5808158Y-1538151D01*
X5760539Y-1471484D02*
X5760539Y-1642913D01*
X5760539Y-1642913D02*
X5770063Y-1661960D01*
X5770063Y-1661960D02*
X5789111Y-1671484D01*
X5789111Y-1671484D02*
X5808158Y-1671484D01*
X6027206Y-1538151D02*
X6027206Y-1738151D01*
X6027206Y-1547675D02*
X6046253Y-1538151D01*
X6046253Y-1538151D02*
X6084349Y-1538151D01*
X6084349Y-1538151D02*
X6103396Y-1547675D01*
X6103396Y-1547675D02*
X6112920Y-1557198D01*
X6112920Y-1557198D02*
X6122444Y-1576246D01*
X6122444Y-1576246D02*
X6122444Y-1633389D01*
X6122444Y-1633389D02*
X6112920Y-1652436D01*
X6112920Y-1652436D02*
X6103396Y-1661960D01*
X6103396Y-1661960D02*
X6084349Y-1671484D01*
X6084349Y-1671484D02*
X6046253Y-1671484D01*
X6046253Y-1671484D02*
X6027206Y-1661960D01*
X6236730Y-1671484D02*
X6217682Y-1661960D01*
X6217682Y-1661960D02*
X6208158Y-1642913D01*
X6208158Y-1642913D02*
X6208158Y-1471484D01*
X6398634Y-1671484D02*
X6398634Y-1566722D01*
X6398634Y-1566722D02*
X6389111Y-1547675D01*
X6389111Y-1547675D02*
X6370063Y-1538151D01*
X6370063Y-1538151D02*
X6331968Y-1538151D01*
X6331968Y-1538151D02*
X6312920Y-1547675D01*
X6398634Y-1661960D02*
X6379587Y-1671484D01*
X6379587Y-1671484D02*
X6331968Y-1671484D01*
X6331968Y-1671484D02*
X6312920Y-1661960D01*
X6312920Y-1661960D02*
X6303396Y-1642913D01*
X6303396Y-1642913D02*
X6303396Y-1623865D01*
X6303396Y-1623865D02*
X6312920Y-1604817D01*
X6312920Y-1604817D02*
X6331968Y-1595294D01*
X6331968Y-1595294D02*
X6379587Y-1595294D01*
X6379587Y-1595294D02*
X6398634Y-1585770D01*
X6465301Y-1538151D02*
X6541492Y-1538151D01*
X6493873Y-1471484D02*
X6493873Y-1642913D01*
X6493873Y-1642913D02*
X6503396Y-1661960D01*
X6503396Y-1661960D02*
X6522444Y-1671484D01*
X6522444Y-1671484D02*
X6541492Y-1671484D01*
X6684349Y-1661960D02*
X6665301Y-1671484D01*
X6665301Y-1671484D02*
X6627206Y-1671484D01*
X6627206Y-1671484D02*
X6608158Y-1661960D01*
X6608158Y-1661960D02*
X6598634Y-1642913D01*
X6598634Y-1642913D02*
X6598634Y-1566722D01*
X6598634Y-1566722D02*
X6608158Y-1547675D01*
X6608158Y-1547675D02*
X6627206Y-1538151D01*
X6627206Y-1538151D02*
X6665301Y-1538151D01*
X6665301Y-1538151D02*
X6684349Y-1547675D01*
X6684349Y-1547675D02*
X6693873Y-1566722D01*
X6693873Y-1566722D02*
X6693873Y-1585770D01*
X6693873Y-1585770D02*
X6598634Y-1604817D01*
X6865301Y-1671484D02*
X6865301Y-1471484D01*
X6865301Y-1661960D02*
X6846254Y-1671484D01*
X6846254Y-1671484D02*
X6808158Y-1671484D01*
X6808158Y-1671484D02*
X6789111Y-1661960D01*
X6789111Y-1661960D02*
X6779587Y-1652436D01*
X6779587Y-1652436D02*
X6770063Y-1633389D01*
X6770063Y-1633389D02*
X6770063Y-1576246D01*
X6770063Y-1576246D02*
X6779587Y-1557198D01*
X6779587Y-1557198D02*
X6789111Y-1547675D01*
X6789111Y-1547675D02*
X6808158Y-1538151D01*
X6808158Y-1538151D02*
X6846254Y-1538151D01*
X6846254Y-1538151D02*
X6865301Y-1547675D01*
X6941492Y-1747675D02*
X6951015Y-1738151D01*
X6951015Y-1738151D02*
X6970063Y-1709579D01*
X6970063Y-1709579D02*
X6979587Y-1690532D01*
X6979587Y-1690532D02*
X6989111Y-1661960D01*
X6989111Y-1661960D02*
X6998634Y-1614341D01*
X6998634Y-1614341D02*
X6998634Y-1576246D01*
X6998634Y-1576246D02*
X6989111Y-1528627D01*
X6989111Y-1528627D02*
X6979587Y-1500056D01*
X6979587Y-1500056D02*
X6970063Y-1481008D01*
X6970063Y-1481008D02*
X6951015Y-1452436D01*
X6951015Y-1452436D02*
X6941492Y-1442913D01*
M02*
