M48
; DRILL file {KiCad 8.0.5} date 2024-10-22T20:51:33-0400
; FORMAT={-:-/ absolute / metric / decimal}
; #@! TF.CreationDate,2024-10-22T20:51:33-04:00
; #@! TF.GenerationSoftware,Kicad,Pcbnew,8.0.5
; #@! TF.FileFunction,NonPlated,1,2,NPTH
FMAT,2
METRIC
; #@! TA.AperFunction,NonPlated,NPTH,ComponentDrill
T1C1.750
; #@! TA.AperFunction,NonPlated,NPTH,ComponentDrill
T2C3.048
; #@! TA.AperFunction,NonPlated,NPTH,ComponentDrill
T3C3.988
; #@! TA.AperFunction,NonPlated,NPTH,ComponentDrill
T4C4.000
%
G90
G05
T1
X4.445Y66.675
X4.445Y9.525
X6.826Y47.625
X11.589Y28.575
X14.605Y66.675
X14.605Y9.525
X16.986Y47.625
X21.749Y28.575
X23.495Y66.675
X23.495Y9.525
X28.257Y47.625
X33.655Y66.675
X33.655Y9.525
X37.782Y28.575
X38.417Y47.625
X42.545Y66.675
X42.545Y9.525
X47.307Y47.625
X47.942Y28.575
X52.705Y66.675
X52.705Y9.525
X56.832Y28.575
X57.467Y47.625
X61.595Y66.675
X66.357Y47.625
X66.992Y28.575
X71.12Y9.525
X71.755Y66.675
X75.882Y28.575
X76.517Y47.625
X80.645Y66.675
X81.28Y9.525
X85.407Y47.625
X86.042Y28.575
X90.805Y66.675
X94.932Y28.575
X95.567Y47.625
X99.695Y66.675
X104.457Y47.625
X105.092Y28.575
X109.22Y9.525
X109.855Y66.675
X113.982Y28.575
X114.617Y47.625
X118.745Y66.675
X119.38Y9.525
X123.507Y47.625
X124.142Y28.575
X128.905Y66.675
X133.032Y28.575
X133.667Y47.625
X137.795Y9.525
X137.795Y66.675
X142.557Y47.625
X143.192Y28.575
X147.955Y9.525
X147.955Y66.675
X152.082Y28.575
X152.717Y47.625
X156.845Y66.675
X156.845Y9.525
X162.242Y28.575
X167.005Y66.675
X167.005Y9.525
X168.751Y47.625
X173.514Y28.575
X175.895Y9.525
X175.895Y66.675
X178.911Y47.625
X183.674Y28.575
X186.055Y9.525
X186.055Y66.675
T2
X64.294Y2.54
X88.106Y2.54
X102.394Y2.54
X126.206Y2.54
T3
X64.294Y17.78
X88.106Y17.78
X102.394Y17.78
X126.206Y17.78
T4
X9.525Y66.675
X9.525Y9.525
X11.906Y47.625
X16.669Y28.575
X28.575Y66.675
X28.575Y9.525
X33.337Y47.625
X42.862Y28.575
X47.625Y66.675
X47.625Y9.525
X52.387Y47.625
X61.912Y28.575
X66.675Y66.675
X71.437Y47.625
X76.2Y9.525
X80.962Y28.575
X85.725Y66.675
X90.487Y47.625
X100.012Y28.575
X104.775Y66.675
X109.537Y47.625
X114.3Y9.525
X119.062Y28.575
X123.825Y66.675
X128.587Y47.625
X138.112Y28.575
X142.875Y9.525
X142.875Y66.675
X147.637Y47.625
X157.162Y28.575
X161.925Y66.675
X161.925Y9.525
X173.831Y47.625
X178.594Y28.575
X180.975Y9.525
X180.975Y66.675
M30
