M48
; DRILL file {KiCad 8.0.5} date 2024-10-22T20:47:22-0400
; FORMAT={-:-/ absolute / metric / decimal}
; #@! TF.CreationDate,2024-10-22T20:47:22-04:00
; #@! TF.GenerationSoftware,Kicad,Pcbnew,8.0.5
; #@! TF.FileFunction,NonPlated,1,2,NPTH
FMAT,2
METRIC
; #@! TA.AperFunction,NonPlated,NPTH,ComponentDrill
T1C1.750
; #@! TA.AperFunction,NonPlated,NPTH,ComponentDrill
T2C3.048
; #@! TA.AperFunction,NonPlated,NPTH,ComponentDrill
T3C3.988
; #@! TA.AperFunction,NonPlated,NPTH,ComponentDrill
T4C4.000
%
G90
G05
T1
X4.445Y66.675
X4.445Y47.625
X4.445Y28.575
X4.445Y9.525
X14.605Y66.675
X14.605Y47.625
X14.605Y28.575
X14.605Y9.525
X23.495Y66.675
X23.495Y47.625
X23.495Y28.575
X23.495Y9.525
X33.655Y66.675
X33.655Y47.625
X33.655Y28.575
X33.655Y9.525
X42.545Y66.675
X42.545Y47.625
X42.545Y28.575
X42.545Y9.525
X52.705Y66.675
X52.705Y47.625
X52.705Y28.575
X52.705Y9.525
X61.595Y66.675
X61.595Y47.625
X61.595Y28.575
X71.12Y9.525
X71.755Y66.675
X71.755Y47.625
X71.755Y28.575
X80.645Y66.675
X80.645Y47.625
X80.645Y28.575
X81.28Y9.525
X90.805Y66.675
X90.805Y47.625
X90.805Y28.575
X99.695Y47.625
X99.695Y66.675
X99.695Y28.575
X109.22Y9.525
X109.855Y47.625
X109.855Y66.675
X109.855Y28.575
X118.745Y66.675
X118.745Y47.625
X118.745Y28.575
X119.38Y9.525
X128.905Y66.675
X128.905Y47.625
X128.905Y28.575
X137.795Y9.525
X137.795Y66.675
X137.795Y47.625
X137.795Y28.575
X147.955Y9.525
X147.955Y66.675
X147.955Y47.625
X147.955Y28.575
X156.845Y66.675
X156.845Y47.625
X156.845Y28.575
X156.845Y9.525
X167.005Y66.675
X167.005Y47.625
X167.005Y28.575
X167.005Y9.525
X175.895Y47.625
X175.895Y28.575
X175.895Y9.525
X175.895Y66.675
X186.055Y47.625
X186.055Y28.575
X186.055Y9.525
X186.055Y66.675
T2
X64.294Y2.54
X88.106Y2.54
X102.394Y2.54
X126.206Y2.54
T3
X64.294Y17.78
X88.106Y17.78
X102.394Y17.78
X126.206Y17.78
T4
X9.525Y66.675
X9.525Y47.625
X9.525Y28.575
X9.525Y9.525
X28.575Y66.675
X28.575Y47.625
X28.575Y28.575
X28.575Y9.525
X47.625Y66.675
X47.625Y47.625
X47.625Y28.575
X47.625Y9.525
X66.675Y66.675
X66.675Y47.625
X66.675Y28.575
X76.2Y9.525
X85.725Y66.675
X85.725Y47.625
X85.725Y28.575
X104.775Y47.625
X104.775Y66.675
X104.775Y28.575
X114.3Y9.525
X123.825Y66.675
X123.825Y47.625
X123.825Y28.575
X142.875Y9.525
X142.875Y66.675
X142.875Y47.625
X142.875Y28.575
X161.925Y66.675
X161.925Y47.625
X161.925Y28.575
X161.925Y9.525
X180.975Y47.625
X180.975Y28.575
X180.975Y9.525
X180.975Y66.675
M30
