M48
; DRILL file {KiCad 8.0.5} date 2024-10-22T20:51:33-0400
; FORMAT={-:-/ absolute / metric / decimal}
; #@! TF.CreationDate,2024-10-22T20:51:33-04:00
; #@! TF.GenerationSoftware,Kicad,Pcbnew,8.0.5
; #@! TF.FileFunction,Plated,1,2,PTH
FMAT,2
METRIC
; #@! TA.AperFunction,Plated,PTH,ComponentDrill
T1C0.300
; #@! TA.AperFunction,Plated,PTH,ViaDrill
T2C0.400
; #@! TA.AperFunction,Plated,PTH,ComponentDrill
T3C1.000
; #@! TA.AperFunction,Plated,PTH,ComponentDrill
T4C1.500
%
G90
G05
T1
X96.02Y8.93
X97.929Y10.839
X97.929Y7.02
X99.838Y8.93
T2
X2.084Y57.15
X6.251Y35.421
X9.227Y39.886
X11.46Y42.118
X29.547Y33.337
X72.926Y39.291
X74.116Y39.291
X79.176Y8.632
X88.999Y11.609
X90.19Y11.609
X91.678Y26.032
X94.357Y20.836
X94.357Y17.562
X95.25Y18.455
X96.143Y19.348
X97.334Y26.032
X100.95Y5.06
X102.394Y21.134
X109.24Y14.287
X114.895Y18.752
X116.086Y18.752
X117.276Y8.632
T3
X1.786Y33.65
X1.786Y31.11
X1.786Y28.57
X1.786Y26.03
X1.786Y23.49
T4
X5.715Y69.215
X5.715Y12.065
X7.025Y70.675
X7.025Y13.525
X8.096Y50.165
X9.406Y51.625
X12.859Y31.115
X14.169Y32.575
X24.765Y69.215
X24.765Y12.065
X26.075Y70.675
X26.075Y13.525
X29.527Y50.165
X30.837Y51.625
X39.052Y31.115
X40.362Y32.575
X43.815Y69.215
X43.815Y12.065
X45.125Y70.675
X45.125Y13.525
X48.577Y50.165
X49.887Y51.625
X58.102Y31.115
X59.412Y32.575
X62.865Y69.215
X64.175Y70.675
X67.627Y50.165
X68.937Y51.625
X72.39Y12.065
X73.7Y13.525
X77.152Y31.115
X78.462Y32.575
X81.915Y69.215
X83.225Y70.675
X86.677Y50.165
X87.987Y51.625
X96.202Y31.115
X97.512Y32.575
X100.965Y69.215
X102.275Y70.675
X105.727Y50.165
X107.037Y51.625
X110.49Y12.065
X111.8Y13.525
X115.252Y31.115
X116.562Y32.575
X120.015Y69.215
X121.325Y70.675
X124.777Y50.165
X126.087Y51.625
X134.302Y31.115
X135.612Y32.575
X139.065Y12.065
X139.065Y69.215
X140.375Y13.525
X140.375Y70.675
X143.827Y50.165
X145.137Y51.625
X153.352Y31.115
X154.662Y32.575
X158.115Y69.215
X158.115Y12.065
X159.425Y70.675
X159.425Y13.525
X170.021Y50.165
X171.331Y51.625
X174.784Y31.115
X176.094Y32.575
X177.165Y12.065
X177.165Y69.215
X178.475Y13.525
X178.475Y70.675
T4
G00X12.025Y71.175
M15
G01X12.065Y71.755
M16
G05
G00X12.025Y14.025
M15
G01X12.065Y14.605
M16
G05
G00X14.406Y52.125
M15
G01X14.447Y52.705
M16
G05
G00X19.168Y33.075
M15
G01X19.209Y33.655
M16
G05
G00X31.075Y71.175
M15
G01X31.115Y71.755
M16
G05
G00X31.075Y14.025
M15
G01X31.115Y14.605
M16
G05
G00X35.837Y52.125
M15
G01X35.878Y52.705
M16
G05
G00X45.362Y33.075
M15
G01X45.403Y33.655
M16
G05
G00X50.125Y71.175
M15
G01X50.165Y71.755
M16
G05
G00X50.125Y14.025
M15
G01X50.165Y14.605
M16
G05
G00X54.887Y52.125
M15
G01X54.928Y52.705
M16
G05
G00X64.412Y33.075
M15
G01X64.453Y33.655
M16
G05
G00X69.175Y71.175
M15
G01X69.215Y71.755
M16
G05
G00X73.937Y52.125
M15
G01X73.978Y52.705
M16
G05
G00X78.7Y14.025
M15
G01X78.74Y14.605
M16
G05
G00X83.462Y33.075
M15
G01X83.503Y33.655
M16
G05
G00X88.225Y71.175
M15
G01X88.265Y71.755
M16
G05
G00X92.987Y52.125
M15
G01X93.028Y52.705
M16
G05
G00X102.512Y33.075
M15
G01X102.553Y33.655
M16
G05
G00X107.275Y71.175
M15
G01X107.315Y71.755
M16
G05
G00X112.037Y52.125
M15
G01X112.078Y52.705
M16
G05
G00X116.8Y14.025
M15
G01X116.84Y14.605
M16
G05
G00X121.562Y33.075
M15
G01X121.603Y33.655
M16
G05
G00X126.325Y71.175
M15
G01X126.365Y71.755
M16
G05
G00X131.087Y52.125
M15
G01X131.128Y52.705
M16
G05
G00X140.612Y33.075
M15
G01X140.653Y33.655
M16
G05
G00X145.375Y14.025
M15
G01X145.415Y14.605
M16
G05
G00X145.375Y71.175
M15
G01X145.415Y71.755
M16
G05
G00X150.137Y52.125
M15
G01X150.178Y52.705
M16
G05
G00X159.662Y33.075
M15
G01X159.703Y33.655
M16
G05
G00X164.425Y71.175
M15
G01X164.465Y71.755
M16
G05
G00X164.425Y14.025
M15
G01X164.465Y14.605
M16
G05
G00X176.331Y52.125
M15
G01X176.371Y52.705
M16
G05
G00X181.093Y33.075
M15
G01X181.134Y33.655
M16
G05
G00X183.475Y14.025
M15
G01X183.515Y14.605
M16
G05
G00X183.475Y71.175
M15
G01X183.515Y71.755
M16
G05
M30
