M48
; DRILL file {KiCad 8.0.5} date 2024-10-22T20:47:22-0400
; FORMAT={-:-/ absolute / metric / decimal}
; #@! TF.CreationDate,2024-10-22T20:47:22-04:00
; #@! TF.GenerationSoftware,Kicad,Pcbnew,8.0.5
; #@! TF.FileFunction,Plated,1,2,PTH
FMAT,2
METRIC
; #@! TA.AperFunction,Plated,PTH,ComponentDrill
T1C0.300
; #@! TA.AperFunction,Plated,PTH,ViaDrill
T2C0.400
; #@! TA.AperFunction,Plated,PTH,ComponentDrill
T3C1.000
; #@! TA.AperFunction,Plated,PTH,ComponentDrill
T4C1.500
%
G90
G05
T1
X96.02Y8.93
X97.929Y10.839
X97.929Y7.02
X99.838Y8.93
T2
X9.823Y38.1
X10.418Y63.103
X10.716Y44.351
X10.716Y38.993
X14.585Y26.032
X21.134Y28.575
X23.515Y26.032
X72.926Y39.291
X74.116Y39.291
X79.176Y8.632
X88.999Y11.609
X90.19Y11.609
X91.38Y26.032
X94.357Y20.836
X94.357Y17.562
X95.25Y18.455
X96.143Y19.348
X99.715Y26.032
X100.95Y5.06
X102.394Y21.134
X109.24Y14.287
X114.895Y18.752
X116.086Y18.752
X117.276Y8.632
T3
X1.786Y33.65
X1.786Y31.11
X1.786Y28.57
X1.786Y26.03
X1.786Y23.49
T4
X5.715Y69.215
X5.715Y50.165
X5.715Y31.115
X5.715Y12.065
X7.025Y70.675
X7.025Y51.625
X7.025Y32.575
X7.025Y13.525
X24.765Y69.215
X24.765Y50.165
X24.765Y31.115
X24.765Y12.065
X26.075Y70.675
X26.075Y51.625
X26.075Y32.575
X26.075Y13.525
X43.815Y69.215
X43.815Y50.165
X43.815Y31.115
X43.815Y12.065
X45.125Y70.675
X45.125Y51.625
X45.125Y32.575
X45.125Y13.525
X62.865Y69.215
X62.865Y50.165
X62.865Y31.115
X64.175Y70.675
X64.175Y51.625
X64.175Y32.575
X72.39Y12.065
X73.7Y13.525
X81.915Y69.215
X81.915Y50.165
X81.915Y31.115
X83.225Y70.675
X83.225Y51.625
X83.225Y32.575
X100.965Y50.165
X100.965Y69.215
X100.965Y31.115
X102.275Y51.625
X102.275Y70.675
X102.275Y32.575
X110.49Y12.065
X111.8Y13.525
X120.015Y69.215
X120.015Y50.165
X120.015Y31.115
X121.325Y70.675
X121.325Y51.625
X121.325Y32.575
X139.065Y12.065
X139.065Y69.215
X139.065Y50.165
X139.065Y31.115
X140.375Y13.525
X140.375Y70.675
X140.375Y51.625
X140.375Y32.575
X158.115Y69.215
X158.115Y50.165
X158.115Y31.115
X158.115Y12.065
X159.425Y70.675
X159.425Y51.625
X159.425Y32.575
X159.425Y13.525
X177.165Y50.165
X177.165Y31.115
X177.165Y12.065
X177.165Y69.215
X178.475Y51.625
X178.475Y32.575
X178.475Y13.525
X178.475Y70.675
T4
G00X12.025Y71.175
M15
G01X12.065Y71.755
M16
G05
G00X12.025Y52.125
M15
G01X12.065Y52.705
M16
G05
G00X12.025Y33.075
M15
G01X12.065Y33.655
M16
G05
G00X12.025Y14.025
M15
G01X12.065Y14.605
M16
G05
G00X31.075Y71.175
M15
G01X31.115Y71.755
M16
G05
G00X31.075Y52.125
M15
G01X31.115Y52.705
M16
G05
G00X31.075Y33.075
M15
G01X31.115Y33.655
M16
G05
G00X31.075Y14.025
M15
G01X31.115Y14.605
M16
G05
G00X50.125Y71.175
M15
G01X50.165Y71.755
M16
G05
G00X50.125Y52.125
M15
G01X50.165Y52.705
M16
G05
G00X50.125Y33.075
M15
G01X50.165Y33.655
M16
G05
G00X50.125Y14.025
M15
G01X50.165Y14.605
M16
G05
G00X69.175Y71.175
M15
G01X69.215Y71.755
M16
G05
G00X69.175Y52.125
M15
G01X69.215Y52.705
M16
G05
G00X69.175Y33.075
M15
G01X69.215Y33.655
M16
G05
G00X78.7Y14.025
M15
G01X78.74Y14.605
M16
G05
G00X88.225Y71.175
M15
G01X88.265Y71.755
M16
G05
G00X88.225Y52.125
M15
G01X88.265Y52.705
M16
G05
G00X88.225Y33.075
M15
G01X88.265Y33.655
M16
G05
G00X107.275Y52.125
M15
G01X107.315Y52.705
M16
G05
G00X107.275Y71.175
M15
G01X107.315Y71.755
M16
G05
G00X107.275Y33.075
M15
G01X107.315Y33.655
M16
G05
G00X116.8Y14.025
M15
G01X116.84Y14.605
M16
G05
G00X126.325Y71.175
M15
G01X126.365Y71.755
M16
G05
G00X126.325Y52.125
M15
G01X126.365Y52.705
M16
G05
G00X126.325Y33.075
M15
G01X126.365Y33.655
M16
G05
G00X145.375Y14.025
M15
G01X145.415Y14.605
M16
G05
G00X145.375Y71.175
M15
G01X145.415Y71.755
M16
G05
G00X145.375Y52.125
M15
G01X145.415Y52.705
M16
G05
G00X145.375Y33.075
M15
G01X145.415Y33.655
M16
G05
G00X164.425Y71.175
M15
G01X164.465Y71.755
M16
G05
G00X164.425Y52.125
M15
G01X164.465Y52.705
M16
G05
G00X164.425Y33.075
M15
G01X164.465Y33.655
M16
G05
G00X164.425Y14.025
M15
G01X164.465Y14.605
M16
G05
G00X183.475Y52.125
M15
G01X183.515Y52.705
M16
G05
G00X183.475Y33.075
M15
G01X183.515Y33.655
M16
G05
G00X183.475Y14.025
M15
G01X183.515Y14.605
M16
G05
G00X183.475Y71.175
M15
G01X183.515Y71.755
M16
G05
M30
