0
SECTION
2
HEADER
9
$INSUNITS
70
4
9
$ACADVER
1
AC1014
9
$HANDSEED
5
FFFF
0
ENDSEC
0
SECTION
2
TABLES
0
TABLE
2
VPORT
5
8
100
AcDbSymbolTable
0
ENDTAB
0
TABLE
2
LTYPE
5
5
100
AcDbSymbolTable
0
LTYPE
5
14
100
AcDbSymbolTableRecord
100
AcDbLinetypeTableRecord
2
BYBLOCK
70
0
0
LTYPE
5
15
100
AcDbSymbolTableRecord
100
AcDbLinetypeTableRecord
2
BYLAYER
70
0
0
LTYPE
5
16
100
AcDbSymbolTableRecord
100
AcDbLinetypeTableRecord
2
DASHED
70
0
3
Dashed __ __ __ __ __ __ __ __ __ __ __ __ __ _
72
65
73
2
40
0.75
49
0.5
74
0
49
-0.25
74
0
0
ENDTAB
0
TABLE
2
LAYER
5
2
100
AcDbSymbolTable
70
2
0
LAYER
5
50
100
AcDbSymbolTableRecord
100
AcDbLayerTableRecord
2
0
70
0
62
7
6
CONTINUOUS
0
ENDTAB
0
TABLE
2
STYLE
5
3
100
AcDbSymbolTable
70
1
0
STYLE
5
11
100
AcDbSymbolTableRecord
100
AcDbTextStyleTableRecord
2
STANDARD
70
0
0
ENDTAB
0
TABLE
2
VIEW
5
6
100
AcDbSymbolTable
70
0
0
ENDTAB
0
TABLE
2
UCS
5
7
100
AcDbSymbolTable
70
0
0
ENDTAB
0
TABLE
2
APPID
5
9
100
AcDbSymbolTable
70
2
0
APPID
5
12
100
AcDbSymbolTableRecord
100
AcDbRegAppTableRecord
2
ACAD
70
0
0
ENDTAB
0
TABLE
2
DIMSTYLE
5
A
100
AcDbSymbolTable
70
1
0
ENDTAB
0
TABLE
2
BLOCK_RECORD
5
1
100
AcDbSymbolTable
70
1
0
BLOCK_RECORD
5
1F
100
AcDbSymbolTableRecord
100
AcDbBlockTableRecord
2
*MODEL_SPACE
0
BLOCK_RECORD
5
1B
100
AcDbSymbolTableRecord
100
AcDbBlockTableRecord
2
*PAPER_SPACE
0
ENDTAB
0
ENDSEC
0
SECTION
2
BLOCKS
0
BLOCK
5
20
100
AcDbEntity
100
AcDbBlockBegin
2
*MODEL_SPACE
0
ENDBLK
5
21
100
AcDbEntity
100
AcDbBlockEnd
0
BLOCK
5
1C
100
AcDbEntity
100
AcDbBlockBegin
2
*PAPER_SPACE
0
ENDBLK
5
1D
100
AcDbEntity
100
AcDbBlockEnd
0
ENDSEC
0
SECTION
2
ENTITIES
0
LWPOLYLINE
5
100
100
AcDbEntity
8
0
100
AcDbPolyline
90
8
70
1
43
0.0
10
-188.94999999999993
20
37.049999999999969
10
-175.94999999999993
20
37.049999999999976
42
-0.41421356237309503
10
-175.4499999999999
20
36.549999999999969
10
-175.4499999999999
20
23.549999999999969
42
-0.41421356237309503
10
-175.94999999999993
20
23.049999999999962
10
-188.94999999999993
20
23.049999999999962
42
-0.41421356237309503
10
-189.44999999999993
20
23.549999999999969
10
-189.44999999999993
20
36.549999999999969
42
-0.41421356237309503
0
LWPOLYLINE
5
101
100
AcDbEntity
8
0
100
AcDbPolyline
90
8
70
1
43
0.0
10
-9.2624999999998892
20
42.099999999999973
10
-22.262499999999896
20
42.099999999999973
42
-0.41421356237309503
10
-22.762499999999896
20
42.599999999999973
10
-22.762499999999896
20
55.59999999999998
42
-0.41421356237309503
10
-22.262499999999896
20
56.09999999999998
10
-9.2624999999998892
20
56.09999999999998
42
-0.41421356237309503
10
-8.7624999999998909
20
55.59999999999998
10
-8.7624999999998909
20
42.599999999999973
42
-0.41421356237309503
0
LWPOLYLINE
5
102
100
AcDbEntity
8
0
100
AcDbPolyline
90
8
70
1
43
0.0
10
-109.27499999999989
20
42.099999999999973
10
-122.27499999999991
20
42.09999999999998
42
-0.41421356237309503
10
-122.77499999999989
20
42.599999999999973
10
-122.77499999999991
20
55.59999999999998
42
-0.41421356237309503
10
-122.27499999999991
20
56.099999999999987
10
-109.27499999999989
20
56.099999999999966
42
-0.41421356237309503
10
-108.77499999999991
20
55.59999999999998
10
-108.77499999999991
20
42.599999999999973
42
-0.41421356237309503
0
LWPOLYLINE
5
103
100
AcDbEntity
8
0
100
AcDbPolyline
90
8
70
1
43
0.0
10
-36.549999999999883
20
37.049999999999969
10
-23.549999999999898
20
37.049999999999969
42
-0.41421356237309503
10
-23.049999999999898
20
36.549999999999969
10
-23.049999999999898
20
23.549999999999969
42
-0.41421356237309503
10
-23.549999999999898
20
23.049999999999969
10
-36.549999999999883
20
23.049999999999969
42
-0.41421356237309503
10
-37.049999999999883
20
23.549999999999969
10
-37.049999999999883
20
36.549999999999969
42
-0.41421356237309503
0
LWPOLYLINE
5
104
100
AcDbEntity
8
0
100
AcDbPolyline
90
8
70
1
43
0.0
10
-99.749999999999915
20
23.049999999999969
10
-112.74999999999991
20
23.049999999999962
42
-0.41421356237309503
10
-113.24999999999991
20
23.549999999999969
10
-113.24999999999991
20
36.549999999999969
42
-0.41421356237309503
10
-112.74999999999991
20
37.049999999999976
10
-99.749999999999915
20
37.049999999999976
42
-0.41421356237309503
10
-99.249999999999901
20
36.549999999999969
10
-99.249999999999901
20
23.549999999999969
42
-0.41421356237309503
0
LWPOLYLINE
5
105
100
AcDbEntity
8
0
100
AcDbPolyline
90
8
70
1
43
0.0
10
-93.699999999999903
20
37.049999999999969
10
-80.699999999999903
20
37.049999999999976
42
-0.41421356237309503
10
-80.199999999999889
20
36.549999999999969
10
-80.199999999999889
20
23.549999999999969
42
-0.41421356237309503
10
-80.699999999999903
20
23.049999999999962
10
-93.699999999999903
20
23.049999999999962
42
-0.41421356237309503
10
-94.199999999999903
20
23.549999999999969
10
-94.199999999999903
20
36.549999999999969
42
-0.41421356237309503
0
LWPOLYLINE
5
106
100
AcDbEntity
8
0
100
AcDbPolyline
90
8
70
1
43
0.0
10
-128.3249999999999
20
42.099999999999973
10
-141.3249999999999
20
42.099999999999966
42
-0.41421356237309503
10
-141.8249999999999
20
42.599999999999973
10
-141.8249999999999
20
55.59999999999998
42
-0.41421356237309503
10
-141.3249999999999
20
56.099999999999987
10
-128.3249999999999
20
56.099999999999966
42
-0.41421356237309503
10
-127.82499999999992
20
55.59999999999998
10
-127.82499999999992
20
42.599999999999973
42
-0.41421356237309503
0
LWPOLYLINE
5
107
100
AcDbEntity
8
0
100
AcDbPolyline
90
8
70
1
43
0.0
10
-42.599999999999909
20
23.049999999999969
10
-55.599999999999895
20
23.049999999999969
42
-0.41421356237309503
10
-56.099999999999895
20
23.549999999999969
10
-56.099999999999895
20
36.549999999999969
42
-0.41421356237309503
10
-55.599999999999895
20
37.049999999999969
10
-42.599999999999909
20
37.049999999999969
42
-0.41421356237309503
10
-42.099999999999909
20
36.549999999999969
10
-42.099999999999909
20
23.549999999999969
42
-0.41421356237309503
0
LWPOLYLINE
5
108
100
AcDbEntity
8
0
100
AcDbPolyline
90
8
70
1
43
0.0
10
-4.4999999999999218
20
23.049999999999969
10
-17.499999999999893
20
23.049999999999969
42
-0.41421356237309503
10
-17.999999999999893
20
23.549999999999969
10
-17.999999999999897
20
36.549999999999969
42
-0.41421356237309503
10
-17.499999999999893
20
37.049999999999976
10
-4.4999999999999218
20
37.049999999999969
42
-0.41421356237309503
10
-3.9999999999999236
20
36.549999999999969
10
-3.9999999999999236
20
23.549999999999969
42
-0.41421356237309503
0
LWPOLYLINE
5
109
100
AcDbEntity
8
0
100
AcDbPolyline
90
8
70
1
43
0.0
10
-33.074999999999903
20
42.099999999999973
10
-46.074999999999889
20
42.099999999999973
42
-0.41421356237309503
10
-46.574999999999889
20
42.599999999999973
10
-46.574999999999889
20
55.59999999999998
42
-0.41421356237309503
10
-46.074999999999889
20
56.09999999999998
10
-33.074999999999903
20
56.09999999999998
42
-0.41421356237309503
10
-32.574999999999903
20
55.59999999999998
10
-32.574999999999903
20
42.599999999999973
42
-0.41421356237309503
0
LWPOLYLINE
5
110
100
AcDbEntity
8
0
100
AcDbPolyline
90
8
70
1
43
0.0
10
-61.64999999999992
20
23.049999999999969
10
-74.649999999999892
20
23.049999999999969
42
-0.41421356237309503
10
-75.149999999999892
20
23.549999999999969
10
-75.149999999999892
20
36.549999999999969
42
-0.41421356237309503
10
-74.649999999999892
20
37.049999999999969
10
-61.64999999999992
20
37.049999999999969
42
-0.41421356237309503
10
-61.14999999999992
20
36.549999999999969
10
-61.14999999999992
20
23.549999999999969
42
-0.41421356237309503
0
LWPOLYLINE
5
111
100
AcDbEntity
8
0
100
AcDbPolyline
90
8
70
1
43
0.0
10
-137.84999999999991
20
23.049999999999969
10
-150.84999999999991
20
23.049999999999962
42
-0.41421356237309503
10
-151.34999999999991
20
23.549999999999969
10
-151.34999999999991
20
36.549999999999969
42
-0.41421356237309503
10
-150.84999999999991
20
37.049999999999976
10
-137.84999999999991
20
37.049999999999976
42
-0.41421356237309503
10
-137.34999999999988
20
36.549999999999969
10
-137.34999999999988
20
23.549999999999969
42
-0.41421356237309503
0
LWPOLYLINE
5
112
100
AcDbEntity
8
0
100
AcDbPolyline
90
8
70
1
43
0.0
10
-71.174999999999912
20
42.099999999999973
10
-84.174999999999898
20
42.099999999999966
42
-0.41421356237309503
10
-84.674999999999898
20
42.599999999999973
10
-84.674999999999898
20
55.59999999999998
42
-0.41421356237309503
10
-84.174999999999898
20
56.099999999999987
10
-71.174999999999912
20
56.09999999999998
42
-0.41421356237309503
10
-70.674999999999912
20
55.59999999999998
10
-70.674999999999912
20
42.599999999999973
42
-0.41421356237309503
0
LWPOLYLINE
5
113
100
AcDbEntity
8
0
100
AcDbPolyline
90
8
70
1
43
0.0
10
-52.124999999999915
20
42.099999999999973
10
-65.124999999999901
20
42.099999999999973
42
-0.41421356237309503
10
-65.624999999999901
20
42.599999999999973
10
-65.624999999999901
20
55.59999999999998
42
-0.41421356237309503
10
-65.124999999999901
20
56.09999999999998
10
-52.124999999999915
20
56.09999999999998
42
-0.41421356237309503
10
-51.624999999999915
20
55.59999999999998
10
-51.624999999999915
20
42.599999999999973
42
-0.41421356237309503
0
LWPOLYLINE
5
114
100
AcDbEntity
8
0
100
AcDbPolyline
90
8
70
1
43
0.0
10
-156.89999999999992
20
23.049999999999969
10
-169.89999999999992
20
23.049999999999962
42
-0.41421356237309503
10
-170.39999999999992
20
23.549999999999969
10
-170.39999999999992
20
36.549999999999969
42
-0.41421356237309503
10
-169.89999999999992
20
37.049999999999976
10
-156.89999999999992
20
37.049999999999976
42
-0.41421356237309503
10
-156.39999999999989
20
36.549999999999969
10
-156.39999999999989
20
23.549999999999969
42
-0.41421356237309503
0
LWPOLYLINE
5
115
100
AcDbEntity
8
0
100
AcDbPolyline
90
8
70
1
43
0.0
10
-175.94999999999999
20
61.15000000000002
10
-188.94999999999996
20
61.150000000000013
42
-0.41421356237309503
10
-189.44999999999996
20
61.65000000000002
10
-189.44999999999996
20
74.65000000000002
42
-0.41421356237309503
10
-188.94999999999996
20
75.15000000000002
10
-175.94999999999999
20
75.15000000000002
42
-0.41421356237309503
10
-175.44999999999999
20
74.65000000000002
10
-175.44999999999999
20
61.65000000000002
42
-0.41421356237309503
0
LWPOLYLINE
5
116
100
AcDbEntity
8
0
100
AcDbPolyline
90
8
70
1
43
0.0
10
-156.89999999999998
20
61.150000000000006
10
-169.89999999999995
20
61.150000000000006
42
-0.41421356237309503
10
-170.39999999999995
20
61.650000000000006
10
-170.39999999999995
20
74.650000000000048
42
-0.41421356237309503
10
-169.89999999999995
20
75.150000000000034
10
-156.89999999999998
20
75.150000000000034
42
-0.41421356237309503
10
-156.39999999999998
20
74.650000000000034
10
-156.39999999999998
20
61.649999999999999
42
-0.41421356237309503
0
LWPOLYLINE
5
117
100
AcDbEntity
8
0
100
AcDbPolyline
90
8
70
1
43
0.0
10
-42.59999999999998
20
61.150000000000006
10
-55.599999999999987
20
61.150000000000013
42
-0.41421356237309503
10
-56.099999999999987
20
61.650000000000006
10
-56.099999999999987
20
74.65000000000002
42
-0.41421356237309503
10
-55.599999999999987
20
75.15000000000002
10
-42.59999999999998
20
75.15000000000002
42
-0.41421356237309503
10
-42.09999999999998
20
74.65000000000002
10
-42.09999999999998
20
61.649999999999999
42
-0.41421356237309503
0
LWPOLYLINE
5
118
100
AcDbEntity
8
0
100
AcDbPolyline
90
8
70
1
43
0.0
10
-36.549999999999962
20
75.15000000000002
10
-23.549999999999962
20
75.15000000000002
42
-0.41421356237309503
10
-23.049999999999962
20
74.65000000000002
10
-23.049999999999962
20
61.649999999999999
42
-0.41421356237309503
10
-23.549999999999962
20
61.150000000000006
10
-36.549999999999962
20
61.150000000000013
42
-0.41421356237309503
10
-37.049999999999962
20
61.650000000000006
10
-37.049999999999962
20
74.65000000000002
42
-0.41421356237309503
0
LWPOLYLINE
5
119
100
AcDbEntity
8
0
100
AcDbPolyline
90
8
70
1
43
0.0
10
-4.4999999999999503
20
61.150000000000006
10
-17.499999999999936
20
61.150000000000013
42
-0.41421356237309503
10
-17.999999999999936
20
61.650000000000006
10
-17.999999999999936
20
74.650000000000006
42
-0.41421356237309503
10
-17.499999999999936
20
75.150000000000006
10
-4.4999999999999503
20
75.149999999999991
42
-0.41421356237309503
10
-3.9999999999999507
20
74.650000000000006
10
-3.9999999999999525
20
61.649999999999999
42
-0.41421356237309503
0
LWPOLYLINE
5
120
100
AcDbEntity
8
0
100
AcDbPolyline
90
8
70
1
43
0.0
10
-100.86874976649821
20
59.149998512208214
10
-106.86874976649811
20
59.149998512208263
42
-0.41421356237309503
10
-107.36874976649813
20
59.649998512208271
10
-107.36874976649808
20
74.649998512208214
42
-0.41421356237309503
10
-106.86874976649807
20
75.149998512208214
10
-100.86874976649813
20
75.149998512208228
42
-0.41421356237309503
10
-100.36874976649813
20
74.649998512208228
10
-100.3687497664982
20
59.649998512208214
42
-0.41421356237309503
0
LWPOLYLINE
5
121
100
AcDbEntity
8
0
100
AcDbPolyline
90
8
70
1
43
0.0
10
-131.18124950831034
20
59.649998412052042
10
-131.18124950831034
20
74.649998412051957
42
-0.41421356237309503
10
-130.68124950831034
20
75.149998412051957
10
-124.6812495083104
20
75.149998412051971
42
-0.41421356237309503
10
-124.1812495083104
20
74.649998412051957
10
-124.1812495083104
20
59.649998412052028
42
-0.41421356237309503
10
-124.6812495083104
20
59.149998412052028
10
-130.68124950831034
20
59.149998412052028
42
-0.41421356237309503
0
LWPOLYLINE
5
122
100
AcDbEntity
8
0
100
AcDbPolyline
90
8
70
1
43
0.0
10
-108.77499999999998
20
74.65000000000002
10
-108.77499999999998
20
61.649999999999999
42
-0.41421356237309503
10
-109.27499999999998
20
61.150000000000006
10
-122.27499999999995
20
61.150000000000006
42
-0.41421356237309503
10
-122.77499999999996
20
61.650000000000006
10
-122.77499999999996
20
74.65000000000002
42
-0.41421356237309503
10
-122.27499999999995
20
75.15000000000002
10
-109.27499999999998
20
75.15000000000002
42
-0.41421356237309503
0
LWPOLYLINE
5
123
100
AcDbEntity
8
0
100
AcDbPolyline
90
8
70
1
43
0.0
10
-62.768749766498111
20
59.149998512208235
10
-68.768749766498075
20
59.149998512208242
42
-0.41421356237309503
10
-69.268749766498075
20
59.649998512208242
10
-69.268749766498075
20
74.649998512208228
42
-0.41421356237309503
10
-68.768749766498075
20
75.149998512208228
10
-62.768749766498111
20
75.149998512208228
42
-0.41421356237309503
10
-62.268749766498111
20
74.649998512208228
10
-62.268749766498111
20
59.649998512208235
42
-0.41421356237309503
0
LWPOLYLINE
5
124
100
AcDbEntity
8
0
100
AcDbPolyline
90
8
70
1
43
0.0
10
-86.081249508310378
20
74.649998412051971
10
-86.081249508310378
20
59.649998412052028
42
-0.41421356237309503
10
-86.581249508310378
20
59.149998412052028
10
-92.581249508310393
20
59.149998412052028
42
-0.41421356237309503
10
-93.081249508310407
20
59.649998412052042
10
-93.081249508310364
20
74.649998412051971
42
-0.41421356237309503
10
-92.58124950831035
20
75.149998412051971
10
-86.581249508310378
20
75.149998412051971
42
-0.41421356237309503
0
LWPOLYLINE
5
125
100
AcDbEntity
8
0
100
AcDbPolyline
90
8
70
1
43
0.0
10
-84.174999999999983
20
75.15000000000002
10
-71.174999999999997
20
75.15000000000002
42
-0.41421356237309503
10
-70.674999999999997
20
74.65000000000002
10
-70.674999999999997
20
61.649999999999999
42
-0.41421356237309503
10
-71.174999999999997
20
61.150000000000006
10
-84.174999999999983
20
61.150000000000006
42
-0.41421356237309503
10
-84.674999999999997
20
61.650000000000006
10
-84.674999999999983
20
74.65000000000002
42
-0.41421356237309503
0
LWPOLYLINE
5
126
100
AcDbEntity
8
0
100
AcDbPolyline
90
48
70
1
43
0.0
10
-159.40001603661889
20
-2.2500000000000004
10
-159.40001603661889
20
-0.50000000000000089
42
-0.41421356237309515
10
-157.40001603661889
20
1.5000000000000002
10
-36.049983963381024
20
1.5000000000000018
42
-0.41421356237309381
10
-34.049983963381024
20
-0.50000000000000033
10
-34.049983963381024
20
-2.25
42
0.99999999999999989
10
-32.049983963381003
20
-2.250000000000012
10
-32.04998396338101
20
-1.2500000000000044
42
-0.99999999999999989
10
-28.049983963381013
20
-1.25
10
-28.049983963381017
20
-2.25
42
0.99999999999999989
10
-26.049983963381017
20
-2.2500000000000031
10
-26.04998396338101
20
-0.50000000000000089
42
-0.41421356237309515
10
-24.04998396338101
20
1.4999999999999996
10
-4.4999999999999929
20
1.5000000000000002
42
0.41421356237309498
10
-1.4999999999999925
20
4.5000000000000009
10
-1.4999999999999913
20
74.650000000000105
42
0.41421356237308865
10
-4.499999999999992
20
77.650000000000091
10
-24.049983963381013
20
77.650000000000105
42
-0.41421356237309503
10
-26.049983963381017
20
79.650000000000105
10
-26.049983963381017
20
81.40000000000002
42
0.99999999999999989
10
-28.049983963381017
20
81.400000000000006
10
-28.049983963381013
20
80.400000000000034
42
-0.99999999999999989
10
-32.04998396338101
20
80.400000000000034
10
-32.049983963381003
20
81.40000000000002
42
0.99999999999999989
10
-34.049983963381017
20
81.40000000000002
10
-34.049983963381024
20
79.650000000000105
42
-0.41421356237309503
10
-36.049983963381024
20
77.650000000000105
10
-157.40001603661889
20
77.650000000000119
42
-0.41421356237309503
10
-159.40001603661889
20
79.650000000000105
10
-159.40001603661889
20
81.400000000000006
42
0.99999999999999989
10
-161.40001603661887
20
81.400000000000006
10
-161.40001603661889
20
80.400000000000034
42
-0.99999999999999989
10
-165.40001603661889
20
80.399999999999991
10
-165.40001603661889
20
81.400000000000006
42
0.99999999999999989
10
-167.40001603661887
20
81.399999999999935
10
-167.40001603661887
20
79.650000000000119
42
-0.41421356237309503
10
-169.40001603661887
20
77.650000000000119
10
-188.94999999999993
20
77.650000000000105
42
0.41421356237309076
10
-191.94999999999996
20
74.650000000000105
10
-191.94999999999993
20
4.5000000000000018
42
0.41421356237308932
10
-188.94999999999996
20
1.4999999999999825
10
-169.40001603661884
20
1.4999999999999929
42
-0.41421356237309509
10
-167.40001603661884
20
-0.50000000000000011
10
-167.40001603661887
20
-2.25
42
0.99999999999999989
10
-165.40001603661895
20
-2.2499999999999365
10
-165.40001603661889
20
-1.2500000000000355
42
-0.99999999999999989
10
-161.40001603661889
20
-1.25
10
-161.40001603661889
20
-2.25
42
0.99999999999999989
0
LWPOLYLINE
5
127
100
AcDbEntity
8
0
100
AcDbPolyline
90
7
70
1
43
0.0
10
-150.84999999999994
20
75.150000000000034
10
-137.84999999999997
20
75.150000000000034
42
-0.41421356237309503
10
-137.34999999999997
20
74.650000000000034
10
-137.34999999999997
20
61.150000000000006
10
-150.84999999999994
20
61.150000000000006
42
-0.41421356237309503
10
-151.34999999999994
20
61.650000000000006
10
-151.34999999999994
20
74.650000000000048
42
-0.41421356237309503
0
LWPOLYLINE
5
128
100
AcDbEntity
8
0
100
AcDbPolyline
90
8
70
1
43
0.0
10
-188.94999999999993
20
17.999999999999972
10
-175.94999999999993
20
17.999999999999975
42
-0.41421356237309503
10
-175.4499999999999
20
17.499999999999968
10
-175.4499999999999
20
4.4999999999999707
42
-0.41421356237309503
10
-175.94999999999993
20
3.9999999999999636
10
-188.94999999999993
20
4.0000000000000178
42
-0.41421356237306317
10
-189.44999999999993
20
4.4999999999999707
10
-189.44999999999993
20
17.499999999999968
42
-0.41421356237309503
0
LWPOLYLINE
5
129
100
AcDbEntity
8
0
100
AcDbPolyline
90
8
70
1
43
0.0
10
-112.74999999999991
20
17.999999999999972
10
-99.749999999999915
20
17.999999999999975
42
-0.41421356237309503
10
-99.249999999999901
20
17.499999999999968
10
-99.249999999999901
20
4.4999999999999707
42
-0.41421356237309503
10
-99.749999999999915
20
3.9999999999999636
10
-112.74999999999991
20
3.9999999999999636
42
-0.41421356237309503
10
-113.24999999999991
20
4.4999999999999707
10
-113.24999999999991
20
17.499999999999968
42
-0.41421356237309503
0
LWPOLYLINE
5
130
100
AcDbEntity
8
0
100
AcDbPolyline
90
8
70
1
43
0.0
10
-36.549999999999883
20
17.999999999999972
10
-23.549999999999898
20
17.999999999999972
42
-0.41421356237309503
10
-23.049999999999894
20
17.499999999999968
10
-23.049999999999898
20
4.4999999999999707
42
-0.41421356237309503
10
-23.549999999999898
20
3.9999999999999725
10
-36.549999999999883
20
3.9999999999999725
42
-0.41421356237309503
10
-37.049999999999883
20
4.4999999999999707
10
-37.049999999999891
20
17.499999999999968
42
-0.41421356237309503
0
LWPOLYLINE
5
131
100
AcDbEntity
8
0
100
AcDbPolyline
90
8
70
1
43
0.0
10
-55.599999999999895
20
17.999999999999972
10
-42.599999999999909
20
17.999999999999975
42
-0.41421356237309503
10
-42.099999999999902
20
17.499999999999968
10
-42.099999999999909
20
4.4999999999999707
42
-0.41421356237309503
10
-42.599999999999909
20
3.9999999999999725
10
-55.599999999999895
20
3.9999999999999725
42
-0.41421356237309503
10
-56.099999999999895
20
4.4999999999999707
10
-56.099999999999909
20
17.499999999999968
42
-0.41421356237309503
0
LWPOLYLINE
5
132
100
AcDbEntity
8
0
100
AcDbPolyline
90
8
70
1
43
0.0
10
-131.7999999999999
20
17.999999999999972
10
-118.79999999999993
20
17.999999999999975
42
-0.41421356237309503
10
-118.29999999999991
20
17.499999999999968
10
-118.29999999999991
20
4.4999999999999707
42
-0.41421356237309503
10
-118.79999999999993
20
3.9999999999999636
10
-131.7999999999999
20
3.9999999999999636
42
-0.41421356237309503
10
-132.29999999999993
20
4.4999999999999707
10
-132.29999999999993
20
17.499999999999968
42
-0.41421356237309503
0
LWPOLYLINE
5
133
100
AcDbEntity
8
0
100
AcDbPolyline
90
8
70
1
43
0.0
10
-169.89999999999992
20
17.999999999999972
10
-156.89999999999992
20
17.999999999999975
42
-0.41421356237309503
10
-156.39999999999989
20
17.499999999999968
10
-156.39999999999989
20
4.4999999999999707
42
-0.41421356237309503
10
-156.89999999999992
20
3.9999999999999636
10
-169.89999999999992
20
3.9999999999999636
42
-0.41421356237309503
10
-170.39999999999992
20
4.4999999999999707
10
-170.39999999999992
20
17.499999999999968
42
-0.41421356237309503
0
LWPOLYLINE
5
134
100
AcDbEntity
8
0
100
AcDbPolyline
90
8
70
1
43
0.0
10
-93.699999999999903
20
17.999999999999972
10
-80.699999999999903
20
17.999999999999975
42
-0.41421356237309503
10
-80.199999999999889
20
17.499999999999968
10
-80.199999999999889
20
4.4999999999999707
42
-0.41421356237309503
10
-80.699999999999903
20
3.9999999999999636
10
-93.699999999999903
20
3.9999999999999636
42
-0.41421356237309503
10
-94.199999999999903
20
4.4999999999999707
10
-94.199999999999903
20
17.499999999999968
42
-0.41421356237309503
0
LWPOLYLINE
5
135
100
AcDbEntity
8
0
100
AcDbPolyline
90
8
70
1
43
0.0
10
-17.499999999999893
20
17.999999999999972
10
-4.4999999999999218
20
17.999999999999972
42
-0.41421356237309503
10
-3.9999999999999192
20
17.499999999999968
10
-3.9999999999999631
20
4.4999999999999707
42
-0.41421356237303519
10
-4.4999999999999218
20
3.9999999999999707
10
-17.499999999999893
20
3.9999999999999702
42
-0.41421356237309503
10
-17.999999999999893
20
4.4999999999999707
10
-17.999999999999897
20
17.499999999999968
42
-0.41421356237309503
0
LWPOLYLINE
5
136
100
AcDbEntity
8
0
100
AcDbPolyline
90
8
70
1
43
0.0
10
-74.649999999999892
20
17.999999999999972
10
-61.64999999999992
20
17.999999999999975
42
-0.41421356237309503
10
-61.149999999999913
20
17.499999999999968
10
-61.14999999999992
20
4.4999999999999707
42
-0.41421356237309503
10
-61.64999999999992
20
3.9999999999999725
10
-74.649999999999892
20
3.9999999999999725
42
-0.41421356237309503
10
-75.149999999999892
20
4.4999999999999707
10
-75.149999999999892
20
17.499999999999968
42
-0.41421356237309503
0
LWPOLYLINE
5
137
100
AcDbEntity
8
0
100
AcDbPolyline
90
8
70
1
43
0.0
10
-150.84999999999991
20
17.999999999999972
10
-137.84999999999991
20
17.999999999999975
42
-0.41421356237309503
10
-137.34999999999988
20
17.499999999999968
10
-137.34999999999988
20
4.4999999999999707
42
-0.41421356237309503
10
-137.84999999999991
20
3.9999999999999636
10
-150.84999999999991
20
3.9999999999999636
42
-0.41421356237309503
10
-151.34999999999991
20
4.4999999999999707
10
-151.34999999999991
20
17.499999999999968
42
-0.41421356237309503
0
LWPOLYLINE
5
138
100
AcDbEntity
8
0
100
AcDbPolyline
90
8
70
1
43
0.0
10
-147.37499999999989
20
42.099999999999973
10
-160.37499999999991
20
42.099999999999966
42
-0.41421356237309503
10
-160.87499999999991
20
42.599999999999973
10
-160.87499999999991
20
55.59999999999998
42
-0.41421356237309503
10
-160.37499999999991
20
56.099999999999987
10
-147.37499999999989
20
56.099999999999987
42
-0.41421356237309503
10
-146.87499999999989
20
55.59999999999998
10
-146.87499999999989
20
42.599999999999973
42
-0.41421356237309503
0
LWPOLYLINE
5
139
100
AcDbEntity
8
0
100
AcDbPolyline
90
8
70
1
43
0.0
10
-90.224999999999909
20
42.099999999999973
10
-103.22499999999991
20
42.099999999999966
42
-0.41421356237309503
10
-103.72499999999991
20
42.599999999999973
10
-103.72499999999991
20
55.59999999999998
42
-0.41421356237309503
10
-103.22499999999991
20
56.099999999999987
10
-90.224999999999909
20
56.099999999999987
42
-0.41421356237309503
10
-89.724999999999895
20
55.59999999999998
10
-89.724999999999895
20
42.599999999999973
42
-0.41421356237309503
0
LWPOLYLINE
5
140
100
AcDbEntity
8
0
100
AcDbPolyline
90
8
70
1
43
0.0
10
-131.7999999999999
20
37.049999999999969
10
-118.79999999999993
20
37.049999999999976
42
-0.41421356237309503
10
-118.29999999999991
20
36.549999999999969
10
-118.29999999999991
20
23.549999999999969
42
-0.41421356237309503
10
-118.79999999999993
20
23.049999999999962
10
-131.7999999999999
20
23.049999999999979
42
-0.41421356237309503
10
-132.2999999999999
20
23.549999999999969
10
-132.2999999999999
20
36.549999999999969
42
-0.41421356237309503
0
LWPOLYLINE
5
141
100
AcDbEntity
8
0
100
AcDbPolyline
90
8
70
1
43
0.0
10
-171.18749999999991
20
42.099999999999973
10
-184.18749999999991
20
42.099999999999966
42
-0.41421356237309503
10
-184.68749999999994
20
42.599999999999973
10
-184.68749999999994
20
55.59999999999998
42
-0.41421356237309503
10
-184.18749999999991
20
56.099999999999987
10
-171.18749999999991
20
56.099999999999987
42
-0.41421356237309503
10
-170.68749999999991
20
55.59999999999998
10
-170.68749999999991
20
42.599999999999973
42
-0.41421356237309503
0
ENDSEC
0
SECTION
2
OBJECTS
0
DICTIONARY
5
C
100
AcDbDictionary
3
ACAD_GROUP
350
D
3
ACAD_MLINESTYLE
350
17
0
DICTIONARY
5
D
100
AcDbDictionary
0
DICTIONARY
5
1A
330
C
100
AcDbDictionary
0
DICTIONARY
5
17
100
AcDbDictionary
0
ENDSEC
0
EOF
