%TF.GenerationSoftware,KiCad,Pcbnew,8.0.5*%
%TF.CreationDate,2024-10-22T20:51:29-04:00*%
%TF.ProjectId,trad,74726164-2e6b-4696-9361-645f70636258,rev?*%
%TF.SameCoordinates,PX1c62fe0PY650e7e0*%
%TF.FileFunction,Soldermask,Top*%
%TF.FilePolarity,Negative*%
%FSLAX46Y46*%
G04 Gerber Fmt 4.6, Leading zero omitted, Abs format (unit mm)*
G04 Created by KiCad (PCBNEW 8.0.5) date 2024-10-22 20:51:29*
%MOMM*%
%LPD*%
G01*
G04 APERTURE LIST*
%ADD10C,1.750000*%
%ADD11C,4.000000*%
%ADD12C,3.987800*%
%ADD13C,3.048000*%
%ADD14R,1.700000X1.700000*%
%ADD15O,1.700000X1.700000*%
G04 APERTURE END LIST*
D10*
%TO.C,MX26*%
X133032385Y28574976D03*
D11*
X138112384Y28574976D03*
D10*
X143192383Y28574976D03*
%TD*%
%TO.C,MX11*%
X6826240Y47624959D03*
D11*
X11906239Y47624959D03*
D10*
X16986238Y47624959D03*
%TD*%
%TO.C,MX27*%
X152082369Y28574976D03*
D11*
X157162368Y28574976D03*
D10*
X162242367Y28574976D03*
%TD*%
%TO.C,MX10*%
X175894850Y66674943D03*
D11*
X180974849Y66674943D03*
D10*
X186054848Y66674943D03*
%TD*%
%TO.C,MX36*%
X175894849Y9524992D03*
D11*
X180974848Y9524992D03*
D10*
X186054847Y9524992D03*
%TD*%
%TO.C,MX32*%
X71119937Y9524992D03*
D11*
X76199936Y9524992D03*
D10*
X81279935Y9524992D03*
%TD*%
%TO.C,MX2*%
X23494977Y66674943D03*
D11*
X28574976Y66674943D03*
D10*
X33654975Y66674943D03*
%TD*%
%TO.C,MX28*%
X173513601Y28574975D03*
D11*
X178593600Y28574975D03*
D10*
X183673599Y28574975D03*
%TD*%
%TO.C,MX24*%
X94932417Y28574975D03*
D11*
X100012416Y28574975D03*
D10*
X105092415Y28574975D03*
%TD*%
%TO.C,MX19*%
X168751105Y47624959D03*
D11*
X173831104Y47624959D03*
D10*
X178911103Y47624959D03*
%TD*%
%TO.C,MX34*%
X137794880Y9524992D03*
D11*
X142874879Y9524992D03*
D10*
X147954878Y9524992D03*
%TD*%
D12*
%TO.C,S2*%
X126206155Y17779992D03*
D13*
X126206154Y2539992D03*
X102393654Y2539992D03*
D12*
X102393653Y17779992D03*
%TD*%
D10*
%TO.C,MX22*%
X56832449Y28574975D03*
D11*
X61912448Y28574975D03*
D10*
X66992447Y28574975D03*
%TD*%
%TO.C,MX23*%
X75882433Y28574975D03*
D11*
X80962432Y28574975D03*
D10*
X86042431Y28574975D03*
%TD*%
%TO.C,MX3*%
X42544960Y66674943D03*
D11*
X47624959Y66674943D03*
D10*
X52704958Y66674943D03*
%TD*%
%TO.C,MX30*%
X23494977Y9524992D03*
D11*
X28574976Y9524992D03*
D10*
X33654975Y9524992D03*
%TD*%
%TO.C,MX15*%
X85407425Y47624960D03*
D11*
X90487424Y47624960D03*
D10*
X95567423Y47624960D03*
%TD*%
%TO.C,MX1*%
X4444993Y66674943D03*
D11*
X9524992Y66674943D03*
D10*
X14604991Y66674943D03*
%TD*%
%TO.C,MX4*%
X61594944Y66674943D03*
D11*
X66674943Y66674943D03*
D10*
X71754942Y66674943D03*
%TD*%
D12*
%TO.C,S1*%
X88106187Y17779992D03*
D13*
X88106186Y2539992D03*
X64293686Y2539992D03*
D12*
X64293685Y17779992D03*
%TD*%
D10*
%TO.C,MX6*%
X99694913Y66674943D03*
D11*
X104774912Y66674943D03*
D10*
X109854911Y66674943D03*
%TD*%
%TO.C,MX5*%
X80644929Y66674943D03*
D11*
X85724928Y66674943D03*
D10*
X90804927Y66674943D03*
%TD*%
%TO.C,MX14*%
X66357441Y47624960D03*
D11*
X71437440Y47624960D03*
D10*
X76517439Y47624960D03*
%TD*%
%TO.C,MX35*%
X156844865Y9524992D03*
D11*
X161924864Y9524992D03*
D10*
X167004863Y9524992D03*
%TD*%
%TO.C,MX8*%
X137794881Y66674943D03*
D11*
X142874880Y66674943D03*
D10*
X147954879Y66674943D03*
%TD*%
%TO.C,MX20*%
X11588737Y28574976D03*
D11*
X16668736Y28574976D03*
D10*
X21748735Y28574976D03*
%TD*%
%TO.C,MX7*%
X118744897Y66674943D03*
D11*
X123824896Y66674943D03*
D10*
X128904895Y66674943D03*
%TD*%
%TO.C,MX16*%
X104457408Y47624959D03*
D11*
X109537407Y47624959D03*
D10*
X114617406Y47624959D03*
%TD*%
%TO.C,MX12*%
X28257473Y47624959D03*
D11*
X33337472Y47624959D03*
D10*
X38417471Y47624959D03*
%TD*%
%TO.C,MX9*%
X156844865Y66674943D03*
D11*
X161924864Y66674943D03*
D10*
X167004863Y66674943D03*
%TD*%
%TO.C,MX21*%
X37782465Y28574976D03*
D11*
X42862464Y28574976D03*
D10*
X47942463Y28574976D03*
%TD*%
%TO.C,MX29*%
X4444993Y9524992D03*
D11*
X9524992Y9524992D03*
D10*
X14604991Y9524992D03*
%TD*%
%TO.C,MX33*%
X109219905Y9524992D03*
D11*
X114299904Y9524992D03*
D10*
X119379903Y9524992D03*
%TD*%
%TO.C,MX31*%
X42544961Y9524992D03*
D11*
X47624960Y9524992D03*
D10*
X52704959Y9524992D03*
%TD*%
%TO.C,MX17*%
X123507393Y47624959D03*
D11*
X128587392Y47624959D03*
D10*
X133667391Y47624959D03*
%TD*%
%TO.C,MX13*%
X47307457Y47624959D03*
D11*
X52387456Y47624959D03*
D10*
X57467455Y47624959D03*
%TD*%
%TO.C,MX25*%
X113982401Y28574976D03*
D11*
X119062400Y28574976D03*
D10*
X124142399Y28574976D03*
%TD*%
%TO.C,MX18*%
X142557377Y47624959D03*
D11*
X147637376Y47624959D03*
D10*
X152717375Y47624959D03*
%TD*%
D14*
%TO.C,J2*%
X1785936Y33649975D03*
D15*
X1785936Y31109975D03*
X1785936Y28569976D03*
X1785936Y26029975D03*
X1785936Y23489975D03*
%TD*%
M02*
