%TF.GenerationSoftware,KiCad,Pcbnew,8.0.5*%
%TF.CreationDate,2024-10-22T20:47:20-04:00*%
%TF.ProjectId,ortho,6f727468-6f2e-46b6-9963-61645f706362,rev?*%
%TF.SameCoordinates,PX1c62fe0PY650e7e0*%
%TF.FileFunction,Legend,Top*%
%TF.FilePolarity,Positive*%
%FSLAX46Y46*%
G04 Gerber Fmt 4.6, Leading zero omitted, Abs format (unit mm)*
G04 Created by KiCad (PCBNEW 8.0.5) date 2024-10-22 20:47:20*
%MOMM*%
%LPD*%
G01*
G04 APERTURE LIST*
%ADD10C,0.000000*%
%ADD11C,1.750000*%
%ADD12C,4.000000*%
%ADD13C,3.987800*%
%ADD14C,3.048000*%
%ADD15R,1.700000X1.700000*%
%ADD16O,1.700000X1.700000*%
G04 APERTURE END LIST*
D10*
G36*
X21088161Y47343328D02*
G01*
X12272431Y47343328D01*
X12272431Y49737888D01*
X20544018Y49737888D01*
X21088161Y47343328D01*
G37*
G36*
X35501909Y47343328D02*
G01*
X26892313Y47343328D01*
X27436456Y49737888D01*
X35501909Y49737888D01*
X35501909Y47343328D01*
G37*
G36*
X21654254Y44852278D02*
G01*
X12272433Y44852278D01*
X12272433Y47053941D01*
X21154005Y47053941D01*
X21654254Y44852278D01*
G37*
G36*
X35501909Y44852278D02*
G01*
X26326225Y44852278D01*
X26826568Y47053941D01*
X35501909Y47053941D01*
X35501909Y44852278D01*
G37*
G36*
X22220342Y42361225D02*
G01*
X17880819Y42361225D01*
X17777008Y42890227D01*
X17679994Y43411043D01*
X17590742Y43919582D01*
X17510216Y44411758D01*
X17533516Y43411286D01*
X17548553Y42361225D01*
X12272433Y42361225D01*
X12272433Y44466394D01*
X21741949Y44466394D01*
X22220342Y42361225D01*
G37*
G36*
X35501909Y42361225D02*
G01*
X30225692Y42361225D01*
X30240764Y43411286D01*
X30264032Y44411758D01*
X30176915Y43918788D01*
X30082029Y43410173D01*
X29980285Y42889718D01*
X29872595Y42361225D01*
X25760137Y42361225D01*
X26238527Y44466394D01*
X35501909Y44466394D01*
X35501909Y42361225D01*
G37*
G36*
X29601355Y41088010D02*
G01*
X29411519Y40249294D01*
X29322061Y39870172D01*
X25194047Y39870172D01*
X25650490Y41878851D01*
X29772672Y41878851D01*
X29601355Y41088010D01*
G37*
G36*
X22786435Y39870174D02*
G01*
X18420794Y39870174D01*
X18334859Y40236423D01*
X18147149Y41076990D01*
X17977404Y41878851D01*
X17977409Y41878853D01*
X22329989Y41878853D01*
X22786435Y39870174D01*
G37*
G36*
X17561704Y41076528D02*
G01*
X17566425Y39870172D01*
X12272431Y39870172D01*
X12272431Y41878851D01*
X17553552Y41878851D01*
X17561704Y41076528D01*
G37*
G36*
X35501906Y39870172D02*
G01*
X30207913Y39870172D01*
X30212544Y41076990D01*
X30220784Y41878851D01*
X35501906Y41878851D01*
X35501906Y39870172D01*
G37*
G36*
X29014435Y38602305D02*
G01*
X28850248Y37963084D01*
X28697174Y37379121D01*
X24627959Y37379121D01*
X25062458Y39291398D01*
X29184178Y39291398D01*
X29014435Y38602305D01*
G37*
G36*
X23352517Y37379121D02*
G01*
X19049666Y37379121D01*
X18894554Y37963084D01*
X18812714Y38273940D01*
X18729060Y38599980D01*
X18644069Y38939650D01*
X18558218Y39291398D01*
X22918022Y39291398D01*
X23352517Y37379121D01*
G37*
G36*
X17569114Y37379121D02*
G01*
X12272433Y37379121D01*
X12272433Y39291398D01*
X17568278Y39291398D01*
X17569114Y37379121D01*
G37*
G36*
X35501909Y37379121D02*
G01*
X30205230Y37379121D01*
X30206063Y39291398D01*
X35501909Y39291398D01*
X35501909Y37379121D01*
G37*
G36*
X28044216Y34888068D02*
G01*
X24061869Y34888068D01*
X24474514Y36703851D01*
X28520203Y36703851D01*
X28044216Y34888068D01*
G37*
G36*
X23918701Y34888068D02*
G01*
X19711233Y34888068D01*
X19228949Y36703851D01*
X23506059Y36703851D01*
X23918701Y34888068D01*
G37*
G36*
X17569114Y34888068D02*
G01*
X12272432Y34888068D01*
X12272432Y36703851D01*
X17569114Y36703851D01*
X17569114Y34888068D01*
G37*
G36*
X35501909Y34888068D02*
G01*
X30205230Y34888068D01*
X30205230Y36703851D01*
X35501909Y36703851D01*
X35501909Y34888068D01*
G37*
G36*
X35501909Y32396925D02*
G01*
X30205230Y32396925D01*
X30205230Y34116304D01*
X35501909Y34116304D01*
X35501909Y32396925D01*
G37*
G36*
X27391173Y32397021D02*
G01*
X20372890Y32397021D01*
X19916260Y34116307D01*
X27841878Y34116307D01*
X27391173Y32397021D01*
G37*
G36*
X17569114Y32396925D02*
G01*
X12272432Y32396925D01*
X12272432Y34116304D01*
X17569114Y34116304D01*
X17569114Y32396925D01*
G37*
G36*
X17569114Y29423687D02*
G01*
X12272432Y29423687D01*
X12272432Y31528857D01*
X17569114Y31528857D01*
X17569114Y29423687D01*
G37*
G36*
X35501909Y29423687D02*
G01*
X30205230Y29423687D01*
X30205230Y31528857D01*
X35501909Y31528857D01*
X35501909Y29423687D01*
G37*
G36*
X26611722Y29423591D02*
G01*
X21162617Y29423591D01*
X20603475Y31528857D01*
X27163553Y31528857D01*
X26611722Y29423591D01*
G37*
G36*
X176600746Y25878829D02*
G01*
X176648680Y25876434D01*
X176695261Y25872467D01*
X176740483Y25866950D01*
X176784341Y25859905D01*
X176826830Y25851353D01*
X176867945Y25841315D01*
X176907681Y25829812D01*
X176946033Y25816866D01*
X176982995Y25802497D01*
X177018564Y25786729D01*
X177052734Y25769580D01*
X177085499Y25751074D01*
X177116855Y25731230D01*
X177146797Y25710071D01*
X177175320Y25687618D01*
X177202418Y25663892D01*
X177228087Y25638914D01*
X177252321Y25612706D01*
X177275116Y25585289D01*
X177296466Y25556684D01*
X177316367Y25526912D01*
X177334813Y25495996D01*
X177351800Y25463955D01*
X177367321Y25430812D01*
X177381373Y25396587D01*
X177393950Y25361303D01*
X177405048Y25324980D01*
X177414660Y25287639D01*
X177422783Y25249302D01*
X177429410Y25209991D01*
X177434538Y25169726D01*
X177434538Y25169721D01*
X177440672Y25076087D01*
X177445043Y24978087D01*
X177447660Y24866074D01*
X177448530Y24730405D01*
X177448530Y23332824D01*
X176934938Y23332824D01*
X176934938Y24674291D01*
X176934792Y24760623D01*
X176933771Y24846070D01*
X176932659Y24889282D01*
X176931000Y24933255D01*
X176928684Y24978318D01*
X176925603Y25024799D01*
X176919726Y25076378D01*
X176910780Y25125820D01*
X176898655Y25172961D01*
X176883241Y25217636D01*
X176874266Y25238998D01*
X176864428Y25259681D01*
X176853713Y25279666D01*
X176842107Y25298932D01*
X176829597Y25317458D01*
X176816168Y25335225D01*
X176801808Y25352210D01*
X176786502Y25368394D01*
X176770237Y25383756D01*
X176752998Y25398276D01*
X176734773Y25411934D01*
X176715548Y25424707D01*
X176695308Y25436577D01*
X176674041Y25447523D01*
X176651732Y25457523D01*
X176628367Y25466558D01*
X176603934Y25474607D01*
X176578418Y25481650D01*
X176551806Y25487665D01*
X176524084Y25492633D01*
X176495238Y25496532D01*
X176465254Y25499343D01*
X176434120Y25501044D01*
X176401820Y25501616D01*
X176336019Y25498276D01*
X176272078Y25488048D01*
X176210328Y25470616D01*
X176151096Y25445666D01*
X176094713Y25412882D01*
X176067692Y25393455D01*
X176041507Y25371951D01*
X176016198Y25348332D01*
X175991806Y25322558D01*
X175968373Y25294590D01*
X175945941Y25264388D01*
X175924549Y25231913D01*
X175904239Y25197125D01*
X175867030Y25120456D01*
X175834643Y25034066D01*
X175807407Y24937640D01*
X175785651Y24830863D01*
X175769703Y24713421D01*
X175759893Y24584999D01*
X175756550Y24445282D01*
X175756550Y23332824D01*
X175242979Y23332824D01*
X175242979Y25814248D01*
X175756550Y25814248D01*
X175756550Y25403462D01*
X175924907Y25688221D01*
X175961587Y25714986D01*
X175998055Y25739331D01*
X176034426Y25761352D01*
X176070817Y25781145D01*
X176107345Y25798804D01*
X176144125Y25814426D01*
X176181275Y25828107D01*
X176218911Y25839941D01*
X176257149Y25850025D01*
X176296106Y25858454D01*
X176335898Y25865323D01*
X176376641Y25870730D01*
X176418453Y25874768D01*
X176461450Y25877534D01*
X176505748Y25879124D01*
X176551463Y25879633D01*
X176600746Y25878829D01*
G37*
G36*
X173609040Y25877944D02*
G01*
X173683469Y25872947D01*
X173755505Y25864716D01*
X173825145Y25853331D01*
X173892386Y25838869D01*
X173957224Y25821412D01*
X174019657Y25801038D01*
X174079681Y25777827D01*
X174137293Y25751857D01*
X174192490Y25723209D01*
X174245268Y25691961D01*
X174295625Y25658194D01*
X174343557Y25621986D01*
X174389060Y25583416D01*
X174432132Y25542565D01*
X174472769Y25499511D01*
X174510969Y25454334D01*
X174546727Y25407113D01*
X174580041Y25357928D01*
X174610908Y25306857D01*
X174639324Y25253981D01*
X174665285Y25199378D01*
X174688790Y25143128D01*
X174709834Y25085310D01*
X174728414Y25026004D01*
X174744528Y24965289D01*
X174758171Y24903245D01*
X174769341Y24839950D01*
X174784248Y24709926D01*
X174789223Y24575854D01*
X174787978Y24508338D01*
X174784248Y24441729D01*
X174778034Y24376109D01*
X174769341Y24311559D01*
X174758171Y24248159D01*
X174744528Y24185991D01*
X174728414Y24125136D01*
X174709834Y24065674D01*
X174688790Y24007687D01*
X174665285Y23951256D01*
X174639324Y23896462D01*
X174610908Y23843386D01*
X174580041Y23792108D01*
X174546727Y23742711D01*
X174510969Y23695275D01*
X174472769Y23649881D01*
X174432132Y23606611D01*
X174389060Y23565544D01*
X174343557Y23526763D01*
X174295625Y23490348D01*
X174245268Y23456381D01*
X174192490Y23424942D01*
X174137293Y23396113D01*
X174079681Y23369974D01*
X174019657Y23346607D01*
X173957224Y23326092D01*
X173892386Y23308512D01*
X173825145Y23293946D01*
X173755505Y23282475D01*
X173683469Y23274182D01*
X173609040Y23269147D01*
X173532222Y23267450D01*
X173454986Y23269147D01*
X173380193Y23274182D01*
X173307843Y23282475D01*
X173237936Y23293946D01*
X173170474Y23308512D01*
X173105456Y23326093D01*
X173042884Y23346608D01*
X172982758Y23369975D01*
X172925079Y23396114D01*
X172869847Y23424943D01*
X172817063Y23456382D01*
X172766728Y23490350D01*
X172718842Y23526765D01*
X172673405Y23565546D01*
X172630420Y23606613D01*
X172589885Y23649883D01*
X172551802Y23695277D01*
X172516172Y23742713D01*
X172482994Y23792111D01*
X172452271Y23843388D01*
X172424001Y23896464D01*
X172398187Y23951258D01*
X172374828Y24007689D01*
X172353925Y24065676D01*
X172335479Y24125138D01*
X172319490Y24185993D01*
X172305960Y24248161D01*
X172294888Y24311561D01*
X172280123Y24441730D01*
X172275200Y24575854D01*
X172816755Y24575854D01*
X172817521Y24523805D01*
X172819807Y24472887D01*
X172823603Y24423133D01*
X172828894Y24374578D01*
X172835668Y24327256D01*
X172843913Y24281202D01*
X172853615Y24236448D01*
X172864762Y24193031D01*
X172877340Y24150983D01*
X172891337Y24110340D01*
X172906740Y24071135D01*
X172923536Y24033403D01*
X172941712Y23997177D01*
X172961256Y23962493D01*
X172982154Y23929384D01*
X173004394Y23897885D01*
X173027963Y23868030D01*
X173052848Y23839852D01*
X173079036Y23813387D01*
X173106514Y23788668D01*
X173135270Y23765730D01*
X173165290Y23744608D01*
X173196563Y23725334D01*
X173229074Y23707944D01*
X173262811Y23692471D01*
X173297761Y23678951D01*
X173333912Y23667416D01*
X173371250Y23657902D01*
X173409763Y23650443D01*
X173449438Y23645072D01*
X173490262Y23641825D01*
X173532222Y23640735D01*
X173573751Y23641825D01*
X173614171Y23645072D01*
X173653468Y23650443D01*
X173691628Y23657902D01*
X173728638Y23667416D01*
X173764484Y23678951D01*
X173799152Y23692471D01*
X173832628Y23707944D01*
X173864899Y23725334D01*
X173895952Y23744608D01*
X173925772Y23765730D01*
X173954345Y23788668D01*
X173981658Y23813387D01*
X174007698Y23839852D01*
X174032449Y23868030D01*
X174055900Y23897885D01*
X174078036Y23929384D01*
X174098843Y23962493D01*
X174118307Y23997177D01*
X174136416Y24033403D01*
X174168509Y24110340D01*
X174195014Y24193031D01*
X174215819Y24281202D01*
X174230816Y24374578D01*
X174239895Y24472887D01*
X174242946Y24575854D01*
X174242181Y24627889D01*
X174239895Y24678768D01*
X174236102Y24728458D01*
X174230816Y24776926D01*
X174224051Y24824142D01*
X174215819Y24870070D01*
X174206136Y24914680D01*
X174195014Y24957939D01*
X174182467Y24999814D01*
X174168509Y25040273D01*
X174153154Y25079282D01*
X174136416Y25116811D01*
X174118307Y25152826D01*
X174098843Y25187294D01*
X174078036Y25220184D01*
X174055900Y25251462D01*
X174032449Y25281097D01*
X174007698Y25309055D01*
X173981658Y25335304D01*
X173954345Y25359812D01*
X173925772Y25382546D01*
X173895952Y25403474D01*
X173864899Y25422563D01*
X173832628Y25439780D01*
X173799152Y25455094D01*
X173764484Y25468472D01*
X173728638Y25479880D01*
X173691628Y25489287D01*
X173653468Y25496660D01*
X173614171Y25501967D01*
X173573751Y25505175D01*
X173532222Y25506252D01*
X173490262Y25505175D01*
X173449438Y25501967D01*
X173409763Y25496660D01*
X173371250Y25489287D01*
X173333912Y25479880D01*
X173297761Y25468472D01*
X173262811Y25455094D01*
X173229074Y25439780D01*
X173196563Y25422563D01*
X173165290Y25403474D01*
X173135270Y25382546D01*
X173106514Y25359812D01*
X173079036Y25335304D01*
X173052848Y25309055D01*
X173027963Y25281097D01*
X173004394Y25251462D01*
X172982154Y25220184D01*
X172961256Y25187294D01*
X172941712Y25152826D01*
X172923536Y25116811D01*
X172891337Y25040273D01*
X172864762Y24957939D01*
X172843913Y24870070D01*
X172828894Y24776926D01*
X172819807Y24678768D01*
X172816755Y24575854D01*
X172275200Y24575854D01*
X172280123Y24709926D01*
X172286275Y24775484D01*
X172294888Y24839950D01*
X172305960Y24903245D01*
X172319490Y24965289D01*
X172335479Y25026004D01*
X172353925Y25085310D01*
X172374828Y25143128D01*
X172398187Y25199378D01*
X172424001Y25253981D01*
X172452271Y25306857D01*
X172482994Y25357928D01*
X172516172Y25407113D01*
X172551802Y25454334D01*
X172589885Y25499511D01*
X172630420Y25542565D01*
X172673405Y25583416D01*
X172718842Y25621986D01*
X172766728Y25658194D01*
X172817063Y25691961D01*
X172869847Y25723209D01*
X172925079Y25751857D01*
X172982758Y25777827D01*
X173042884Y25801038D01*
X173105456Y25821412D01*
X173170474Y25838869D01*
X173237936Y25853331D01*
X173307843Y25864716D01*
X173380193Y25872947D01*
X173454986Y25877944D01*
X173532222Y25879627D01*
X173609040Y25877944D01*
G37*
G36*
X171560994Y26678531D02*
G01*
X171576796Y26677440D01*
X171592320Y26675642D01*
X171607550Y26673150D01*
X171622469Y26669981D01*
X171637061Y26666150D01*
X171651309Y26661673D01*
X171665198Y26656564D01*
X171678712Y26650840D01*
X171691833Y26644515D01*
X171704546Y26637606D01*
X171716834Y26630127D01*
X171728681Y26622094D01*
X171740071Y26613522D01*
X171750988Y26604427D01*
X171761415Y26594825D01*
X171771336Y26584729D01*
X171780735Y26574157D01*
X171789595Y26563124D01*
X171797901Y26551644D01*
X171805636Y26539733D01*
X171812783Y26527407D01*
X171819327Y26514682D01*
X171825251Y26501571D01*
X171830540Y26488092D01*
X171835175Y26474259D01*
X171839143Y26460087D01*
X171842425Y26445593D01*
X171845006Y26430792D01*
X171846870Y26415698D01*
X171848000Y26400328D01*
X171848381Y26384696D01*
X171848000Y26368636D01*
X171846870Y26352864D01*
X171845006Y26337395D01*
X171842425Y26322243D01*
X171839143Y26307424D01*
X171835175Y26292951D01*
X171830540Y26278839D01*
X171825251Y26265103D01*
X171819327Y26251757D01*
X171812783Y26238816D01*
X171805636Y26226293D01*
X171797901Y26214205D01*
X171789595Y26202565D01*
X171780735Y26191387D01*
X171771336Y26180686D01*
X171761415Y26170478D01*
X171750988Y26160775D01*
X171740071Y26151594D01*
X171728681Y26142947D01*
X171716834Y26134851D01*
X171704546Y26127318D01*
X171691833Y26120365D01*
X171678712Y26114005D01*
X171665198Y26108252D01*
X171651309Y26103122D01*
X171637061Y26098629D01*
X171622469Y26094788D01*
X171607550Y26091612D01*
X171592320Y26089117D01*
X171576796Y26087317D01*
X171560994Y26086226D01*
X171544929Y26085859D01*
X171528868Y26086226D01*
X171513096Y26087317D01*
X171497625Y26089117D01*
X171482472Y26091612D01*
X171467650Y26094788D01*
X171453174Y26098629D01*
X171439059Y26103122D01*
X171425319Y26108252D01*
X171411970Y26114004D01*
X171399024Y26120364D01*
X171386497Y26127317D01*
X171374404Y26134849D01*
X171362759Y26142946D01*
X171351576Y26151592D01*
X171340871Y26160773D01*
X171330657Y26170476D01*
X171320950Y26180684D01*
X171311763Y26191385D01*
X171303112Y26202562D01*
X171295011Y26214203D01*
X171287474Y26226291D01*
X171280516Y26238813D01*
X171274151Y26251755D01*
X171268395Y26265101D01*
X171263262Y26278837D01*
X171258766Y26292949D01*
X171254921Y26307422D01*
X171251743Y26322242D01*
X171249246Y26337393D01*
X171247444Y26352863D01*
X171246352Y26368635D01*
X171245985Y26384696D01*
X171246352Y26400328D01*
X171247444Y26415698D01*
X171249246Y26430792D01*
X171251743Y26445593D01*
X171254921Y26460087D01*
X171258766Y26474259D01*
X171263262Y26488092D01*
X171268395Y26501571D01*
X171274151Y26514682D01*
X171280516Y26527407D01*
X171287474Y26539733D01*
X171295011Y26551644D01*
X171303112Y26563124D01*
X171311763Y26574157D01*
X171320950Y26584729D01*
X171330657Y26594825D01*
X171340871Y26604427D01*
X171351576Y26613522D01*
X171362759Y26622094D01*
X171374404Y26630127D01*
X171386497Y26637606D01*
X171399024Y26644515D01*
X171411970Y26650840D01*
X171425319Y26656564D01*
X171439059Y26661673D01*
X171453174Y26666150D01*
X171467650Y26669981D01*
X171482472Y26673150D01*
X171497625Y26675642D01*
X171513096Y26677440D01*
X171528868Y26678531D01*
X171544929Y26678898D01*
X171560994Y26678531D01*
G37*
G36*
X171801619Y23332835D02*
G01*
X171288112Y23332835D01*
X171288112Y25814157D01*
X171801619Y25814157D01*
X171801619Y23332835D01*
G37*
G36*
X169915024Y25878700D02*
G01*
X169966271Y25875911D01*
X170016033Y25871305D01*
X170064310Y25864917D01*
X170111100Y25856782D01*
X170156401Y25846934D01*
X170200212Y25835409D01*
X170242530Y25822242D01*
X170283355Y25807467D01*
X170322684Y25791119D01*
X170360517Y25773233D01*
X170396850Y25753845D01*
X170431684Y25732988D01*
X170465015Y25710698D01*
X170496843Y25687010D01*
X170527166Y25661959D01*
X170555983Y25635579D01*
X170583290Y25607905D01*
X170609088Y25578972D01*
X170633374Y25548816D01*
X170656147Y25517470D01*
X170677405Y25484971D01*
X170697147Y25451352D01*
X170715370Y25416649D01*
X170732073Y25380896D01*
X170747255Y25344128D01*
X170760914Y25306381D01*
X170773049Y25267689D01*
X170783656Y25228087D01*
X170792737Y25187610D01*
X170800287Y25146293D01*
X170806306Y25104170D01*
X170283272Y25104170D01*
X170272415Y25151987D01*
X170259156Y25197216D01*
X170243501Y25239791D01*
X170234777Y25260060D01*
X170225456Y25279641D01*
X170215540Y25298523D01*
X170205028Y25316698D01*
X170193923Y25334158D01*
X170182224Y25350894D01*
X170169932Y25366897D01*
X170157049Y25382159D01*
X170143575Y25396672D01*
X170129511Y25410426D01*
X170114858Y25423413D01*
X170099616Y25435624D01*
X170083786Y25447051D01*
X170067369Y25457686D01*
X170050367Y25467519D01*
X170032779Y25476542D01*
X170014607Y25484746D01*
X169995851Y25492124D01*
X169976512Y25498666D01*
X169956591Y25504363D01*
X169936089Y25509207D01*
X169915007Y25513190D01*
X169893345Y25516303D01*
X169871104Y25518537D01*
X169848286Y25519884D01*
X169824890Y25520335D01*
X169802461Y25519940D01*
X169780769Y25518765D01*
X169759814Y25516827D01*
X169739594Y25514140D01*
X169720106Y25510720D01*
X169701350Y25506582D01*
X169683323Y25501742D01*
X169666023Y25496215D01*
X169649450Y25490017D01*
X169633602Y25483163D01*
X169618476Y25475669D01*
X169604071Y25467549D01*
X169590385Y25458820D01*
X169577417Y25449497D01*
X169565164Y25439595D01*
X169553626Y25429130D01*
X169542800Y25418118D01*
X169532685Y25406573D01*
X169523279Y25394511D01*
X169514581Y25381947D01*
X169506588Y25368898D01*
X169499299Y25355378D01*
X169492713Y25341403D01*
X169486826Y25326989D01*
X169481639Y25312150D01*
X169477149Y25296903D01*
X169473354Y25281262D01*
X169470254Y25265243D01*
X169467845Y25248862D01*
X169466126Y25232135D01*
X169465096Y25215075D01*
X169464754Y25197700D01*
X169465288Y25177035D01*
X169466892Y25157113D01*
X169469567Y25137909D01*
X169473314Y25119399D01*
X169478132Y25101556D01*
X169484024Y25084357D01*
X169490990Y25067777D01*
X169499031Y25051790D01*
X169508147Y25036372D01*
X169518340Y25021498D01*
X169529610Y25007143D01*
X169541958Y24993282D01*
X169569894Y24966944D01*
X169602152Y24942283D01*
X169638740Y24919102D01*
X169679665Y24897201D01*
X169724934Y24876381D01*
X169774553Y24856444D01*
X169828530Y24837189D01*
X169886870Y24818419D01*
X169949581Y24799934D01*
X170016670Y24781535D01*
X170115294Y24754332D01*
X170207849Y24725155D01*
X170294292Y24693783D01*
X170374585Y24659999D01*
X170448687Y24623584D01*
X170483403Y24604321D01*
X170516557Y24584318D01*
X170548142Y24563548D01*
X170578154Y24541982D01*
X170606589Y24519595D01*
X170633440Y24496359D01*
X170658703Y24472245D01*
X170682372Y24447228D01*
X170704444Y24421278D01*
X170724912Y24394370D01*
X170743771Y24366476D01*
X170761017Y24337568D01*
X170776645Y24307618D01*
X170790649Y24276601D01*
X170803024Y24244488D01*
X170813766Y24211251D01*
X170822869Y24176864D01*
X170830328Y24141299D01*
X170836138Y24104529D01*
X170840295Y24066526D01*
X170842793Y24027264D01*
X170843626Y23986713D01*
X170842391Y23942307D01*
X170838721Y23899326D01*
X170832675Y23857768D01*
X170824307Y23817632D01*
X170813675Y23778918D01*
X170800834Y23741624D01*
X170785841Y23705750D01*
X170768753Y23671295D01*
X170749625Y23638258D01*
X170728514Y23606637D01*
X170705477Y23576432D01*
X170680569Y23547642D01*
X170653847Y23520265D01*
X170625368Y23494302D01*
X170595187Y23469750D01*
X170563361Y23446610D01*
X170529946Y23424879D01*
X170494999Y23404557D01*
X170420733Y23368137D01*
X170341013Y23337341D01*
X170256291Y23312161D01*
X170167016Y23292591D01*
X170073639Y23278622D01*
X169976612Y23270246D01*
X169876384Y23267455D01*
X169774717Y23270369D01*
X169676730Y23279175D01*
X169629205Y23285818D01*
X169582705Y23293970D01*
X169537266Y23303645D01*
X169492922Y23314853D01*
X169449708Y23327607D01*
X169407660Y23341919D01*
X169366812Y23357801D01*
X169327200Y23375266D01*
X169288859Y23394326D01*
X169251823Y23414992D01*
X169216128Y23437278D01*
X169181808Y23461194D01*
X169148900Y23486754D01*
X169117437Y23513969D01*
X169087455Y23542852D01*
X169058989Y23573414D01*
X169032074Y23605668D01*
X169006744Y23639627D01*
X168983036Y23675301D01*
X168960984Y23712704D01*
X168940623Y23751848D01*
X168921987Y23792744D01*
X168905114Y23835405D01*
X168890036Y23879843D01*
X168876789Y23926070D01*
X168865409Y23974098D01*
X168855930Y24023940D01*
X168848387Y24075607D01*
X169366786Y24075607D01*
X169372907Y24046354D01*
X169379887Y24018213D01*
X169387707Y23991172D01*
X169396348Y23965218D01*
X169405791Y23940340D01*
X169416017Y23916525D01*
X169427007Y23893763D01*
X169438744Y23872040D01*
X169451206Y23851345D01*
X169464377Y23831665D01*
X169478237Y23812990D01*
X169492767Y23795306D01*
X169507948Y23778601D01*
X169523762Y23762865D01*
X169540190Y23748084D01*
X169557212Y23734246D01*
X169574811Y23721341D01*
X169592966Y23709355D01*
X169611660Y23698276D01*
X169630873Y23688094D01*
X169650587Y23678794D01*
X169670782Y23670367D01*
X169691440Y23662799D01*
X169712543Y23656079D01*
X169756004Y23645133D01*
X169801016Y23637433D01*
X169847427Y23632884D01*
X169895086Y23631389D01*
X169939231Y23632597D01*
X169982064Y23636230D01*
X170002924Y23638959D01*
X170023376Y23642301D01*
X170043394Y23646255D01*
X170062952Y23650824D01*
X170082024Y23656009D01*
X170100582Y23661813D01*
X170118600Y23668236D01*
X170136052Y23675280D01*
X170152912Y23682948D01*
X170169152Y23691241D01*
X170184746Y23700160D01*
X170199668Y23709708D01*
X170213890Y23719885D01*
X170227388Y23730694D01*
X170240134Y23742137D01*
X170252101Y23754215D01*
X170263263Y23766929D01*
X170273593Y23780282D01*
X170283066Y23794275D01*
X170291654Y23808909D01*
X170299331Y23824188D01*
X170306071Y23840111D01*
X170311846Y23856682D01*
X170316631Y23873901D01*
X170320399Y23891770D01*
X170323123Y23910292D01*
X170324777Y23929467D01*
X170325334Y23949297D01*
X170323340Y23988504D01*
X170317278Y24025544D01*
X170307022Y24060556D01*
X170300283Y24077344D01*
X170292450Y24093677D01*
X170283507Y24109571D01*
X170273439Y24125043D01*
X170249864Y24154793D01*
X170221603Y24183062D01*
X170188532Y24209989D01*
X170150528Y24235710D01*
X170107467Y24260362D01*
X170059225Y24284083D01*
X170005679Y24307010D01*
X169946707Y24329279D01*
X169882183Y24351029D01*
X169811986Y24372395D01*
X169735991Y24393516D01*
X169652439Y24416346D01*
X169571947Y24441177D01*
X169494837Y24468254D01*
X169421431Y24497825D01*
X169352049Y24530135D01*
X169287015Y24565431D01*
X169256228Y24584276D01*
X169226648Y24603959D01*
X169198315Y24624513D01*
X169171270Y24645967D01*
X169145553Y24668352D01*
X169121204Y24691700D01*
X169098262Y24716040D01*
X169076770Y24741405D01*
X169056765Y24767824D01*
X169038289Y24795328D01*
X169021383Y24823949D01*
X169006085Y24853717D01*
X168992436Y24884662D01*
X168980477Y24916817D01*
X168970248Y24950210D01*
X168961788Y24984874D01*
X168955138Y25020839D01*
X168950338Y25058136D01*
X168947429Y25096796D01*
X168946451Y25136849D01*
X168947513Y25179693D01*
X168950678Y25221449D01*
X168955913Y25262098D01*
X168963186Y25301624D01*
X168972464Y25340007D01*
X168983715Y25377231D01*
X168996907Y25413278D01*
X169012006Y25448129D01*
X169028981Y25481767D01*
X169047798Y25514174D01*
X169068426Y25545332D01*
X169090832Y25575224D01*
X169114983Y25603831D01*
X169140848Y25631136D01*
X169168393Y25657121D01*
X169197586Y25681768D01*
X169228394Y25705059D01*
X169260786Y25726977D01*
X169294728Y25747503D01*
X169330189Y25766621D01*
X169367135Y25784311D01*
X169405534Y25800556D01*
X169445354Y25815339D01*
X169486562Y25828642D01*
X169573013Y25850734D01*
X169664627Y25866691D01*
X169761145Y25876369D01*
X169862306Y25879627D01*
X169862295Y25879638D01*
X169915024Y25878700D01*
G37*
G36*
X168163341Y26678531D02*
G01*
X168179145Y26677440D01*
X168194670Y26675642D01*
X168209900Y26673150D01*
X168224820Y26669981D01*
X168239413Y26666150D01*
X168253662Y26661673D01*
X168267551Y26656564D01*
X168281065Y26650840D01*
X168294187Y26644515D01*
X168306900Y26637606D01*
X168319189Y26630127D01*
X168331036Y26622094D01*
X168342427Y26613522D01*
X168353344Y26604427D01*
X168363771Y26594825D01*
X168373692Y26584729D01*
X168383092Y26574157D01*
X168391952Y26563124D01*
X168400258Y26551644D01*
X168407993Y26539733D01*
X168415140Y26527407D01*
X168421685Y26514682D01*
X168427609Y26501571D01*
X168432897Y26488092D01*
X168437533Y26474259D01*
X168441500Y26460087D01*
X168444782Y26445593D01*
X168447364Y26430792D01*
X168449228Y26415698D01*
X168450358Y26400328D01*
X168450738Y26384696D01*
X168450358Y26368636D01*
X168449228Y26352864D01*
X168447364Y26337395D01*
X168444782Y26322243D01*
X168441500Y26307424D01*
X168437533Y26292951D01*
X168432897Y26278839D01*
X168427609Y26265103D01*
X168421685Y26251757D01*
X168415140Y26238816D01*
X168407993Y26226293D01*
X168400258Y26214205D01*
X168391952Y26202565D01*
X168383092Y26191387D01*
X168373692Y26180686D01*
X168363771Y26170478D01*
X168353344Y26160775D01*
X168342427Y26151594D01*
X168331036Y26142947D01*
X168319189Y26134851D01*
X168306900Y26127318D01*
X168294187Y26120365D01*
X168281065Y26114005D01*
X168267551Y26108252D01*
X168253662Y26103122D01*
X168239413Y26098629D01*
X168224820Y26094788D01*
X168209900Y26091612D01*
X168194670Y26089117D01*
X168179145Y26087317D01*
X168163341Y26086226D01*
X168147276Y26085859D01*
X168131215Y26086226D01*
X168115442Y26087317D01*
X168099972Y26089117D01*
X168084820Y26091612D01*
X168070000Y26094788D01*
X168055527Y26098629D01*
X168041415Y26103122D01*
X168027678Y26108252D01*
X168014332Y26114004D01*
X168001391Y26120364D01*
X167988869Y26127317D01*
X167976780Y26134849D01*
X167965140Y26142946D01*
X167953962Y26151592D01*
X167943262Y26160773D01*
X167933054Y26170476D01*
X167923351Y26180684D01*
X167914170Y26191385D01*
X167905524Y26202562D01*
X167897428Y26214203D01*
X167889896Y26226291D01*
X167882942Y26238813D01*
X167876583Y26251755D01*
X167870831Y26265101D01*
X167865701Y26278837D01*
X167861208Y26292949D01*
X167857367Y26307422D01*
X167854192Y26322242D01*
X167851697Y26337393D01*
X167849896Y26352863D01*
X167848806Y26368635D01*
X167848439Y26384696D01*
X167848806Y26400328D01*
X167849897Y26415698D01*
X167851697Y26430792D01*
X167854192Y26445593D01*
X167857368Y26460087D01*
X167861210Y26474259D01*
X167865703Y26488092D01*
X167870834Y26501571D01*
X167876586Y26514682D01*
X167882947Y26527407D01*
X167889901Y26539733D01*
X167897433Y26551644D01*
X167905530Y26563124D01*
X167914177Y26574157D01*
X167923359Y26584729D01*
X167933062Y26594825D01*
X167943271Y26604427D01*
X167953971Y26613522D01*
X167965149Y26622094D01*
X167976789Y26630127D01*
X167988878Y26637606D01*
X168001400Y26644515D01*
X168014342Y26650840D01*
X168027687Y26656564D01*
X168041423Y26661673D01*
X168055535Y26666150D01*
X168070007Y26669981D01*
X168084826Y26673150D01*
X168099977Y26675642D01*
X168115445Y26677440D01*
X168131216Y26678531D01*
X168147276Y26678898D01*
X168163341Y26678531D01*
G37*
G36*
X168404062Y23332835D02*
G01*
X167890480Y23332835D01*
X167890480Y25814157D01*
X168404062Y25814157D01*
X168404062Y23332835D01*
G37*
G36*
X166320105Y23710841D02*
G01*
X167007042Y25814157D01*
X167553692Y25814157D01*
X166605142Y23332835D01*
X166007019Y23332835D01*
X165058383Y25814157D01*
X165623811Y25814157D01*
X166320105Y23710841D01*
G37*
G36*
X164475845Y26678531D02*
G01*
X164491648Y26677440D01*
X164507173Y26675642D01*
X164522403Y26673150D01*
X164537323Y26669981D01*
X164551916Y26666150D01*
X164566165Y26661673D01*
X164580054Y26656564D01*
X164593568Y26650840D01*
X164606690Y26644515D01*
X164619403Y26637606D01*
X164631692Y26630127D01*
X164643539Y26622094D01*
X164654930Y26613522D01*
X164665847Y26604427D01*
X164676274Y26594825D01*
X164686195Y26584729D01*
X164695595Y26574157D01*
X164704455Y26563124D01*
X164712761Y26551644D01*
X164720496Y26539733D01*
X164727644Y26527407D01*
X164734188Y26514682D01*
X164740112Y26501571D01*
X164745400Y26488092D01*
X164750036Y26474259D01*
X164754003Y26460087D01*
X164757286Y26445593D01*
X164759867Y26430792D01*
X164761731Y26415698D01*
X164762861Y26400328D01*
X164763241Y26384696D01*
X164762861Y26368636D01*
X164761731Y26352864D01*
X164759867Y26337395D01*
X164757286Y26322243D01*
X164754003Y26307424D01*
X164750036Y26292951D01*
X164745400Y26278839D01*
X164740112Y26265103D01*
X164734188Y26251757D01*
X164727644Y26238816D01*
X164720496Y26226293D01*
X164712761Y26214205D01*
X164704455Y26202565D01*
X164695595Y26191387D01*
X164686195Y26180686D01*
X164676274Y26170478D01*
X164665847Y26160775D01*
X164654930Y26151594D01*
X164643539Y26142947D01*
X164631692Y26134851D01*
X164619403Y26127318D01*
X164606690Y26120365D01*
X164593568Y26114005D01*
X164580054Y26108252D01*
X164566165Y26103122D01*
X164551916Y26098629D01*
X164537323Y26094788D01*
X164522403Y26091612D01*
X164507173Y26089117D01*
X164491648Y26087317D01*
X164475845Y26086226D01*
X164459779Y26085859D01*
X164443718Y26086226D01*
X164427945Y26087317D01*
X164412475Y26089117D01*
X164397322Y26091612D01*
X164382500Y26094788D01*
X164368025Y26098629D01*
X164353910Y26103122D01*
X164340171Y26108252D01*
X164326821Y26114004D01*
X164313876Y26120364D01*
X164301350Y26127317D01*
X164289257Y26134849D01*
X164277613Y26142946D01*
X164266431Y26151592D01*
X164255726Y26160773D01*
X164245513Y26170476D01*
X164235806Y26180684D01*
X164226619Y26191385D01*
X164217969Y26202562D01*
X164209868Y26214203D01*
X164202331Y26226291D01*
X164195374Y26238813D01*
X164189010Y26251755D01*
X164183254Y26265101D01*
X164178121Y26278837D01*
X164173625Y26292949D01*
X164169781Y26307422D01*
X164166603Y26322242D01*
X164164106Y26337393D01*
X164162304Y26352863D01*
X164161213Y26368635D01*
X164160846Y26384696D01*
X164161213Y26400328D01*
X164162304Y26415698D01*
X164164106Y26430792D01*
X164166603Y26445593D01*
X164169781Y26460087D01*
X164173625Y26474259D01*
X164178121Y26488092D01*
X164183254Y26501571D01*
X164189010Y26514682D01*
X164195374Y26527407D01*
X164202331Y26539733D01*
X164209868Y26551644D01*
X164217969Y26563124D01*
X164226619Y26574157D01*
X164235806Y26584729D01*
X164245513Y26594825D01*
X164255726Y26604427D01*
X164266431Y26613522D01*
X164277613Y26622094D01*
X164289257Y26630127D01*
X164301350Y26637606D01*
X164313876Y26644515D01*
X164326821Y26650840D01*
X164340171Y26656564D01*
X164353910Y26661673D01*
X164368025Y26666150D01*
X164382500Y26669981D01*
X164397322Y26673150D01*
X164412475Y26675642D01*
X164427945Y26677440D01*
X164443718Y26678531D01*
X164459779Y26678898D01*
X164475845Y26678531D01*
G37*
G36*
X164716469Y23332835D02*
G01*
X164202972Y23332835D01*
X164202972Y25814157D01*
X164716469Y25814157D01*
X164716469Y23332835D01*
G37*
G36*
X162119748Y26557013D02*
G01*
X162168549Y26556322D01*
X162214720Y26554977D01*
X162260453Y26552760D01*
X162307939Y26549452D01*
X162359369Y26544835D01*
X162416934Y26538692D01*
X162554814Y26517330D01*
X162687553Y26486430D01*
X162814633Y26445868D01*
X162935535Y26395519D01*
X162993508Y26366635D01*
X163049742Y26335257D01*
X163104173Y26301371D01*
X163156736Y26264959D01*
X163207366Y26226007D01*
X163255998Y26184499D01*
X163302568Y26140419D01*
X163347011Y26093752D01*
X163389262Y26044482D01*
X163429257Y25992593D01*
X163466930Y25938071D01*
X163502217Y25880899D01*
X163535053Y25821061D01*
X163565374Y25758543D01*
X163593114Y25693328D01*
X163618209Y25625401D01*
X163640594Y25554747D01*
X163660205Y25481349D01*
X163676976Y25405192D01*
X163690843Y25326261D01*
X163701742Y25244540D01*
X163709606Y25160013D01*
X163714373Y25072665D01*
X163715976Y24982480D01*
X163714319Y24893332D01*
X163709396Y24806477D01*
X163701279Y24721933D01*
X163690039Y24639717D01*
X163675748Y24559846D01*
X163658478Y24482336D01*
X163638300Y24407205D01*
X163615285Y24334469D01*
X163589506Y24264146D01*
X163561034Y24196252D01*
X163529940Y24130804D01*
X163496296Y24067820D01*
X163460174Y24007315D01*
X163421645Y23949309D01*
X163380782Y23893816D01*
X163337655Y23840854D01*
X163292336Y23790441D01*
X163244896Y23742592D01*
X163195409Y23697326D01*
X163143944Y23654658D01*
X163090573Y23614607D01*
X163035369Y23577188D01*
X162978403Y23542419D01*
X162919746Y23510317D01*
X162859470Y23480898D01*
X162797647Y23454181D01*
X162734347Y23430180D01*
X162669644Y23408915D01*
X162603608Y23390401D01*
X162536311Y23374655D01*
X162467825Y23361695D01*
X162398221Y23351537D01*
X162340659Y23345361D01*
X162289231Y23340719D01*
X162241747Y23337393D01*
X162196014Y23335163D01*
X162149843Y23333811D01*
X162101041Y23333116D01*
X161986783Y23332824D01*
X160963603Y23332824D01*
X160963603Y23743525D01*
X160963603Y26151233D01*
X161477174Y26151233D01*
X161477174Y23743525D01*
X161940021Y23743525D01*
X162050349Y23743817D01*
X162099646Y23744512D01*
X162145764Y23745864D01*
X162189250Y23748092D01*
X162230656Y23751417D01*
X162270528Y23756058D01*
X162290062Y23758940D01*
X162309418Y23762233D01*
X162309407Y23762228D01*
X162404537Y23780404D01*
X162495170Y23806805D01*
X162538729Y23823058D01*
X162581079Y23841328D01*
X162622191Y23861604D01*
X162662037Y23883871D01*
X162700589Y23908118D01*
X162737819Y23934331D01*
X162773698Y23962497D01*
X162808198Y23992604D01*
X162841291Y24024639D01*
X162872948Y24058589D01*
X162903142Y24094441D01*
X162931843Y24132181D01*
X162959024Y24171799D01*
X162984656Y24213279D01*
X163031162Y24301780D01*
X163071134Y24397580D01*
X163104345Y24500577D01*
X163130570Y24610667D01*
X163149582Y24727749D01*
X163161155Y24851719D01*
X163165063Y24982475D01*
X163164122Y25045188D01*
X163161314Y25106225D01*
X163156664Y25165579D01*
X163150196Y25223244D01*
X163141933Y25279215D01*
X163131900Y25333484D01*
X163120120Y25386048D01*
X163106617Y25436898D01*
X163091416Y25486030D01*
X163074540Y25533437D01*
X163056014Y25579114D01*
X163035861Y25623053D01*
X163014105Y25665251D01*
X162990770Y25705699D01*
X162965881Y25744392D01*
X162939461Y25781325D01*
X162911535Y25816491D01*
X162882125Y25849885D01*
X162851257Y25881500D01*
X162818953Y25911330D01*
X162785239Y25939369D01*
X162750138Y25965611D01*
X162713674Y25990051D01*
X162675871Y26012682D01*
X162636753Y26033498D01*
X162596344Y26052494D01*
X162554668Y26069662D01*
X162511748Y26084998D01*
X162467610Y26098496D01*
X162422277Y26110148D01*
X162375772Y26119950D01*
X162328120Y26127895D01*
X162289037Y26134269D01*
X162248693Y26139434D01*
X162206705Y26143500D01*
X162162691Y26146579D01*
X162116267Y26148781D01*
X162067051Y26150217D01*
X162014661Y26150997D01*
X161958713Y26151233D01*
X161477174Y26151233D01*
X160963603Y26151233D01*
X160963603Y26557304D01*
X162005496Y26557304D01*
X162119748Y26557013D01*
G37*
G36*
X158506186Y25878700D02*
G01*
X158557433Y25875911D01*
X158607195Y25871305D01*
X158655472Y25864917D01*
X158702262Y25856782D01*
X158747563Y25846934D01*
X158791373Y25835409D01*
X158833691Y25822242D01*
X158874515Y25807467D01*
X158913843Y25791119D01*
X158951675Y25773233D01*
X158988007Y25753845D01*
X159022839Y25732988D01*
X159056169Y25710698D01*
X159087996Y25687010D01*
X159118316Y25661959D01*
X159147130Y25635579D01*
X159174435Y25607905D01*
X159200230Y25578972D01*
X159224513Y25548816D01*
X159247282Y25517470D01*
X159268536Y25484971D01*
X159288273Y25451352D01*
X159306491Y25416649D01*
X159323189Y25380896D01*
X159338366Y25344128D01*
X159352019Y25306381D01*
X159364146Y25267689D01*
X159374747Y25228087D01*
X159383819Y25187610D01*
X159391362Y25146293D01*
X159397372Y25104170D01*
X158874348Y25104170D01*
X158863507Y25151987D01*
X158850260Y25197216D01*
X158834613Y25239791D01*
X158825892Y25260060D01*
X158816573Y25279641D01*
X158806658Y25298523D01*
X158796148Y25316698D01*
X158785043Y25334158D01*
X158773345Y25350894D01*
X158761053Y25366897D01*
X158748170Y25382159D01*
X158734695Y25396672D01*
X158720630Y25410426D01*
X158705976Y25423413D01*
X158690734Y25435624D01*
X158674904Y25447051D01*
X158658488Y25457686D01*
X158641485Y25467519D01*
X158623898Y25476542D01*
X158605727Y25484746D01*
X158586973Y25492124D01*
X158567636Y25498666D01*
X158547718Y25504363D01*
X158527220Y25509207D01*
X158506142Y25513190D01*
X158484485Y25516303D01*
X158462251Y25518537D01*
X158439439Y25519884D01*
X158416052Y25520335D01*
X158393615Y25519940D01*
X158371916Y25518765D01*
X158350954Y25516827D01*
X158330727Y25514140D01*
X158311233Y25510720D01*
X158292471Y25506582D01*
X158274439Y25501742D01*
X158257135Y25496215D01*
X158240557Y25490017D01*
X158224704Y25483163D01*
X158209574Y25475669D01*
X158195165Y25467549D01*
X158181475Y25458820D01*
X158168504Y25449497D01*
X158156249Y25439595D01*
X158144708Y25429130D01*
X158133880Y25418118D01*
X158123763Y25406573D01*
X158114355Y25394511D01*
X158105655Y25381947D01*
X158097660Y25368898D01*
X158090370Y25355378D01*
X158083782Y25341403D01*
X158077895Y25326989D01*
X158072707Y25312150D01*
X158068217Y25296903D01*
X158064421Y25281262D01*
X158061320Y25265243D01*
X158058911Y25248862D01*
X158057192Y25232135D01*
X158056162Y25215075D01*
X158055819Y25197700D01*
X158056354Y25177035D01*
X158057959Y25157113D01*
X158060634Y25137909D01*
X158064380Y25119399D01*
X158069199Y25101556D01*
X158075091Y25084357D01*
X158082057Y25067777D01*
X158090098Y25051790D01*
X158099215Y25036372D01*
X158109408Y25021498D01*
X158120678Y25007143D01*
X158133027Y24993282D01*
X158160963Y24966944D01*
X158193222Y24942283D01*
X158229811Y24919102D01*
X158270736Y24897201D01*
X158316005Y24876381D01*
X158365624Y24856444D01*
X158419599Y24837189D01*
X158477939Y24818419D01*
X158540649Y24799934D01*
X158607736Y24781535D01*
X158706360Y24754332D01*
X158798915Y24725155D01*
X158885359Y24693783D01*
X158965653Y24659999D01*
X159039755Y24623584D01*
X159074472Y24604321D01*
X159107626Y24584318D01*
X159139212Y24563548D01*
X159169225Y24541982D01*
X159197660Y24519595D01*
X159224511Y24496359D01*
X159249775Y24472245D01*
X159273445Y24447228D01*
X159295516Y24421278D01*
X159315985Y24394370D01*
X159334845Y24366476D01*
X159352091Y24337568D01*
X159367719Y24307618D01*
X159381724Y24276601D01*
X159394099Y24244488D01*
X159404841Y24211251D01*
X159413945Y24176864D01*
X159421404Y24141299D01*
X159427215Y24104529D01*
X159431371Y24066526D01*
X159433869Y24027264D01*
X159434703Y23986713D01*
X159433467Y23942307D01*
X159429798Y23899326D01*
X159423751Y23857768D01*
X159415384Y23817632D01*
X159404751Y23778918D01*
X159391911Y23741624D01*
X159376918Y23705750D01*
X159359829Y23671295D01*
X159340702Y23638258D01*
X159319591Y23606637D01*
X159296553Y23576432D01*
X159271645Y23547642D01*
X159244923Y23520265D01*
X159216444Y23494302D01*
X159186262Y23469750D01*
X159154436Y23446610D01*
X159121021Y23424879D01*
X159086074Y23404557D01*
X159011807Y23368137D01*
X158932086Y23337341D01*
X158847363Y23312161D01*
X158758087Y23292591D01*
X158664709Y23278622D01*
X158567680Y23270246D01*
X158467450Y23267455D01*
X158365783Y23270369D01*
X158267797Y23279175D01*
X158220272Y23285818D01*
X158173772Y23293970D01*
X158128333Y23303645D01*
X158083989Y23314853D01*
X158040776Y23327607D01*
X157998728Y23341919D01*
X157957881Y23357801D01*
X157918270Y23375266D01*
X157879929Y23394326D01*
X157842893Y23414992D01*
X157807199Y23437278D01*
X157772880Y23461194D01*
X157739972Y23486754D01*
X157708509Y23513969D01*
X157678528Y23542852D01*
X157650062Y23573414D01*
X157623147Y23605668D01*
X157597819Y23639627D01*
X157574111Y23675301D01*
X157552059Y23712704D01*
X157531698Y23751848D01*
X157513063Y23792744D01*
X157496189Y23835405D01*
X157481112Y23879843D01*
X157467865Y23926070D01*
X157456485Y23974098D01*
X157447006Y24023940D01*
X157439464Y24075607D01*
X157957863Y24075607D01*
X157963984Y24046354D01*
X157970964Y24018213D01*
X157978783Y23991172D01*
X157987424Y23965218D01*
X157996867Y23940340D01*
X158007093Y23916525D01*
X158018083Y23893763D01*
X158029819Y23872040D01*
X158042281Y23851345D01*
X158055452Y23831665D01*
X158069311Y23812990D01*
X158083841Y23795306D01*
X158099022Y23778601D01*
X158114836Y23762865D01*
X158131263Y23748084D01*
X158148285Y23734246D01*
X158165883Y23721341D01*
X158184038Y23709355D01*
X158202732Y23698276D01*
X158221945Y23688094D01*
X158241659Y23678794D01*
X158261854Y23670367D01*
X158282512Y23662799D01*
X158303615Y23656079D01*
X158347077Y23645133D01*
X158392090Y23637433D01*
X158438502Y23632884D01*
X158486163Y23631389D01*
X158530307Y23632597D01*
X158573141Y23636230D01*
X158594000Y23638959D01*
X158614451Y23642301D01*
X158634469Y23646255D01*
X158654027Y23650824D01*
X158673098Y23656009D01*
X158691656Y23661813D01*
X158709674Y23668236D01*
X158727126Y23675280D01*
X158743984Y23682948D01*
X158760224Y23691241D01*
X158775818Y23700160D01*
X158790739Y23709708D01*
X158804961Y23719885D01*
X158818458Y23730694D01*
X158831203Y23742137D01*
X158843170Y23754215D01*
X158854332Y23766929D01*
X158864662Y23780282D01*
X158874134Y23794275D01*
X158882722Y23808909D01*
X158890399Y23824188D01*
X158897138Y23840111D01*
X158902913Y23856682D01*
X158907698Y23873901D01*
X158911465Y23891770D01*
X158914189Y23910292D01*
X158915843Y23929467D01*
X158916400Y23949297D01*
X158914408Y23988504D01*
X158908348Y24025544D01*
X158898097Y24060556D01*
X158891361Y24077344D01*
X158883531Y24093677D01*
X158874592Y24109571D01*
X158864527Y24125043D01*
X158840961Y24154793D01*
X158812709Y24183062D01*
X158779646Y24209989D01*
X158741651Y24235710D01*
X158698598Y24260362D01*
X158650365Y24284083D01*
X158596827Y24307010D01*
X158537860Y24329279D01*
X158473341Y24351029D01*
X158403147Y24372395D01*
X158327153Y24393516D01*
X158243601Y24416346D01*
X158163108Y24441177D01*
X158085995Y24468254D01*
X158012584Y24497825D01*
X157943196Y24530135D01*
X157878154Y24565431D01*
X157847363Y24584276D01*
X157817779Y24603959D01*
X157789443Y24624513D01*
X157762394Y24645967D01*
X157736672Y24668352D01*
X157712319Y24691700D01*
X157689373Y24716040D01*
X157667876Y24741405D01*
X157647868Y24767824D01*
X157629388Y24795328D01*
X157612478Y24823949D01*
X157597176Y24853717D01*
X157583525Y24884662D01*
X157571563Y24916817D01*
X157561330Y24950210D01*
X157552869Y24984874D01*
X157546217Y25020839D01*
X157541416Y25058136D01*
X157538506Y25096796D01*
X157537527Y25136849D01*
X157538589Y25179693D01*
X157541754Y25221449D01*
X157546989Y25262098D01*
X157554262Y25301624D01*
X157563540Y25340007D01*
X157574791Y25377231D01*
X157587982Y25413278D01*
X157603081Y25448129D01*
X157620055Y25481767D01*
X157638873Y25514174D01*
X157659501Y25545332D01*
X157681908Y25575224D01*
X157706060Y25603831D01*
X157731925Y25631136D01*
X157759471Y25657121D01*
X157788665Y25681768D01*
X157819475Y25705059D01*
X157851869Y25726977D01*
X157885814Y25747503D01*
X157921277Y25766621D01*
X157958226Y25784311D01*
X157996629Y25800556D01*
X158036453Y25815339D01*
X158077666Y25828642D01*
X158164128Y25850734D01*
X158255755Y25866691D01*
X158352288Y25876369D01*
X158453468Y25879627D01*
X158453457Y25879638D01*
X158506186Y25878700D01*
G37*
G36*
X156122567Y25878052D02*
G01*
X156187124Y25873372D01*
X156249715Y25865658D01*
X156310327Y25854980D01*
X156368952Y25841408D01*
X156425579Y25825011D01*
X156480198Y25805860D01*
X156532798Y25784024D01*
X156583371Y25759574D01*
X156631905Y25732580D01*
X156678391Y25703111D01*
X156722819Y25671238D01*
X156765177Y25637030D01*
X156805457Y25600558D01*
X156843648Y25561891D01*
X156879741Y25521100D01*
X156913724Y25478254D01*
X156945587Y25433423D01*
X156975322Y25386678D01*
X157002917Y25338089D01*
X157028363Y25287724D01*
X157051649Y25235655D01*
X157072765Y25181952D01*
X157091701Y25126683D01*
X157108448Y25069920D01*
X157122994Y25011732D01*
X157145447Y24891362D01*
X157158977Y24766132D01*
X157163505Y24636603D01*
X157163473Y24636603D01*
X157163327Y24597296D01*
X157162305Y24549671D01*
X157161192Y24522875D01*
X157159530Y24494162D01*
X157157212Y24463587D01*
X157154127Y24431204D01*
X155373355Y24431204D01*
X155377964Y24376670D01*
X155383885Y24324429D01*
X155391090Y24274444D01*
X155399547Y24226679D01*
X155409227Y24181096D01*
X155420101Y24137659D01*
X155432137Y24096331D01*
X155445306Y24057075D01*
X155459579Y24019854D01*
X155474924Y23984631D01*
X155491313Y23951370D01*
X155508714Y23920034D01*
X155527099Y23890585D01*
X155546437Y23862987D01*
X155566698Y23837204D01*
X155587852Y23813197D01*
X155609870Y23790932D01*
X155632721Y23770369D01*
X155656375Y23751474D01*
X155680803Y23734208D01*
X155705974Y23718535D01*
X155731858Y23704418D01*
X155758426Y23691821D01*
X155785648Y23680706D01*
X155813492Y23671037D01*
X155841931Y23662777D01*
X155870932Y23655888D01*
X155900468Y23650335D01*
X155930507Y23646080D01*
X155961019Y23643086D01*
X156023346Y23640735D01*
X156051201Y23641268D01*
X156078651Y23642860D01*
X156105676Y23645503D01*
X156132253Y23649186D01*
X156158362Y23653900D01*
X156183981Y23659637D01*
X156209088Y23666385D01*
X156233662Y23674137D01*
X156257681Y23682882D01*
X156281125Y23692611D01*
X156303972Y23703315D01*
X156326200Y23714984D01*
X156347788Y23727608D01*
X156368714Y23741179D01*
X156388958Y23755688D01*
X156408497Y23771123D01*
X156427311Y23787477D01*
X156445377Y23804739D01*
X156462675Y23822901D01*
X156479183Y23841952D01*
X156494880Y23861883D01*
X156509743Y23882686D01*
X156523753Y23904350D01*
X156536886Y23926866D01*
X156549123Y23950225D01*
X156560441Y23974417D01*
X156570819Y23999433D01*
X156580236Y24025263D01*
X156588670Y24051898D01*
X156596100Y24079328D01*
X156602504Y24107545D01*
X156607861Y24136538D01*
X157126175Y24136538D01*
X157115047Y24082211D01*
X157101838Y24029690D01*
X157086602Y23978969D01*
X157069392Y23930045D01*
X157050263Y23882911D01*
X157029268Y23837562D01*
X157006461Y23793992D01*
X156981895Y23752197D01*
X156955625Y23712171D01*
X156927705Y23673908D01*
X156898187Y23637403D01*
X156867126Y23602651D01*
X156834576Y23569647D01*
X156800590Y23538384D01*
X156765222Y23508859D01*
X156728526Y23481064D01*
X156690556Y23454996D01*
X156651365Y23430648D01*
X156611007Y23408016D01*
X156569536Y23387094D01*
X156483471Y23350357D01*
X156393598Y23320396D01*
X156300349Y23297168D01*
X156204153Y23280629D01*
X156105441Y23270738D01*
X156004643Y23267450D01*
X155882158Y23272382D01*
X155822514Y23278558D01*
X155764017Y23287216D01*
X155706728Y23298364D01*
X155650709Y23312009D01*
X155596022Y23328159D01*
X155542728Y23346819D01*
X155490887Y23367998D01*
X155440562Y23391702D01*
X155391814Y23417939D01*
X155344705Y23446716D01*
X155299295Y23478039D01*
X155255646Y23511917D01*
X155213819Y23548355D01*
X155173876Y23587363D01*
X155135879Y23628945D01*
X155099888Y23673110D01*
X155065965Y23719865D01*
X155034171Y23769217D01*
X155004568Y23821173D01*
X154977218Y23875740D01*
X154952180Y23932925D01*
X154929518Y23992736D01*
X154909292Y24055179D01*
X154891563Y24120262D01*
X154876394Y24187992D01*
X154863845Y24258375D01*
X154853978Y24331420D01*
X154846854Y24407134D01*
X154842534Y24485522D01*
X154841081Y24566593D01*
X154842536Y24639451D01*
X154846866Y24710750D01*
X154854020Y24780441D01*
X154855490Y24790513D01*
X155378001Y24790513D01*
X156635931Y24790513D01*
X156627000Y24874106D01*
X156621098Y24914108D01*
X156614238Y24952901D01*
X156606423Y24990473D01*
X156597653Y25026815D01*
X156587929Y25061917D01*
X156577251Y25095767D01*
X156565622Y25128357D01*
X156553040Y25159675D01*
X156539509Y25189712D01*
X156525027Y25218457D01*
X156509597Y25245899D01*
X156493219Y25272029D01*
X156475894Y25296837D01*
X156457623Y25320311D01*
X156438406Y25342443D01*
X156418246Y25363221D01*
X156397141Y25382635D01*
X156375095Y25400675D01*
X156352106Y25417331D01*
X156328177Y25432593D01*
X156303308Y25446449D01*
X156277500Y25458891D01*
X156250754Y25469907D01*
X156223071Y25479488D01*
X156194451Y25487623D01*
X156164896Y25494302D01*
X156134406Y25499515D01*
X156102982Y25503250D01*
X156070626Y25505500D01*
X156037338Y25506252D01*
X155972759Y25503456D01*
X155941377Y25499962D01*
X155910624Y25495069D01*
X155880518Y25488779D01*
X155851077Y25481092D01*
X155822319Y25472006D01*
X155794262Y25461522D01*
X155766924Y25449641D01*
X155740324Y25436362D01*
X155714478Y25421684D01*
X155689405Y25405609D01*
X155665123Y25388136D01*
X155641650Y25369265D01*
X155619005Y25348996D01*
X155597204Y25327329D01*
X155576266Y25304264D01*
X155556209Y25279801D01*
X155537052Y25253940D01*
X155518811Y25226680D01*
X155501505Y25198023D01*
X155485153Y25167967D01*
X155469771Y25136514D01*
X155455378Y25103662D01*
X155441993Y25069412D01*
X155429632Y25033764D01*
X155408058Y24958273D01*
X155390799Y24877190D01*
X155378001Y24790513D01*
X154855490Y24790513D01*
X154863945Y24848475D01*
X154876590Y24914802D01*
X154891902Y24979372D01*
X154909830Y25042137D01*
X154930321Y25103046D01*
X154953324Y25162051D01*
X154978786Y25219101D01*
X155006657Y25274148D01*
X155036882Y25327141D01*
X155069412Y25378031D01*
X155104193Y25426770D01*
X155141174Y25473306D01*
X155180302Y25517592D01*
X155221527Y25559576D01*
X155264795Y25599211D01*
X155310055Y25636446D01*
X155357256Y25671232D01*
X155406344Y25703520D01*
X155457268Y25733259D01*
X155509976Y25760401D01*
X155564416Y25784896D01*
X155620536Y25806695D01*
X155678284Y25825747D01*
X155737608Y25842004D01*
X155798456Y25855417D01*
X155860777Y25865935D01*
X155924517Y25873509D01*
X155989626Y25878089D01*
X156056051Y25879627D01*
X156122567Y25878052D01*
G37*
G36*
X153556272Y25878526D02*
G01*
X153612958Y25875248D01*
X153668261Y25869832D01*
X153722163Y25862316D01*
X153774645Y25852738D01*
X153825685Y25841137D01*
X153875265Y25827550D01*
X153923365Y25812016D01*
X153969966Y25794573D01*
X154015047Y25775260D01*
X154058589Y25754115D01*
X154100572Y25731176D01*
X154140977Y25706481D01*
X154179784Y25680069D01*
X154216973Y25651977D01*
X154252524Y25622245D01*
X154286419Y25590910D01*
X154318636Y25558011D01*
X154349158Y25523586D01*
X154377963Y25487673D01*
X154405032Y25450310D01*
X154430346Y25411537D01*
X154453885Y25371390D01*
X154475629Y25329909D01*
X154495559Y25287131D01*
X154513654Y25243095D01*
X154529896Y25197839D01*
X154544264Y25151402D01*
X154556739Y25103821D01*
X154567301Y25055136D01*
X154575930Y25005383D01*
X154582608Y24954602D01*
X154063749Y24954602D01*
X154048262Y25023198D01*
X154039419Y25055703D01*
X154029849Y25087021D01*
X154019556Y25117158D01*
X154008545Y25146120D01*
X153996819Y25173913D01*
X153984384Y25200542D01*
X153971243Y25226014D01*
X153957401Y25250335D01*
X153942862Y25273510D01*
X153927631Y25295546D01*
X153911711Y25316449D01*
X153895108Y25336225D01*
X153877825Y25354879D01*
X153859866Y25372418D01*
X153841237Y25388848D01*
X153821941Y25404174D01*
X153801983Y25418403D01*
X153781367Y25431540D01*
X153760097Y25443592D01*
X153738178Y25454565D01*
X153715613Y25464464D01*
X153692408Y25473296D01*
X153668567Y25481066D01*
X153644094Y25487781D01*
X153618993Y25493447D01*
X153593268Y25498069D01*
X153566924Y25501653D01*
X153539966Y25504206D01*
X153512397Y25505733D01*
X153484222Y25506241D01*
X153417661Y25502886D01*
X153353161Y25492771D01*
X153321781Y25485155D01*
X153291031Y25475821D01*
X153260951Y25464759D01*
X153231579Y25451960D01*
X153202953Y25437415D01*
X153175113Y25421113D01*
X153148096Y25403047D01*
X153121940Y25383205D01*
X153096686Y25361580D01*
X153072370Y25338161D01*
X153049032Y25312939D01*
X153026710Y25285904D01*
X153005442Y25257048D01*
X152985267Y25226360D01*
X152966224Y25193832D01*
X152948351Y25159454D01*
X152931687Y25123217D01*
X152916270Y25085110D01*
X152902138Y25045125D01*
X152889330Y25003253D01*
X152867841Y24913807D01*
X152852110Y24816698D01*
X152842445Y24711850D01*
X152839155Y24599187D01*
X152839971Y24537205D01*
X152842390Y24477478D01*
X152846374Y24419987D01*
X152851884Y24364713D01*
X152858879Y24311637D01*
X152867321Y24260741D01*
X152877170Y24212005D01*
X152888387Y24165411D01*
X152900933Y24120939D01*
X152914768Y24078572D01*
X152929852Y24038290D01*
X152946146Y24000075D01*
X152963612Y23963907D01*
X152982208Y23929768D01*
X153001897Y23897638D01*
X153022639Y23867500D01*
X153044394Y23839335D01*
X153067123Y23813123D01*
X153090786Y23788845D01*
X153115345Y23766484D01*
X153140759Y23746019D01*
X153166989Y23727433D01*
X153193997Y23710707D01*
X153221742Y23695820D01*
X153250186Y23682756D01*
X153279288Y23671495D01*
X153309009Y23662017D01*
X153339311Y23654306D01*
X153370153Y23648340D01*
X153401497Y23644102D01*
X153433302Y23641574D01*
X153465530Y23640735D01*
X153492889Y23641255D01*
X153519746Y23642813D01*
X153546091Y23645405D01*
X153571914Y23649028D01*
X153597207Y23653679D01*
X153621959Y23659354D01*
X153646161Y23666049D01*
X153669805Y23673761D01*
X153692880Y23682488D01*
X153715377Y23692224D01*
X153737287Y23702967D01*
X153758600Y23714714D01*
X153779307Y23727461D01*
X153799398Y23741204D01*
X153818864Y23755940D01*
X153837696Y23771666D01*
X153855884Y23788378D01*
X153873419Y23806073D01*
X153890292Y23824747D01*
X153906492Y23844397D01*
X153922010Y23865019D01*
X153936838Y23886610D01*
X153950966Y23909167D01*
X153964384Y23932686D01*
X153977082Y23957163D01*
X153989053Y23982596D01*
X154000285Y24008981D01*
X154010770Y24036313D01*
X154029459Y24093810D01*
X154045047Y24155059D01*
X154568541Y24155059D01*
X154556680Y24100279D01*
X154543013Y24047255D01*
X154527568Y23995984D01*
X154510375Y23946467D01*
X154491463Y23898702D01*
X154470861Y23852688D01*
X154448599Y23808424D01*
X154424704Y23765909D01*
X154399207Y23725142D01*
X154372137Y23686122D01*
X154343522Y23648847D01*
X154313392Y23613317D01*
X154281776Y23579531D01*
X154248703Y23547487D01*
X154214203Y23517185D01*
X154178304Y23488623D01*
X154141035Y23461800D01*
X154102426Y23436715D01*
X154062505Y23413368D01*
X154021303Y23391757D01*
X153978847Y23371881D01*
X153935168Y23353739D01*
X153844254Y23322652D01*
X153748794Y23298488D01*
X153649022Y23281239D01*
X153545170Y23270896D01*
X153437471Y23267450D01*
X153317616Y23272278D01*
X153201981Y23286823D01*
X153145898Y23297768D01*
X153091051Y23311176D01*
X153037502Y23327059D01*
X152985310Y23345428D01*
X152934537Y23366295D01*
X152885244Y23389670D01*
X152837489Y23415566D01*
X152791336Y23443994D01*
X152746843Y23474965D01*
X152704071Y23508491D01*
X152663081Y23544583D01*
X152623934Y23583252D01*
X152586690Y23624509D01*
X152551410Y23668367D01*
X152518154Y23714837D01*
X152486984Y23763929D01*
X152457958Y23815656D01*
X152431139Y23870028D01*
X152406586Y23927058D01*
X152384361Y23986756D01*
X152364524Y24049134D01*
X152347135Y24114204D01*
X152332255Y24181976D01*
X152319944Y24252462D01*
X152310264Y24325674D01*
X152303275Y24401622D01*
X152299036Y24480319D01*
X152297610Y24561776D01*
X152299210Y24640017D01*
X152303956Y24716044D01*
X152311763Y24789839D01*
X152322551Y24861386D01*
X152336235Y24930666D01*
X152352733Y24997661D01*
X152371963Y25062354D01*
X152393840Y25124728D01*
X152418284Y25184763D01*
X152445211Y25242443D01*
X152474537Y25297750D01*
X152506181Y25350666D01*
X152540060Y25401174D01*
X152576090Y25449255D01*
X152614190Y25494892D01*
X152654275Y25538068D01*
X152696264Y25578764D01*
X152740074Y25616963D01*
X152785622Y25652648D01*
X152832825Y25685799D01*
X152881600Y25716400D01*
X152931864Y25744434D01*
X152983536Y25769881D01*
X153036531Y25792725D01*
X153090768Y25812948D01*
X153146163Y25830532D01*
X153202634Y25845460D01*
X153260098Y25857713D01*
X153318471Y25867274D01*
X153377672Y25874125D01*
X153437618Y25878249D01*
X153498225Y25879627D01*
X153556272Y25878526D01*
G37*
G36*
X151584429Y26678531D02*
G01*
X151600240Y26677440D01*
X151615773Y26675642D01*
X151631010Y26673150D01*
X151645936Y26669981D01*
X151660535Y26666150D01*
X151674789Y26661673D01*
X151688684Y26656564D01*
X151702202Y26650840D01*
X151715328Y26644515D01*
X151728045Y26637606D01*
X151740336Y26630127D01*
X151752187Y26622094D01*
X151763580Y26613522D01*
X151774499Y26604427D01*
X151784928Y26594825D01*
X151794851Y26584729D01*
X151804252Y26574157D01*
X151813114Y26563124D01*
X151821420Y26551644D01*
X151829156Y26539733D01*
X151836304Y26527407D01*
X151842848Y26514682D01*
X151848773Y26501571D01*
X151854061Y26488092D01*
X151858697Y26474259D01*
X151862664Y26460087D01*
X151865947Y26445593D01*
X151868528Y26430792D01*
X151870392Y26415698D01*
X151871522Y26400328D01*
X151871902Y26384696D01*
X151871522Y26368636D01*
X151870392Y26352864D01*
X151868528Y26337395D01*
X151865947Y26322243D01*
X151862664Y26307424D01*
X151858697Y26292951D01*
X151854061Y26278839D01*
X151848773Y26265103D01*
X151842848Y26251757D01*
X151836304Y26238816D01*
X151829156Y26226293D01*
X151821420Y26214205D01*
X151813114Y26202565D01*
X151804252Y26191387D01*
X151794851Y26180686D01*
X151784928Y26170478D01*
X151774499Y26160775D01*
X151763580Y26151594D01*
X151752187Y26142947D01*
X151740336Y26134851D01*
X151728045Y26127318D01*
X151715328Y26120365D01*
X151702202Y26114005D01*
X151688684Y26108252D01*
X151674789Y26103122D01*
X151660535Y26098629D01*
X151645936Y26094788D01*
X151631010Y26091612D01*
X151615773Y26089117D01*
X151600240Y26087317D01*
X151584429Y26086226D01*
X151568355Y26085859D01*
X151552293Y26086226D01*
X151536520Y26087317D01*
X151521051Y26089117D01*
X151505898Y26091612D01*
X151491079Y26094788D01*
X151476605Y26098629D01*
X151462493Y26103122D01*
X151448757Y26108252D01*
X151435411Y26114004D01*
X151422469Y26120364D01*
X151409947Y26127317D01*
X151397859Y26134849D01*
X151386218Y26142946D01*
X151375041Y26151592D01*
X151364341Y26160773D01*
X151354132Y26170476D01*
X151344430Y26180684D01*
X151335248Y26191385D01*
X151326602Y26202562D01*
X151318506Y26214203D01*
X151310974Y26226291D01*
X151304021Y26238813D01*
X151297661Y26251755D01*
X151291909Y26265101D01*
X151286780Y26278837D01*
X151282287Y26292949D01*
X151278446Y26307422D01*
X151275270Y26322242D01*
X151272775Y26337393D01*
X151270975Y26352863D01*
X151269884Y26368635D01*
X151269517Y26384696D01*
X151269884Y26400328D01*
X151270975Y26415698D01*
X151272775Y26430792D01*
X151275270Y26445593D01*
X151278446Y26460087D01*
X151282288Y26474259D01*
X151286781Y26488092D01*
X151291911Y26501571D01*
X151297663Y26514682D01*
X151304023Y26527407D01*
X151310977Y26539733D01*
X151318509Y26551644D01*
X151326605Y26563124D01*
X151335252Y26574157D01*
X151344434Y26584729D01*
X151354136Y26594825D01*
X151364345Y26604427D01*
X151375045Y26613522D01*
X151386223Y26622094D01*
X151397863Y26630127D01*
X151409952Y26637606D01*
X151422474Y26644515D01*
X151435415Y26650840D01*
X151448761Y26656564D01*
X151462498Y26661673D01*
X151476609Y26666150D01*
X151491082Y26669981D01*
X151505902Y26673150D01*
X151521053Y26675642D01*
X151536522Y26677440D01*
X151552294Y26678531D01*
X151568355Y26678898D01*
X151584429Y26678531D01*
G37*
G36*
X151825140Y23332835D02*
G01*
X151311558Y23332835D01*
X151311558Y25814157D01*
X151825140Y25814157D01*
X151825140Y23332835D01*
G37*
G36*
X149741087Y23710841D02*
G01*
X150428013Y25814157D01*
X150974760Y25814157D01*
X150026114Y23332835D01*
X149427991Y23332835D01*
X148479355Y25814157D01*
X149044783Y25814157D01*
X149741087Y23710841D01*
G37*
G36*
X147264975Y25878052D02*
G01*
X147329533Y25873372D01*
X147392123Y25865658D01*
X147452736Y25854980D01*
X147511361Y25841408D01*
X147567988Y25825011D01*
X147622606Y25805860D01*
X147675207Y25784024D01*
X147725780Y25759574D01*
X147774314Y25732580D01*
X147820800Y25703111D01*
X147865227Y25671238D01*
X147907586Y25637030D01*
X147947866Y25600558D01*
X147986057Y25561891D01*
X148022149Y25521100D01*
X148056132Y25478254D01*
X148087996Y25433423D01*
X148117731Y25386678D01*
X148145326Y25338089D01*
X148170772Y25287724D01*
X148194058Y25235655D01*
X148215174Y25181952D01*
X148234110Y25126683D01*
X148250857Y25069920D01*
X148265403Y25011732D01*
X148287855Y24891362D01*
X148301386Y24766132D01*
X148305914Y24636603D01*
X148305903Y24636603D01*
X148305757Y24597296D01*
X148304734Y24549671D01*
X148303619Y24522875D01*
X148301956Y24494162D01*
X148299635Y24463587D01*
X148296547Y24431204D01*
X146515774Y24431204D01*
X146520382Y24376670D01*
X146526303Y24324429D01*
X146533507Y24274444D01*
X146541963Y24226679D01*
X146551643Y24181096D01*
X146562516Y24137659D01*
X146574551Y24096331D01*
X146587720Y24057075D01*
X146601991Y24019854D01*
X146617336Y23984631D01*
X146633723Y23951370D01*
X146651124Y23920034D01*
X146669507Y23890585D01*
X146688844Y23862987D01*
X146709103Y23837204D01*
X146730256Y23813197D01*
X146752271Y23790932D01*
X146775120Y23770369D01*
X146798772Y23751474D01*
X146823196Y23734208D01*
X146848364Y23718535D01*
X146874244Y23704418D01*
X146900808Y23691821D01*
X146928025Y23680706D01*
X146955865Y23671037D01*
X146984298Y23662777D01*
X147013293Y23655888D01*
X147042822Y23650335D01*
X147072854Y23646080D01*
X147103360Y23643086D01*
X147165669Y23640735D01*
X147193533Y23641268D01*
X147220991Y23642860D01*
X147248023Y23645503D01*
X147274608Y23649186D01*
X147300723Y23653900D01*
X147326347Y23659637D01*
X147351459Y23666385D01*
X147376038Y23674137D01*
X147400061Y23682882D01*
X147423508Y23692611D01*
X147446358Y23703315D01*
X147468588Y23714984D01*
X147490178Y23727608D01*
X147511105Y23741179D01*
X147531349Y23755688D01*
X147550889Y23771123D01*
X147569702Y23787477D01*
X147587767Y23804739D01*
X147605064Y23822901D01*
X147621569Y23841952D01*
X147637263Y23861883D01*
X147652124Y23882686D01*
X147666129Y23904350D01*
X147679259Y23926866D01*
X147691491Y23950225D01*
X147702804Y23974417D01*
X147713177Y23999433D01*
X147722588Y24025263D01*
X147731015Y24051898D01*
X147738438Y24079328D01*
X147744835Y24107545D01*
X147750184Y24136538D01*
X148268498Y24136538D01*
X148257378Y24082211D01*
X148244176Y24029690D01*
X148228947Y23978969D01*
X148211743Y23930045D01*
X148192620Y23882911D01*
X148171630Y23837562D01*
X148148828Y23793992D01*
X148124267Y23752197D01*
X148098001Y23712171D01*
X148070083Y23673908D01*
X148040568Y23637403D01*
X148009510Y23602651D01*
X147976961Y23569647D01*
X147942976Y23538384D01*
X147907609Y23508859D01*
X147870913Y23481064D01*
X147832943Y23454996D01*
X147793751Y23430648D01*
X147753392Y23408016D01*
X147711920Y23387094D01*
X147625849Y23350357D01*
X147535970Y23320396D01*
X147442711Y23297168D01*
X147346505Y23280629D01*
X147247780Y23270738D01*
X147146966Y23267450D01*
X147024497Y23272382D01*
X146964859Y23278558D01*
X146906368Y23287216D01*
X146849085Y23298364D01*
X146793072Y23312009D01*
X146738390Y23328159D01*
X146685100Y23346819D01*
X146633264Y23367998D01*
X146582943Y23391702D01*
X146534199Y23417939D01*
X146487093Y23446716D01*
X146441686Y23478039D01*
X146398039Y23511917D01*
X146356215Y23548355D01*
X146316274Y23587363D01*
X146278279Y23628945D01*
X146242289Y23673110D01*
X146208368Y23719865D01*
X146176576Y23769217D01*
X146146974Y23821173D01*
X146119624Y23875740D01*
X146094587Y23932925D01*
X146071925Y23992736D01*
X146051700Y24055179D01*
X146033972Y24120262D01*
X146018802Y24187992D01*
X146006254Y24258375D01*
X145996387Y24331420D01*
X145989263Y24407134D01*
X145984943Y24485522D01*
X145983490Y24566593D01*
X145984945Y24639451D01*
X145989275Y24710750D01*
X145996429Y24780441D01*
X145997898Y24790513D01*
X146520410Y24790513D01*
X147778254Y24790513D01*
X147769323Y24874106D01*
X147763420Y24914108D01*
X147756562Y24952901D01*
X147748748Y24990473D01*
X147739980Y25026815D01*
X147730258Y25061917D01*
X147719583Y25095767D01*
X147707957Y25128357D01*
X147695379Y25159675D01*
X147681850Y25189712D01*
X147667373Y25218457D01*
X147651947Y25245899D01*
X147635573Y25272029D01*
X147618252Y25296837D01*
X147599985Y25320311D01*
X147580773Y25342443D01*
X147560616Y25363221D01*
X147539516Y25382635D01*
X147517474Y25400675D01*
X147494489Y25417331D01*
X147470564Y25432593D01*
X147445699Y25446449D01*
X147419894Y25458891D01*
X147393151Y25469907D01*
X147365470Y25479488D01*
X147336853Y25487623D01*
X147307300Y25494302D01*
X147276812Y25499515D01*
X147245390Y25503250D01*
X147213035Y25505500D01*
X147179747Y25506252D01*
X147115168Y25503456D01*
X147083786Y25499962D01*
X147053033Y25495069D01*
X147022927Y25488779D01*
X146993486Y25481092D01*
X146964728Y25472006D01*
X146936671Y25461522D01*
X146909333Y25449641D01*
X146882732Y25436362D01*
X146856886Y25421684D01*
X146831814Y25405609D01*
X146807532Y25388136D01*
X146784059Y25369265D01*
X146761413Y25348996D01*
X146739613Y25327329D01*
X146718675Y25304264D01*
X146698618Y25279801D01*
X146679460Y25253940D01*
X146661220Y25226680D01*
X146643914Y25198023D01*
X146627561Y25167967D01*
X146612180Y25136514D01*
X146597787Y25103662D01*
X146584401Y25069412D01*
X146572041Y25033764D01*
X146550466Y24958273D01*
X146533208Y24877190D01*
X146520410Y24790513D01*
X145997898Y24790513D01*
X146006354Y24848475D01*
X146018999Y24914802D01*
X146034311Y24979372D01*
X146052239Y25042137D01*
X146072730Y25103046D01*
X146095733Y25162051D01*
X146121195Y25219101D01*
X146149065Y25274148D01*
X146179291Y25327141D01*
X146211820Y25378031D01*
X146246602Y25426770D01*
X146283582Y25473306D01*
X146322711Y25517592D01*
X146363936Y25559576D01*
X146407204Y25599211D01*
X146452464Y25636446D01*
X146499664Y25671232D01*
X146548752Y25703520D01*
X146599676Y25733259D01*
X146652384Y25760401D01*
X146706824Y25784896D01*
X146762944Y25806695D01*
X146820692Y25825747D01*
X146880017Y25842004D01*
X146940865Y25855417D01*
X147003185Y25865935D01*
X147066926Y25873509D01*
X147132035Y25878089D01*
X147198460Y25879627D01*
X147264975Y25878052D01*
G37*
G36*
X144087870Y26557013D02*
G01*
X144136670Y26556322D01*
X144182841Y26554977D01*
X144228574Y26552760D01*
X144276060Y26549452D01*
X144327490Y26544835D01*
X144385055Y26538692D01*
X144522934Y26517330D01*
X144655672Y26486430D01*
X144782750Y26445868D01*
X144903652Y26395519D01*
X144961625Y26366635D01*
X145017859Y26335257D01*
X145072290Y26301371D01*
X145124853Y26264959D01*
X145175483Y26226007D01*
X145224115Y26184499D01*
X145270686Y26140419D01*
X145315129Y26093752D01*
X145357380Y26044482D01*
X145397375Y25992593D01*
X145435048Y25938071D01*
X145470336Y25880899D01*
X145503172Y25821061D01*
X145533493Y25758543D01*
X145561234Y25693328D01*
X145586329Y25625401D01*
X145608715Y25554747D01*
X145628325Y25481349D01*
X145645097Y25405192D01*
X145658964Y25326261D01*
X145669863Y25244540D01*
X145677728Y25160013D01*
X145682494Y25072665D01*
X145684097Y24982480D01*
X145682440Y24893332D01*
X145677518Y24806477D01*
X145669400Y24721933D01*
X145658161Y24639717D01*
X145643870Y24559846D01*
X145626599Y24482336D01*
X145606421Y24407205D01*
X145583407Y24334469D01*
X145557627Y24264146D01*
X145529155Y24196252D01*
X145498061Y24130804D01*
X145464417Y24067820D01*
X145428295Y24007315D01*
X145389767Y23949309D01*
X145348903Y23893816D01*
X145305776Y23840854D01*
X145260457Y23790441D01*
X145213018Y23742592D01*
X145163530Y23697326D01*
X145112065Y23654658D01*
X145058695Y23614607D01*
X145003491Y23577188D01*
X144946524Y23542419D01*
X144887867Y23510317D01*
X144827591Y23480898D01*
X144765768Y23454181D01*
X144702469Y23430180D01*
X144637765Y23408915D01*
X144571729Y23390401D01*
X144504432Y23374655D01*
X144435946Y23361695D01*
X144366342Y23351537D01*
X144308780Y23345361D01*
X144257353Y23340719D01*
X144209868Y23337393D01*
X144164136Y23335163D01*
X144117964Y23333811D01*
X144069162Y23333116D01*
X143954904Y23332824D01*
X142931724Y23332824D01*
X142931724Y23743525D01*
X142931724Y26151233D01*
X143445296Y26151233D01*
X143445296Y23743525D01*
X143908142Y23743525D01*
X144018471Y23743817D01*
X144067767Y23744512D01*
X144113885Y23745864D01*
X144157372Y23748092D01*
X144198777Y23751417D01*
X144238650Y23756058D01*
X144258183Y23758940D01*
X144277539Y23762233D01*
X144277528Y23762228D01*
X144372659Y23780404D01*
X144463291Y23806805D01*
X144506850Y23823058D01*
X144549200Y23841328D01*
X144590312Y23861604D01*
X144630158Y23883871D01*
X144668711Y23908118D01*
X144705940Y23934331D01*
X144741819Y23962497D01*
X144776319Y23992604D01*
X144809412Y24024639D01*
X144841069Y24058589D01*
X144871263Y24094441D01*
X144899964Y24132181D01*
X144927145Y24171799D01*
X144952778Y24213279D01*
X144999283Y24301780D01*
X145039255Y24397580D01*
X145072466Y24500577D01*
X145098691Y24610667D01*
X145117703Y24727749D01*
X145129277Y24851719D01*
X145133185Y24982475D01*
X145132243Y25045188D01*
X145129436Y25106225D01*
X145124786Y25165579D01*
X145118317Y25223244D01*
X145110054Y25279215D01*
X145100020Y25333484D01*
X145088240Y25386048D01*
X145074737Y25436898D01*
X145059535Y25486030D01*
X145042659Y25533437D01*
X145024132Y25579114D01*
X145003979Y25623053D01*
X144982222Y25665251D01*
X144958887Y25705699D01*
X144933998Y25744392D01*
X144907577Y25781325D01*
X144879650Y25816491D01*
X144850240Y25849885D01*
X144819371Y25881500D01*
X144787067Y25911330D01*
X144753353Y25939369D01*
X144718251Y25965611D01*
X144681787Y25990051D01*
X144643983Y26012682D01*
X144604865Y26033498D01*
X144564455Y26052494D01*
X144522779Y26069662D01*
X144479859Y26084998D01*
X144435721Y26098496D01*
X144390387Y26110148D01*
X144343883Y26119950D01*
X144296231Y26127895D01*
X144257151Y26134269D01*
X144216810Y26139434D01*
X144174824Y26143500D01*
X144130811Y26146579D01*
X144084388Y26148781D01*
X144035172Y26150217D01*
X143982782Y26150997D01*
X143926834Y26151233D01*
X143445296Y26151233D01*
X142931724Y26151233D01*
X142931724Y26557304D01*
X143973617Y26557304D01*
X144087870Y26557013D01*
G37*
G36*
X140892938Y25795449D02*
G01*
X141379112Y25795449D01*
X141379112Y25436146D01*
X140892938Y25436146D01*
X140892938Y24136351D01*
X140893012Y24077896D01*
X140893529Y24026455D01*
X140894093Y24002268D01*
X140894934Y23978521D01*
X140896108Y23954774D01*
X140897670Y23930589D01*
X140902093Y23887231D01*
X140908515Y23848207D01*
X140917181Y23813360D01*
X140922433Y23797454D01*
X140928339Y23782534D01*
X140934929Y23768579D01*
X140942234Y23755569D01*
X140950286Y23743486D01*
X140959114Y23732310D01*
X140968751Y23722020D01*
X140979226Y23712597D01*
X140990570Y23704021D01*
X141002815Y23696274D01*
X141015991Y23689334D01*
X141030129Y23683182D01*
X141045260Y23677799D01*
X141061414Y23673165D01*
X141078623Y23669260D01*
X141096917Y23666064D01*
X141136884Y23661722D01*
X141181563Y23659982D01*
X141231199Y23660686D01*
X141286040Y23663676D01*
X141346332Y23668794D01*
X141346332Y23314116D01*
X141297676Y23307541D01*
X141249731Y23301842D01*
X141202332Y23297021D01*
X141155315Y23293075D01*
X141108514Y23290007D01*
X141061765Y23287815D01*
X141014901Y23286500D01*
X140967760Y23286062D01*
X140897650Y23287767D01*
X140864490Y23289909D01*
X140832575Y23292920D01*
X140801891Y23296805D01*
X140772424Y23301573D01*
X140744161Y23307231D01*
X140717088Y23313784D01*
X140691192Y23321240D01*
X140666458Y23329605D01*
X140642873Y23338887D01*
X140620424Y23349092D01*
X140599096Y23360227D01*
X140578877Y23372299D01*
X140559752Y23385315D01*
X140541707Y23399281D01*
X140524730Y23414205D01*
X140508805Y23430093D01*
X140493921Y23446952D01*
X140480062Y23464789D01*
X140467216Y23483611D01*
X140455368Y23503425D01*
X140444506Y23524236D01*
X140434614Y23546053D01*
X140425681Y23568882D01*
X140417691Y23592730D01*
X140410631Y23617604D01*
X140404488Y23643510D01*
X140399248Y23670456D01*
X140394898Y23698448D01*
X140391422Y23727493D01*
X140388809Y23757597D01*
X140386080Y23825255D01*
X140384678Y23902549D01*
X140384088Y24089589D01*
X140384088Y25436146D01*
X140033575Y25436146D01*
X140033575Y25795449D01*
X140384088Y25795449D01*
X140384088Y26389038D01*
X140892938Y26389038D01*
X140892938Y25795449D01*
G37*
G36*
X137929431Y24440006D02*
G01*
X137930387Y24370917D01*
X137933539Y24286920D01*
X137936072Y24241250D01*
X137939313Y24194154D01*
X137943316Y24146402D01*
X137948134Y24098759D01*
X137956791Y24049053D01*
X137968738Y24001661D01*
X137983972Y23956705D01*
X137992823Y23935179D01*
X138002495Y23914308D01*
X138012990Y23894108D01*
X138024306Y23874595D01*
X138036445Y23855783D01*
X138049406Y23837688D01*
X138063189Y23820325D01*
X138077794Y23803710D01*
X138093221Y23787859D01*
X138109470Y23772786D01*
X138126541Y23758507D01*
X138144434Y23745038D01*
X138163149Y23732394D01*
X138182687Y23720589D01*
X138203046Y23709641D01*
X138224227Y23699564D01*
X138246230Y23690373D01*
X138269056Y23682085D01*
X138292703Y23674713D01*
X138317173Y23668275D01*
X138342464Y23662785D01*
X138368578Y23658258D01*
X138395513Y23654711D01*
X138423270Y23652158D01*
X138451850Y23650615D01*
X138481251Y23650097D01*
X138547691Y23653370D01*
X138611779Y23663352D01*
X138673246Y23680291D01*
X138731827Y23704433D01*
X138759952Y23719282D01*
X138787255Y23736025D01*
X138813703Y23754691D01*
X138839263Y23775312D01*
X138863901Y23797918D01*
X138887583Y23822541D01*
X138910278Y23849211D01*
X138931951Y23877959D01*
X138952568Y23908816D01*
X138972097Y23941813D01*
X138990504Y23976980D01*
X139007757Y24014348D01*
X139038662Y24095812D01*
X139064546Y24186450D01*
X139085143Y24286510D01*
X139100185Y24396238D01*
X139109406Y24515879D01*
X139112539Y24645682D01*
X139112539Y25814157D01*
X139621486Y25814157D01*
X139621486Y23332840D01*
X139112539Y23332840D01*
X139112539Y23757608D01*
X138939548Y23449425D01*
X138902867Y23424307D01*
X138866400Y23401405D01*
X138830028Y23380637D01*
X138793637Y23361921D01*
X138757109Y23345175D01*
X138720327Y23330317D01*
X138683175Y23317263D01*
X138645537Y23305933D01*
X138607295Y23296243D01*
X138568333Y23288112D01*
X138528534Y23281458D01*
X138487781Y23276198D01*
X138445959Y23272250D01*
X138402950Y23269531D01*
X138358638Y23267961D01*
X138312906Y23267455D01*
X138265336Y23268296D01*
X138219033Y23270788D01*
X138174001Y23274888D01*
X138130247Y23280552D01*
X138087774Y23287738D01*
X138046587Y23296401D01*
X138006693Y23306498D01*
X137968095Y23317987D01*
X137930799Y23330822D01*
X137894811Y23344961D01*
X137860134Y23360360D01*
X137826774Y23376975D01*
X137794736Y23394764D01*
X137764025Y23413683D01*
X137734646Y23433687D01*
X137706605Y23454735D01*
X137679905Y23476781D01*
X137654553Y23499784D01*
X137630553Y23523698D01*
X137607910Y23548481D01*
X137586630Y23574090D01*
X137566717Y23600480D01*
X137548176Y23627608D01*
X137531013Y23655432D01*
X137515232Y23683906D01*
X137500839Y23712988D01*
X137487838Y23742635D01*
X137476235Y23772802D01*
X137466034Y23803446D01*
X137457241Y23834525D01*
X137449860Y23865993D01*
X137443898Y23897809D01*
X137437553Y23944682D01*
X137432403Y23991443D01*
X137428340Y24039297D01*
X137425257Y24089452D01*
X137423045Y24143115D01*
X137421599Y24201492D01*
X137420570Y24337215D01*
X137420570Y25814157D01*
X137929431Y25814157D01*
X137929431Y24440006D01*
G37*
G36*
X135948780Y25878065D02*
G01*
X136012696Y25873419D01*
X136074792Y25865755D01*
X136135048Y25855137D01*
X136193446Y25841627D01*
X136249967Y25825290D01*
X136304594Y25806190D01*
X136357306Y25784391D01*
X136408086Y25759957D01*
X136456914Y25732951D01*
X136503773Y25703438D01*
X136548643Y25671481D01*
X136591506Y25637145D01*
X136632343Y25600493D01*
X136671136Y25561589D01*
X136707866Y25520497D01*
X136742514Y25477281D01*
X136775062Y25432005D01*
X136805491Y25384733D01*
X136833783Y25335528D01*
X136859918Y25284455D01*
X136883878Y25231578D01*
X136905645Y25176960D01*
X136925200Y25120665D01*
X136942524Y25062758D01*
X136957598Y25003302D01*
X136980925Y24879998D01*
X136995030Y24751266D01*
X136999765Y24617617D01*
X136998138Y24533556D01*
X136993316Y24452258D01*
X136985388Y24373717D01*
X136974440Y24297927D01*
X136960561Y24224882D01*
X136943838Y24154575D01*
X136924360Y24087000D01*
X136902215Y24022152D01*
X136877489Y23960023D01*
X136850271Y23900607D01*
X136820650Y23843900D01*
X136788712Y23789893D01*
X136754546Y23738581D01*
X136718239Y23689958D01*
X136679880Y23644018D01*
X136639556Y23600754D01*
X136597356Y23560160D01*
X136553366Y23522230D01*
X136507675Y23486958D01*
X136460371Y23454338D01*
X136411541Y23424362D01*
X136361274Y23397026D01*
X136309658Y23372323D01*
X136256779Y23350246D01*
X136202727Y23330790D01*
X136147588Y23313948D01*
X136091452Y23299715D01*
X136034405Y23288083D01*
X135976536Y23279047D01*
X135917932Y23272600D01*
X135858682Y23268736D01*
X135798872Y23267450D01*
X135759734Y23268102D01*
X135719658Y23270045D01*
X135678912Y23273258D01*
X135637763Y23277722D01*
X135596477Y23283415D01*
X135555322Y23290319D01*
X135514565Y23298412D01*
X135474472Y23307675D01*
X135435312Y23318086D01*
X135397351Y23329627D01*
X135360856Y23342277D01*
X135326094Y23356015D01*
X135293333Y23370822D01*
X135262839Y23386677D01*
X135234879Y23403560D01*
X135209721Y23421451D01*
X135046097Y23668800D01*
X135046097Y22416696D01*
X134532515Y22416696D01*
X134532515Y24472968D01*
X135046107Y24472968D01*
X135047163Y24417108D01*
X135050283Y24363466D01*
X135055392Y24312011D01*
X135062416Y24262715D01*
X135071283Y24215548D01*
X135081919Y24170481D01*
X135094250Y24127486D01*
X135108203Y24086534D01*
X135123703Y24047594D01*
X135140678Y24010638D01*
X135159053Y23975638D01*
X135178756Y23942563D01*
X135199712Y23911385D01*
X135221848Y23882075D01*
X135245090Y23854604D01*
X135269365Y23828942D01*
X135294599Y23805061D01*
X135320718Y23782931D01*
X135347649Y23762524D01*
X135375318Y23743810D01*
X135403652Y23726760D01*
X135432577Y23711346D01*
X135462020Y23697537D01*
X135491906Y23685305D01*
X135522162Y23674622D01*
X135552715Y23665457D01*
X135583491Y23657782D01*
X135614416Y23651567D01*
X135645417Y23646785D01*
X135676421Y23643404D01*
X135738139Y23640735D01*
X135738139Y23640730D01*
X135776404Y23641647D01*
X135814029Y23644399D01*
X135850976Y23648982D01*
X135887208Y23655396D01*
X135922687Y23663639D01*
X135957375Y23673708D01*
X135991235Y23685603D01*
X136024229Y23699322D01*
X136056319Y23714862D01*
X136087467Y23732222D01*
X136117636Y23751401D01*
X136146788Y23772396D01*
X136174886Y23795206D01*
X136201891Y23819829D01*
X136227766Y23846264D01*
X136252474Y23874508D01*
X136275976Y23904560D01*
X136298235Y23936419D01*
X136319214Y23970082D01*
X136338874Y24005547D01*
X136357177Y24042814D01*
X136374087Y24081880D01*
X136389566Y24122744D01*
X136403575Y24165403D01*
X136416077Y24209857D01*
X136427034Y24256103D01*
X136436409Y24304139D01*
X136444164Y24353965D01*
X136450262Y24405578D01*
X136454664Y24458976D01*
X136458230Y24571122D01*
X136457506Y24621117D01*
X136455338Y24670243D01*
X136451735Y24718452D01*
X136446705Y24765697D01*
X136440258Y24811931D01*
X136432401Y24857108D01*
X136423144Y24901179D01*
X136412495Y24944099D01*
X136400462Y24985820D01*
X136387053Y25026294D01*
X136372278Y25065476D01*
X136356146Y25103317D01*
X136338663Y25139771D01*
X136319840Y25174791D01*
X136299684Y25208329D01*
X136278205Y25240339D01*
X136255410Y25270773D01*
X136231309Y25299586D01*
X136205909Y25326728D01*
X136179220Y25352154D01*
X136151249Y25375816D01*
X136122006Y25397668D01*
X136091499Y25417661D01*
X136059737Y25435750D01*
X136026728Y25451887D01*
X135992480Y25466025D01*
X135957002Y25478117D01*
X135920304Y25488116D01*
X135882392Y25495975D01*
X135843276Y25501647D01*
X135802965Y25505085D01*
X135761467Y25506241D01*
X135690254Y25503349D01*
X135620657Y25494499D01*
X135553087Y25479431D01*
X135487954Y25457885D01*
X135456430Y25444601D01*
X135425670Y25429599D01*
X135395725Y25412848D01*
X135366646Y25394314D01*
X135338484Y25373965D01*
X135311292Y25351769D01*
X135285120Y25327693D01*
X135260020Y25301704D01*
X135236043Y25273769D01*
X135213241Y25243857D01*
X135191664Y25211935D01*
X135171365Y25177969D01*
X135152395Y25141928D01*
X135134805Y25103779D01*
X135118646Y25063490D01*
X135103970Y25021027D01*
X135090828Y24976359D01*
X135079271Y24929453D01*
X135069352Y24880275D01*
X135061121Y24828794D01*
X135054629Y24774978D01*
X135049929Y24718793D01*
X135047071Y24660207D01*
X135046107Y24599187D01*
X135046107Y24472968D01*
X134532515Y24472968D01*
X134532515Y24599187D01*
X134532515Y25814157D01*
X135046097Y25814157D01*
X135046097Y25426239D01*
X135233070Y25692937D01*
X135260716Y25714262D01*
X135290922Y25734459D01*
X135323512Y25753494D01*
X135358306Y25771332D01*
X135395128Y25787940D01*
X135433799Y25803283D01*
X135474141Y25817327D01*
X135515977Y25830037D01*
X135559127Y25841381D01*
X135603415Y25851323D01*
X135648662Y25859829D01*
X135694691Y25866865D01*
X135741323Y25872397D01*
X135788381Y25876391D01*
X135835686Y25878813D01*
X135883061Y25879627D01*
X135948780Y25878065D01*
G37*
G36*
X133057436Y25878829D02*
G01*
X133105369Y25876434D01*
X133151947Y25872467D01*
X133197167Y25866950D01*
X133241022Y25859905D01*
X133283509Y25851353D01*
X133324621Y25841315D01*
X133364354Y25829812D01*
X133402702Y25816866D01*
X133439662Y25802497D01*
X133475227Y25786729D01*
X133509393Y25769580D01*
X133542155Y25751074D01*
X133573507Y25731230D01*
X133603445Y25710071D01*
X133631964Y25687618D01*
X133659059Y25663892D01*
X133684724Y25638914D01*
X133708954Y25612706D01*
X133731746Y25585289D01*
X133753093Y25556684D01*
X133772990Y25526912D01*
X133791433Y25495996D01*
X133808417Y25463955D01*
X133823936Y25430812D01*
X133837986Y25396587D01*
X133850561Y25361303D01*
X133861657Y25324980D01*
X133871268Y25287639D01*
X133879389Y25249302D01*
X133886016Y25209991D01*
X133891144Y25169726D01*
X133891144Y25169721D01*
X133897271Y25076087D01*
X133901639Y24978087D01*
X133904255Y24866074D01*
X133905125Y24730405D01*
X133905125Y23332824D01*
X133391543Y23332824D01*
X133391543Y24674291D01*
X133391399Y24760623D01*
X133390386Y24846070D01*
X133389282Y24889282D01*
X133387637Y24933255D01*
X133385340Y24978318D01*
X133382283Y25024799D01*
X133376392Y25076378D01*
X133367433Y25125820D01*
X133355297Y25172961D01*
X133339873Y25217636D01*
X133330895Y25238998D01*
X133321054Y25259681D01*
X133310336Y25279666D01*
X133298728Y25298932D01*
X133286216Y25317458D01*
X133272786Y25335225D01*
X133258425Y25352210D01*
X133243119Y25368394D01*
X133226855Y25383756D01*
X133209617Y25398276D01*
X133191394Y25411934D01*
X133172170Y25424707D01*
X133151934Y25436577D01*
X133130669Y25447523D01*
X133108364Y25457523D01*
X133085004Y25466558D01*
X133060576Y25474607D01*
X133035065Y25481650D01*
X133008459Y25487665D01*
X132980743Y25492633D01*
X132951904Y25496532D01*
X132921929Y25499343D01*
X132890802Y25501044D01*
X132858511Y25501616D01*
X132792693Y25498276D01*
X132728738Y25488048D01*
X132666975Y25470616D01*
X132607734Y25445666D01*
X132551342Y25412882D01*
X132524317Y25393455D01*
X132498128Y25371951D01*
X132472816Y25348332D01*
X132448422Y25322558D01*
X132424988Y25294590D01*
X132402553Y25264388D01*
X132381159Y25231913D01*
X132360848Y25197125D01*
X132323637Y25120456D01*
X132291249Y25034066D01*
X132264012Y24937640D01*
X132242256Y24830863D01*
X132226308Y24713421D01*
X132216499Y24584999D01*
X132213156Y24445282D01*
X132213156Y23332824D01*
X131699574Y23332824D01*
X131699574Y25814248D01*
X132213156Y25814248D01*
X132213156Y25403462D01*
X132381512Y25688221D01*
X132418193Y25714986D01*
X132454660Y25739331D01*
X132491031Y25761352D01*
X132527423Y25781145D01*
X132563951Y25798804D01*
X132600732Y25814426D01*
X132637884Y25828107D01*
X132675523Y25839941D01*
X132713765Y25850025D01*
X132752727Y25858454D01*
X132792526Y25865323D01*
X132833278Y25870730D01*
X132875101Y25874768D01*
X132918110Y25877534D01*
X132962422Y25879124D01*
X133008154Y25879633D01*
X133057436Y25878829D01*
G37*
G36*
X131040419Y23332824D02*
G01*
X130526837Y23332824D01*
X130526837Y26557304D01*
X131040419Y26557304D01*
X131040419Y23332824D01*
G37*
G36*
X128782178Y23332840D02*
G01*
X128268596Y23332840D01*
X128268596Y23725479D01*
X128081537Y23454055D01*
X128053893Y23433509D01*
X128023688Y23413892D01*
X127991100Y23395260D01*
X127956306Y23377666D01*
X127919486Y23361165D01*
X127880818Y23345813D01*
X127840478Y23331663D01*
X127798646Y23318770D01*
X127755500Y23307190D01*
X127711218Y23296976D01*
X127665978Y23288184D01*
X127619958Y23280867D01*
X127573336Y23275082D01*
X127526291Y23270881D01*
X127479000Y23268321D01*
X127431642Y23267455D01*
X127365921Y23269018D01*
X127302002Y23273663D01*
X127239904Y23281329D01*
X127179645Y23291951D01*
X127121243Y23305466D01*
X127064718Y23321813D01*
X127010088Y23340927D01*
X126957371Y23362746D01*
X126906587Y23387206D01*
X126857754Y23414245D01*
X126810891Y23443799D01*
X126766017Y23475805D01*
X126723149Y23510201D01*
X126682307Y23546923D01*
X126643510Y23585908D01*
X126606775Y23627093D01*
X126572123Y23670415D01*
X126539570Y23715811D01*
X126509137Y23763219D01*
X126480842Y23812574D01*
X126454702Y23863813D01*
X126430738Y23916875D01*
X126408968Y23971695D01*
X126389410Y24028211D01*
X126372083Y24086359D01*
X126357006Y24146077D01*
X126333675Y24269969D01*
X126319567Y24399383D01*
X126314831Y24533813D01*
X126315649Y24575854D01*
X126856473Y24575854D01*
X126857197Y24525867D01*
X126859364Y24476748D01*
X126862964Y24428545D01*
X126867988Y24381305D01*
X126874427Y24335075D01*
X126882270Y24289902D01*
X126891509Y24245833D01*
X126902134Y24202915D01*
X126914136Y24161196D01*
X126927505Y24120722D01*
X126942232Y24081541D01*
X126958308Y24043699D01*
X126975722Y24007244D01*
X126994467Y23972223D01*
X127014531Y23938683D01*
X127035907Y23906671D01*
X127058583Y23876234D01*
X127082552Y23847420D01*
X127107803Y23820275D01*
X127134328Y23794846D01*
X127162116Y23771181D01*
X127191159Y23749327D01*
X127221447Y23729330D01*
X127252970Y23711238D01*
X127285719Y23695099D01*
X127319685Y23680958D01*
X127354858Y23668864D01*
X127391229Y23658863D01*
X127428789Y23651003D01*
X127467528Y23645330D01*
X127507436Y23641891D01*
X127548504Y23640735D01*
X127548504Y23640740D01*
X127620550Y23643633D01*
X127690876Y23652486D01*
X127759078Y23667558D01*
X127824753Y23689110D01*
X127856516Y23702397D01*
X127887495Y23717401D01*
X127917641Y23734156D01*
X127946902Y23752693D01*
X127975228Y23773044D01*
X128002569Y23795244D01*
X128028873Y23819323D01*
X128054091Y23845314D01*
X128078172Y23873251D01*
X128101066Y23903165D01*
X128122721Y23935089D01*
X128143088Y23969056D01*
X128162116Y24005097D01*
X128179754Y24043246D01*
X128195952Y24083535D01*
X128210659Y24125997D01*
X128223826Y24170663D01*
X128235400Y24217567D01*
X128245333Y24266741D01*
X128253573Y24318218D01*
X128260070Y24372030D01*
X128264773Y24428209D01*
X128267631Y24486788D01*
X128268596Y24547800D01*
X128268596Y24678740D01*
X128267539Y24734179D01*
X128264419Y24787427D01*
X128259308Y24838512D01*
X128252277Y24887462D01*
X128243401Y24934307D01*
X128232752Y24979073D01*
X128220403Y25021790D01*
X128206426Y25062485D01*
X128190894Y25101188D01*
X128173881Y25137925D01*
X128155457Y25172726D01*
X128135698Y25205618D01*
X128114674Y25236631D01*
X128092459Y25265791D01*
X128069126Y25293129D01*
X128044747Y25318671D01*
X128019395Y25342445D01*
X127993143Y25364482D01*
X127966064Y25384807D01*
X127938229Y25403451D01*
X127909713Y25420440D01*
X127880588Y25435804D01*
X127850926Y25449571D01*
X127820801Y25461768D01*
X127790284Y25472425D01*
X127759450Y25481569D01*
X127728370Y25489229D01*
X127697117Y25495432D01*
X127634383Y25503584D01*
X127571832Y25506252D01*
X127533989Y25505334D01*
X127496759Y25502583D01*
X127460183Y25497999D01*
X127424297Y25491585D01*
X127389141Y25483342D01*
X127354754Y25473272D01*
X127321173Y25461377D01*
X127288437Y25447659D01*
X127256586Y25432118D01*
X127225656Y25414758D01*
X127195687Y25395579D01*
X127166717Y25374584D01*
X127138785Y25351773D01*
X127111930Y25327150D01*
X127086189Y25300715D01*
X127061601Y25272471D01*
X127038206Y25242418D01*
X127016040Y25210559D01*
X126995144Y25176896D01*
X126975554Y25141430D01*
X126957311Y25104163D01*
X126940452Y25065097D01*
X126925016Y25024233D01*
X126911041Y24981574D01*
X126898566Y24937120D01*
X126887629Y24890874D01*
X126878270Y24842837D01*
X126870525Y24793011D01*
X126864435Y24741398D01*
X126860037Y24688000D01*
X126856473Y24575854D01*
X126315649Y24575854D01*
X126316458Y24617471D01*
X126321281Y24698391D01*
X126329210Y24776579D01*
X126340160Y24852040D01*
X126354041Y24924780D01*
X126370766Y24994804D01*
X126390246Y25062117D01*
X126412395Y25126725D01*
X126437124Y25188632D01*
X126464345Y25247845D01*
X126493970Y25304369D01*
X126525911Y25358209D01*
X126560081Y25409370D01*
X126596392Y25457858D01*
X126634755Y25503678D01*
X126675083Y25546836D01*
X126717287Y25587337D01*
X126761281Y25625185D01*
X126806976Y25660388D01*
X126854284Y25692949D01*
X126903117Y25722875D01*
X126953388Y25750170D01*
X127005008Y25774840D01*
X127057889Y25796891D01*
X127111944Y25816327D01*
X127167085Y25833155D01*
X127223224Y25847379D01*
X127280273Y25859004D01*
X127338144Y25868037D01*
X127396749Y25874483D01*
X127456000Y25878346D01*
X127515809Y25879633D01*
X127554934Y25878979D01*
X127594999Y25877034D01*
X127635735Y25873816D01*
X127676877Y25869347D01*
X127718157Y25863648D01*
X127759307Y25856738D01*
X127800062Y25848640D01*
X127840153Y25839372D01*
X127879314Y25828956D01*
X127917278Y25817413D01*
X127953778Y25804763D01*
X127988546Y25791027D01*
X128021315Y25776225D01*
X128051818Y25760378D01*
X128079789Y25743507D01*
X128104960Y25725632D01*
X128268596Y25478192D01*
X128268596Y26767706D01*
X128782178Y26767706D01*
X128782178Y23332840D01*
G37*
G36*
X124969683Y25878052D02*
G01*
X125034241Y25873372D01*
X125096831Y25865658D01*
X125157443Y25854980D01*
X125216066Y25841408D01*
X125272691Y25825011D01*
X125327308Y25805860D01*
X125379906Y25784024D01*
X125430475Y25759574D01*
X125479006Y25732580D01*
X125525489Y25703111D01*
X125569912Y25671238D01*
X125612267Y25637030D01*
X125652543Y25600558D01*
X125690730Y25561891D01*
X125726818Y25521100D01*
X125760797Y25478254D01*
X125792656Y25433423D01*
X125822387Y25386678D01*
X125849978Y25338089D01*
X125875419Y25287724D01*
X125898701Y25235655D01*
X125919814Y25181952D01*
X125938747Y25126683D01*
X125955490Y25069920D01*
X125970034Y25011732D01*
X125992481Y24891362D01*
X126006009Y24766132D01*
X126010536Y24636603D01*
X126010504Y24636603D01*
X126010358Y24597296D01*
X126009336Y24549671D01*
X126008222Y24522875D01*
X126006561Y24494162D01*
X126004243Y24463587D01*
X126001158Y24431204D01*
X124220386Y24431204D01*
X124225002Y24376670D01*
X124230930Y24324429D01*
X124238140Y24274444D01*
X124246602Y24226679D01*
X124256287Y24181096D01*
X124267163Y24137659D01*
X124279202Y24096331D01*
X124292373Y24057075D01*
X124306647Y24019854D01*
X124321993Y23984631D01*
X124338381Y23951370D01*
X124355782Y23920034D01*
X124374166Y23890585D01*
X124393503Y23862987D01*
X124413763Y23837204D01*
X124434915Y23813197D01*
X124456931Y23790932D01*
X124479779Y23770369D01*
X124503431Y23751474D01*
X124527856Y23734208D01*
X124553025Y23718535D01*
X124578906Y23704418D01*
X124605471Y23691821D01*
X124632690Y23680706D01*
X124660533Y23671037D01*
X124688969Y23662777D01*
X124717968Y23655888D01*
X124747502Y23650335D01*
X124777540Y23646080D01*
X124808051Y23643086D01*
X124870376Y23640735D01*
X124898240Y23641268D01*
X124925699Y23642860D01*
X124952731Y23645503D01*
X124979315Y23649186D01*
X125005430Y23653900D01*
X125031054Y23659637D01*
X125056166Y23666385D01*
X125080745Y23674137D01*
X125104768Y23682882D01*
X125128216Y23692611D01*
X125151065Y23703315D01*
X125173295Y23714984D01*
X125194885Y23727608D01*
X125215813Y23741179D01*
X125236057Y23755688D01*
X125255596Y23771123D01*
X125274409Y23787477D01*
X125292475Y23804739D01*
X125309771Y23822901D01*
X125326277Y23841952D01*
X125341971Y23861883D01*
X125356831Y23882686D01*
X125370837Y23904350D01*
X125383966Y23926866D01*
X125396198Y23950225D01*
X125407511Y23974417D01*
X125417884Y23999433D01*
X125427295Y24025263D01*
X125435723Y24051898D01*
X125443145Y24079328D01*
X125449542Y24107545D01*
X125454892Y24136538D01*
X125973205Y24136538D01*
X125962078Y24082211D01*
X125948869Y24029690D01*
X125933634Y23978969D01*
X125916427Y23930045D01*
X125897299Y23882911D01*
X125876307Y23837562D01*
X125853502Y23793992D01*
X125828940Y23752197D01*
X125802673Y23712171D01*
X125774755Y23673908D01*
X125745240Y23637403D01*
X125714182Y23602651D01*
X125681635Y23569647D01*
X125647652Y23538384D01*
X125612286Y23508859D01*
X125575593Y23481064D01*
X125537625Y23454996D01*
X125498435Y23430648D01*
X125458079Y23408016D01*
X125416609Y23387094D01*
X125330544Y23350357D01*
X125240669Y23320396D01*
X125147415Y23297168D01*
X125051212Y23280629D01*
X124952488Y23270738D01*
X124851674Y23267450D01*
X124729190Y23272382D01*
X124669547Y23278558D01*
X124611051Y23287216D01*
X124553765Y23298364D01*
X124497749Y23312009D01*
X124443065Y23328159D01*
X124389773Y23346819D01*
X124337936Y23367998D01*
X124287615Y23391702D01*
X124238871Y23417939D01*
X124191766Y23446716D01*
X124146360Y23478039D01*
X124102715Y23511917D01*
X124060893Y23548355D01*
X124020955Y23587363D01*
X123982962Y23628945D01*
X123946976Y23673110D01*
X123913057Y23719865D01*
X123881268Y23769217D01*
X123851669Y23821173D01*
X123824322Y23875740D01*
X123799289Y23932925D01*
X123776630Y23992736D01*
X123756407Y24055179D01*
X123738681Y24120262D01*
X123723514Y24187992D01*
X123710968Y24258375D01*
X123701102Y24331420D01*
X123693980Y24407134D01*
X123689661Y24485522D01*
X123688208Y24566593D01*
X123689663Y24639451D01*
X123693992Y24710750D01*
X123701145Y24780441D01*
X123702614Y24790513D01*
X124225117Y24790513D01*
X125482962Y24790513D01*
X125474030Y24874106D01*
X125468128Y24914108D01*
X125461270Y24952901D01*
X125453456Y24990473D01*
X125444688Y25026815D01*
X125434967Y25061917D01*
X125424292Y25095767D01*
X125412666Y25128357D01*
X125400089Y25159675D01*
X125386561Y25189712D01*
X125372084Y25218457D01*
X125356658Y25245899D01*
X125340284Y25272029D01*
X125322964Y25296837D01*
X125304697Y25320311D01*
X125285486Y25342443D01*
X125265330Y25363221D01*
X125244230Y25382635D01*
X125222188Y25400675D01*
X125199204Y25417331D01*
X125175280Y25432593D01*
X125150415Y25446449D01*
X125124610Y25458891D01*
X125097868Y25469907D01*
X125070188Y25479488D01*
X125041571Y25487623D01*
X125012018Y25494302D01*
X124981530Y25499515D01*
X124950108Y25503250D01*
X124917753Y25505500D01*
X124884465Y25506252D01*
X124819870Y25503456D01*
X124788481Y25499962D01*
X124757723Y25495069D01*
X124727613Y25488779D01*
X124698168Y25481092D01*
X124669407Y25472006D01*
X124641348Y25461522D01*
X124614009Y25449641D01*
X124587407Y25436362D01*
X124561561Y25421684D01*
X124536489Y25405609D01*
X124512208Y25388136D01*
X124488736Y25369265D01*
X124466092Y25348996D01*
X124444293Y25327329D01*
X124423358Y25304264D01*
X124403303Y25279801D01*
X124384148Y25253940D01*
X124365910Y25226680D01*
X124348607Y25198023D01*
X124332257Y25167967D01*
X124316877Y25136514D01*
X124302487Y25103662D01*
X124289104Y25069412D01*
X124276745Y25033764D01*
X124255173Y24958273D01*
X124237916Y24877190D01*
X124225117Y24790513D01*
X123702614Y24790513D01*
X123711068Y24848475D01*
X123723711Y24914802D01*
X123739021Y24979372D01*
X123756946Y25042137D01*
X123777434Y25103046D01*
X123800434Y25162051D01*
X123825894Y25219101D01*
X123853761Y25274148D01*
X123883983Y25327141D01*
X123916509Y25378031D01*
X123951288Y25426770D01*
X123988266Y25473306D01*
X124027392Y25517592D01*
X124068614Y25559576D01*
X124111880Y25599211D01*
X124157139Y25636446D01*
X124204337Y25671232D01*
X124253425Y25703520D01*
X124304348Y25733259D01*
X124357056Y25760401D01*
X124411497Y25784896D01*
X124467619Y25806695D01*
X124525369Y25825747D01*
X124584696Y25842004D01*
X124645548Y25855417D01*
X124707873Y25865935D01*
X124771619Y25873509D01*
X124836735Y25878089D01*
X124903168Y25879627D01*
X124969683Y25878052D01*
G37*
G36*
X123448918Y25426789D02*
G01*
X122061159Y23701484D01*
X123467610Y23701484D01*
X123467610Y23332824D01*
X121481717Y23332824D01*
X121481717Y23687502D01*
X122878843Y25426789D01*
X121575166Y25426789D01*
X121575166Y25795449D01*
X123448918Y25795449D01*
X123448918Y25426789D01*
G37*
G36*
X120792612Y26678531D02*
G01*
X120808416Y26677440D01*
X120823940Y26675642D01*
X120839171Y26673150D01*
X120854090Y26669981D01*
X120868682Y26666150D01*
X120882931Y26661673D01*
X120896821Y26656564D01*
X120910334Y26650840D01*
X120923455Y26644515D01*
X120936168Y26637606D01*
X120948456Y26630127D01*
X120960303Y26622094D01*
X120971693Y26613522D01*
X120982610Y26604427D01*
X120993037Y26594825D01*
X121002957Y26584729D01*
X121012356Y26574157D01*
X121021216Y26563124D01*
X121029522Y26551644D01*
X121037256Y26539733D01*
X121044403Y26527407D01*
X121050947Y26514682D01*
X121056871Y26501571D01*
X121062159Y26488092D01*
X121066794Y26474259D01*
X121070761Y26460087D01*
X121074043Y26445593D01*
X121076624Y26430792D01*
X121078488Y26415698D01*
X121079618Y26400328D01*
X121079999Y26384696D01*
X121079618Y26368636D01*
X121078488Y26352864D01*
X121076624Y26337395D01*
X121074043Y26322243D01*
X121070761Y26307424D01*
X121066794Y26292951D01*
X121062159Y26278839D01*
X121056871Y26265103D01*
X121050947Y26251757D01*
X121044403Y26238816D01*
X121037256Y26226293D01*
X121029522Y26214205D01*
X121021216Y26202565D01*
X121012356Y26191387D01*
X121002957Y26180686D01*
X120993037Y26170478D01*
X120982610Y26160775D01*
X120971693Y26151594D01*
X120960303Y26142947D01*
X120948456Y26134851D01*
X120936168Y26127318D01*
X120923455Y26120365D01*
X120910334Y26114005D01*
X120896821Y26108252D01*
X120882931Y26103122D01*
X120868682Y26098629D01*
X120854090Y26094788D01*
X120839171Y26091612D01*
X120823940Y26089117D01*
X120808416Y26087317D01*
X120792612Y26086226D01*
X120776547Y26085859D01*
X120760486Y26086226D01*
X120744713Y26087317D01*
X120729243Y26089117D01*
X120714090Y26091612D01*
X120699270Y26094788D01*
X120684797Y26098629D01*
X120670684Y26103122D01*
X120656948Y26108252D01*
X120643601Y26114004D01*
X120630659Y26120364D01*
X120618137Y26127317D01*
X120606048Y26134849D01*
X120594407Y26142946D01*
X120583229Y26151592D01*
X120572528Y26160773D01*
X120562319Y26170476D01*
X120552616Y26180684D01*
X120543435Y26191385D01*
X120534788Y26202562D01*
X120526691Y26214203D01*
X120519159Y26226291D01*
X120512205Y26238813D01*
X120505845Y26251755D01*
X120500093Y26265101D01*
X120494963Y26278837D01*
X120490470Y26292949D01*
X120486628Y26307422D01*
X120483452Y26322242D01*
X120480957Y26337393D01*
X120479157Y26352863D01*
X120478066Y26368635D01*
X120477699Y26384696D01*
X120478066Y26400328D01*
X120479157Y26415698D01*
X120480957Y26430792D01*
X120483453Y26445593D01*
X120486629Y26460087D01*
X120490471Y26474259D01*
X120494964Y26488092D01*
X120500094Y26501571D01*
X120505847Y26514682D01*
X120512207Y26527407D01*
X120519161Y26539733D01*
X120526694Y26551644D01*
X120534791Y26563124D01*
X120543438Y26574157D01*
X120552620Y26584729D01*
X120562323Y26594825D01*
X120572532Y26604427D01*
X120583233Y26613522D01*
X120594411Y26622094D01*
X120606052Y26630127D01*
X120618141Y26637606D01*
X120630664Y26644515D01*
X120643606Y26650840D01*
X120656952Y26656564D01*
X120670689Y26661673D01*
X120684801Y26666150D01*
X120699274Y26669981D01*
X120714094Y26673150D01*
X120729245Y26675642D01*
X120744714Y26677440D01*
X120760486Y26678531D01*
X120776547Y26678898D01*
X120792612Y26678531D01*
G37*
G36*
X121033333Y23332835D02*
G01*
X120519740Y23332835D01*
X120519740Y25814157D01*
X121033333Y25814157D01*
X121033333Y23332835D01*
G37*
G36*
X119789374Y24089407D02*
G01*
X119789446Y24027936D01*
X119789953Y23969078D01*
X119791329Y23911974D01*
X119792479Y23883810D01*
X119794009Y23855763D01*
X119796447Y23830562D01*
X119800344Y23807511D01*
X119805842Y23786568D01*
X119809238Y23776874D01*
X119813087Y23767692D01*
X119817409Y23759016D01*
X119822222Y23750842D01*
X119827542Y23743164D01*
X119833389Y23735977D01*
X119839781Y23729276D01*
X119846734Y23723057D01*
X119854268Y23717313D01*
X119862399Y23712040D01*
X119871147Y23707232D01*
X119880529Y23702885D01*
X119890562Y23698993D01*
X119901266Y23695551D01*
X119912657Y23692555D01*
X119924755Y23689998D01*
X119951139Y23686184D01*
X119980562Y23684069D01*
X120013167Y23683610D01*
X120049098Y23684769D01*
X120088499Y23687502D01*
X120088499Y23328108D01*
X120049322Y23323090D01*
X120008988Y23318561D01*
X119967663Y23314577D01*
X119925513Y23311194D01*
X119882703Y23308466D01*
X119839398Y23306450D01*
X119795765Y23305199D01*
X119751968Y23304770D01*
X119702255Y23305949D01*
X119654731Y23309604D01*
X119609505Y23315912D01*
X119587789Y23320117D01*
X119566687Y23325052D01*
X119546215Y23330739D01*
X119526385Y23337200D01*
X119507212Y23344458D01*
X119488710Y23352535D01*
X119470891Y23361453D01*
X119453769Y23371234D01*
X119437359Y23381900D01*
X119421674Y23393474D01*
X119406727Y23405977D01*
X119392532Y23419433D01*
X119379103Y23433862D01*
X119366453Y23449288D01*
X119354596Y23465733D01*
X119343547Y23483218D01*
X119333317Y23501766D01*
X119323922Y23521399D01*
X119315375Y23542140D01*
X119307689Y23564010D01*
X119300878Y23587031D01*
X119294956Y23611227D01*
X119289936Y23636618D01*
X119285832Y23663228D01*
X119282658Y23691079D01*
X119280427Y23720192D01*
X119277747Y23794133D01*
X119276371Y23876858D01*
X119275792Y24075885D01*
X119275792Y26767706D01*
X119789374Y26767706D01*
X119789374Y24089407D01*
G37*
G36*
X117750710Y25878838D02*
G01*
X117807369Y25876485D01*
X117861818Y25872590D01*
X117914090Y25867175D01*
X117964217Y25860262D01*
X118012233Y25851874D01*
X118058169Y25842032D01*
X118102058Y25830758D01*
X118143934Y25818076D01*
X118183828Y25804006D01*
X118221774Y25788570D01*
X118257803Y25771792D01*
X118291949Y25753692D01*
X118324244Y25734294D01*
X118354721Y25713618D01*
X118383412Y25691688D01*
X118410351Y25668525D01*
X118435569Y25644151D01*
X118459099Y25618588D01*
X118480975Y25591859D01*
X118501228Y25563986D01*
X118519891Y25534990D01*
X118536998Y25504894D01*
X118552580Y25473719D01*
X118566670Y25441488D01*
X118579301Y25408224D01*
X118590505Y25373947D01*
X118600316Y25338680D01*
X118608765Y25302446D01*
X118615885Y25265266D01*
X118626271Y25188156D01*
X118629558Y25148337D01*
X118632405Y25106373D01*
X118634810Y25062760D01*
X118636776Y25017993D01*
X118639393Y24926974D01*
X118640263Y24837275D01*
X118640263Y23963466D01*
X118640738Y23893949D01*
X118642308Y23824714D01*
X118645193Y23754291D01*
X118649613Y23681207D01*
X118655787Y23603991D01*
X118663934Y23521172D01*
X118674273Y23431277D01*
X118687025Y23332835D01*
X118178090Y23332835D01*
X118131413Y23692229D01*
X118005098Y23426081D01*
X117972990Y23405071D01*
X117939827Y23385765D01*
X117905650Y23368114D01*
X117870501Y23352070D01*
X117834420Y23337586D01*
X117797449Y23324613D01*
X117759628Y23313104D01*
X117720999Y23303010D01*
X117681603Y23294284D01*
X117641481Y23286876D01*
X117600674Y23280741D01*
X117559223Y23275828D01*
X117517169Y23272091D01*
X117474553Y23269480D01*
X117431417Y23267950D01*
X117387802Y23267450D01*
X117346858Y23268187D01*
X117306434Y23270393D01*
X117266579Y23274060D01*
X117227346Y23279181D01*
X117188786Y23285748D01*
X117150949Y23293754D01*
X117113887Y23303191D01*
X117077651Y23314051D01*
X117042293Y23326328D01*
X117007863Y23340013D01*
X116974413Y23355099D01*
X116941994Y23371579D01*
X116910658Y23389444D01*
X116880454Y23408688D01*
X116851436Y23429302D01*
X116823653Y23451280D01*
X116797157Y23474613D01*
X116772000Y23499295D01*
X116748232Y23525317D01*
X116725904Y23552673D01*
X116705069Y23581353D01*
X116685777Y23611352D01*
X116668079Y23642661D01*
X116652026Y23675273D01*
X116637670Y23709181D01*
X116625063Y23744376D01*
X116614254Y23780851D01*
X116605296Y23818600D01*
X116598239Y23857613D01*
X116593135Y23897884D01*
X116590035Y23939405D01*
X116588991Y23982169D01*
X116591154Y24024311D01*
X117130621Y24024311D01*
X117131126Y24000161D01*
X117132630Y23976830D01*
X117135121Y23954315D01*
X117138584Y23932612D01*
X117143006Y23911718D01*
X117148374Y23891629D01*
X117154673Y23872343D01*
X117161889Y23853855D01*
X117170010Y23836161D01*
X117179021Y23819260D01*
X117188909Y23803147D01*
X117199660Y23787818D01*
X117211261Y23773271D01*
X117223697Y23759501D01*
X117236955Y23746506D01*
X117251022Y23734282D01*
X117265883Y23722826D01*
X117281525Y23712134D01*
X117297934Y23702202D01*
X117315097Y23693027D01*
X117333000Y23684606D01*
X117351629Y23676936D01*
X117370971Y23670012D01*
X117391011Y23663832D01*
X117433134Y23653688D01*
X117477888Y23646476D01*
X117525163Y23642170D01*
X117574850Y23640740D01*
X117604827Y23641383D01*
X117634231Y23643307D01*
X117663038Y23646506D01*
X117691221Y23650972D01*
X117718758Y23656699D01*
X117745622Y23663680D01*
X117771789Y23671908D01*
X117797235Y23681377D01*
X117821933Y23692078D01*
X117845861Y23704006D01*
X117868991Y23717154D01*
X117891301Y23731514D01*
X117912764Y23747081D01*
X117933356Y23763846D01*
X117953053Y23781804D01*
X117971829Y23800947D01*
X117989659Y23821269D01*
X118006519Y23842762D01*
X118022384Y23865420D01*
X118037229Y23889236D01*
X118051029Y23914203D01*
X118063760Y23940315D01*
X118075396Y23967564D01*
X118085912Y23995943D01*
X118095285Y24025447D01*
X118103488Y24056067D01*
X118110497Y24087797D01*
X118116288Y24120630D01*
X118120835Y24154560D01*
X118124114Y24189579D01*
X118126099Y24225681D01*
X118126767Y24262859D01*
X118126767Y24491959D01*
X118016156Y24498561D01*
X117962785Y24500233D01*
X117910746Y24500804D01*
X117860075Y24500263D01*
X117810804Y24498599D01*
X117762966Y24495800D01*
X117716596Y24491855D01*
X117671726Y24486754D01*
X117628389Y24480484D01*
X117586620Y24473035D01*
X117546452Y24464395D01*
X117507917Y24454553D01*
X117471050Y24443499D01*
X117435883Y24431220D01*
X117402451Y24417705D01*
X117370786Y24402944D01*
X117340922Y24386925D01*
X117312893Y24369638D01*
X117286731Y24351069D01*
X117262470Y24331210D01*
X117240144Y24310047D01*
X117219785Y24287571D01*
X117201428Y24263770D01*
X117185105Y24238632D01*
X117170851Y24212147D01*
X117158697Y24184303D01*
X117148679Y24155090D01*
X117140829Y24124495D01*
X117135180Y24092507D01*
X117131766Y24059117D01*
X117130621Y24024311D01*
X116591154Y24024311D01*
X116594148Y24082659D01*
X116600613Y24130658D01*
X116609683Y24177149D01*
X116621370Y24222122D01*
X116635685Y24265571D01*
X116652640Y24307487D01*
X116672245Y24347860D01*
X116694514Y24386684D01*
X116719455Y24423949D01*
X116747083Y24459647D01*
X116777406Y24493770D01*
X116810438Y24526310D01*
X116846189Y24557258D01*
X116884670Y24586606D01*
X116925894Y24614346D01*
X116969871Y24640469D01*
X117016613Y24664967D01*
X117118437Y24709055D01*
X117231457Y24746542D01*
X117355764Y24777364D01*
X117491449Y24801452D01*
X117638603Y24818740D01*
X117797317Y24829161D01*
X117967682Y24832650D01*
X118126777Y24832650D01*
X118126777Y24893394D01*
X118126631Y24962135D01*
X118125609Y25029094D01*
X118124496Y25062458D01*
X118122835Y25096037D01*
X118120516Y25130054D01*
X118117431Y25164727D01*
X118113463Y25201724D01*
X118106782Y25237176D01*
X118097306Y25270968D01*
X118091494Y25287205D01*
X118084953Y25302983D01*
X118077672Y25318288D01*
X118069642Y25333105D01*
X118060851Y25347420D01*
X118051289Y25361218D01*
X118040947Y25374484D01*
X118029814Y25387205D01*
X118017880Y25399365D01*
X118005134Y25410950D01*
X117991566Y25421945D01*
X117977166Y25432337D01*
X117961924Y25442109D01*
X117945830Y25451249D01*
X117928873Y25459741D01*
X117911042Y25467571D01*
X117892328Y25474724D01*
X117872721Y25481186D01*
X117852210Y25486942D01*
X117830785Y25491978D01*
X117808435Y25496279D01*
X117785151Y25499830D01*
X117760922Y25502618D01*
X117735738Y25504627D01*
X117682463Y25506252D01*
X117654828Y25505759D01*
X117628039Y25504285D01*
X117602092Y25501835D01*
X117576984Y25498414D01*
X117552711Y25494027D01*
X117529271Y25488679D01*
X117506659Y25482375D01*
X117484873Y25475120D01*
X117463908Y25466920D01*
X117443762Y25457779D01*
X117424431Y25447703D01*
X117405912Y25436696D01*
X117388201Y25424765D01*
X117371295Y25411913D01*
X117355190Y25398146D01*
X117339884Y25383469D01*
X117325372Y25367888D01*
X117311651Y25351406D01*
X117298718Y25334030D01*
X117286570Y25315765D01*
X117275202Y25296615D01*
X117264612Y25276587D01*
X117254796Y25255683D01*
X117245752Y25233911D01*
X117237474Y25211275D01*
X117229961Y25187780D01*
X117217212Y25138234D01*
X117207478Y25085314D01*
X117200732Y25029060D01*
X116687065Y25029060D01*
X116691217Y25079236D01*
X116697518Y25128025D01*
X116705929Y25175412D01*
X116716411Y25221384D01*
X116728925Y25265928D01*
X116743431Y25309030D01*
X116759891Y25350677D01*
X116778265Y25390856D01*
X116798515Y25429553D01*
X116820601Y25466754D01*
X116844483Y25502447D01*
X116870124Y25536617D01*
X116897483Y25569251D01*
X116926522Y25600337D01*
X116957201Y25629859D01*
X116989482Y25657806D01*
X117023324Y25684163D01*
X117058690Y25708917D01*
X117095540Y25732054D01*
X117133834Y25753562D01*
X117173534Y25773426D01*
X117214600Y25791634D01*
X117256994Y25808171D01*
X117300676Y25823024D01*
X117345607Y25836181D01*
X117391747Y25847627D01*
X117487502Y25865333D01*
X117587627Y25876036D01*
X117691809Y25879627D01*
X117750710Y25878838D01*
G37*
G36*
X115846627Y26678531D02*
G01*
X115862438Y26677440D01*
X115877970Y26675642D01*
X115893206Y26673150D01*
X115908132Y26669981D01*
X115922730Y26666150D01*
X115936984Y26661673D01*
X115950879Y26656564D01*
X115964397Y26650840D01*
X115977522Y26644515D01*
X115990239Y26637606D01*
X116002531Y26630127D01*
X116014382Y26622094D01*
X116025775Y26613522D01*
X116036694Y26604427D01*
X116047124Y26594825D01*
X116057047Y26584729D01*
X116066448Y26574157D01*
X116075310Y26563124D01*
X116083617Y26551644D01*
X116091353Y26539733D01*
X116098501Y26527407D01*
X116105046Y26514682D01*
X116110971Y26501571D01*
X116116259Y26488092D01*
X116120896Y26474259D01*
X116124863Y26460087D01*
X116128146Y26445593D01*
X116130727Y26430792D01*
X116132591Y26415698D01*
X116133721Y26400328D01*
X116134102Y26384696D01*
X116133721Y26368636D01*
X116132591Y26352864D01*
X116130727Y26337395D01*
X116128146Y26322243D01*
X116124863Y26307424D01*
X116120896Y26292951D01*
X116116259Y26278839D01*
X116110971Y26265103D01*
X116105046Y26251757D01*
X116098501Y26238816D01*
X116091353Y26226293D01*
X116083617Y26214205D01*
X116075310Y26202565D01*
X116066448Y26191387D01*
X116057047Y26180686D01*
X116047124Y26170478D01*
X116036694Y26160775D01*
X116025775Y26151594D01*
X116014382Y26142947D01*
X116002531Y26134851D01*
X115990239Y26127318D01*
X115977522Y26120365D01*
X115964397Y26114005D01*
X115950879Y26108252D01*
X115936984Y26103122D01*
X115922730Y26098629D01*
X115908132Y26094788D01*
X115893206Y26091612D01*
X115877970Y26089117D01*
X115862438Y26087317D01*
X115846627Y26086226D01*
X115830554Y26085859D01*
X115814501Y26086226D01*
X115798735Y26087317D01*
X115783272Y26089117D01*
X115768125Y26091612D01*
X115753310Y26094788D01*
X115738840Y26098629D01*
X115724731Y26103122D01*
X115710997Y26108252D01*
X115697652Y26114004D01*
X115684711Y26120364D01*
X115672189Y26127317D01*
X115660100Y26134849D01*
X115648459Y26142946D01*
X115637280Y26151592D01*
X115626578Y26160773D01*
X115616368Y26170476D01*
X115606663Y26180684D01*
X115597479Y26191385D01*
X115588830Y26202562D01*
X115580731Y26214203D01*
X115573196Y26226291D01*
X115566240Y26238813D01*
X115559877Y26251755D01*
X115554122Y26265101D01*
X115548990Y26278837D01*
X115544494Y26292949D01*
X115540651Y26307422D01*
X115537473Y26322242D01*
X115534977Y26337393D01*
X115533175Y26352863D01*
X115532084Y26368635D01*
X115531717Y26384696D01*
X115532084Y26400328D01*
X115533175Y26415698D01*
X115534977Y26430792D01*
X115537473Y26445593D01*
X115540651Y26460087D01*
X115544494Y26474259D01*
X115548990Y26488092D01*
X115554122Y26501571D01*
X115559877Y26514682D01*
X115566240Y26527407D01*
X115573196Y26539733D01*
X115580731Y26551644D01*
X115588830Y26563124D01*
X115597479Y26574157D01*
X115606663Y26584729D01*
X115616368Y26594825D01*
X115626578Y26604427D01*
X115637280Y26613522D01*
X115648459Y26622094D01*
X115660100Y26630127D01*
X115672189Y26637606D01*
X115684711Y26644515D01*
X115697652Y26650840D01*
X115710997Y26656564D01*
X115724731Y26661673D01*
X115738840Y26666150D01*
X115753310Y26669981D01*
X115768125Y26673150D01*
X115783272Y26675642D01*
X115798735Y26677440D01*
X115814501Y26678531D01*
X115830554Y26678898D01*
X115846627Y26678531D01*
G37*
G36*
X116087340Y23332835D02*
G01*
X115573758Y23332835D01*
X115573758Y25814157D01*
X116087340Y25814157D01*
X116087340Y23332835D01*
G37*
G36*
X114103215Y25878526D02*
G01*
X114159900Y25875248D01*
X114215203Y25869832D01*
X114269105Y25862316D01*
X114321587Y25852738D01*
X114372627Y25841137D01*
X114422207Y25827550D01*
X114470307Y25812016D01*
X114516908Y25794573D01*
X114561989Y25775260D01*
X114605531Y25754115D01*
X114647514Y25731176D01*
X114687919Y25706481D01*
X114726726Y25680069D01*
X114763915Y25651977D01*
X114799466Y25622245D01*
X114833361Y25590910D01*
X114865579Y25558011D01*
X114896100Y25523586D01*
X114924905Y25487673D01*
X114951975Y25450310D01*
X114977289Y25411537D01*
X115000827Y25371390D01*
X115022571Y25329909D01*
X115042501Y25287131D01*
X115060596Y25243095D01*
X115076838Y25197839D01*
X115091206Y25151402D01*
X115103681Y25103821D01*
X115114243Y25055136D01*
X115122873Y25005383D01*
X115129550Y24954602D01*
X114610777Y24954602D01*
X114595276Y25023198D01*
X114586427Y25055703D01*
X114576852Y25087021D01*
X114566555Y25117158D01*
X114555540Y25146120D01*
X114543812Y25173913D01*
X114531374Y25200542D01*
X114518232Y25226014D01*
X114504388Y25250335D01*
X114489849Y25273510D01*
X114474616Y25295546D01*
X114458696Y25316449D01*
X114442093Y25336225D01*
X114424810Y25354879D01*
X114406851Y25372418D01*
X114388222Y25388848D01*
X114368926Y25404174D01*
X114348967Y25418403D01*
X114328351Y25431540D01*
X114307080Y25443592D01*
X114285160Y25454565D01*
X114262595Y25464464D01*
X114239388Y25473296D01*
X114215544Y25481066D01*
X114191068Y25487781D01*
X114165964Y25493447D01*
X114140235Y25498069D01*
X114113886Y25501653D01*
X114086922Y25504206D01*
X114059347Y25505733D01*
X114031164Y25506241D01*
X113964618Y25502886D01*
X113900131Y25492771D01*
X113868757Y25485155D01*
X113838013Y25475821D01*
X113807938Y25464759D01*
X113778571Y25451960D01*
X113749949Y25437415D01*
X113722113Y25421113D01*
X113695099Y25403047D01*
X113668947Y25383205D01*
X113643695Y25361580D01*
X113619382Y25338161D01*
X113596047Y25312939D01*
X113573727Y25285904D01*
X113552461Y25257048D01*
X113532288Y25226360D01*
X113513246Y25193832D01*
X113495374Y25159454D01*
X113478711Y25123217D01*
X113463295Y25085110D01*
X113449163Y25045125D01*
X113436356Y25003253D01*
X113414868Y24913807D01*
X113399137Y24816698D01*
X113389473Y24711850D01*
X113386183Y24599187D01*
X113386998Y24537205D01*
X113389416Y24477478D01*
X113393399Y24419987D01*
X113398907Y24364713D01*
X113405900Y24311637D01*
X113414340Y24260741D01*
X113424186Y24212005D01*
X113435400Y24165411D01*
X113447942Y24120939D01*
X113461773Y24078572D01*
X113476853Y24038290D01*
X113493143Y24000075D01*
X113510604Y23963907D01*
X113529197Y23929768D01*
X113548881Y23897638D01*
X113569618Y23867500D01*
X113591369Y23839335D01*
X113614093Y23813123D01*
X113637752Y23788845D01*
X113662306Y23766484D01*
X113687717Y23746019D01*
X113713943Y23727433D01*
X113740947Y23710707D01*
X113768689Y23695820D01*
X113797129Y23682756D01*
X113826228Y23671495D01*
X113855947Y23662017D01*
X113886247Y23654306D01*
X113917087Y23648340D01*
X113948429Y23644102D01*
X113980234Y23641574D01*
X114012462Y23640735D01*
X114039821Y23641255D01*
X114066678Y23642813D01*
X114093022Y23645405D01*
X114118846Y23649028D01*
X114144138Y23653679D01*
X114168891Y23659354D01*
X114193094Y23666049D01*
X114216738Y23673761D01*
X114239813Y23682488D01*
X114262311Y23692224D01*
X114284222Y23702967D01*
X114305536Y23714714D01*
X114326245Y23727461D01*
X114346337Y23741204D01*
X114365806Y23755940D01*
X114384640Y23771666D01*
X114402830Y23788378D01*
X114420368Y23806073D01*
X114437243Y23824747D01*
X114453447Y23844397D01*
X114468969Y23865019D01*
X114483801Y23886610D01*
X114497933Y23909167D01*
X114511356Y23932686D01*
X114524060Y23957163D01*
X114536036Y23982596D01*
X114547274Y24008981D01*
X114557765Y24036313D01*
X114576470Y24093810D01*
X114592074Y24155059D01*
X115115558Y24155059D01*
X115103689Y24100279D01*
X115090015Y24047255D01*
X115074563Y23995984D01*
X115057364Y23946467D01*
X115038446Y23898702D01*
X115017839Y23852688D01*
X114995571Y23808424D01*
X114971672Y23765909D01*
X114946170Y23725142D01*
X114919096Y23686122D01*
X114890478Y23648847D01*
X114860344Y23613317D01*
X114828726Y23579531D01*
X114795650Y23547487D01*
X114761147Y23517185D01*
X114725246Y23488623D01*
X114687975Y23461800D01*
X114649364Y23436715D01*
X114609442Y23413368D01*
X114568239Y23391757D01*
X114525782Y23371881D01*
X114482102Y23353739D01*
X114391187Y23322652D01*
X114295726Y23298488D01*
X114195954Y23281239D01*
X114092101Y23270896D01*
X113984402Y23267450D01*
X113864548Y23272278D01*
X113748913Y23286823D01*
X113692829Y23297768D01*
X113637983Y23311176D01*
X113584433Y23327059D01*
X113532242Y23345428D01*
X113481469Y23366295D01*
X113432175Y23389670D01*
X113384421Y23415566D01*
X113338267Y23443994D01*
X113293774Y23474965D01*
X113251002Y23508491D01*
X113210013Y23544583D01*
X113170866Y23583252D01*
X113133622Y23624509D01*
X113098342Y23668367D01*
X113065086Y23714837D01*
X113033915Y23763929D01*
X113004890Y23815656D01*
X112978070Y23870028D01*
X112953518Y23927058D01*
X112931293Y23986756D01*
X112911455Y24049134D01*
X112894066Y24114204D01*
X112879186Y24181976D01*
X112866876Y24252462D01*
X112857195Y24325674D01*
X112850206Y24401622D01*
X112845968Y24480319D01*
X112844542Y24561776D01*
X112846142Y24640017D01*
X112850888Y24716044D01*
X112858697Y24789839D01*
X112869486Y24861386D01*
X112883172Y24930666D01*
X112899672Y24997661D01*
X112918903Y25062354D01*
X112940784Y25124728D01*
X112965230Y25184763D01*
X112992159Y25242443D01*
X113021488Y25297750D01*
X113053135Y25350666D01*
X113087016Y25401174D01*
X113123048Y25449255D01*
X113161150Y25494892D01*
X113201237Y25538068D01*
X113243228Y25578764D01*
X113287039Y25616963D01*
X113332588Y25652648D01*
X113379791Y25685799D01*
X113428566Y25716400D01*
X113478830Y25744434D01*
X113530501Y25769881D01*
X113583494Y25792725D01*
X113637729Y25812948D01*
X113693121Y25830532D01*
X113749587Y25845460D01*
X113807046Y25857713D01*
X113865415Y25867274D01*
X113924609Y25874125D01*
X113984547Y25878249D01*
X114045146Y25879627D01*
X114045167Y25879627D01*
X114103215Y25878526D01*
G37*
G36*
X111499393Y25878052D02*
G01*
X111563951Y25873372D01*
X111626541Y25865658D01*
X111687154Y25854980D01*
X111745778Y25841408D01*
X111802405Y25825011D01*
X111857024Y25805860D01*
X111909625Y25784024D01*
X111960198Y25759574D01*
X112008732Y25732580D01*
X112055218Y25703111D01*
X112099645Y25671238D01*
X112142004Y25637030D01*
X112182284Y25600558D01*
X112220475Y25561891D01*
X112256567Y25521100D01*
X112290550Y25478254D01*
X112322414Y25433423D01*
X112352148Y25386678D01*
X112379744Y25338089D01*
X112405189Y25287724D01*
X112428475Y25235655D01*
X112449592Y25181952D01*
X112468528Y25126683D01*
X112485274Y25069920D01*
X112499821Y25011732D01*
X112522273Y24891362D01*
X112535804Y24766132D01*
X112540332Y24636603D01*
X112540310Y24636603D01*
X112540164Y24597296D01*
X112539142Y24549671D01*
X112538029Y24522875D01*
X112536368Y24494162D01*
X112534049Y24463587D01*
X112530964Y24431204D01*
X110750181Y24431204D01*
X110754790Y24376670D01*
X110760712Y24324429D01*
X110767916Y24274444D01*
X110776374Y24226679D01*
X110786055Y24181096D01*
X110796928Y24137659D01*
X110808965Y24096331D01*
X110822134Y24057075D01*
X110836407Y24019854D01*
X110851753Y23984631D01*
X110868142Y23951370D01*
X110885544Y23920034D01*
X110903929Y23890585D01*
X110923268Y23862987D01*
X110943529Y23837204D01*
X110964684Y23813197D01*
X110986702Y23790932D01*
X111009554Y23770369D01*
X111033209Y23751474D01*
X111057637Y23734208D01*
X111082808Y23718535D01*
X111108693Y23704418D01*
X111135261Y23691821D01*
X111162483Y23680706D01*
X111190328Y23671037D01*
X111218767Y23662777D01*
X111247769Y23655888D01*
X111277305Y23650335D01*
X111307344Y23646080D01*
X111337857Y23643086D01*
X111400183Y23640735D01*
X111428046Y23641268D01*
X111455504Y23642860D01*
X111482535Y23645503D01*
X111509118Y23649186D01*
X111535231Y23653900D01*
X111560852Y23659637D01*
X111585962Y23666385D01*
X111610538Y23674137D01*
X111634559Y23682882D01*
X111658003Y23692611D01*
X111680849Y23703315D01*
X111703077Y23714984D01*
X111724663Y23727608D01*
X111745588Y23741179D01*
X111765830Y23755688D01*
X111785367Y23771123D01*
X111804178Y23787477D01*
X111822241Y23804739D01*
X111839536Y23822901D01*
X111856041Y23841952D01*
X111871734Y23861883D01*
X111886595Y23882686D01*
X111900601Y23904350D01*
X111913732Y23926866D01*
X111925966Y23950225D01*
X111937282Y23974417D01*
X111947659Y23999433D01*
X111957074Y24025263D01*
X111965507Y24051898D01*
X111972936Y24079328D01*
X111979340Y24107545D01*
X111984698Y24136538D01*
X112503012Y24136538D01*
X112491883Y24082211D01*
X112478673Y24029690D01*
X112463436Y23978969D01*
X112446226Y23930045D01*
X112427096Y23882911D01*
X112406101Y23837562D01*
X112383294Y23793992D01*
X112358728Y23752197D01*
X112332458Y23712171D01*
X112304537Y23673908D01*
X112275020Y23637403D01*
X112243959Y23602651D01*
X112211409Y23569647D01*
X112177423Y23538384D01*
X112142055Y23508859D01*
X112105359Y23481064D01*
X112067389Y23454996D01*
X112028199Y23430648D01*
X111987841Y23408016D01*
X111946371Y23387094D01*
X111860306Y23350357D01*
X111770434Y23320396D01*
X111677185Y23297168D01*
X111580990Y23280629D01*
X111482278Y23270738D01*
X111381480Y23267450D01*
X111258995Y23272382D01*
X111199351Y23278558D01*
X111140854Y23287216D01*
X111083565Y23298364D01*
X111027547Y23312009D01*
X110972859Y23328159D01*
X110919565Y23346819D01*
X110867724Y23367998D01*
X110817399Y23391702D01*
X110768652Y23417939D01*
X110721542Y23446716D01*
X110676132Y23478039D01*
X110632483Y23511917D01*
X110590656Y23548355D01*
X110550714Y23587363D01*
X110512716Y23628945D01*
X110476725Y23673110D01*
X110442802Y23719865D01*
X110411008Y23769217D01*
X110381406Y23821173D01*
X110354055Y23875740D01*
X110329018Y23932925D01*
X110306355Y23992736D01*
X110286129Y24055179D01*
X110268401Y24120262D01*
X110253231Y24187992D01*
X110240682Y24258375D01*
X110230815Y24331420D01*
X110223691Y24407134D01*
X110219372Y24485522D01*
X110217918Y24566593D01*
X110219373Y24639451D01*
X110223704Y24710750D01*
X110230857Y24780441D01*
X110232327Y24790513D01*
X110754828Y24790513D01*
X112012768Y24790513D01*
X112003838Y24874106D01*
X111997937Y24914108D01*
X111991079Y24952901D01*
X111983266Y24990473D01*
X111974498Y25026815D01*
X111964777Y25061917D01*
X111954102Y25095767D01*
X111942475Y25128357D01*
X111929897Y25159675D01*
X111916368Y25189712D01*
X111901890Y25218457D01*
X111886462Y25245899D01*
X111870087Y25272029D01*
X111852765Y25296837D01*
X111834496Y25320311D01*
X111815282Y25342443D01*
X111795123Y25363221D01*
X111774020Y25382635D01*
X111751974Y25400675D01*
X111728986Y25417331D01*
X111705057Y25432593D01*
X111680187Y25446449D01*
X111654378Y25458891D01*
X111627630Y25469907D01*
X111599943Y25479488D01*
X111571320Y25487623D01*
X111541760Y25494302D01*
X111511265Y25499515D01*
X111479835Y25503250D01*
X111447472Y25505500D01*
X111414175Y25506252D01*
X111349594Y25503456D01*
X111318212Y25499962D01*
X111287458Y25495069D01*
X111257352Y25488779D01*
X111227910Y25481092D01*
X111199152Y25472006D01*
X111171095Y25461522D01*
X111143757Y25449641D01*
X111117156Y25436362D01*
X111091310Y25421684D01*
X111066237Y25405609D01*
X111041955Y25388136D01*
X111018482Y25369265D01*
X110995836Y25348996D01*
X110974036Y25327329D01*
X110953098Y25304264D01*
X110933041Y25279801D01*
X110913883Y25253940D01*
X110895643Y25226680D01*
X110878337Y25198023D01*
X110861984Y25167967D01*
X110846602Y25136514D01*
X110832209Y25103662D01*
X110818824Y25069412D01*
X110806463Y25033764D01*
X110784887Y24958273D01*
X110767628Y24877190D01*
X110754828Y24790513D01*
X110232327Y24790513D01*
X110240783Y24848475D01*
X110253427Y24914802D01*
X110268739Y24979372D01*
X110286667Y25042137D01*
X110307158Y25103046D01*
X110330161Y25162051D01*
X110355623Y25219101D01*
X110383493Y25274148D01*
X110413719Y25327141D01*
X110446248Y25378031D01*
X110481029Y25426770D01*
X110518010Y25473306D01*
X110557138Y25517592D01*
X110598362Y25559576D01*
X110641630Y25599211D01*
X110686890Y25636446D01*
X110734090Y25671232D01*
X110783178Y25703520D01*
X110834101Y25733259D01*
X110886809Y25760401D01*
X110941248Y25784896D01*
X110997368Y25806695D01*
X111055115Y25825747D01*
X111114439Y25842004D01*
X111175286Y25855417D01*
X111237606Y25865935D01*
X111301346Y25873509D01*
X111366454Y25878089D01*
X111432878Y25879627D01*
X111499393Y25878052D01*
G37*
G36*
X108895399Y25878065D02*
G01*
X108959318Y25873419D01*
X109021416Y25865755D01*
X109081676Y25855137D01*
X109140077Y25841627D01*
X109196602Y25825290D01*
X109251232Y25806190D01*
X109303949Y25784391D01*
X109354733Y25759957D01*
X109403566Y25732951D01*
X109450429Y25703438D01*
X109495303Y25671481D01*
X109538171Y25637145D01*
X109579013Y25600493D01*
X109617810Y25561589D01*
X109654545Y25520497D01*
X109689198Y25477281D01*
X109721750Y25432005D01*
X109752183Y25384733D01*
X109780479Y25335528D01*
X109806618Y25284455D01*
X109830582Y25231578D01*
X109852352Y25176960D01*
X109871910Y25120665D01*
X109889237Y25062758D01*
X109904314Y25003302D01*
X109927645Y24879998D01*
X109941753Y24751266D01*
X109946489Y24617617D01*
X109944862Y24533556D01*
X109940039Y24452258D01*
X109932110Y24373717D01*
X109921160Y24297927D01*
X109907279Y24224882D01*
X109890554Y24154575D01*
X109871074Y24087000D01*
X109848925Y24022152D01*
X109824196Y23960023D01*
X109796976Y23900607D01*
X109767350Y23843900D01*
X109735409Y23789893D01*
X109701239Y23738581D01*
X109664929Y23689958D01*
X109626565Y23644018D01*
X109586238Y23600754D01*
X109544033Y23560160D01*
X109500039Y23522230D01*
X109454344Y23486958D01*
X109407036Y23454338D01*
X109358203Y23424362D01*
X109307933Y23397026D01*
X109256313Y23372323D01*
X109203431Y23350246D01*
X109149376Y23330790D01*
X109094235Y23313948D01*
X109038096Y23299715D01*
X108981047Y23288083D01*
X108923176Y23279047D01*
X108864571Y23272600D01*
X108805320Y23268736D01*
X108745511Y23267450D01*
X108706385Y23268102D01*
X108666318Y23270045D01*
X108625577Y23273258D01*
X108584431Y23277722D01*
X108543146Y23283415D01*
X108501990Y23290319D01*
X108461230Y23298412D01*
X108421133Y23307675D01*
X108381968Y23318086D01*
X108344002Y23329627D01*
X108307501Y23342277D01*
X108272734Y23356015D01*
X108239968Y23370822D01*
X108209470Y23386677D01*
X108181508Y23403560D01*
X108156349Y23421451D01*
X107992724Y23668800D01*
X107992724Y22416696D01*
X107479143Y22416696D01*
X107479143Y24472968D01*
X107992724Y24472968D01*
X107993781Y24417108D01*
X107996900Y24363466D01*
X108002009Y24312011D01*
X108009033Y24262715D01*
X108017901Y24215548D01*
X108028536Y24170481D01*
X108040867Y24127486D01*
X108054820Y24086534D01*
X108070320Y24047594D01*
X108087295Y24010638D01*
X108105671Y23975638D01*
X108125373Y23942563D01*
X108146329Y23911385D01*
X108168465Y23882075D01*
X108191707Y23854604D01*
X108215982Y23828942D01*
X108241216Y23805061D01*
X108267335Y23782931D01*
X108294266Y23762524D01*
X108321935Y23743810D01*
X108350269Y23726760D01*
X108379194Y23711346D01*
X108408637Y23697537D01*
X108438523Y23685305D01*
X108468779Y23674622D01*
X108499332Y23665457D01*
X108530108Y23657782D01*
X108561034Y23651567D01*
X108592035Y23646785D01*
X108623038Y23643404D01*
X108684756Y23640735D01*
X108684756Y23640730D01*
X108723021Y23641647D01*
X108760646Y23644399D01*
X108797593Y23648982D01*
X108833825Y23655396D01*
X108869304Y23663639D01*
X108903993Y23673708D01*
X108937852Y23685603D01*
X108970846Y23699322D01*
X109002936Y23714862D01*
X109034084Y23732222D01*
X109064253Y23751401D01*
X109093405Y23772396D01*
X109121503Y23795206D01*
X109148508Y23819829D01*
X109174384Y23846264D01*
X109199091Y23874508D01*
X109222593Y23904560D01*
X109244853Y23936419D01*
X109265831Y23970082D01*
X109285491Y24005547D01*
X109303794Y24042814D01*
X109320704Y24081880D01*
X109336183Y24122744D01*
X109350192Y24165403D01*
X109362694Y24209857D01*
X109373651Y24256103D01*
X109383026Y24304139D01*
X109390781Y24353965D01*
X109396879Y24405578D01*
X109401281Y24458976D01*
X109404848Y24571122D01*
X109404123Y24621117D01*
X109401955Y24670243D01*
X109398352Y24718452D01*
X109393322Y24765697D01*
X109386875Y24811931D01*
X109379019Y24857108D01*
X109369761Y24901179D01*
X109359112Y24944099D01*
X109347079Y24985820D01*
X109333671Y25026294D01*
X109318896Y25065476D01*
X109302763Y25103317D01*
X109285281Y25139771D01*
X109266458Y25174791D01*
X109246303Y25208329D01*
X109224823Y25240339D01*
X109202029Y25270773D01*
X109177928Y25299586D01*
X109152528Y25326728D01*
X109125839Y25352154D01*
X109097869Y25375816D01*
X109068627Y25397668D01*
X109038120Y25417661D01*
X109006359Y25435750D01*
X108973350Y25451887D01*
X108939103Y25466025D01*
X108903626Y25478117D01*
X108866928Y25488116D01*
X108829017Y25495975D01*
X108789902Y25501647D01*
X108749592Y25505085D01*
X108708095Y25506241D01*
X108636880Y25503349D01*
X108567281Y25494499D01*
X108499710Y25479431D01*
X108434576Y25457885D01*
X108403051Y25444601D01*
X108372291Y25429599D01*
X108342345Y25412848D01*
X108313265Y25394314D01*
X108285104Y25373965D01*
X108257911Y25351769D01*
X108231739Y25327693D01*
X108206639Y25301704D01*
X108182661Y25273769D01*
X108159859Y25243857D01*
X108138282Y25211935D01*
X108117983Y25177969D01*
X108099012Y25141928D01*
X108081422Y25103779D01*
X108065263Y25063490D01*
X108050587Y25021027D01*
X108037445Y24976359D01*
X108025889Y24929453D01*
X108015969Y24880275D01*
X108007738Y24828794D01*
X108001247Y24774978D01*
X107996546Y24718793D01*
X107993688Y24660207D01*
X107992724Y24599187D01*
X107992724Y24472968D01*
X107479143Y24472968D01*
X107479143Y24599187D01*
X107479143Y25814157D01*
X107992724Y25814157D01*
X107992724Y25426239D01*
X108179783Y25692937D01*
X108207413Y25714262D01*
X108237608Y25734459D01*
X108270189Y25753494D01*
X108304978Y25771332D01*
X108341796Y25787940D01*
X108380465Y25803283D01*
X108420806Y25817327D01*
X108462642Y25830037D01*
X108505792Y25841381D01*
X108550080Y25851323D01*
X108595325Y25859829D01*
X108641350Y25866865D01*
X108687977Y25872397D01*
X108735026Y25876391D01*
X108782319Y25878813D01*
X108829678Y25879627D01*
X108895399Y25878065D01*
G37*
G36*
X105917525Y26621557D02*
G01*
X105981397Y26617925D01*
X106043159Y26611934D01*
X106102824Y26603634D01*
X106160409Y26593078D01*
X106215928Y26580316D01*
X106269395Y26565400D01*
X106320825Y26548380D01*
X106370233Y26529307D01*
X106417634Y26508233D01*
X106463042Y26485209D01*
X106506473Y26460285D01*
X106547940Y26433513D01*
X106587459Y26404944D01*
X106625044Y26374629D01*
X106660710Y26342619D01*
X106694472Y26308966D01*
X106726344Y26273719D01*
X106756342Y26236931D01*
X106784480Y26198652D01*
X106810772Y26158934D01*
X106835234Y26117828D01*
X106857880Y26075384D01*
X106878725Y26031654D01*
X106897784Y25986689D01*
X106915071Y25940540D01*
X106930601Y25893258D01*
X106944390Y25844893D01*
X106966798Y25745124D01*
X106982416Y25641641D01*
X106450120Y25641641D01*
X106441029Y25709131D01*
X106434930Y25741528D01*
X106427800Y25773009D01*
X106419642Y25803561D01*
X106410460Y25833173D01*
X106400257Y25861830D01*
X106389037Y25889520D01*
X106376803Y25916230D01*
X106363559Y25941948D01*
X106349308Y25966660D01*
X106334053Y25990354D01*
X106317798Y26013017D01*
X106300546Y26034636D01*
X106282301Y26055199D01*
X106263065Y26074692D01*
X106242844Y26093103D01*
X106221639Y26110419D01*
X106199454Y26126627D01*
X106176294Y26141714D01*
X106152160Y26155668D01*
X106127058Y26168476D01*
X106100989Y26180125D01*
X106073958Y26190602D01*
X106045967Y26199894D01*
X106017021Y26207989D01*
X105987123Y26214874D01*
X105956276Y26220536D01*
X105924483Y26224961D01*
X105891749Y26228138D01*
X105858076Y26230054D01*
X105823468Y26230695D01*
X105767291Y26229047D01*
X105712900Y26224077D01*
X105686453Y26220337D01*
X105660548Y26215753D01*
X105635216Y26210322D01*
X105610489Y26204039D01*
X105586399Y26196901D01*
X105562978Y26188902D01*
X105540256Y26180039D01*
X105518266Y26170306D01*
X105497040Y26159701D01*
X105476609Y26148218D01*
X105457005Y26135853D01*
X105438260Y26122602D01*
X105420405Y26108461D01*
X105403472Y26093425D01*
X105387494Y26077490D01*
X105372500Y26060652D01*
X105358524Y26042906D01*
X105345597Y26024248D01*
X105333750Y26004674D01*
X105323016Y25984180D01*
X105313426Y25962760D01*
X105305012Y25940412D01*
X105297805Y25917130D01*
X105291837Y25892910D01*
X105287141Y25867748D01*
X105283747Y25841640D01*
X105281687Y25814581D01*
X105280993Y25786568D01*
X105283269Y25729783D01*
X105290211Y25676736D01*
X105295485Y25651550D01*
X105301990Y25627222D01*
X105309747Y25603726D01*
X105318777Y25581036D01*
X105329102Y25559127D01*
X105340743Y25537972D01*
X105353721Y25517547D01*
X105368059Y25497825D01*
X105383777Y25478781D01*
X105400896Y25460389D01*
X105419439Y25442623D01*
X105439426Y25425459D01*
X105483819Y25392829D01*
X105534246Y25362295D01*
X105590878Y25333650D01*
X105653888Y25306690D01*
X105723444Y25281209D01*
X105799720Y25257001D01*
X105882885Y25233862D01*
X105973111Y25211585D01*
X106101944Y25179238D01*
X106222061Y25143465D01*
X106333517Y25104131D01*
X106386015Y25083086D01*
X106436368Y25061099D01*
X106484584Y25038153D01*
X106530670Y25014231D01*
X106574632Y24989316D01*
X106616478Y24963392D01*
X106656215Y24936440D01*
X106693850Y24908443D01*
X106729389Y24879386D01*
X106762839Y24849250D01*
X106794208Y24818018D01*
X106823503Y24785674D01*
X106850730Y24752201D01*
X106875897Y24717580D01*
X106899010Y24681796D01*
X106920077Y24644830D01*
X106939105Y24606667D01*
X106956099Y24567288D01*
X106971069Y24526677D01*
X106984019Y24484817D01*
X106994958Y24441690D01*
X107003893Y24397280D01*
X107010830Y24351569D01*
X107015776Y24304541D01*
X107018739Y24256177D01*
X107019725Y24206462D01*
X107018219Y24152358D01*
X107013752Y24099621D01*
X107006399Y24048277D01*
X106996234Y23998347D01*
X106983333Y23949853D01*
X106967771Y23902820D01*
X106949623Y23857271D01*
X106928963Y23813227D01*
X106905868Y23770711D01*
X106880412Y23729748D01*
X106852670Y23690359D01*
X106822717Y23652567D01*
X106790628Y23616396D01*
X106756478Y23581868D01*
X106720343Y23549006D01*
X106682297Y23517834D01*
X106642415Y23488373D01*
X106600773Y23460647D01*
X106557445Y23434678D01*
X106512507Y23410491D01*
X106418099Y23367548D01*
X106318150Y23332003D01*
X106213261Y23304038D01*
X106104031Y23283836D01*
X105991061Y23271581D01*
X105874951Y23267455D01*
X105806484Y23268479D01*
X105739607Y23271544D01*
X105674346Y23276641D01*
X105610727Y23283761D01*
X105548774Y23292895D01*
X105488514Y23304034D01*
X105429971Y23317168D01*
X105373172Y23332288D01*
X105318142Y23349385D01*
X105264905Y23368450D01*
X105213489Y23389474D01*
X105163918Y23412448D01*
X105116218Y23437362D01*
X105070413Y23464207D01*
X105026531Y23492975D01*
X104984595Y23523655D01*
X104944633Y23556239D01*
X104906668Y23590717D01*
X104870727Y23627081D01*
X104836835Y23665322D01*
X104805018Y23705429D01*
X104775301Y23747394D01*
X104747709Y23791208D01*
X104722268Y23836861D01*
X104699004Y23884345D01*
X104677942Y23933650D01*
X104659107Y23984767D01*
X104642525Y24037687D01*
X104628222Y24092400D01*
X104616222Y24148898D01*
X104606552Y24207172D01*
X104599237Y24267211D01*
X105131618Y24267211D01*
X105140072Y24230507D01*
X105149660Y24194902D01*
X105160362Y24160401D01*
X105172160Y24127009D01*
X105185037Y24094729D01*
X105198975Y24063567D01*
X105213956Y24033525D01*
X105229961Y24004610D01*
X105246974Y23976824D01*
X105264975Y23950172D01*
X105283948Y23924658D01*
X105303874Y23900288D01*
X105324735Y23877064D01*
X105346513Y23854992D01*
X105369191Y23834075D01*
X105392750Y23814318D01*
X105417173Y23795725D01*
X105442442Y23778300D01*
X105468538Y23762049D01*
X105495444Y23746974D01*
X105523141Y23733081D01*
X105551613Y23720373D01*
X105580841Y23708855D01*
X105610806Y23698532D01*
X105641492Y23689407D01*
X105672880Y23681484D01*
X105737691Y23669265D01*
X105805096Y23661908D01*
X105874951Y23659448D01*
X105906298Y23659980D01*
X105937198Y23661568D01*
X105967617Y23664198D01*
X105997517Y23667858D01*
X106026863Y23672535D01*
X106055618Y23678217D01*
X106083748Y23684889D01*
X106111216Y23692540D01*
X106137985Y23701156D01*
X106164020Y23710725D01*
X106189285Y23721234D01*
X106213743Y23732670D01*
X106237360Y23745020D01*
X106260098Y23758272D01*
X106281923Y23772412D01*
X106302797Y23787427D01*
X106322684Y23803305D01*
X106341550Y23820033D01*
X106359357Y23837599D01*
X106376071Y23855988D01*
X106391654Y23875188D01*
X106406071Y23895187D01*
X106419285Y23915972D01*
X106431262Y23937529D01*
X106441964Y23959847D01*
X106451356Y23982911D01*
X106459402Y24006710D01*
X106466066Y24031230D01*
X106471312Y24056458D01*
X106475103Y24082382D01*
X106477405Y24108989D01*
X106478180Y24136266D01*
X106475846Y24197490D01*
X106468717Y24255044D01*
X106456601Y24309092D01*
X106448613Y24334853D01*
X106439306Y24359799D01*
X106428656Y24383950D01*
X106416640Y24407328D01*
X106403233Y24429952D01*
X106388412Y24451844D01*
X106372152Y24473024D01*
X106354429Y24493512D01*
X106335220Y24513329D01*
X106314500Y24532495D01*
X106292246Y24551032D01*
X106268434Y24568959D01*
X106216037Y24603067D01*
X106157119Y24634984D01*
X106091488Y24664875D01*
X106018951Y24692903D01*
X105939318Y24719233D01*
X105852395Y24744030D01*
X105757992Y24767458D01*
X105645634Y24795677D01*
X105538402Y24826233D01*
X105436590Y24859488D01*
X105340490Y24895804D01*
X105250395Y24935544D01*
X105207690Y24956812D01*
X105166597Y24979072D01*
X105127152Y25002370D01*
X105089391Y25026750D01*
X105053350Y25052259D01*
X105019068Y25078941D01*
X104986579Y25106843D01*
X104955921Y25136008D01*
X104927130Y25166484D01*
X104900244Y25198314D01*
X104875298Y25231545D01*
X104852329Y25266221D01*
X104831374Y25302389D01*
X104812469Y25340093D01*
X104795651Y25379379D01*
X104780957Y25420292D01*
X104768423Y25462877D01*
X104758086Y25507181D01*
X104749982Y25553247D01*
X104744149Y25601123D01*
X104740621Y25650852D01*
X104739438Y25702480D01*
X104740916Y25755292D01*
X104745300Y25806790D01*
X104752513Y25856950D01*
X104762481Y25905749D01*
X104775127Y25953162D01*
X104790374Y25999166D01*
X104808148Y26043737D01*
X104828373Y26086852D01*
X104850971Y26128486D01*
X104875869Y26168615D01*
X104902989Y26207217D01*
X104932255Y26244267D01*
X104963593Y26279742D01*
X104996925Y26313617D01*
X105032177Y26345869D01*
X105069272Y26376474D01*
X105108134Y26405408D01*
X105148687Y26432648D01*
X105190856Y26458170D01*
X105234564Y26481950D01*
X105326296Y26524189D01*
X105423276Y26559174D01*
X105524896Y26586716D01*
X105630549Y26606624D01*
X105739629Y26618709D01*
X105851527Y26622779D01*
X105917525Y26621557D01*
G37*
G36*
X170079175Y49731445D02*
G01*
X170476957Y49722361D01*
X170858163Y49708449D01*
X171231082Y49689020D01*
X171604002Y49663384D01*
X171985210Y49630854D01*
X172382994Y49590739D01*
X172382994Y49590741D01*
X172931072Y49504167D01*
X173469406Y49376646D01*
X173994461Y49207913D01*
X174502703Y48997704D01*
X174990596Y48745755D01*
X175225808Y48604045D01*
X175454608Y48451800D01*
X175676553Y48288988D01*
X175891202Y48115575D01*
X176098114Y47931529D01*
X176296846Y47736816D01*
X176486956Y47531403D01*
X176668003Y47315257D01*
X176839545Y47088345D01*
X177001141Y46850634D01*
X177152347Y46602091D01*
X177292723Y46342682D01*
X177421827Y46072376D01*
X177539217Y45791137D01*
X177644450Y45498935D01*
X177737086Y45195735D01*
X177816683Y44881504D01*
X177882798Y44556209D01*
X177934990Y44219818D01*
X177972817Y43872296D01*
X177995837Y43513612D01*
X178003608Y43143731D01*
X177995837Y42773859D01*
X177972817Y42415182D01*
X177934990Y42067666D01*
X177882798Y41731280D01*
X177816683Y41405989D01*
X177737086Y41091762D01*
X177644450Y40788564D01*
X177539217Y40496364D01*
X177421827Y40215127D01*
X177292723Y39944821D01*
X177152347Y39685412D01*
X177001141Y39436869D01*
X176839545Y39199157D01*
X176668003Y38972244D01*
X176486956Y38756096D01*
X176296846Y38550681D01*
X176098114Y38355966D01*
X175891202Y38171917D01*
X175676553Y37998501D01*
X175454608Y37835686D01*
X175225808Y37683439D01*
X174990596Y37541726D01*
X174749414Y37410514D01*
X174502703Y37289771D01*
X174250904Y37179463D01*
X173994461Y37079557D01*
X173469406Y36910821D01*
X172931072Y36783297D01*
X172382994Y36696721D01*
X171985210Y36656609D01*
X171604002Y36624089D01*
X171231083Y36598468D01*
X170858165Y36579056D01*
X170476959Y36565161D01*
X170079180Y36556092D01*
X169200747Y36549666D01*
X166843417Y36549666D01*
X166843417Y29423591D01*
X161546826Y29423591D01*
X161546826Y40668420D01*
X161546826Y45619038D01*
X166843417Y45619038D01*
X166843417Y40668420D01*
X168906087Y40668420D01*
X169309363Y40668880D01*
X169679511Y40672101D01*
X169852162Y40675609D01*
X170016531Y40680843D01*
X170172617Y40688148D01*
X170320421Y40697868D01*
X170320421Y40697870D01*
X170567935Y40727930D01*
X170801984Y40773962D01*
X170913851Y40802994D01*
X171022221Y40836052D01*
X171127053Y40873145D01*
X171228302Y40914285D01*
X171325925Y40959483D01*
X171419880Y41008749D01*
X171510123Y41062095D01*
X171596611Y41119530D01*
X171679301Y41181066D01*
X171758149Y41246714D01*
X171833113Y41316484D01*
X171904150Y41390387D01*
X171971215Y41468433D01*
X172034267Y41550635D01*
X172093261Y41637002D01*
X172148155Y41727545D01*
X172198906Y41822275D01*
X172245470Y41921203D01*
X172287804Y42024339D01*
X172325865Y42131695D01*
X172359610Y42243281D01*
X172388996Y42359108D01*
X172413980Y42479186D01*
X172434517Y42603527D01*
X172450566Y42732141D01*
X172462083Y42865040D01*
X172469025Y43002233D01*
X172471348Y43143731D01*
X172469025Y43285238D01*
X172462083Y43422439D01*
X172450566Y43555344D01*
X172434516Y43683965D01*
X172413978Y43808311D01*
X172388994Y43928395D01*
X172359608Y44044227D01*
X172325862Y44155817D01*
X172287801Y44263177D01*
X172245466Y44366317D01*
X172198901Y44465247D01*
X172148150Y44559980D01*
X172093255Y44650525D01*
X172034260Y44736893D01*
X171971208Y44819095D01*
X171904142Y44897142D01*
X171833105Y44971045D01*
X171758141Y45040814D01*
X171679292Y45106460D01*
X171596602Y45167994D01*
X171510114Y45225427D01*
X171419871Y45278769D01*
X171325916Y45328032D01*
X171228293Y45373226D01*
X171127044Y45414362D01*
X171022213Y45451450D01*
X170913843Y45484502D01*
X170801978Y45513528D01*
X170686660Y45538539D01*
X170567932Y45559546D01*
X170445838Y45576559D01*
X170320421Y45589590D01*
X170172617Y45599310D01*
X170016532Y45606614D01*
X169679515Y45615357D01*
X169309368Y45618578D01*
X168906087Y45619038D01*
X166843417Y45619038D01*
X161546826Y45619038D01*
X161546826Y49737885D01*
X169200737Y49737885D01*
X170079175Y49731445D01*
G37*
G36*
X150740599Y49731445D02*
G01*
X151138360Y49722361D01*
X151519548Y49708449D01*
X151892450Y49689020D01*
X152265351Y49663384D01*
X152646534Y49630854D01*
X153044287Y49590739D01*
X153591025Y49511534D01*
X154125607Y49405261D01*
X154644843Y49270365D01*
X155145544Y49105291D01*
X155624520Y48908484D01*
X155854864Y48797695D01*
X156078580Y48678389D01*
X156295271Y48550373D01*
X156504536Y48413451D01*
X156705978Y48267431D01*
X156899198Y48112116D01*
X157083796Y47947313D01*
X157259374Y47772827D01*
X157425534Y47588465D01*
X157581877Y47394031D01*
X157728003Y47189331D01*
X157863515Y46974172D01*
X157988013Y46748358D01*
X158101099Y46511695D01*
X158202374Y46263988D01*
X158291439Y46005045D01*
X158367896Y45734669D01*
X158431346Y45452667D01*
X158481390Y45158844D01*
X158517629Y44853007D01*
X158539665Y44534960D01*
X158547099Y44204509D01*
X158543049Y43966660D01*
X158530906Y43733839D01*
X158510680Y43506057D01*
X158482384Y43283324D01*
X158446026Y43065651D01*
X158401618Y42853048D01*
X158349172Y42645525D01*
X158288696Y42443093D01*
X158220204Y42245762D01*
X158143704Y42053543D01*
X158059208Y41866445D01*
X157966727Y41684480D01*
X157866272Y41507657D01*
X157757852Y41335988D01*
X157641480Y41169482D01*
X157517165Y41008150D01*
X157384919Y40852002D01*
X157244752Y40701049D01*
X157096675Y40555301D01*
X156940699Y40414769D01*
X156776835Y40279462D01*
X156605093Y40149392D01*
X156425484Y40024568D01*
X156238019Y39905002D01*
X156042709Y39790702D01*
X155839564Y39681681D01*
X155409814Y39479513D01*
X154948855Y39298582D01*
X154456773Y39138969D01*
X154838381Y38986231D01*
X155189557Y38814735D01*
X155511594Y38624350D01*
X155805786Y38414943D01*
X156073425Y38186385D01*
X156315806Y37938542D01*
X156534220Y37671285D01*
X156729961Y37384481D01*
X156904323Y37077999D01*
X157058599Y36751707D01*
X157194081Y36405474D01*
X157312063Y36039169D01*
X157413838Y35652660D01*
X157500700Y35245816D01*
X157573940Y34818505D01*
X157634854Y34370596D01*
X157634865Y34370596D01*
X157686968Y33949808D01*
X157744071Y33548128D01*
X157806348Y33164648D01*
X157873971Y32798465D01*
X157947113Y32448671D01*
X158025948Y32114362D01*
X158110649Y31794630D01*
X158201390Y31488570D01*
X158298344Y31195277D01*
X158401683Y30913845D01*
X158511582Y30643367D01*
X158628213Y30382937D01*
X158751750Y30131651D01*
X158882365Y29888602D01*
X159020234Y29652884D01*
X159165527Y29423591D01*
X153397395Y29423591D01*
X153228955Y29953282D01*
X153076355Y30464345D01*
X152938909Y30962988D01*
X152815933Y31455421D01*
X152706744Y31947854D01*
X152610657Y32446496D01*
X152526987Y32957558D01*
X152455050Y33487249D01*
X152398123Y33895743D01*
X152364287Y34091587D01*
X152326906Y34281764D01*
X152286008Y34466227D01*
X152241618Y34644926D01*
X152193763Y34817813D01*
X152142472Y34984839D01*
X152087771Y35145956D01*
X152029687Y35301115D01*
X151968246Y35450268D01*
X151903477Y35593366D01*
X151835405Y35730361D01*
X151764058Y35861204D01*
X151689464Y35985846D01*
X151611648Y36104240D01*
X151530638Y36216336D01*
X151446462Y36322086D01*
X151359145Y36421442D01*
X151268715Y36514355D01*
X151175199Y36600776D01*
X151078625Y36680657D01*
X150979018Y36753950D01*
X150876407Y36820605D01*
X150770817Y36880575D01*
X150662277Y36933811D01*
X150550812Y36980264D01*
X150436451Y37019885D01*
X150319220Y37052627D01*
X150199145Y37078441D01*
X150076255Y37097277D01*
X149950577Y37109089D01*
X149522445Y37126113D01*
X149110872Y37134856D01*
X148699284Y37138076D01*
X148271104Y37138537D01*
X147092525Y37138537D01*
X147092525Y29423591D01*
X141795848Y29423591D01*
X141795848Y40962907D01*
X141795848Y45619040D01*
X147092514Y45619040D01*
X147092514Y40962907D01*
X149007666Y40962907D01*
X149410992Y40963367D01*
X149781159Y40966588D01*
X149953806Y40970096D01*
X150118162Y40975329D01*
X150274227Y40982633D01*
X150422000Y40992352D01*
X150674475Y41018816D01*
X150922549Y41054863D01*
X151164582Y41101790D01*
X151398934Y41160889D01*
X151623964Y41233457D01*
X151732470Y41275197D01*
X151838031Y41320789D01*
X151940442Y41370396D01*
X152039497Y41424179D01*
X152134991Y41482300D01*
X152226719Y41544922D01*
X152314477Y41612205D01*
X152398059Y41684313D01*
X152477260Y41761406D01*
X152551875Y41843647D01*
X152621700Y41931198D01*
X152686528Y42024220D01*
X152746155Y42122875D01*
X152800376Y42227325D01*
X152848987Y42337732D01*
X152891781Y42454258D01*
X152928554Y42577065D01*
X152959100Y42706314D01*
X152983216Y42842168D01*
X153000695Y42984788D01*
X153011333Y43134336D01*
X153014924Y43290974D01*
X153011756Y43447620D01*
X153002350Y43597175D01*
X152986858Y43739801D01*
X152965431Y43875659D01*
X152938221Y44004913D01*
X152905378Y44127723D01*
X152867053Y44244251D01*
X152823398Y44354660D01*
X152774563Y44459112D01*
X152720700Y44557767D01*
X152661960Y44650789D01*
X152598493Y44738339D01*
X152530452Y44820579D01*
X152457986Y44897671D01*
X152381248Y44969777D01*
X152300387Y45037058D01*
X152215556Y45099678D01*
X152126906Y45157797D01*
X152034586Y45211577D01*
X151938749Y45261181D01*
X151737127Y45348506D01*
X151523248Y45421069D01*
X151298321Y45480163D01*
X151063554Y45527085D01*
X150820156Y45563130D01*
X150569336Y45589592D01*
X150421560Y45599313D01*
X150265494Y45606617D01*
X149928489Y45615359D01*
X149558322Y45618580D01*
X149154991Y45619040D01*
X147092514Y45619040D01*
X141795848Y45619040D01*
X141795848Y49737885D01*
X149862222Y49737885D01*
X150740599Y49731445D01*
G37*
G36*
X129708938Y50138402D02*
G01*
X130282210Y50103303D01*
X130841521Y50045145D01*
X131386541Y49964207D01*
X131916944Y49860768D01*
X132432402Y49735105D01*
X132932587Y49587499D01*
X133417170Y49418228D01*
X133885826Y49227570D01*
X134338225Y49015804D01*
X134774039Y48783209D01*
X135192942Y48530064D01*
X135594606Y48256646D01*
X135978702Y47963236D01*
X136344903Y47650112D01*
X136692882Y47317552D01*
X137022310Y46965835D01*
X137332860Y46595241D01*
X137624204Y46206046D01*
X137896014Y45798531D01*
X138147963Y45372974D01*
X138379722Y44929654D01*
X138590965Y44468849D01*
X138781363Y43990839D01*
X138950589Y43495901D01*
X139098315Y42984314D01*
X139224213Y42456358D01*
X139327955Y41912311D01*
X139409214Y41352452D01*
X139467661Y40777059D01*
X139502971Y40186411D01*
X139514813Y39580787D01*
X139502971Y38977754D01*
X139467661Y38389368D01*
X139409214Y37815924D01*
X139327955Y37257717D01*
X139224213Y36715043D01*
X139098315Y36188194D01*
X138950589Y35677468D01*
X138781363Y35183158D01*
X138590965Y34705560D01*
X138379722Y34244968D01*
X138147963Y33801678D01*
X137896014Y33375983D01*
X137624204Y32968180D01*
X137332860Y32578562D01*
X137022310Y32207425D01*
X136692882Y31855064D01*
X136344903Y31521774D01*
X135978702Y31207849D01*
X135594606Y30913584D01*
X135192942Y30639275D01*
X134774039Y30385216D01*
X134338225Y30151702D01*
X133885826Y29939027D01*
X133417170Y29747488D01*
X132932587Y29577378D01*
X132432402Y29428993D01*
X131916944Y29302627D01*
X131386541Y29198575D01*
X130841521Y29117133D01*
X130282210Y29058595D01*
X129708938Y29023256D01*
X129122030Y29011411D01*
X128535131Y29023256D01*
X127961866Y29058595D01*
X127402562Y29117133D01*
X126857548Y29198575D01*
X126327151Y29302627D01*
X125811698Y29428992D01*
X125311519Y29577378D01*
X124826940Y29747487D01*
X124358289Y29939027D01*
X123905894Y30151701D01*
X123470083Y30385215D01*
X123051183Y30639274D01*
X122649523Y30913583D01*
X122265429Y31207848D01*
X121899230Y31521773D01*
X121551254Y31855063D01*
X121221827Y32207424D01*
X120911279Y32578561D01*
X120619937Y32968178D01*
X120348128Y33375981D01*
X120096180Y33801676D01*
X119864421Y34244966D01*
X119653179Y34705558D01*
X119462782Y35183156D01*
X119293556Y35677466D01*
X119145831Y36188192D01*
X119019933Y36715040D01*
X118916191Y37257715D01*
X118834933Y37815922D01*
X118776485Y38389365D01*
X118741176Y38977751D01*
X118729333Y39580785D01*
X124143812Y39580785D01*
X124149398Y39183250D01*
X124166063Y38797019D01*
X124193666Y38422179D01*
X124232067Y38058815D01*
X124281126Y37707015D01*
X124340703Y37366863D01*
X124410658Y37038448D01*
X124490849Y36721854D01*
X124581138Y36417168D01*
X124681383Y36124477D01*
X124791445Y35843867D01*
X124911183Y35575424D01*
X125040458Y35319234D01*
X125179128Y35075385D01*
X125327054Y34843961D01*
X125484095Y34625049D01*
X125650112Y34418737D01*
X125824964Y34225109D01*
X126008510Y34044253D01*
X126200611Y33876254D01*
X126401126Y33721199D01*
X126609915Y33579174D01*
X126826838Y33450266D01*
X127051755Y33334561D01*
X127284525Y33232145D01*
X127525008Y33143104D01*
X127773064Y33067525D01*
X128028553Y33005495D01*
X128291334Y32957098D01*
X128561268Y32922422D01*
X128838213Y32901554D01*
X129122030Y32894578D01*
X129405848Y32901554D01*
X129682794Y32922422D01*
X129952729Y32957098D01*
X130215512Y33005495D01*
X130471003Y33067525D01*
X130719061Y33143104D01*
X130959547Y33232145D01*
X131192320Y33334561D01*
X131417239Y33450266D01*
X131634166Y33579174D01*
X131842958Y33721199D01*
X132043477Y33876254D01*
X132235582Y34044253D01*
X132419132Y34225109D01*
X132593988Y34418737D01*
X132760008Y34625049D01*
X132917054Y34843961D01*
X133064984Y35075385D01*
X133203658Y35319234D01*
X133332936Y35575424D01*
X133452678Y35843867D01*
X133562743Y36124477D01*
X133753284Y36721854D01*
X133903435Y37366863D01*
X134012075Y38058815D01*
X134078082Y38797019D01*
X134100334Y39580785D01*
X134094748Y39980910D01*
X134078082Y40369401D01*
X134050478Y40746190D01*
X134012075Y41111204D01*
X133963014Y41464375D01*
X133903435Y41805631D01*
X133833478Y42134904D01*
X133753284Y42452123D01*
X133662992Y42757218D01*
X133562743Y43050118D01*
X133452678Y43330754D01*
X133332936Y43599056D01*
X133203658Y43854953D01*
X133064984Y44098375D01*
X132917054Y44329252D01*
X132760008Y44547515D01*
X132593988Y44753093D01*
X132419132Y44945916D01*
X132235582Y45125913D01*
X132043477Y45293016D01*
X131842958Y45447152D01*
X131634166Y45588254D01*
X131417239Y45716250D01*
X131192320Y45831070D01*
X130959547Y45932645D01*
X130719061Y46020904D01*
X130471003Y46095776D01*
X130215512Y46157193D01*
X129952729Y46205084D01*
X129682794Y46239378D01*
X129405848Y46260006D01*
X129122030Y46266898D01*
X128838213Y46260006D01*
X128561268Y46239378D01*
X128291334Y46205084D01*
X128028553Y46157193D01*
X127773064Y46095776D01*
X127525008Y46020904D01*
X127284525Y45932645D01*
X127051755Y45831071D01*
X126826838Y45716250D01*
X126609915Y45588255D01*
X126401126Y45447153D01*
X126200611Y45293016D01*
X126008510Y45125914D01*
X125824964Y44945916D01*
X125650112Y44753094D01*
X125484095Y44547516D01*
X125327054Y44329254D01*
X125179128Y44098376D01*
X125040458Y43854954D01*
X124911183Y43599057D01*
X124791445Y43330755D01*
X124681383Y43050119D01*
X124490849Y42452124D01*
X124340703Y41805632D01*
X124232067Y41111205D01*
X124166063Y40369402D01*
X124143812Y39580785D01*
X118729333Y39580785D01*
X118741176Y40186409D01*
X118776485Y40777057D01*
X118834933Y41352450D01*
X118916191Y41912309D01*
X119019933Y42456357D01*
X119145831Y42984313D01*
X119293556Y43495899D01*
X119462782Y43990837D01*
X119653179Y44468848D01*
X119864421Y44929653D01*
X120096180Y45372973D01*
X120348128Y45798530D01*
X120619937Y46206045D01*
X120911279Y46595239D01*
X121221827Y46965834D01*
X121551254Y47317551D01*
X121899230Y47650110D01*
X122265429Y47963235D01*
X122649523Y48256645D01*
X123051183Y48530062D01*
X123470083Y48783207D01*
X123905894Y49015802D01*
X124358289Y49227567D01*
X124826940Y49418225D01*
X125311519Y49587497D01*
X125811698Y49735103D01*
X126327151Y49860765D01*
X126857548Y49964204D01*
X127402562Y50045143D01*
X127961866Y50103301D01*
X128535131Y50138400D01*
X129122030Y50150161D01*
X129122030Y50150164D01*
X129708938Y50138402D01*
G37*
G36*
X107084100Y50150159D02*
G01*
X107619662Y50141175D01*
X108138709Y50114490D01*
X108641289Y50070501D01*
X109127452Y50009607D01*
X109597245Y49932204D01*
X110050717Y49838692D01*
X110487917Y49729467D01*
X110908893Y49604929D01*
X111313694Y49465474D01*
X111702368Y49311501D01*
X112074964Y49143408D01*
X112431530Y48961592D01*
X112772115Y48766452D01*
X113096767Y48558386D01*
X113405535Y48337791D01*
X113698468Y48105065D01*
X113975613Y47860607D01*
X114237021Y47604814D01*
X114482738Y47338084D01*
X114712813Y47060815D01*
X114927296Y46773405D01*
X115126235Y46476253D01*
X115309677Y46169755D01*
X115477672Y45854310D01*
X115630269Y45530315D01*
X115767515Y45198170D01*
X115889460Y44858271D01*
X115996151Y44511016D01*
X116087637Y44156804D01*
X116163968Y43796032D01*
X116225191Y43429099D01*
X116271354Y43056402D01*
X116300802Y42761829D01*
X111000419Y42761829D01*
X110941524Y43056402D01*
X110848379Y43451649D01*
X110734615Y43820144D01*
X110670027Y43994414D01*
X110600318Y44162061D01*
X110525496Y44323106D01*
X110445574Y44477572D01*
X110360561Y44625479D01*
X110270469Y44766849D01*
X110175309Y44901704D01*
X110075091Y45030066D01*
X109969825Y45151956D01*
X109859524Y45267395D01*
X109744197Y45376406D01*
X109623855Y45479009D01*
X109498510Y45575227D01*
X109368171Y45665081D01*
X109232850Y45748592D01*
X109092558Y45825783D01*
X108947305Y45896674D01*
X108797101Y45961287D01*
X108641959Y46019645D01*
X108481888Y46071768D01*
X108316900Y46117677D01*
X108147005Y46157396D01*
X107792537Y46218345D01*
X107418571Y46254788D01*
X107025194Y46266898D01*
X106557940Y46242009D01*
X106330341Y46210859D01*
X106107076Y46167201D01*
X105888384Y46111009D01*
X105674500Y46042256D01*
X105465664Y45960916D01*
X105262111Y45866960D01*
X105064078Y45760363D01*
X104871805Y45641097D01*
X104685526Y45509135D01*
X104505481Y45364450D01*
X104331905Y45207016D01*
X104165037Y45036805D01*
X104005113Y44853791D01*
X103852371Y44657946D01*
X103707047Y44449243D01*
X103569381Y44227656D01*
X103439607Y43993158D01*
X103317965Y43745721D01*
X103100021Y43211925D01*
X102917447Y42626051D01*
X102772141Y41987885D01*
X102666001Y41297210D01*
X102600925Y40553811D01*
X102578811Y39757472D01*
X102584965Y39286869D01*
X102603197Y38835811D01*
X102633161Y38403996D01*
X102674513Y37991123D01*
X102726908Y37596888D01*
X102789999Y37220991D01*
X102863443Y36863129D01*
X102946895Y36523000D01*
X103040008Y36200303D01*
X103142438Y35894734D01*
X103253841Y35605992D01*
X103373870Y35333776D01*
X103502181Y35077782D01*
X103638428Y34837709D01*
X103782267Y34613256D01*
X103933352Y34404119D01*
X104091339Y34209997D01*
X104255882Y34030588D01*
X104426637Y33865590D01*
X104603257Y33714700D01*
X104785398Y33577618D01*
X104972716Y33454040D01*
X105164864Y33343665D01*
X105361497Y33246191D01*
X105562272Y33161315D01*
X105766842Y33088736D01*
X105974862Y33028151D01*
X106185987Y32979260D01*
X106399873Y32941759D01*
X106616174Y32915346D01*
X106834545Y32899720D01*
X107054642Y32894578D01*
X107245725Y32898280D01*
X107432468Y32909349D01*
X107614844Y32927731D01*
X107792824Y32953372D01*
X107966384Y32986219D01*
X108135494Y33026218D01*
X108300130Y33073314D01*
X108460262Y33127453D01*
X108615866Y33188582D01*
X108766913Y33256647D01*
X108913377Y33331594D01*
X109055230Y33413369D01*
X109192446Y33501917D01*
X109324999Y33597186D01*
X109452859Y33699120D01*
X109576002Y33807667D01*
X109694400Y33922772D01*
X109808026Y34044381D01*
X109916853Y34172440D01*
X110020853Y34306896D01*
X110120001Y34447694D01*
X110214269Y34594781D01*
X110303631Y34748102D01*
X110388058Y34907603D01*
X110467525Y35073232D01*
X110542004Y35244933D01*
X110675891Y35606338D01*
X110789505Y35991386D01*
X110882628Y36399646D01*
X110941524Y36694222D01*
X116241907Y36694222D01*
X116212459Y36399646D01*
X116156094Y35948419D01*
X116081096Y35511199D01*
X115987809Y35088009D01*
X115876579Y34678869D01*
X115747750Y34283799D01*
X115601668Y33902821D01*
X115438678Y33535954D01*
X115259124Y33183221D01*
X115063352Y32844642D01*
X114851707Y32520236D01*
X114624533Y32210026D01*
X114382177Y31914032D01*
X114124982Y31632274D01*
X113853294Y31364774D01*
X113567458Y31111551D01*
X113267820Y30872628D01*
X112954723Y30648024D01*
X112628514Y30437760D01*
X112289537Y30241857D01*
X111938137Y30060336D01*
X111574659Y29893218D01*
X111199449Y29740523D01*
X110415211Y29478485D01*
X109588184Y29274389D01*
X108721126Y29128400D01*
X107816800Y29040686D01*
X106877965Y29011411D01*
X106370541Y29021748D01*
X105869949Y29052739D01*
X105376799Y29104352D01*
X104891697Y29176558D01*
X104415254Y29269325D01*
X103948076Y29382622D01*
X103490772Y29516419D01*
X103043951Y29670684D01*
X102608220Y29845387D01*
X102184189Y30040498D01*
X101772466Y30255984D01*
X101373658Y30491815D01*
X100988374Y30747961D01*
X100617223Y31024391D01*
X100260812Y31321073D01*
X99919751Y31637977D01*
X99594647Y31975073D01*
X99286108Y32332328D01*
X98994744Y32709713D01*
X98721162Y33107196D01*
X98465971Y33524747D01*
X98229779Y33962335D01*
X98013194Y34419929D01*
X97816825Y34897498D01*
X97641280Y35395011D01*
X97487168Y35912438D01*
X97355096Y36449747D01*
X97245673Y37006909D01*
X97159507Y37583891D01*
X97097207Y38180663D01*
X97059381Y38797194D01*
X97046637Y39433454D01*
X97059805Y40086121D01*
X97098874Y40718702D01*
X97163193Y41331157D01*
X97252111Y41923443D01*
X97364976Y42495518D01*
X97501137Y43047343D01*
X97659942Y43578873D01*
X97840740Y44090069D01*
X98042879Y44580889D01*
X98265709Y45051290D01*
X98508577Y45501232D01*
X98770833Y45930672D01*
X99051824Y46339570D01*
X99350900Y46727883D01*
X99667409Y47095570D01*
X100000699Y47442590D01*
X100350120Y47768900D01*
X100715019Y48074459D01*
X101094746Y48359226D01*
X101488648Y48623159D01*
X101896076Y48866217D01*
X102316376Y49088357D01*
X102748898Y49289538D01*
X103192990Y49469719D01*
X103648002Y49628858D01*
X104113280Y49766914D01*
X104588175Y49883844D01*
X105072034Y49979607D01*
X105564207Y50054162D01*
X106064041Y50107467D01*
X106570886Y50139481D01*
X107084089Y50150161D01*
X107084100Y50150159D01*
G37*
G36*
X97553361Y29423591D02*
G01*
X91783008Y29423591D01*
X90075487Y34694526D01*
X83745526Y34694526D01*
X82037994Y29423591D01*
X76414699Y29423591D01*
X79803161Y38813285D01*
X85040957Y38813285D01*
X88809492Y38813285D01*
X86925177Y45059620D01*
X85040957Y38813285D01*
X79803161Y38813285D01*
X83745526Y49737888D01*
X90222630Y49737888D01*
X97553361Y29423591D01*
G37*
G36*
X66339382Y50141175D02*
G01*
X66858230Y50114490D01*
X67360617Y50070500D01*
X67846592Y50009604D01*
X68316203Y49932200D01*
X68769500Y49838684D01*
X69206530Y49729455D01*
X69627343Y49604911D01*
X70031986Y49465449D01*
X70420508Y49311467D01*
X70792958Y49143363D01*
X71149385Y48961534D01*
X71489836Y48766378D01*
X71814360Y48558293D01*
X72123007Y48337676D01*
X72415823Y48104926D01*
X72692859Y47860440D01*
X72954162Y47604616D01*
X73199781Y47337851D01*
X73429765Y47060544D01*
X73644162Y46773091D01*
X73843020Y46475892D01*
X74026389Y46169342D01*
X74194316Y45853841D01*
X74346851Y45529785D01*
X74484041Y45197574D01*
X74605935Y44857603D01*
X74712582Y44510272D01*
X74804031Y44155977D01*
X74880329Y43795117D01*
X74941526Y43428089D01*
X74987670Y43055291D01*
X75017118Y42760625D01*
X69718957Y42760625D01*
X69660061Y43055291D01*
X69566939Y43450673D01*
X69453209Y43819294D01*
X69388642Y43993624D01*
X69318956Y44161328D01*
X69244160Y44322429D01*
X69164265Y44476948D01*
X69079283Y44624906D01*
X68989223Y44766325D01*
X68894097Y44901227D01*
X68793916Y45029633D01*
X68688689Y45151565D01*
X68578428Y45267045D01*
X68463144Y45376093D01*
X68342848Y45478732D01*
X68217549Y45574984D01*
X68087259Y45664869D01*
X67951988Y45748409D01*
X67811748Y45825627D01*
X67666549Y45896543D01*
X67516401Y45961179D01*
X67361316Y46019557D01*
X67201304Y46071698D01*
X67036376Y46117625D01*
X66866543Y46157357D01*
X66512202Y46218328D01*
X66138370Y46254784D01*
X65745130Y46266898D01*
X65264503Y46242001D01*
X64796738Y46167168D01*
X64568463Y46110958D01*
X64344341Y46042183D01*
X64124688Y45960817D01*
X63909815Y45866833D01*
X63700035Y45760204D01*
X63495662Y45640903D01*
X63297009Y45508903D01*
X63104388Y45364177D01*
X62918112Y45206699D01*
X62738495Y45036442D01*
X62565850Y44853379D01*
X62400488Y44657483D01*
X62242724Y44448728D01*
X62092870Y44227086D01*
X61951239Y43992530D01*
X61818144Y43745034D01*
X61693898Y43484572D01*
X61578815Y43211115D01*
X61473206Y42924638D01*
X61377386Y42625114D01*
X61291666Y42312515D01*
X61216360Y41986815D01*
X61151781Y41647987D01*
X61098242Y41296005D01*
X61025536Y40552468D01*
X61000744Y39755990D01*
X61007160Y39285652D01*
X61026175Y38834834D01*
X61057439Y38403235D01*
X61100601Y37990555D01*
X61155309Y37596493D01*
X61221213Y37220747D01*
X61297963Y36863016D01*
X61385208Y36523000D01*
X61482597Y36200398D01*
X61589779Y35894909D01*
X61706404Y35606232D01*
X61832120Y35334065D01*
X61966578Y35078108D01*
X62109427Y34838061D01*
X62260315Y34613622D01*
X62418893Y34404489D01*
X62584809Y34210363D01*
X62757713Y34030942D01*
X62937253Y33865926D01*
X63123081Y33715013D01*
X63314843Y33577902D01*
X63512191Y33454293D01*
X63714773Y33343885D01*
X63922238Y33246376D01*
X64134236Y33161466D01*
X64350416Y33088853D01*
X64570428Y33028237D01*
X64793920Y32979318D01*
X65020542Y32941793D01*
X65249944Y32915362D01*
X65481774Y32899724D01*
X65715682Y32894578D01*
X66093790Y32906382D01*
X66455466Y32942024D01*
X66630182Y32968892D01*
X66800839Y33001849D01*
X66967452Y33040938D01*
X67130038Y33086202D01*
X67288614Y33137685D01*
X67443194Y33195430D01*
X67593796Y33259480D01*
X67740436Y33329877D01*
X67883130Y33406666D01*
X68021893Y33489889D01*
X68156744Y33579589D01*
X68287696Y33675811D01*
X68414768Y33778596D01*
X68537974Y33887988D01*
X68657331Y34004030D01*
X68772856Y34126766D01*
X68884565Y34256238D01*
X68992473Y34392490D01*
X69096598Y34535565D01*
X69196954Y34685506D01*
X69293559Y34842356D01*
X69386429Y35006159D01*
X69561026Y35354794D01*
X69720877Y35731757D01*
X69866111Y36137392D01*
X65921914Y36137392D01*
X65921914Y40256141D01*
X74869884Y40256141D01*
X74869884Y29423586D01*
X70749090Y29423586D01*
X70248747Y32541569D01*
X69365672Y30305827D01*
X69147548Y30131297D01*
X68923126Y29971464D01*
X68691629Y29825853D01*
X68452278Y29693991D01*
X68204295Y29575403D01*
X67946903Y29469615D01*
X67679322Y29376153D01*
X67400776Y29294543D01*
X67110485Y29224309D01*
X66807673Y29164979D01*
X66491560Y29116078D01*
X66161368Y29077131D01*
X65816320Y29047665D01*
X65455638Y29027204D01*
X65078543Y29015276D01*
X64684257Y29011405D01*
X64180978Y29021910D01*
X63687612Y29053380D01*
X63204555Y29105753D01*
X62732205Y29178966D01*
X62270960Y29272955D01*
X61821218Y29387657D01*
X61383376Y29523008D01*
X60957833Y29678945D01*
X60544986Y29855405D01*
X60145233Y30052324D01*
X59758971Y30269638D01*
X59386599Y30507286D01*
X59028514Y30765202D01*
X58685113Y31043324D01*
X58356796Y31341588D01*
X58043958Y31659931D01*
X57746999Y31998289D01*
X57466316Y32356600D01*
X57202307Y32734800D01*
X56955369Y33132824D01*
X56725900Y33550611D01*
X56514298Y33988097D01*
X56320961Y34445218D01*
X56146287Y34921910D01*
X55990672Y35418111D01*
X55854516Y35933757D01*
X55738216Y36468785D01*
X55642169Y37023131D01*
X55566774Y37596732D01*
X55512427Y38189525D01*
X55479528Y38801446D01*
X55468473Y39432431D01*
X55482318Y40085191D01*
X55523369Y40717859D01*
X55590900Y41330395D01*
X55684184Y41922757D01*
X55802496Y42494903D01*
X55945109Y43046793D01*
X56111298Y43578384D01*
X56300336Y44089636D01*
X56511496Y44580507D01*
X56744054Y45050956D01*
X56997282Y45500941D01*
X57270455Y45930421D01*
X57562846Y46339354D01*
X57873730Y46727699D01*
X58202380Y47095415D01*
X58548069Y47442460D01*
X58910073Y47768792D01*
X59287665Y48074371D01*
X59680118Y48359155D01*
X60086706Y48623103D01*
X60506704Y48866173D01*
X60939386Y49088323D01*
X61384024Y49289513D01*
X61839893Y49469701D01*
X62306267Y49628845D01*
X62782420Y49766904D01*
X63267625Y49883837D01*
X63761157Y49979603D01*
X64262289Y50054159D01*
X64770296Y50107464D01*
X65284450Y50139478D01*
X65804026Y50150159D01*
X66339382Y50141175D01*
G37*
G36*
X53656394Y45619038D02*
G01*
X43674131Y45619038D01*
X43674131Y41669564D01*
X53067526Y41669564D01*
X53067526Y37550810D01*
X43674131Y37550810D01*
X43674131Y33542438D01*
X53950884Y33542438D01*
X53950884Y29423591D01*
X38377545Y29423591D01*
X38377545Y49737885D01*
X53656394Y49737885D01*
X53656394Y45619038D01*
G37*
%LPC*%
D11*
%TO.C,MX26*%
X137794881Y28574976D03*
D12*
X142874880Y28574976D03*
D11*
X147954879Y28574976D03*
%TD*%
%TO.C,MX38*%
X23494977Y28574976D03*
D12*
X28574976Y28574976D03*
D11*
X33654975Y28574976D03*
%TD*%
%TO.C,MX27*%
X156844865Y28574976D03*
D12*
X161924864Y28574976D03*
D11*
X167004863Y28574976D03*
%TD*%
%TO.C,MX10*%
X175894850Y66674943D03*
D12*
X180974849Y66674943D03*
D11*
X186054848Y66674943D03*
%TD*%
%TO.C,MX36*%
X175894849Y9524992D03*
D12*
X180974848Y9524992D03*
D11*
X186054847Y9524992D03*
%TD*%
%TO.C,MX32*%
X71119937Y9524992D03*
D12*
X76199936Y9524992D03*
D11*
X81279935Y9524992D03*
%TD*%
%TO.C,MX2*%
X23494977Y66674943D03*
D12*
X28574976Y66674943D03*
D11*
X33654975Y66674943D03*
%TD*%
%TO.C,MX28*%
X175894849Y28574976D03*
D12*
X180974848Y28574976D03*
D11*
X186054847Y28574976D03*
%TD*%
%TO.C,MX20*%
X4444993Y28574976D03*
D12*
X9524992Y28574976D03*
D11*
X14604991Y28574976D03*
%TD*%
%TO.C,MX11*%
X4444993Y47624961D03*
D12*
X9524992Y47624961D03*
D11*
X14604991Y47624961D03*
%TD*%
%TO.C,MX24*%
X99694913Y28574975D03*
D12*
X104774912Y28574975D03*
D11*
X109854911Y28574975D03*
%TD*%
%TO.C,MX34*%
X137794880Y9524992D03*
D12*
X142874879Y9524992D03*
D11*
X147954878Y9524992D03*
%TD*%
D13*
%TO.C,S2*%
X126206155Y17779992D03*
D14*
X126206154Y2539992D03*
X102393654Y2539992D03*
D13*
X102393653Y17779992D03*
%TD*%
D11*
%TO.C,MX19*%
X175894849Y47624960D03*
D12*
X180974848Y47624960D03*
D11*
X186054847Y47624960D03*
%TD*%
%TO.C,MX22*%
X61594945Y28574975D03*
D12*
X66674944Y28574975D03*
D11*
X71754943Y28574975D03*
%TD*%
%TO.C,MX23*%
X80644929Y28574975D03*
D12*
X85724928Y28574975D03*
D11*
X90804927Y28574975D03*
%TD*%
%TO.C,MX3*%
X42544960Y66674943D03*
D12*
X47624959Y66674943D03*
D11*
X52704958Y66674943D03*
%TD*%
%TO.C,MX30*%
X23494977Y9524992D03*
D12*
X28574976Y9524992D03*
D11*
X33654975Y9524992D03*
%TD*%
%TO.C,MX15*%
X80644929Y47624961D03*
D12*
X85724928Y47624961D03*
D11*
X90804927Y47624961D03*
%TD*%
%TO.C,MX1*%
X4444993Y66674943D03*
D12*
X9524992Y66674943D03*
D11*
X14604991Y66674943D03*
%TD*%
%TO.C,MX4*%
X61594944Y66674943D03*
D12*
X66674943Y66674943D03*
D11*
X71754942Y66674943D03*
%TD*%
D13*
%TO.C,S1*%
X88106187Y17779992D03*
D14*
X88106186Y2539992D03*
X64293686Y2539992D03*
D13*
X64293685Y17779992D03*
%TD*%
D11*
%TO.C,MX6*%
X99694913Y66674943D03*
D12*
X104774912Y66674943D03*
D11*
X109854911Y66674943D03*
%TD*%
%TO.C,MX5*%
X80644929Y66674943D03*
D12*
X85724928Y66674943D03*
D11*
X90804927Y66674943D03*
%TD*%
%TO.C,MX14*%
X61594945Y47624961D03*
D12*
X66674944Y47624961D03*
D11*
X71754943Y47624961D03*
%TD*%
%TO.C,MX35*%
X156844865Y9524992D03*
D12*
X161924864Y9524992D03*
D11*
X167004863Y9524992D03*
%TD*%
%TO.C,MX8*%
X137794881Y66674943D03*
D12*
X142874880Y66674943D03*
D11*
X147954879Y66674943D03*
%TD*%
%TO.C,MX7*%
X118744897Y66674943D03*
D12*
X123824896Y66674943D03*
D11*
X128904895Y66674943D03*
%TD*%
%TO.C,MX16*%
X99694912Y47624960D03*
D12*
X104774911Y47624960D03*
D11*
X109854910Y47624960D03*
%TD*%
%TO.C,MX12*%
X23494977Y47624960D03*
D12*
X28574976Y47624960D03*
D11*
X33654975Y47624960D03*
%TD*%
%TO.C,MX9*%
X156844865Y66674943D03*
D12*
X161924864Y66674943D03*
D11*
X167004863Y66674943D03*
%TD*%
%TO.C,MX21*%
X42544961Y28574976D03*
D12*
X47624960Y28574976D03*
D11*
X52704959Y28574976D03*
%TD*%
%TO.C,MX29*%
X4444993Y9524992D03*
D12*
X9524992Y9524992D03*
D11*
X14604991Y9524992D03*
%TD*%
%TO.C,MX33*%
X109219905Y9524992D03*
D12*
X114299904Y9524992D03*
D11*
X119379903Y9524992D03*
%TD*%
%TO.C,MX31*%
X42544961Y9524992D03*
D12*
X47624960Y9524992D03*
D11*
X52704959Y9524992D03*
%TD*%
%TO.C,MX17*%
X118744897Y47624960D03*
D12*
X123824896Y47624960D03*
D11*
X128904895Y47624960D03*
%TD*%
%TO.C,MX13*%
X42544961Y47624960D03*
D12*
X47624960Y47624960D03*
D11*
X52704959Y47624960D03*
%TD*%
%TO.C,MX25*%
X118744897Y28574976D03*
D12*
X123824896Y28574976D03*
D11*
X128904895Y28574976D03*
%TD*%
%TO.C,MX37*%
X156844865Y47624960D03*
D12*
X161924864Y47624960D03*
D11*
X167004863Y47624960D03*
%TD*%
%TO.C,MX18*%
X137794881Y47624960D03*
D12*
X142874880Y47624960D03*
D11*
X147954879Y47624960D03*
%TD*%
D15*
%TO.C,J2*%
X1785936Y33649975D03*
D16*
X1785936Y31109975D03*
X1785936Y28569976D03*
X1785936Y26029975D03*
X1785936Y23489975D03*
%TD*%
%LPD*%
M02*
