<?xml version="1.0" encoding="UTF-8" standalone="no"?><!DOCTYPE svg PUBLIC "-//W3C//DTD SVG 1.1//EN" "http://www.w3.org/Graphics/SVG/1.1/DTD/svg11.dtd"><svg width="100%" height="100%" viewBox="0 0 2250 900" version="1.1" xmlns="http://www.w3.org/2000/svg" xmlns:xlink="http://www.w3.org/1999/xlink" xml:space="preserve" xmlns:serif="http://www.serif.com/" style="fill-rule:evenodd;clip-rule:evenodd;stroke-linejoin:round;stroke-miterlimit:2;"><g><g><path d="M680.233,475.72l-110.975,0l0,-43.285l101.436,0l-0,-44.477l-101.436,-0l0,-42.649l107.795,-0l0,-44.478l-164.991,0l-0,219.367l168.171,-0l0,-44.478Z" style="fill-rule:nonzero;"/><path d="M809.504,403.221l0,44.477l42.592,0c-7.946,24.194 -22.567,35.018 -44.819,35.018c-27.049,-0 -50.915,-18.782 -50.915,-74.094c-0,-47.4 23.23,-70.309 51.233,-70.309c23.205,-0 37.508,11.136 42.276,34.681l0.636,3.182l57.213,-0l-0.318,-3.182c-4.45,-43.258 -36.553,-76.615 -99.171,-76.615c-60.132,0 -111.61,39.393 -111.61,115.737c0,73.776 40.992,112.533 99.518,112.533c23.218,0 38.157,-3.494 50.553,-13.978l9.536,-24.143l5.403,33.67l44.499,-0l0,-116.977l-96.626,-0Z" style="fill-rule:nonzero;"/><path d="M1070.33,463.279l18.439,56.919l62.312,-0l-79.162,-219.367l-69.944,0l-79.163,219.367l60.724,-0l18.439,-56.919l68.355,0Zm-34.019,-111.929l20.348,67.452l-40.695,-0l20.347,-67.452Z" style="fill-rule:nonzero;"/><path d="M1254,296.379c-59.455,0 -108.391,39.393 -108.391,115.726c-0,74.423 47.347,112.544 106.165,112.544c55.011,0 95.394,-27.002 100.8,-79.783l0.318,-3.181l-57.237,-0l-0.636,3.181c-4.769,24.173 -19.078,37.85 -41.337,37.85c-25.438,-0 -48.333,-18.766 -48.333,-74.11c0,-47.392 20.669,-70.293 48.015,-70.293c23.213,-0 37.522,11.132 42.291,34.669l0.636,3.181l57.237,0l-0.318,-3.181c-4.452,-43.246 -36.568,-76.603 -99.21,-76.603Z" style="fill-rule:nonzero;"/><path d="M1491.98,296.379c-68.375,0 -112.227,43.524 -112.227,114.135c0,70.293 43.852,114.135 112.227,114.135c68.376,0 112.228,-43.842 112.228,-114.135c-0,-70.611 -43.852,-114.135 -112.228,-114.135Zm0,186.337c-33.082,-0 -53.758,-25.764 -53.758,-72.202c0,-46.756 20.676,-72.201 53.758,-72.201c33.082,-0 53.759,25.445 53.759,72.201c0,46.438 -20.677,72.202 -53.759,72.202Z" style="fill-rule:nonzero;"/><path d="M1799.88,466.777c-3.178,-26.392 -11.44,-43.233 -34.319,-51.492c29.235,-8.577 44.17,-27.015 44.17,-54.701c0,-38.785 -27.646,-54.352 -59.423,-58.164c-11.772,-1.271 -20.681,-1.589 -34.362,-1.589l-87.106,0l0,219.367l57.197,-0l-0,-83.311l12.727,-0c6.364,-0 11.773,-0 18.136,0.318c14.636,0.954 24.182,14.945 27.045,39.111c1.909,15.581 5.091,28.301 10.176,43.882l62.288,-0c-8.585,-13.038 -13.669,-28.619 -16.529,-53.421Zm-113.843,-71.188l-0,-50.28l22.272,-0c6.046,-0 11.137,-0 15.273,0.318c14.636,1.273 26.409,6.364 26.409,24.822c-0,18.457 -13.364,23.549 -28,24.822c-4.136,0.318 -9.227,0.318 -15.273,0.318l-20.681,0Z" style="fill-rule:nonzero;"/><path d="M1959.14,302.42c-11.773,-1.271 -20.682,-1.589 -34.364,-1.589l-82.652,0l-0,219.367l57.196,-0l0,-76.952l25.456,0c13.682,0 22.591,-0.317 34.364,-1.588c31.778,-3.812 60.695,-26.369 60.695,-69.619c-0,-43.251 -28.917,-65.807 -60.695,-69.619Zm-22.273,96.031c-4.137,0.318 -9.228,0.318 -15.273,0.318l-22.274,-0l0,-53.46l22.274,-0c6.045,-0 11.136,-0 15.273,0.318c14.636,1.272 23.227,9.864 23.227,26.412c0,16.547 -8.591,25.139 -23.227,26.412Z" style="fill-rule:nonzero;"/></g><g><path d="M1240.69,550.443c-6.514,0 -12.009,3.78 -12.009,9.938c-0,6.058 4.386,8.532 10.999,10.097c5.656,1.313 7.777,3.181 7.777,6.816c-0,3.18 -2.879,5.149 -6.514,5.149c-4.091,0 -7.119,-2.272 -8.027,-6.563l-5.749,0c0.706,7.017 5.799,10.796 13.776,10.796c6.766,0 12.362,-3.83 12.362,-10.14c0,-5.805 -3.63,-9.087 -11.302,-10.854c-5.403,-1.262 -7.474,-2.827 -7.474,-6.209c0,-3.282 2.576,-4.796 5.858,-4.796c4.04,-0 6.363,2.372 6.767,6.361l5.748,-0c-0.706,-6.059 -4.487,-10.595 -12.212,-10.595Z" style="fill-rule:nonzero;"/><path d="M1272.85,558.468c-2.726,0 -5.504,0.756 -7.018,2.016l-2.02,2.88l-0,-4.189l-5.546,-0l0,36.688l5.546,-0l-0,-13.521l1.767,2.671c1.363,1.059 4.141,1.663 6.362,1.663c6.918,0 12.969,-4.738 12.969,-14.58c-0,-7.829 -4.387,-13.628 -12.06,-13.628Zm-1.565,24.177c-3.535,-0 -7.473,-2.424 -7.473,-8.987l-0,-1.363c-0,-7.17 3.585,-9.795 7.725,-9.795c4.848,-0 7.524,4.291 7.524,10.098c-0,6.664 -3.333,10.047 -7.776,10.047Z" style="fill-rule:nonzero;"/><path d="M1312.92,571.891c0,-7.573 -4.185,-13.423 -11.959,-13.423c-7.725,0 -13.12,5.699 -13.12,14.179c0,9.493 5.395,14.029 12.565,14.029c5.857,0 10.951,-3.023 12.111,-9.385l-5.597,-0c-0.556,3.384 -3.08,5.354 -6.312,5.354c-3.636,-0 -6.565,-2.121 -7.019,-8.536l19.23,-0c0.101,-0.958 0.101,-1.714 0.101,-2.218Zm-12.161,-9.391c3.889,-0 6.06,2.778 6.464,7.729l-13.584,-0c0.606,-5.153 3.333,-7.729 7.12,-7.729Z" style="fill-rule:nonzero;"/><path d="M1329.17,558.468c-7.015,0 -12.965,5.092 -12.965,14.231c0,9.542 5.294,13.977 12.309,13.977c6.309,0 10.953,-3.174 12.215,-9.585l-5.653,0c-0.808,3.635 -3.079,5.554 -6.259,5.554c-3.735,-0 -6.763,-3.08 -6.763,-10.35c-0,-6.715 3.079,-9.795 6.965,-9.795c3.281,-0 5.451,1.868 6.259,5.957l5.602,0c-0.656,-5.907 -4.946,-9.989 -11.71,-9.989Z" style="fill-rule:nonzero;"/><path d="M1348.45,549.837c-1.865,0 -3.227,1.362 -3.227,3.177c0,1.866 1.362,3.227 3.227,3.227c1.866,0 3.278,-1.361 3.278,-3.227c-0,-1.815 -1.412,-3.177 -3.278,-3.177Zm2.773,36.133l0,-26.795l-5.546,-0l0,26.795l5.546,-0Z" style="fill-rule:nonzero;"/><path d="M1373.8,585.97l5.496,-0c-0.404,-2.972 -0.505,-4.79 -0.505,-6.81l0,-9.436c0,-1.263 -0.05,-2.678 -0.151,-3.789c-0.454,-4.544 -3.176,-7.467 -10.091,-7.467c-6.111,0 -10.497,3.326 -10.85,9.185l5.547,-0c0.303,-3.335 1.97,-5.153 5.202,-5.153c3.181,-0 4.545,1.515 4.697,3.688c0.101,1.01 0.101,1.919 0.101,2.93l-0,0.656l-1.718,0c-10.149,0 -14.888,3.225 -14.888,9.184c-0,4.997 3.882,7.718 8.626,7.718c2.525,0 4.848,-0.453 6.666,-1.713l1.364,-2.874l0.504,3.881Zm-6.514,-3.325c-2.929,-0 -4.797,-1.313 -4.797,-4.142c-0,-4.091 4.242,-5.554 10.757,-5.05l-0,2.474c-0,4.344 -2.475,6.718 -5.96,6.718Z" style="fill-rule:nonzero;"/><path d="M1391.2,548.878l-5.546,0l-0,29.068c-0,1.62 -0,2.831 0.05,3.841c0.202,3.427 2.168,4.486 5.092,4.486c1.262,-0 2.524,-0.101 3.634,-0.252l-0,-3.881c-2.372,0.202 -3.079,-0.303 -3.18,-1.817c-0.05,-0.807 -0.05,-1.615 -0.05,-2.523l-0,-28.922Z" style="fill-rule:nonzero;"/><path d="M1401.86,549.837c-1.866,0 -3.227,1.362 -3.227,3.177c-0,1.866 1.361,3.227 3.227,3.227c1.865,0 3.277,-1.361 3.277,-3.227c0,-1.815 -1.412,-3.177 -3.277,-3.177Zm2.773,36.133l-0,-26.795l-5.546,-0l-0,26.795l5.546,-0Z" style="fill-rule:nonzero;"/><path d="M1430.92,581.989l-15.188,-0l14.986,-18.631l0,-3.981l-20.234,-0l0,3.981l14.078,-0l-15.087,18.782l0,3.83l21.445,-0l-0,-3.981Z" style="fill-rule:nonzero;"/><path d="M1458.38,571.891c0,-7.573 -4.184,-13.423 -11.958,-13.423c-7.726,0 -13.12,5.699 -13.12,14.179c-0,9.493 5.394,14.029 12.564,14.029c5.858,0 10.951,-3.023 12.111,-9.385l-5.597,-0c-0.555,3.384 -3.08,5.354 -6.312,5.354c-3.636,-0 -6.564,-2.121 -7.019,-8.536l19.23,-0c0.101,-0.958 0.101,-1.714 0.101,-2.218Zm-12.16,-9.391c3.888,-0 6.059,2.778 6.463,7.729l-13.583,-0c0.606,-5.153 3.332,-7.729 7.12,-7.729Z" style="fill-rule:nonzero;"/><path d="M1488.31,548.878l-5.546,0l0,13.925l-1.767,-2.672c-1.364,-1.058 -4.141,-1.663 -6.362,-1.663c-6.918,0 -12.969,4.739 -12.969,14.533c0,7.877 4.387,13.675 12.06,13.675c2.726,0 5.503,-0.806 7.018,-2.015l2.02,-2.931l0,4.24l5.546,-0l-0,-37.092Zm-13.322,33.767c-4.797,-0 -7.473,-4.292 -7.473,-10.098c-0,-6.664 3.332,-10.047 7.725,-10.047c3.586,-0 7.524,2.423 7.524,8.936l0,1.414c0,7.169 -3.585,9.795 -7.776,9.795Z" style="fill-rule:nonzero;"/><rect x="1507.15" y="551.15" width="5.546" height="34.82" style="fill-rule:nonzero;"/><path d="M1543.48,566.134c-0.504,-4.692 -3.781,-7.666 -9.535,-7.666c-2.677,0 -4.646,0.454 -6.767,2.067l-1.818,3.075l-0,-4.436l-5.546,-0l0,26.796l5.546,-0l-0,-12.013c-0,-8.378 3.131,-11.407 6.969,-11.407c3.787,0 5.403,2.12 5.656,5.149c0.1,1.362 0.1,2.523 0.1,3.785l0,14.486l5.546,-0l0,-15.092c0,-2.17 -0.05,-3.381 -0.151,-4.744Z" style="fill-rule:nonzero;"/><path d="M1564.99,558.468c-2.727,0 -5.504,0.756 -7.019,2.016l-2.019,2.88l-0,-4.189l-5.546,-0l-0,36.688l5.546,-0l-0,-13.521l1.767,2.671c1.363,1.059 4.14,1.663 6.362,1.663c6.918,0 12.968,-4.738 12.968,-14.58c0,-7.829 -4.386,-13.628 -12.059,-13.628Zm-1.565,24.177c-3.535,-0 -7.473,-2.424 -7.473,-8.987l-0,-1.363c-0,-7.17 3.585,-9.795 7.725,-9.795c4.848,-0 7.524,4.291 7.524,10.098c-0,6.664 -3.333,10.047 -7.776,10.047Z" style="fill-rule:nonzero;"/><path d="M1605.36,559.175l-5.496,-0l0,12.618c0,7.773 -2.928,10.751 -6.817,10.751c-3.434,-0 -5.353,-1.918 -5.757,-4.845c-0.151,-1.363 -0.202,-2.827 -0.202,-3.685l0,-14.839l-5.495,-0l0,15.949c0,2.171 0.051,3.382 0.252,4.745c0.605,3.683 3.832,6.807 9.384,6.807c2.677,0 4.646,-0.453 6.767,-1.965l1.868,-3.328l0,4.587l5.496,-0l-0,-26.795Z" style="fill-rule:nonzero;"/><path d="M1619.09,563.257l5.25,-0l-0,-3.88l-5.25,-0l0,-6.41l-5.495,-0l0,6.41l-3.785,-0l-0,3.88l3.785,-0l0,14.541c0,1.515 0,2.676 0.051,3.585c0.252,3.529 2.067,5.092 6.252,5.092c1.363,-0 2.675,-0.101 4.088,-0.303l0,-3.83c-3.634,0.353 -4.643,-0.202 -4.845,-2.827c-0.051,-0.707 -0.051,-1.313 -0.051,-2.222l0,-14.036Z" style="fill-rule:nonzero;"/><path d="M1656.8,551.351c-1.767,-0.201 -2.575,-0.201 -4.443,-0.201l-11.251,-0l-0,34.82l11.049,-0c1.868,-0 2.676,-0 4.443,-0.202c8.079,-1.008 14.23,-7.212 14.23,-17.612c0,-10.552 -5.949,-15.847 -14.028,-16.805Zm-1.161,29.982c-1.111,0.202 -2.272,0.202 -3.989,0.202l-4.998,-0l-0,-26l5.2,-0c1.666,-0 2.878,0.05 3.989,0.252c5.554,0.808 9.038,5.049 9.038,12.369c-0,7.724 -3.636,12.369 -9.24,13.177Z" style="fill-rule:nonzero;"/><path d="M1699.14,571.891c-0,-7.573 -4.185,-13.423 -11.959,-13.423c-7.725,0 -13.12,5.699 -13.12,14.179c-0,9.493 5.395,14.029 12.564,14.029c5.858,0 10.952,-3.023 12.111,-9.385l-5.597,-0c-0.555,3.384 -3.08,5.354 -6.312,5.354c-3.635,-0 -6.564,-2.121 -7.018,-8.536l19.23,-0c0.101,-0.958 0.101,-1.714 0.101,-2.218Zm-12.161,-9.391c3.888,-0 6.059,2.778 6.463,7.729l-13.583,-0c0.606,-5.153 3.333,-7.729 7.12,-7.729Z" style="fill-rule:nonzero;"/><path d="M1727.96,559.175l-5.904,-0l-7.418,22.713l-7.519,-22.713l-6.106,-0l10.244,26.795l6.459,-0l10.244,-26.795Z" style="fill-rule:nonzero;"/><path d="M1734.37,549.837c-1.866,0 -3.227,1.362 -3.227,3.177c-0,1.866 1.361,3.227 3.227,3.227c1.866,0 3.278,-1.361 3.278,-3.227c-0,-1.815 -1.412,-3.177 -3.278,-3.177Zm2.773,36.133l-0,-26.795l-5.546,-0l0,26.795l5.546,-0Z" style="fill-rule:nonzero;"/><path d="M1755.21,558.468c-7.016,0 -12.965,5.092 -12.965,14.231c-0,9.542 5.294,13.977 12.309,13.977c6.309,0 10.953,-3.174 12.214,-9.585l-5.653,0c-0.807,3.635 -3.078,5.554 -6.258,5.554c-3.735,-0 -6.764,-3.08 -6.764,-10.35c0,-6.715 3.079,-9.795 6.966,-9.795c3.28,-0 5.451,1.868 6.258,5.957l5.603,0c-0.656,-5.907 -4.946,-9.989 -11.71,-9.989Z" style="fill-rule:nonzero;"/><path d="M1794.79,571.891c-0,-7.573 -4.185,-13.423 -11.959,-13.423c-7.725,0 -13.12,5.699 -13.12,14.179c0,9.493 5.395,14.029 12.565,14.029c5.857,0 10.951,-3.023 12.111,-9.385l-5.597,-0c-0.556,3.384 -3.081,5.354 -6.312,5.354c-3.636,-0 -6.565,-2.121 -7.019,-8.536l19.23,-0c0.101,-0.958 0.101,-1.714 0.101,-2.218Zm-12.161,-9.391c3.888,-0 6.06,2.778 6.464,7.729l-13.584,-0c0.606,-5.153 3.333,-7.729 7.12,-7.729Z" style="fill-rule:nonzero;"/><path d="M1808.72,558.468c-5.956,0 -9.891,3.024 -9.891,8.021c-0,4.695 3.633,6.765 8.527,8.027c4.546,1.212 6.363,2.474 6.363,4.797c0,2.322 -2.07,3.433 -4.646,3.433c-2.778,-0 -5.05,-1.363 -5.705,-4.797l-5.598,0c0.756,6.057 5.145,8.727 11.101,8.727c5.856,0 10.445,-2.57 10.445,-7.767c-0,-4.746 -3.076,-7.069 -8.93,-8.583c-3.99,-1.061 -5.96,-2.07 -5.96,-4.494c0,-2.019 1.263,-3.484 3.89,-3.484c2.727,0 4.394,1.667 4.949,4.494l5.648,0c-0.604,-4.897 -4.034,-8.374 -10.193,-8.374Z" style="fill-rule:nonzero;"/><path d="M1851.52,551.351c-1.767,-0.201 -2.575,-0.201 -4.443,-0.201l-11.251,-0l-0,34.82l11.049,-0c1.868,-0 2.676,-0 4.443,-0.202c8.079,-1.008 14.23,-7.212 14.23,-17.612c0,-10.552 -5.949,-15.847 -14.028,-16.805Zm-1.161,29.982c-1.111,0.202 -2.272,0.202 -3.989,0.202l-4.998,-0l-0,-26l5.2,-0c1.666,-0 2.878,0.05 3.989,0.252c5.554,0.808 9.038,5.049 9.038,12.369c-0,7.724 -3.636,12.369 -9.24,13.177Z" style="fill-rule:nonzero;"/><path d="M1873.58,549.837c-1.866,0 -3.228,1.362 -3.228,3.177c0,1.866 1.362,3.227 3.228,3.227c1.865,0 3.277,-1.361 3.277,-3.227c0,-1.815 -1.412,-3.177 -3.277,-3.177Zm2.772,36.133l0,-26.795l-5.545,-0l-0,26.795l5.545,-0Z" style="fill-rule:nonzero;"/><path d="M1906.99,559.175l-5.903,-0l-7.418,22.713l-7.519,-22.713l-6.106,-0l10.244,26.795l6.459,-0l10.243,-26.795Z" style="fill-rule:nonzero;"/><path d="M1913.4,549.837c-1.866,0 -3.227,1.362 -3.227,3.177c-0,1.866 1.361,3.227 3.227,3.227c1.865,0 3.277,-1.361 3.277,-3.227c0,-1.815 -1.412,-3.177 -3.277,-3.177Zm2.773,36.133l-0,-26.795l-5.546,-0l-0,26.795l5.546,-0Z" style="fill-rule:nonzero;"/><path d="M1931.92,558.468c-5.955,0 -9.89,3.024 -9.89,8.021c-0,4.695 3.632,6.765 8.526,8.027c4.546,1.212 6.364,2.474 6.364,4.797c-0,2.322 -2.07,3.433 -4.646,3.433c-2.778,-0 -5.05,-1.363 -5.705,-4.797l-5.598,0c0.756,6.057 5.145,8.727 11.101,8.727c5.856,0 10.445,-2.57 10.445,-7.767c-0,-4.746 -3.076,-7.069 -8.93,-8.583c-3.99,-1.061 -5.96,-2.07 -5.96,-4.494c-0,-2.019 1.263,-3.484 3.889,-3.484c2.728,0 4.394,1.667 4.95,4.494l5.648,0c-0.605,-4.897 -4.035,-8.374 -10.194,-8.374Z" style="fill-rule:nonzero;"/><path d="M1950.09,549.837c-1.866,0 -3.228,1.362 -3.228,3.177c0,1.866 1.362,3.227 3.228,3.227c1.865,0 3.277,-1.361 3.277,-3.227c0,-1.815 -1.412,-3.177 -3.277,-3.177Zm2.772,36.133l0,-26.795l-5.545,-0l-0,26.795l5.545,-0Z" style="fill-rule:nonzero;"/><path d="M1971.55,558.468c-9.037,0 -13.574,6.253 -13.574,14.079c-0,7.826 4.537,14.129 13.574,14.129c8.986,0 13.574,-6.303 13.574,-14.129c-0,-7.826 -4.588,-14.079 -13.574,-14.079Zm-0,24.177c-4.898,-0 -7.726,-4.039 -7.726,-10.098c0,-6.059 2.828,-10.047 7.726,-10.047c4.847,-0 7.675,3.988 7.675,10.047c-0,6.059 -2.828,10.098 -7.675,10.098Z" style="fill-rule:nonzero;"/><path d="M2013.69,566.134c-0.504,-4.692 -3.782,-7.666 -9.536,-7.666c-2.676,0 -4.645,0.454 -6.766,2.067l-1.818,3.075l-0,-4.436l-5.546,-0l-0,26.796l5.546,-0l-0,-12.013c-0,-8.378 3.131,-11.407 6.968,-11.407c3.788,0 5.404,2.12 5.656,5.149c0.101,1.362 0.101,2.523 0.101,3.785l0,14.486l5.546,-0l-0,-15.092c-0,-2.17 -0.05,-3.381 -0.151,-4.744Z" style="fill-rule:nonzero;"/></g></g><g><path d="M390.966,497.464l-70.84,0l6.038,22.734l58.843,-0l5.959,-22.734Z"/><rect x="423.812" y="497.464" width="57.197" height="22.733"/><rect x="230.162" y="497.464" width="57.197" height="22.733"/><rect x="230.162" y="469.523" width="57.197" height="18.567"/><path d="M393.424,488.089l-75.788,0l-4.931,-18.566l85.586,-0l-4.867,18.566Z"/><rect x="423.812" y="469.523" width="57.197" height="18.567"/><rect x="423.812" y="441.581" width="57.197" height="19.608"/><rect x="230.162" y="441.581" width="57.197" height="19.608"/><path d="M355.926,461.189l-45.435,0l-5.208,-19.608l46.187,-0l4.456,19.608Z"/><path d="M400.476,461.189l-43.004,0l4.456,-19.608l43.688,-0l-5.14,19.608Z"/><path d="M481.009,434.289c-0,0 -57.197,0 -57.197,0l0.009,-20.65l57.188,0l-0,20.65Z"/><path d="M287.35,413.639l0.009,20.65l-57.197,0l0,-20.65l57.188,0Z"/><path d="M298.04,413.639c1.24,5.144 2.469,9.985 3.632,14.344l1.675,6.306l46.465,0l-4.692,-20.65l-47.08,0Z"/><path d="M412.786,413.639l-44.509,0l-4.692,20.65l43.942,0l1.653,-6.306c1.154,-4.395 2.372,-9.231 3.606,-14.344Z"/><path d="M481.009,407.389c-0,0 -57.168,0 -57.168,0l0.05,-13.032l0.089,-8.659l57.029,-0l-0,21.691Z"/><path d="M287.279,394.362l0.051,13.027l-57.168,0l0,-21.691l57.029,-0l0.088,8.664Z"/><path d="M291.768,385.698l1.833,8.659c0.676,3.026 1.351,6.052 2.027,9.077l0.928,3.955l47.143,0l-4.929,-21.691l-47.002,-0Z"/><path d="M417.291,394.238l1.85,-8.54l-44.514,-0l-4.929,21.691l44.577,0l0.966,-4.094c0.684,-3.019 1.367,-6.038 2.05,-9.057Z"/><path d="M481.009,380.489l-0,-22.733l-100.032,0l-5.166,22.733l44.409,0c1.589,-7.649 3.033,-15.176 4.227,-22.143c-0.198,6.947 -0.334,14.482 -0.414,22.143l56.976,0Z"/><path d="M287.137,380.489c-0.079,-7.661 -0.216,-15.196 -0.414,-22.143c1.092,6.949 2.463,14.487 4.002,22.143l46.861,0l-5.166,-22.733l-102.258,0l0,22.733l56.975,0Z"/><path d="M481.009,329.814l-0,23.775c-0,0 -99.085,0 -99.085,0l5.403,-23.775l93.682,0Z"/><path d="M326.071,329.814l5.402,23.775l-101.311,0l0,-23.775l95.909,0Z"/><path d="M481.009,326.689l-0,-25.858l-87.096,0l-5.876,25.858l92.972,0Z"/><path d="M325.36,326.689l-5.876,-25.858l-89.322,0l0,25.858l95.198,0Z"/></g></svg>